<svg width="26" height="20" viewBox="0 0 26 20" fill="none" xmlns="http://www.w3.org/2000/svg">
<path d="M7.73682 8.94727C7.25553 8.94804 6.78913 9.11422 6.41578 9.41795C6.0458 9.11547 5.58313 8.9493 5.10525 8.94727C4.54691 8.94727 4.01143 9.16907 3.61661 9.56388C3.2218 9.95869 3 10.4942 3 11.0525C3 11.6109 3.2218 12.1463 3.61661 12.5412C4.01143 12.936 4.54691 13.1578 5.10525 13.1578C5.58313 13.1557 6.0458 12.9896 6.41578 12.6871C6.67757 12.8987 6.98634 13.0445 7.31613 13.112C7.64593 13.1796 7.98712 13.167 8.31105 13.0754C8.63498 12.9837 8.93219 12.8157 9.17772 12.5854C9.42324 12.3551 9.6099 12.0692 9.72203 11.7517C9.83415 11.4343 9.86847 11.0946 9.82208 10.7612C9.7757 10.4278 9.64998 10.1103 9.45548 9.83556C9.26098 9.56079 9.00338 9.3367 8.70432 9.18213C8.40526 9.02756 8.07347 8.94702 7.73682 8.94727ZM5.10525 12.1051C4.89706 12.1051 4.69355 12.0434 4.52045 11.9277C4.34734 11.8121 4.21242 11.6477 4.13275 11.4553C4.05308 11.263 4.03224 11.0514 4.07285 10.8472C4.11347 10.643 4.21372 10.4554 4.36093 10.3082C4.50815 10.161 4.69571 10.0607 4.8999 10.0201C5.10409 9.9795 5.31574 10.0003 5.50808 10.08C5.70042 10.1597 5.86482 10.2946 5.98048 10.4677C6.09615 10.6408 6.15788 10.8443 6.15788 11.0525C6.15756 11.3316 6.04656 11.5992 5.84922 11.7965C5.65188 11.9938 5.38433 12.1048 5.10525 12.1051ZM7.73682 12.1051C7.48493 12.1061 7.24133 12.0152 7.05162 11.8495C7.15651 11.5969 7.21051 11.3261 7.21051 11.0525C7.21051 10.779 7.15651 10.5082 7.05162 10.2556C7.24133 10.0899 7.48492 9.99899 7.73682 9.99989C8.016 9.99989 8.28374 10.1108 8.48114 10.3082C8.67855 10.5056 8.78945 10.7733 8.78945 11.0525C8.78945 11.3317 8.67855 11.5994 8.48114 11.7968C8.28374 11.9942 8.016 12.1051 7.73682 12.1051Z" fill="#EA0A2A"/>
<path d="M24.7603 10.002L22.9997 9.35449V1.57894C22.9992 1.16032 22.8327 0.758978 22.5367 0.462969C22.2407 0.16696 21.8394 0.000459724 21.4208 0H2.47347C2.05485 0.000459724 1.65351 0.16696 1.3575 0.462969C1.06149 0.758978 0.894991 1.16032 0.894531 1.57894V14.2105C0.894991 14.6291 1.06149 15.0304 1.3575 15.3264C1.65351 15.6225 2.05485 15.7889 2.47347 15.7894H15.7555C16.373 18.3635 19.2366 19.6193 20.1885 19.9681C20.2465 19.9891 20.3077 19.9998 20.3694 19.9999C20.4306 19.9999 20.4913 19.9893 20.5488 19.9683C21.6176 19.5805 25.105 18.0607 25.105 14.782V10.496C25.105 10.3883 25.0719 10.2831 25.0103 10.1948C24.9487 10.1065 24.8614 10.0392 24.7603 10.002ZM21.9471 6.31576H1.94716V3.6842H21.9471V6.31576ZM1.94716 1.57894C1.9473 1.4394 2.00279 1.30561 2.10147 1.20693C2.20014 1.10826 2.33393 1.05277 2.47347 1.05263H21.4208C21.5603 1.05277 21.6941 1.10826 21.7928 1.20693C21.8914 1.30561 21.9469 1.4394 21.9471 1.57894V2.63157H1.94716V1.57894ZM1.94716 14.2105V7.36839H21.9471V8.96733L20.5498 8.45344C20.4326 8.41032 20.3039 8.41032 20.1867 8.45344L15.9762 10.0021C15.875 10.0392 15.7878 10.1065 15.7261 10.1948C15.6644 10.2831 15.6313 10.3882 15.6313 10.496V14.7368H2.47347C2.33393 14.7366 2.20014 14.6811 2.10147 14.5825C2.00279 14.4838 1.9473 14.35 1.94716 14.2105ZM24.0523 14.782C24.0523 17.2234 21.4339 18.4955 20.3702 18.9108C19.3057 18.4919 16.6839 17.2111 16.6839 14.782V10.8631L20.3681 9.50828L24.0523 10.8631V14.782Z" fill="#EA0A2A"/>
<path d="M19.6869 13.3123C19.5876 13.2164 19.4547 13.1634 19.3167 13.1646C19.1787 13.1658 19.0467 13.2211 18.9491 13.3187C18.8515 13.4163 18.7961 13.5483 18.7949 13.6863C18.7937 13.8243 18.8468 13.9573 18.9427 14.0565L19.9953 15.1091C20.0441 15.1581 20.1021 15.1968 20.166 15.2233C20.2298 15.2498 20.2983 15.2634 20.3674 15.2634C20.3797 15.2634 20.3923 15.2628 20.4047 15.2618C20.4799 15.2566 20.5531 15.2352 20.6193 15.1991C20.6855 15.1631 20.7432 15.1132 20.7884 15.0528L22.3674 12.9476C22.4089 12.8923 22.439 12.8294 22.4562 12.7624C22.4733 12.6954 22.4771 12.6258 22.4674 12.5574C22.4576 12.4889 22.4344 12.4231 22.3992 12.3636C22.364 12.3042 22.3174 12.2522 22.2621 12.2107C22.2068 12.1693 22.1439 12.1391 22.077 12.1219C22.01 12.1048 21.9403 12.101 21.8719 12.1108C21.8035 12.1205 21.7377 12.1437 21.6782 12.1789C21.6187 12.2141 21.5668 12.2607 21.5253 12.316L20.3102 13.9355L19.6869 13.3123Z" fill="#EA0A2A"/>
</svg>
