<svg width="20" height="20" viewBox="0 0 20 20" fill="none" xmlns="http://www.w3.org/2000/svg">
<path d="M4.70979 2.74342L4.81253 3.10769H5.19101H15.5994C16.304 3.10769 16.9459 3.38465 17.4167 3.88173C17.8815 4.38949 18.1146 5.04404 18.0592 5.7432L18.059 5.74678L17.609 11.9968L17.6089 11.9968L17.6086 12.0027C17.5331 13.2589 16.423 14.291 15.1577 14.291H6.28268C5.59862 14.291 4.94029 14.0004 4.47604 13.4946C4.0113 12.9882 3.77582 12.3087 3.83101 11.6236C3.83102 11.6234 3.83104 11.6232 3.83106 11.6229L4.52238 3.32715C4.56085 2.91816 4.41365 2.53221 4.15192 2.24555C3.87656 1.94397 3.49794 1.79102 3.10768 1.79102H1.66602C1.63587 1.79102 1.60459 1.77873 1.57894 1.75309C1.5533 1.72744 1.54102 1.69616 1.54102 1.66602C1.54102 1.63587 1.5533 1.60459 1.57894 1.57894C1.60459 1.5533 1.63587 1.54102 1.66602 1.54102H3.11602C3.58083 1.54102 4.02268 1.73797 4.33828 2.078C4.51432 2.2743 4.64059 2.4981 4.70979 2.74342ZM4.73268 3.82864L4.08453 11.6397C4.08451 11.64 4.08448 11.6403 4.08446 11.6405C4.03088 12.2647 4.23746 12.8593 4.65399 13.3186C5.07739 13.7854 5.66376 14.0327 6.28268 14.0327H15.1577C16.2892 14.0327 17.2864 13.0947 17.3729 11.971L17.3731 11.9686L17.8231 5.7186L17.8232 5.71651C17.8652 5.09707 17.6661 4.4909 17.2388 4.04036C16.8157 3.58588 16.2319 3.341 15.6077 3.341H5.23268H4.73268V3.82864Z" fill="white" stroke="white"/>
<path d="M13.5417 18.9583C12.625 18.9583 11.875 18.2083 11.875 17.2917C11.875 16.375 12.625 15.625 13.5417 15.625C14.4583 15.625 15.2083 16.375 15.2083 17.2917C15.2083 18.2083 14.4583 18.9583 13.5417 18.9583ZM13.5417 16.875C13.3083 16.875 13.125 17.0583 13.125 17.2917C13.125 17.525 13.3083 17.7083 13.5417 17.7083C13.775 17.7083 13.9583 17.525 13.9583 17.2917C13.9583 17.0583 13.775 16.875 13.5417 16.875Z" fill="white"/>
<path d="M6.87565 18.9583C5.95898 18.9583 5.20898 18.2083 5.20898 17.2917C5.20898 16.375 5.95898 15.625 6.87565 15.625C7.79232 15.625 8.54232 16.375 8.54232 17.2917C8.54232 18.2083 7.79232 18.9583 6.87565 18.9583ZM6.87565 16.875C6.64232 16.875 6.45898 17.0583 6.45898 17.2917C6.45898 17.525 6.64232 17.7083 6.87565 17.7083C7.10898 17.7083 7.29232 17.525 7.29232 17.2917C7.29232 17.0583 7.10898 16.875 6.87565 16.875Z" fill="white"/>
<path d="M17.5 7.29102H7.5C7.15833 7.29102 6.875 7.00768 6.875 6.66602C6.875 6.32435 7.15833 6.04102 7.5 6.04102H17.5C17.8417 6.04102 18.125 6.32435 18.125 6.66602C18.125 7.00768 17.8417 7.29102 17.5 7.29102Z" fill="white"/>
</svg>
