<svg width="20" height="18" viewBox="0 0 20 18" fill="none" xmlns="http://www.w3.org/2000/svg">
<path fill-rule="evenodd" clip-rule="evenodd" d="M3.75 0.40625H16.25C17.0812 0.40625 17.875 0.820313 18.4625 1.54688C19.0438 2.28125 19.375 3.27344 19.375 4.3125V13.6875C19.375 14.7266 19.0438 15.7188 18.4625 16.4531C17.875 17.1797 17.0812 17.5938 16.25 17.5938H3.75C2.91875 17.5938 2.125 17.1797 1.5375 16.4531C0.95625 15.7188 0.625 14.7266 0.625 13.6875V4.3125C0.625 3.27344 0.95625 2.28125 1.5375 1.54688C2.125 0.820313 2.91875 0.40625 3.75 0.40625ZM3.75 1.96875H16.25C16.75 1.96875 17.225 2.21875 17.575 2.65625C17.925 3.09375 18.125 3.6875 18.125 4.3125V13.6875C18.125 14.3125 17.925 14.9063 17.575 15.3438C17.225 15.7813 16.75 16.0312 16.25 16.0312H3.75C3.25 16.0312 2.775 15.7813 2.425 15.3438C2.075 14.9063 1.875 14.3125 1.875 13.6875V4.3125C1.875 3.6875 2.075 3.09375 2.425 2.65625C2.775 2.21875 3.25 1.96875 3.75 1.96875Z" fill="#4F4F4F"/>
</svg>
