<svg width="18" height="16" viewBox="0 0 18 16" fill="none" xmlns="http://www.w3.org/2000/svg">
<path d="M9 15.5C8.9103 15.5001 8.82147 15.483 8.73861 15.4497C8.65575 15.4164 8.58049 15.3675 8.51715 15.3059L1.99771 8.98117C0.000763357 7.04388 0.000763357 3.89147 1.99771 1.95417C3.91543 0.0924076 6.98939 0.0175393 9 1.73421C11.0092 0.019527 14.0832 0.091745 16.0023 1.95417C17.9992 3.89147 17.9992 7.04454 16.0023 8.98117L9.48285 15.3059C9.41951 15.3675 9.34425 15.4164 9.26139 15.4497C9.17853 15.483 9.0897 15.5001 9 15.5ZM5.62008 1.82497C5.12676 1.82414 4.63813 1.91782 4.18222 2.10064C3.72632 2.28347 3.31212 2.55184 2.9634 2.89035C2.25984 3.57417 1.8647 4.50085 1.8647 5.46701C1.8647 6.43317 2.25984 7.35985 2.9634 8.04367L9 13.8999L15.0366 8.04367C15.7402 7.35985 16.1353 6.43317 16.1353 5.46701C16.1353 4.50085 15.7402 3.57417 15.0366 2.89035C14.3317 2.20781 13.3765 1.82447 12.3806 1.82447C11.3847 1.82447 10.4295 2.20781 9.72461 2.89035L9.48285 3.1249C9.41948 3.18648 9.34421 3.23533 9.26136 3.26867C9.17851 3.302 9.08969 3.31916 9 3.31916C8.91031 3.31916 8.82149 3.302 8.73864 3.26867C8.65579 3.23533 8.58052 3.18648 8.51715 3.1249L8.27539 2.89035C7.92694 2.55185 7.51299 2.28348 7.05731 2.10064C6.60162 1.91781 6.11319 1.82413 5.62008 1.82497Z" fill="#666666"/>
</svg>
