<svg width="30" height="18" viewBox="0 0 30 18" fill="none" xmlns="http://www.w3.org/2000/svg">
<path d="M25.9205 0H4.82955C2.58864 0 0.875 1.67143 0.875 3.85714V14.1429C0.875 16.3286 2.58864 18 4.82955 18H25.9205C28.1614 18 29.875 16.3286 29.875 14.1429V3.85714C29.875 1.67143 28.1614 0 25.9205 0ZM7.46591 10.2857C6.675 10.2857 6.14773 9.77143 6.14773 9C6.14773 8.22857 6.675 7.71429 7.46591 7.71429C8.25682 7.71429 8.78409 8.22857 8.78409 9C8.78409 9.77143 8.25682 10.2857 7.46591 10.2857ZM19.1977 9.77143C18.8023 11.8286 16.6932 13.2429 14.5841 12.8571C12.475 12.4714 11.025 10.4143 11.4205 8.35714C11.6841 6.81429 13.0023 5.65714 14.5841 5.27143C16.6932 4.88571 18.8023 6.17143 19.1977 8.35714C19.3295 8.74286 19.3295 9.25714 19.1977 9.77143ZM23.2841 10.2857C22.4932 10.2857 21.9659 9.77143 21.9659 9C21.9659 8.22857 22.4932 7.71429 23.2841 7.71429C24.075 7.71429 24.6023 8.22857 24.6023 9C24.6023 9.77143 24.075 10.2857 23.2841 10.2857Z" fill="#FD6500"/>
</svg>
