<svg width="29" height="28" viewBox="0 0 29 28" fill="none" xmlns="http://www.w3.org/2000/svg">
<path d="M9.03164 11.5507H20.1004C20.7129 11.5507 21.1941 11.0695 21.1941 10.457C21.1941 9.84448 20.6691 9.36323 20.1004 9.36323H9.03164C8.55039 9.36323 8.11289 9.66948 7.98164 10.1507H15.6379C16.0754 10.1507 16.0754 10.807 15.6379 10.807H7.98164C8.11289 11.2445 8.55039 11.5507 9.03164 11.5507ZM23.2066 26.6007C22.7691 26.6007 22.7691 25.9445 23.2066 25.9445H23.6004C24.0379 25.9445 24.0379 26.6007 23.6004 26.6007H23.2066ZM5.40039 26.6007C4.96289 26.6007 4.96289 25.9445 5.40039 25.9445H9.38164C9.11914 21.8757 8.81289 17.7632 8.55039 13.6945L8.46289 12.1195C8.20039 12.032 7.98164 11.9007 7.76289 11.682C7.06289 10.982 7.06289 9.88823 7.76289 9.18823C8.06914 8.88198 8.55039 8.66323 9.03164 8.66323H13.5816V6.51948L8.90039 3.01948C8.76914 2.88823 8.72539 2.71323 8.81289 2.53823L9.64414 1.48823C9.77539 1.35698 9.95039 1.31323 10.0816 1.44448L15.5066 5.33823C15.5941 5.42573 15.6379 5.51323 15.6379 5.60073V8.61948H20.0566C21.0191 8.61948 21.8066 9.40698 21.8066 10.3695C21.8066 11.1132 21.3254 11.8132 20.5816 12.032L19.6191 25.857H21.9379C22.3754 25.857 22.3754 26.5132 21.9379 26.5132C22.0254 26.6007 5.40039 26.6007 5.40039 26.6007ZM10.0379 25.9445H19.0066L19.9254 12.207H9.11914L9.20664 13.3445H13.3629C13.5379 13.3445 13.7129 13.4757 13.7129 13.6945V24.1507C13.7129 24.3257 13.5816 24.5007 13.3629 24.5007H9.99414C9.95039 24.457 10.0379 25.9445 10.0379 25.9445ZM16.1629 13.3007C16.5566 13.6945 16.5566 14.307 16.1629 14.7007C15.7691 15.0945 15.1566 15.0945 14.7629 14.7007C14.3691 14.307 14.3691 13.6945 14.7629 13.3007C15.1129 12.907 15.7691 12.907 16.1629 13.3007ZM15.6816 13.7382C15.5504 13.607 15.3316 13.607 15.2004 13.7382C15.0691 13.8695 15.0691 14.0882 15.2004 14.2195C15.3316 14.3507 15.5504 14.3507 15.6816 14.2195C15.8129 14.0882 15.8129 13.8695 15.6816 13.7382ZM17.3441 15.8382C17.7816 16.2757 17.7816 16.932 17.3441 17.3695C16.9066 17.807 16.2504 17.807 15.8129 17.3695C15.3754 16.932 15.3754 16.2757 15.8129 15.8382C16.2504 15.4445 16.9504 15.4445 17.3441 15.8382ZM16.9066 16.3195C16.7316 16.1445 16.4691 16.1445 16.2941 16.3195C16.1191 16.4945 16.1191 16.757 16.2941 16.932C16.4691 17.107 16.7316 17.107 16.9066 16.932C17.0816 16.757 17.0816 16.4945 16.9066 16.3195ZM17.5191 10.107C17.9566 10.107 17.9566 10.7632 17.5191 10.7632H16.7316C16.2941 10.7632 16.2941 10.107 16.7316 10.107H17.5191ZM18.3941 13.8695C18.3941 13.6945 18.5691 13.5632 18.7441 13.5632C18.9191 13.5632 19.0504 13.7382 19.0504 13.9132L18.4379 22.4445C18.3941 22.882 17.7379 22.8382 17.7816 22.4007L18.3941 13.8695ZM17.6941 23.7132C17.7379 23.2757 18.3941 23.3195 18.3504 23.757L18.3066 24.282C18.2629 24.7195 17.6504 24.6757 17.6504 24.2382L17.6941 23.7132ZM15.0254 8.66323V5.77573L9.95039 2.18823L9.51289 2.71323L14.0629 6.08198C14.1504 6.12573 14.2379 6.25698 14.2379 6.34448V8.66323H15.0254ZM9.25039 14.0007L9.90664 23.8007H13.0129V14.0007H9.25039Z" fill="#222222"/>
</svg>
