<svg width="29" height="28" viewBox="0 0 29 28" fill="none" xmlns="http://www.w3.org/2000/svg">
<path d="M14.7617 13.6059C14.7617 13.6059 16.1617 14.8747 17.6055 15.0059C18.3492 15.0497 18.918 15.0497 19.3555 14.9622C19.7492 14.9184 20.0555 14.8309 20.2742 14.7434C20.4055 14.6997 20.5805 14.6559 20.7555 14.6559C21.0617 14.6559 21.4555 14.6997 21.8055 14.8309C22.1555 14.9622 22.5055 15.2684 22.6805 15.6622C22.8992 16.1872 22.8117 17.2372 22.5492 17.7184C22.2867 18.1997 21.8492 18.4622 21.1055 18.3309C20.6242 18.2434 20.2305 18.1122 19.9242 18.0247C19.5305 17.8934 19.1805 17.7622 18.6555 17.8059C17.868 17.9372 16.993 18.1997 16.293 18.4622C15.593 18.7247 14.9367 18.9872 14.543 19.2934L14.2805 19.4684C13.2742 20.1684 12.3992 20.7809 11.8305 20.6059C11.6555 20.5622 11.5242 20.4747 11.3492 20.4309C10.2992 19.9934 9.73047 20.2997 8.72422 19.8622C8.24297 19.6872 7.84922 19.3809 7.76172 19.0747C7.71797 18.8997 7.71797 18.7247 7.71797 18.5059C7.71797 18.1559 7.67422 17.7184 7.36797 17.3684C7.01797 16.9747 6.84297 16.3622 6.84297 15.7497C6.79922 15.0934 6.97422 14.4372 7.23672 14.0434C7.63047 13.5184 8.28672 13.5622 8.41797 13.2122C8.59297 12.8184 8.81172 12.4247 9.20547 12.2059C9.51172 11.9872 9.90547 11.9434 10.343 12.0747C10.6055 12.1622 10.8242 12.2497 10.9992 12.3372C11.3492 12.5122 11.6555 12.6434 12.3117 12.5559C13.493 12.2934 14.6305 13.4309 14.7617 13.6059ZM5.44297 4.72467C5.74922 4.41842 6.23047 4.89967 5.92422 5.20592L5.74922 5.33717C5.44297 5.64342 5.00547 5.11842 5.31172 4.85592C5.26797 4.81217 5.44297 4.68092 5.44297 4.72467ZM4.65547 5.59967C4.87422 5.20592 5.44297 5.55592 5.22422 5.90592C5.18047 5.99342 5.09297 6.12467 5.09297 6.25592C5.09297 6.43092 5.31172 6.64967 5.48672 6.86842C5.79297 7.17467 6.09922 7.48092 6.09922 7.91842C6.09922 8.61842 4.96172 9.75592 4.96172 9.75592C4.61172 10.0184 4.21797 9.53717 4.56797 9.27467C4.56797 9.27467 5.44297 8.39967 5.44297 7.96217C5.44297 7.78717 5.26797 7.61217 5.04922 7.39342C4.74297 6.99967 4.43672 6.69342 4.43672 6.25592C4.43672 5.99342 4.52422 5.77467 4.65547 5.59967ZM9.55547 4.68092C9.90547 4.41842 10.2992 4.94342 9.94922 5.20592C9.94922 5.20592 9.20547 5.81842 9.20547 6.25592C9.20547 6.34342 9.24922 6.43092 9.29297 6.47467C9.51172 6.82467 8.98672 7.17467 8.76797 6.82467L8.63672 6.56217C8.59297 6.47467 8.59297 6.34342 8.59297 6.21217C8.54922 5.46842 9.55547 4.68092 9.55547 4.68092ZM9.46797 7.65592C9.20547 7.30592 9.77422 6.91217 9.99297 7.26217C10.1242 7.43717 10.2117 7.65592 10.2117 7.87467C10.2117 8.57467 9.07422 9.71217 9.07422 9.71217C8.94297 9.84342 8.72422 9.79967 8.59297 9.66842C8.46172 9.53717 8.50547 9.31842 8.63672 9.18717C8.63672 9.18717 9.51172 8.31217 9.51172 7.87467C9.55547 7.78717 9.51172 7.69967 9.46797 7.65592ZM7.58672 7.61217C7.71797 7.48092 7.93672 7.52467 8.02422 7.65592C8.15547 7.78717 8.11172 8.00592 7.98047 8.09342C7.98047 8.09342 7.23672 8.70592 7.23672 9.14342C7.23672 9.79967 9.07422 10.2372 7.84922 11.7247C7.71797 11.8559 7.54297 11.8997 7.36797 11.7684C7.23672 11.6372 7.19297 11.4622 7.32422 11.2872C8.11172 10.3247 6.58047 10.1497 6.58047 9.09967C6.58047 8.39967 7.58672 7.61217 7.58672 7.61217ZM6.75547 12.0309C7.06172 11.7247 7.49922 12.2059 7.23672 12.4684L7.10547 12.5997C6.79922 12.9059 6.31797 12.4684 6.62422 12.1622C6.66797 12.1622 6.79922 12.0309 6.75547 12.0309ZM25.043 16.9747C25.043 16.7997 25.1742 16.6247 25.393 16.6247C25.6117 16.6247 25.743 16.7559 25.743 16.9747C25.743 19.5122 18.568 20.1684 16.818 20.2997C16.643 20.2997 16.468 20.1684 16.468 19.9934C16.468 19.8184 16.5992 19.6434 16.7742 19.6434C18.043 19.5559 25.043 18.8559 25.043 16.9747ZM15.5055 19.6872C15.943 19.6872 15.943 20.3434 15.5055 20.3434H15.068C14.6305 20.3434 14.6305 19.6872 15.068 19.6872H15.5055ZM7.10547 18.8997C7.28047 18.9434 7.36797 19.1184 7.32422 19.2934C7.28047 19.4684 7.10547 19.5559 6.93047 19.5122C5.83672 19.2059 4.91797 18.8559 4.30547 18.4622C3.34297 17.8497 2.86172 16.9309 3.73672 15.9684C3.99922 15.6622 4.39297 15.3997 4.87422 15.1809C5.26797 15.0059 5.57422 15.5747 5.18047 15.7497C4.74297 15.9684 4.43672 16.1872 4.21797 16.4059C3.64922 17.0184 4.08672 17.4997 4.69922 17.8934C5.26797 18.2872 6.05547 18.5934 7.10547 18.8997ZM6.09922 15.3997C5.70547 15.5309 5.48672 14.9184 5.88047 14.7872L6.23047 14.6559C6.62422 14.5247 6.84297 15.1372 6.44922 15.2684L6.09922 15.3997ZM17.2992 13.2997C17.4305 13.6934 16.818 13.9122 16.6867 13.5184C16.5992 13.2559 16.0305 12.8622 15.3742 12.5559C14.8055 12.2934 14.1055 12.1184 13.6242 12.2497C13.4492 12.2934 13.2742 12.1622 13.2305 11.9872C13.1867 11.8122 13.318 11.6372 13.493 11.5934C14.1492 11.4622 14.9367 11.6372 15.6367 11.9434C16.468 12.2934 17.168 12.8622 17.2992 13.2997ZM21.3242 14.1747C21.2805 14.3059 21.193 14.3934 21.0617 14.4372C20.8867 14.4809 20.7117 14.3497 20.668 14.1747L20.6242 13.9122C20.143 13.6934 19.5305 13.4309 19.0055 13.1247C18.3055 12.7309 17.6492 12.2934 17.2555 11.8997C14.6742 9.36217 13.493 9.88717 12.443 10.9372C12.1805 11.1997 11.8742 11.5497 11.6117 11.8122C11.4805 11.9434 11.2617 11.9434 11.1305 11.8559C10.9992 11.7247 10.9992 11.5059 11.0867 11.3747C11.3492 11.0684 11.6555 10.7622 11.918 10.4559C13.2305 9.14342 14.718 8.48717 17.6492 11.4184C17.9992 11.7684 18.6117 12.1622 19.268 12.5122C20.0992 12.9497 20.9742 13.3434 21.4992 13.5184C21.9805 13.6934 22.3742 13.6059 22.768 13.5184C23.643 13.3434 24.9117 13.1247 25.3055 14.2184C25.4367 14.6559 25.393 15.2247 25.2617 15.7934C25.0867 16.6247 24.3867 16.7997 23.6867 16.9747C23.2492 17.1059 23.118 16.4497 23.5117 16.3184C23.9055 16.2309 24.518 16.0997 24.6055 15.6622C24.693 15.1372 24.7367 14.6997 24.6492 14.3934C24.4305 13.7809 23.3367 14.0434 22.8992 14.1309C22.3305 14.3497 21.9367 14.3934 21.3242 14.1747ZM25.043 19.0309C25.0867 19.0309 25.0867 18.9872 25.1305 18.9872C26.0055 18.4622 26.4867 17.8497 26.4867 17.2372C26.4867 17.0622 26.443 16.8434 26.3555 16.6684C26.268 16.4497 26.093 16.2747 25.918 16.0559C25.7867 15.9247 25.7867 15.7059 25.918 15.5747C26.0492 15.4434 26.268 15.4434 26.3992 15.5747C26.6617 15.8372 26.8367 16.0997 26.968 16.3622C27.0992 16.6247 27.1867 16.9309 27.1867 17.1934C27.1867 18.0247 26.618 18.8122 25.568 19.4684C25.1742 20.6059 23.818 21.5684 21.8492 22.2684C17.6492 23.7559 11.3492 23.7559 7.19297 22.2684C5.22422 21.5684 3.86797 20.6059 3.47422 19.4684C2.46797 18.8122 1.85547 18.0247 1.85547 17.1934C1.85547 16.4934 2.24922 15.8372 2.99297 15.2684C3.69297 14.6997 4.69922 14.2184 5.96797 13.7809C6.14297 13.7372 6.31797 13.8247 6.36172 13.9997C6.40547 14.1747 6.31797 14.3497 6.14297 14.3934C4.96172 14.7872 3.99922 15.2684 3.38672 15.7497C2.81797 16.1872 2.51172 16.7122 2.51172 17.1934C2.51172 18.5497 4.83047 19.5122 5.88047 19.9059C10.518 21.4809 20.4055 21.8309 25.043 19.0309ZM4.61172 20.0809C5.18047 20.6934 6.14297 21.2184 7.41172 21.6559C11.4805 23.0997 17.6055 23.0997 21.6305 21.6559C22.8555 21.2184 23.818 20.6934 24.3867 20.0809C19.3992 22.3122 10.6492 22.2247 5.66172 20.5184C5.31172 20.3872 4.91797 20.2559 4.61172 20.0809ZM13.9742 17.0184C14.0617 16.8872 14.2805 16.8434 14.4117 16.9309C14.543 17.0184 14.5867 17.2372 14.4992 17.3684C14.4992 17.3684 14.1492 18.0684 13.143 18.2872C12.7055 18.3747 12.3555 18.4184 12.093 18.4184C11.8305 18.4184 11.568 18.4622 11.2617 18.5497C10.8242 18.6372 10.4305 18.5497 10.1242 18.3747C9.81797 18.1559 9.59922 17.8059 9.46797 17.4122C9.42422 17.2372 9.51172 17.0622 9.68672 17.0184C9.86172 16.9747 10.0367 17.0622 10.0805 17.2372C10.168 17.4997 10.2992 17.7184 10.4742 17.8497C10.6492 17.9372 10.868 17.9809 11.0867 17.9372C11.4805 17.8497 11.743 17.8497 12.0055 17.8059C12.268 17.8059 12.5742 17.7622 12.968 17.6747C13.7117 17.4997 13.9742 17.0184 13.9742 17.0184ZM18.393 15.6622C18.6555 16.0122 18.8305 16.5372 18.6555 17.1059C19.3117 17.0184 19.7492 17.1497 20.2305 17.3247C20.5367 17.4559 20.843 17.5434 21.2805 17.6309C21.6742 17.7184 21.9367 17.5872 22.0242 17.3684C22.1992 17.0622 22.243 16.1872 22.1117 15.8809C22.0242 15.6622 21.8055 15.5309 21.5867 15.3997C21.3242 15.3122 21.0617 15.2684 20.7992 15.2684C20.668 15.2684 20.5805 15.2684 20.5367 15.3122C20.2742 15.4434 19.9242 15.5309 19.443 15.6184C19.1805 15.6622 18.8305 15.6622 18.393 15.6622ZM17.9117 17.2809C18.393 16.4059 17.693 15.7934 17.4742 15.6184C15.8117 15.4434 14.2805 14.0434 14.2805 14.0434C14.2805 14.0434 13.3617 12.9934 12.443 13.1247C11.6117 13.2559 11.218 13.0809 10.7367 12.8622C10.5617 12.7747 10.3867 12.6872 10.168 12.6434C9.90547 12.5559 9.68672 12.5997 9.55547 12.6872C9.33672 12.8184 9.16172 13.0809 9.07422 13.3872C8.76797 14.2184 8.19922 13.8247 7.80547 14.3497C7.58672 14.6122 7.49922 15.1372 7.54297 15.6184C7.54297 16.0997 7.67422 16.5809 7.93672 16.8434C8.41797 17.3684 8.41797 17.9372 8.46172 18.4184C8.46172 18.5934 8.46172 18.7247 8.50547 18.8559C8.54922 18.9872 8.76797 19.1184 9.07422 19.2059C10.0367 19.5997 10.6055 19.2934 11.6992 19.7747C11.8742 19.8622 12.0055 19.9059 12.1367 19.9497C12.443 20.0372 13.1867 19.5122 14.018 18.8997L14.2805 18.7247C14.7617 18.3747 15.4617 18.0684 16.2055 17.8059C16.7742 17.5872 17.3867 17.4122 17.9117 17.2809Z" fill="#222222"/>
</svg>
