<svg width="22" height="22" viewBox="0 0 22 22" fill="none" xmlns="http://www.w3.org/2000/svg">
<g clip-path="url(#clip0_2681_10940)">
<path d="M15.3834 17.7823C15.3336 17.2781 14.9391 16.8859 14.4241 16.8284L9.91062 16.3306C9.62844 16.3052 9.35124 16.4492 9.20313 16.7047C9.20268 16.7052 8.78643 17.4484 8.57944 17.8045C8.45398 18.021 8.5278 18.2982 8.74386 18.4236C8.96081 18.5491 9.23755 18.4748 9.36302 18.2592C9.52653 17.977 9.82048 17.4557 9.9387 17.2451L14.3245 17.7288C14.368 17.7338 14.4703 17.7569 14.4803 17.8488L14.4862 17.9431C14.498 18.0835 14.4971 18.2234 14.4848 18.3598C14.3494 19.7897 13.0422 21.0104 11.5715 21.0801C8.48387 21.2305 5.69333 20.1942 3.70132 18.1741C1.72787 16.1729 0.742737 13.4009 0.928441 10.3689C1.01767 8.91136 2.26188 7.62999 3.70132 7.51313C3.83856 7.50271 3.97987 7.50316 4.12209 7.51675L4.19366 7.52173C4.30553 7.53396 4.33135 7.62455 4.33633 7.67664L4.76572 12.0303C4.55012 12.1449 4.02834 12.4221 3.74117 12.577C3.5215 12.6962 3.43907 12.9706 3.55819 13.1908C3.67686 13.4104 3.95134 13.4924 4.17192 13.3738C4.53744 13.1758 5.28705 12.779 5.28886 12.7781C5.54794 12.6395 5.70194 12.3641 5.67929 12.0661L5.23722 7.5865C5.18559 7.07287 4.79652 6.67609 4.29104 6.62083L4.20543 6.61403C4.01158 6.59637 3.81817 6.59501 3.62794 6.60951C1.75641 6.76169 0.139879 8.42309 0.0239276 10.3128C-0.177629 13.6057 0.899453 16.6232 3.05588 18.81C5.09727 20.879 7.89822 21.9996 10.9972 21.9996C11.2015 21.9996 11.4071 21.9946 11.6141 21.9851C13.5178 21.8945 15.2095 20.3065 15.3862 18.4445C15.4038 18.2556 15.4047 18.0617 15.388 17.8552L15.3834 17.7823Z" fill="#EA0A2A"/>
<path d="M3.92793 13.9052C3.69784 14.0161 3.60128 14.2919 3.7117 14.522C4.10488 15.3378 4.62234 16.0719 5.2493 16.703C5.88781 17.3493 6.63675 17.8824 7.47577 18.2871C7.54092 18.3181 7.60883 18.3333 7.67629 18.3333C7.84816 18.3333 8.0131 18.2372 8.09257 18.0723C8.20345 17.8422 8.10689 17.566 7.87727 17.4556C7.13342 17.0971 6.47042 16.6254 5.90537 16.0534C5.35002 15.4945 4.89216 14.8449 4.54426 14.1219C4.43384 13.8909 4.15755 13.7944 3.92793 13.9052ZM12.2969 0C8.84381 0 5.624 1.8581 3.89327 4.8499C3.76529 5.07119 3.84107 5.35346 4.06145 5.48097C4.28276 5.6094 4.56505 5.53271 4.69257 5.31281C6.25928 2.60558 9.17231 0.923966 12.2969 0.923966C17.1375 0.923966 21.0753 4.86145 21.0753 9.70164C21.0753 12.8256 19.3931 15.7388 16.6857 17.305C16.4648 17.4325 16.389 17.7152 16.5175 17.936C16.603 18.0839 16.7582 18.1666 16.9176 18.1666C16.9961 18.1666 17.0756 18.1467 17.1486 18.1042C20.1406 16.3741 21.9994 13.1545 21.9994 9.70164C21.9994 4.35234 17.6467 0 12.2969 0Z" fill="#EA0A2A"/>
<path d="M12.0662 8.05657C12.2167 7.77967 12.292 7.51479 12.292 7.26193C12.292 6.8261 12.1419 6.48465 11.8418 6.23757C11.5417 5.9905 11.132 5.86719 10.6127 5.86719C10.2524 5.86719 9.93488 5.93574 9.65924 6.07241C9.38359 6.20953 9.17192 6.40095 9.02327 6.64803C8.87463 6.8951 8.80078 7.17289 8.80078 7.48095H9.69358C9.69358 7.19114 9.77307 6.96277 9.93253 6.79583C10.092 6.62888 10.3159 6.54564 10.6052 6.54564C10.8479 6.54564 11.0408 6.61998 11.1838 6.76822C11.3272 6.91647 11.3987 7.11146 11.3987 7.3523C11.3987 7.53571 11.3442 7.71823 11.235 7.89986C11.1264 8.08194 10.9429 8.30854 10.6856 8.57965L8.90333 10.4196V11.0005H12.5008V10.3261H10.0167L11.3249 9.00079C11.6692 8.64821 11.9157 8.33347 12.0662 8.05657ZM16.8674 9.19533H16.2023V5.93664H15.2799L12.9722 9.35915L12.998 9.87378H15.3095V11.0005H16.2023V9.87378H16.8674V9.19533ZM15.3095 9.19533H13.9092L15.2432 7.19203L15.3095 7.08074V9.19533Z" fill="#EA0A2A"/>
</g>
<defs>
<clipPath id="clip0_2681_10940">
<rect width="22" height="22" fill="white"/>
</clipPath>
</defs>
</svg>
