<svg width="21" height="16" viewBox="0 0 21 16" fill="none" xmlns="http://www.w3.org/2000/svg">
<path d="M1.61111 2.28571C2.22476 2.28571 2.72222 1.77403 2.72222 1.14286C2.72222 0.51168 2.22476 0 1.61111 0C0.997467 0 0.5 0.51168 0.5 1.14286C0.5 1.77403 0.997467 2.28571 1.61111 2.28571ZM1.61111 9.14286C2.22476 9.14286 2.72222 8.6312 2.72222 8C2.72222 7.3688 2.22476 6.85714 1.61111 6.85714C0.997467 6.85714 0.5 7.3688 0.5 8C0.5 8.6312 0.997467 9.14286 1.61111 9.14286ZM2.72222 14.8571C2.72222 15.4883 2.22476 16 1.61111 16C0.997467 16 0.5 15.4883 0.5 14.8571C0.5 14.2259 0.997467 13.7143 1.61111 13.7143C2.22476 13.7143 2.72222 14.2259 2.72222 14.8571ZM6.05556 0C5.44191 0 4.94444 0.51168 4.94444 1.14286C4.94444 1.77403 5.44191 2.28571 6.05556 2.28571H19.3889C20.0026 2.28571 20.5 1.77403 20.5 1.14286C20.5 0.51168 20.0026 0 19.3889 0H6.05556ZM4.94444 8C4.94444 7.3688 5.44191 6.85714 6.05556 6.85714H19.3889C20.0026 6.85714 20.5 7.3688 20.5 8C20.5 8.6312 20.0026 9.14286 19.3889 9.14286H6.05556C5.44191 9.14286 4.94444 8.6312 4.94444 8ZM6.05556 13.7143C5.44191 13.7143 4.94444 14.2259 4.94444 14.8571C4.94444 15.4883 5.44191 16 6.05556 16H19.3889C20.0026 16 20.5 15.4883 20.5 14.8571C20.5 14.2259 20.0026 13.7143 19.3889 13.7143H6.05556Z" fill="#B2B2B2"/>
</svg>
