<svg width="15" height="18" viewBox="0 0 15 18" fill="none" xmlns="http://www.w3.org/2000/svg">
<path d="M7.50083 0.333984C6.62533 0.333962 5.75841 0.50639 4.94954 0.841422C4.14068 1.17645 3.40573 1.66753 2.78665 2.28661C2.16757 2.90568 1.67644 3.64064 1.34141 4.44951C1.00638 5.25837 0.833962 6.12531 0.833984 7.00082C0.833984 11.8608 5.62064 17.6674 7.50083 17.6674C9.38077 17.6674 14.1675 11.8608 14.1675 7.00082C14.1675 6.12533 13.995 5.25842 13.66 4.44956C13.325 3.64071 12.8339 2.90577 12.2149 2.28669C11.5958 1.66762 10.8609 1.17654 10.052 0.841494C9.24321 0.506447 8.37632 0.333995 7.50083 0.333984Z" fill="#FF4B3D"/>
<path d="M4.16797 7.00135C4.16796 6.34207 4.36349 5.6976 4.72976 5.14943C5.09603 4.60126 5.61658 4.17401 6.22567 3.92171C6.83476 3.66941 7.50497 3.6034 8.15158 3.73202C8.79818 3.86063 9.39216 4.1781 9.85833 4.64428C10.3245 5.11046 10.642 5.70441 10.7706 6.35101C10.8992 6.99762 10.8332 7.66785 10.5809 8.27694C10.3286 8.88603 9.90138 9.40662 9.35321 9.77289C8.80504 10.1392 8.16055 10.3347 7.50128 10.3346C6.61724 10.3346 5.76941 9.98344 5.1443 9.35833C4.51919 8.73322 4.16798 7.88539 4.16797 7.00135Z" fill="white"/>
</svg>
