<svg width="22" height="22" viewBox="0 0 22 22" fill="none" xmlns="http://www.w3.org/2000/svg">
<g clip-path="url(#clip0_2681_10931)">
<path d="M21.3857 0.850046C21.3384 0.742625 21.2525 0.656687 21.1493 0.613718C21.0935 0.587937 15.5935 -1.72378 11.0689 2.79653C10.2052 3.6602 9.37161 4.67856 8.60676 5.75278L7.56262 5.51216C5.98567 5.14692 4.36145 5.61098 3.21419 6.75395L0.365358 9.60708C-0.390892 10.3633 0.0946553 11.6481 1.14739 11.7297L5.16067 12.052C4.9845 12.5204 4.83411 12.9801 4.74817 13.2852C4.67083 13.5559 4.68372 13.8352 4.76536 14.093C4.03919 14.2907 3.37747 14.6516 3.00364 15.0254C2.17864 15.8461 1.44387 19.4426 1.30637 20.1559C1.24622 20.4997 1.5513 20.7618 1.84348 20.693C2.55676 20.5512 6.15325 19.8165 6.97395 18.9958C7.36497 18.6047 7.71731 17.9344 7.91067 17.234C8.18567 17.32 8.46497 17.32 8.71848 17.2469H8.72278C9.02786 17.161 9.47473 17.0192 9.95169 16.8344L10.274 20.8477C10.3556 21.9004 11.6447 22.3817 12.3966 21.6297L15.2497 18.7766C16.3927 17.6336 16.8611 16.0051 16.4915 14.4282L16.2509 13.384C17.3251 12.6192 18.3435 11.7856 19.2072 10.9219C23.7275 6.40591 21.4115 0.905906 21.3857 0.850046ZM1.01848 10.2559L3.86731 7.40278C4.79114 6.47895 6.09739 6.10942 7.35637 6.40591L8.04817 6.56489C7.02122 8.10747 6.15325 9.72309 5.52591 11.1583L1.22044 10.8145C0.94114 10.7887 0.820827 10.4493 1.01848 10.2559ZM6.32512 18.3512C5.92551 18.7508 3.94466 19.3051 2.34622 19.6575C2.69426 18.0547 3.24856 16.0782 3.65247 15.6786C4.00051 15.3262 4.67942 15.0211 5.34114 14.9008L7.10286 16.6625C7.09856 16.6797 7.09856 16.6969 7.09426 16.7184C6.96536 17.35 6.65169 18.0247 6.32512 18.3512ZM7.97512 16.2329L5.76653 14.0243C5.63762 13.8954 5.58606 13.702 5.63333 13.5301C5.672 13.3969 5.74505 13.1477 5.83958 12.8684L9.13098 16.1598C8.93333 16.2286 8.67122 16.3102 8.46926 16.3661C8.29739 16.4176 8.10833 16.3661 7.97512 16.2329ZM15.5935 14.643C15.8857 15.9106 15.5161 17.2125 14.5966 18.1321L11.7435 20.9852C11.5458 21.1829 11.2107 21.0583 11.1849 20.7833L10.8411 16.4778C12.2763 15.8547 13.8919 14.9825 15.4345 13.9555L15.5935 14.643ZM10.072 15.8032L6.19192 11.9231C7.28762 9.24614 9.3802 5.77856 11.7134 3.44536C14.3775 0.781296 17.8794 0.381687 20.6079 1.38716C20.9302 2.2895 22.2107 6.62505 18.5497 10.286C16.2165 12.6192 12.749 14.7118 10.072 15.8032Z" fill="#EA0A2A"/>
<path d="M13.4308 4.09873C12.1976 5.33193 12.1976 7.32998 13.4308 8.56748C14.664 9.80068 16.662 9.80068 17.8995 8.56748C19.1327 7.33428 19.1327 5.33193 17.8995 4.09873C16.662 2.86553 14.664 2.86553 13.4308 4.09873ZM17.2507 7.91865C16.3741 8.79522 14.9562 8.79522 14.0796 7.91865C13.203 7.04209 13.203 5.62412 14.0796 4.74756C14.9562 3.871 16.3741 3.871 17.2507 4.74756C18.1229 5.62412 18.1229 7.04639 17.2507 7.91865Z" fill="#EA0A2A"/>
</g>
<defs>
<clipPath id="clip0_2681_10931">
<rect width="22" height="22" fill="white"/>
</clipPath>
</defs>
</svg>
