<svg width="14" height="14" viewBox="0 0 14 14" fill="none" xmlns="http://www.w3.org/2000/svg">
<path d="M10.3768 13.2702H3.62185C2.02352 13.2702 0.728516 11.9693 0.728516 10.371V6.0485C0.728516 5.25517 1.21852 4.25767 1.84852 3.76767L4.99268 1.31767C5.93768 0.582667 7.44852 0.547667 8.42852 1.236L12.0335 3.76183C12.7277 4.246 13.2702 5.28433 13.2702 6.13017V10.3768C13.2702 11.9693 11.9752 13.2702 10.3768 13.2702ZM5.52935 2.006L2.38518 4.456C1.97102 4.78267 1.60352 5.5235 1.60352 6.0485V10.371C1.60352 11.4852 2.50768 12.3952 3.62185 12.3952H10.3768C11.491 12.3952 12.3952 11.491 12.3952 10.3768V6.13017C12.3952 5.57017 11.9927 4.79433 11.5318 4.47933L7.92685 1.9535C7.26185 1.48683 6.16518 1.51017 5.52935 2.006Z" fill="#FD6500"/>
<path d="M7 10.9375C6.76083 10.9375 6.5625 10.7392 6.5625 10.5V8.75C6.5625 8.51083 6.76083 8.3125 7 8.3125C7.23917 8.3125 7.4375 8.51083 7.4375 8.75V10.5C7.4375 10.7392 7.23917 10.9375 7 10.9375Z" fill="#FD6500"/>
</svg>
