<svg width="30" height="29" viewBox="0 0 30 29" fill="none" xmlns="http://www.w3.org/2000/svg">
<path d="M15.4759 5.23756C15.3893 4.80472 14.9132 4.3286 14.3072 4.37189C14.0475 4.37189 13.8744 4.58831 13.8744 4.80472C13.8744 5.06443 14.0908 5.23756 14.3072 5.23756C15.043 5.28084 14.0908 6.49278 14.0042 7.18532C13.9177 7.79129 14.2207 8.44054 14.7401 8.78681C15.2162 9.0898 15.6923 8.35398 15.2162 8.05099C14.9565 7.87786 14.8266 7.57487 14.8699 7.27189C14.9132 7.05547 14.9998 6.83905 15.1296 6.62263C15.3893 6.05995 15.5624 5.71368 15.4759 5.23756ZM22.9639 7.79129C22.8774 7.35845 22.4445 6.88234 21.7953 6.92562C21.5356 6.92562 21.3624 7.14204 21.3624 7.35845C21.3624 7.61816 21.5789 7.79129 21.7953 7.79129C21.9251 7.79129 22.055 7.92114 22.055 8.00771C22.1415 8.44054 21.5789 9.04651 21.4923 9.73905C21.3624 10.8211 22.4445 11.8599 22.8341 11.2107C22.9639 10.9943 22.9207 10.7346 22.7042 10.6047C22.4445 10.4316 22.3147 10.1286 22.358 9.82562C22.4012 9.6092 22.4878 9.39278 22.6177 9.17637C22.8774 8.74353 23.0938 8.35398 22.9639 7.79129ZM7.33856 7.79129C7.252 7.35845 6.81916 6.88234 6.16991 6.92562C5.56394 6.92562 5.6505 7.83457 6.21319 7.79129C6.34304 7.79129 6.47289 7.92114 6.47289 8.00771C6.55946 8.44054 5.99677 9.04651 5.9102 9.73905C5.78035 10.648 6.51617 11.4271 6.90573 11.4271C7.33856 11.4271 7.5117 10.8644 7.12214 10.648C6.86244 10.4749 6.73259 10.1719 6.77588 9.8689C6.81916 9.65248 6.90573 9.43607 7.03558 9.21965C7.20871 8.74353 7.46841 8.35398 7.33856 7.79129ZM7.55498 15.842C7.03558 15.842 6.60274 16.2749 6.60274 16.7943C6.60274 17.3137 7.03558 17.7465 7.55498 17.7465C8.07438 17.7465 8.50722 17.3137 8.50722 16.7943C8.50722 16.2749 8.07438 15.842 7.55498 15.842ZM7.55498 17.3137C7.25199 17.3137 7.03558 17.054 7.03558 16.7943C7.03558 16.5346 7.29528 16.2749 7.55498 16.2749C7.85796 16.2749 8.07438 16.5346 8.07438 16.7943C8.07438 17.054 7.85796 17.3137 7.55498 17.3137ZM12.6192 14.8898C12.4893 14.8898 12.4027 14.9764 12.4027 15.1062C12.4027 15.2361 12.4893 15.3226 12.6192 15.3226C12.8789 15.3226 13.0953 15.5391 13.0953 15.7988C13.0953 16.0585 12.8789 16.2749 12.6192 16.2749C12.4893 16.2749 12.4027 16.3614 12.4027 16.4913C12.4027 16.6211 12.4893 16.7077 12.6192 16.7077C13.1386 16.7077 13.5281 16.2749 13.5281 15.7988C13.4848 15.2794 13.0953 14.8898 12.6192 14.8898ZM12.6192 17.7465C12.4893 17.7465 12.4027 17.8331 12.4027 17.9629C12.4027 18.0928 12.4893 18.1794 12.6192 18.1794C12.8789 18.1794 13.0953 18.3958 13.0953 18.6555C13.0953 18.9152 12.8789 19.1316 12.6192 19.1316C12.4893 19.1316 12.4027 19.2182 12.4027 19.348C12.4027 19.4779 12.4893 19.5644 12.6192 19.5644C13.1386 19.5644 13.5281 19.1316 13.5281 18.6555C13.4848 18.1793 13.0953 17.7465 12.6192 17.7465ZM14.6968 14.8898C14.5669 14.8898 14.4804 14.9764 14.4804 15.1062C14.4804 15.2361 14.5669 15.3226 14.6968 15.3226C14.9565 15.3226 15.1729 15.5391 15.1729 15.7988C15.1729 16.0585 14.9565 16.2749 14.6968 16.2749C14.5669 16.2749 14.4804 16.3614 14.4804 16.4913C14.4804 16.6211 14.5669 16.7077 14.6968 16.7077C15.2162 16.7077 15.6057 16.2749 15.6057 15.7988C15.6057 15.2794 15.2162 14.8898 14.6968 14.8898ZM14.6968 17.7465C14.5669 17.7465 14.4804 17.8331 14.4804 17.9629C14.4804 18.0928 14.5669 18.1794 14.6968 18.1794C14.9565 18.1794 15.1729 18.3958 15.1729 18.6555C15.1729 18.9152 14.9565 19.1316 14.6968 19.1316C14.5669 19.1316 14.4804 19.2182 14.4804 19.348C14.4804 19.4779 14.5669 19.5644 14.6968 19.5644C15.2162 19.5644 15.6057 19.1316 15.6057 18.6555C15.6057 18.1793 15.2162 17.7465 14.6968 17.7465ZM16.6445 16.3182C16.5147 16.3182 16.4281 16.4047 16.4281 16.5346C16.4281 16.6644 16.5147 16.751 16.6445 16.751C16.9042 16.751 17.1207 16.9674 17.1207 17.2271C17.1207 17.4868 16.9042 17.7032 16.6445 17.7032C16.5147 17.7032 16.4281 17.7898 16.4281 17.9197C16.4281 18.0495 16.5147 18.1361 16.6445 18.1361C17.1639 18.1361 17.5535 17.7032 17.5535 17.2271C17.5535 16.751 17.1639 16.3182 16.6445 16.3182Z" fill="#222222"/>
<path d="M27.5955 20.8194H25.5179C25.9507 20.5597 26.2537 20.0835 26.2537 19.5641V14.7164C26.2537 14.197 25.9507 13.7208 25.5179 13.5044C24.9119 13.2014 24.2194 13.3746 23.9164 13.7208L21.406 16.5343C20.2373 15.5388 19.0687 14.8029 17.9866 14.2835C19.5448 12.8552 19.2418 10.5611 19.1985 10.4746C19.1552 10.3014 19.0687 10.1716 18.9388 10.1283C18.809 10.085 18.6358 10.1283 18.506 10.2149C17.8567 10.7776 15.7358 10.7776 14.4806 10.6044C12.5761 10.4313 11.2776 11.3402 10.7582 12.8119C7.20895 12.985 3.96268 15.3223 3.74626 16.8805C3.57313 18.4388 5.99701 20.2134 7.55522 20.8194H2.40447C2.10149 20.8194 1.7985 20.9925 1.62537 21.2955C1.23582 22.0313 2.01492 22.5074 2.75074 23.7194C3.18358 24.3253 3.87612 24.6716 4.56865 24.6716H25.4313C26.1239 24.6716 26.8164 24.3253 27.206 23.7626L28.2881 22.2044C28.4612 21.9447 28.5045 21.5985 28.3313 21.2955C28.1582 20.9925 27.8985 20.8194 27.5955 20.8194ZM21.4493 17.8328L23.7866 20.6462L23.8298 20.6895C23.9164 20.7761 24.003 20.8194 24.0463 20.8626H16.7313C19.2851 19.9104 20.8 18.5253 21.4493 17.8328ZM24.5224 14.3268C24.6955 14.197 24.9119 14.197 25.0851 14.2835C25.2582 14.3701 25.3448 14.5432 25.3448 14.7597V19.6074C25.3448 19.8671 25.1716 20.1268 24.9119 20.1701C24.7388 20.2134 24.5224 20.1701 24.3925 20.0402L21.9687 17.1402L24.5224 14.3268ZM11.8403 20.8194C11.7104 20.8194 11.2776 20.8194 10.6284 20.7328C11.8403 18.3089 11.8836 15.9283 10.6716 13.6776C12.3164 13.5477 14.3507 13.8074 16.8179 14.7164C18.0731 15.2358 19.4582 16.0149 20.8433 17.2268C19.9776 18.0925 17.1209 20.7328 11.8403 20.8194ZM4.61194 16.9671C4.6985 16.3179 6.8194 14.2835 9.7194 13.7641C11.0179 15.9716 11.0179 18.1791 9.7194 20.5597C6.47313 19.9104 4.52537 17.7895 4.61194 16.9671ZM14.394 11.4701C14.697 11.5134 16.991 11.7731 18.3761 11.2537C18.3328 11.9895 18.1164 13.2014 17.0776 13.894C15.4761 13.2447 14.091 12.985 13.1388 12.8985L11.7104 12.7686C12.0134 12.1626 12.706 11.297 14.394 11.4701ZM26.5134 23.2432C26.2537 23.5895 25.8642 23.8059 25.4313 23.8059H4.56865C4.13582 23.8059 3.74626 23.5895 3.48656 23.2432L2.40447 21.685H27.5955L26.5134 23.2432Z" fill="#222222"/>
</svg>
