<svg width="29" height="28" viewBox="0 0 29 28" fill="none" xmlns="http://www.w3.org/2000/svg">
<path d="M1.99571 16.2629C1.54669 16.2629 1.54669 15.614 1.99571 15.614H5.13884C6.35119 15.614 7.38394 17.1714 8.28198 17.1714C9.18001 17.1714 10.2128 15.614 11.4251 15.614C12.6375 15.614 13.6702 17.1714 14.5682 17.1714C15.4663 17.1714 16.499 15.614 17.7114 15.614C18.9237 15.614 19.9565 17.1714 20.8545 17.1714C21.2586 17.1714 21.7526 16.8253 22.2016 16.4792C22.7853 16.0466 23.3241 15.614 23.9977 15.614H25.1651C25.3447 15.614 25.5243 15.7438 25.5243 15.9601C25.5243 16.1331 25.3896 16.3062 25.1651 16.3062H23.9977C23.5935 16.3062 23.0996 16.6523 22.6506 16.9984C22.0669 17.431 21.528 17.8636 20.8545 17.8636C19.6422 17.8636 18.6094 16.3062 17.7114 16.3062C16.8133 16.3062 15.7806 17.8636 14.5682 17.8636C13.3559 17.8636 12.3231 16.3062 11.4251 16.3062C10.5271 16.3062 9.49433 17.8636 8.28198 17.8636C7.06962 17.8636 6.03688 16.3062 5.13884 16.3062H1.99571V16.2629ZM20.2259 16.2629C19.7769 16.2629 19.7769 15.614 20.2259 15.614H21.528C21.9771 15.614 21.9771 16.2629 21.528 16.2629H20.2259ZM13.8498 16.2629C13.4008 16.2629 13.4008 15.614 13.8498 15.614H15.152C15.601 15.614 15.601 16.2629 15.152 16.2629H13.8498ZM7.51864 16.2629C7.06962 16.2629 7.06962 15.614 7.51864 15.614H8.8208C9.26982 15.614 9.26982 16.2629 8.8208 16.2629H7.51864ZM17.3522 17.3445C16.9031 17.3445 16.9031 16.6955 17.3522 16.6955H17.9359C18.3849 16.6955 18.3849 17.3445 17.9359 17.3445H17.3522ZM11.1557 17.3445C10.7067 17.3445 10.7067 16.6955 11.1557 16.6955H11.7843C12.2333 16.6955 12.2333 17.3445 11.7843 17.3445H11.1557ZM23.5486 17.3445C23.0996 17.3445 23.0996 16.6955 23.5486 16.6955H27.1408C27.3204 16.6955 27.5 16.8253 27.5 17.0416C27.5 20.1565 22.9649 19.9834 20.7647 19.9834C16.7684 20.0267 12.7722 19.9402 8.731 19.9834C6.35119 20.0267 1.8161 20.1997 1.63649 17.0416C1.63649 16.8686 1.7712 16.6955 1.9508 16.6955H4.91433C5.09394 16.6955 5.27355 16.8253 5.27355 17.0416C5.27355 17.2147 5.13884 17.3877 4.91433 17.3877H2.35492C2.62433 19.5075 6.93492 19.421 8.731 19.3778H20.7198C23.0098 19.3778 26.4224 19.3778 26.7816 17.3877C26.7816 17.3445 23.5486 17.3445 23.5486 17.3445ZM10.7067 13.7105C10.8863 13.9268 11.2006 14.0999 11.6047 14.2729C12.3231 14.5757 13.3559 14.7488 14.4784 14.7488C15.601 14.7488 16.5888 14.5757 17.3073 14.2729C17.7114 14.0999 18.0257 13.9268 18.2053 13.7105H10.7067ZM19.1482 13.7105C19.3279 13.9268 19.6422 14.0999 20.0463 14.2729C20.7647 14.5757 21.7975 14.7488 22.8751 14.7488C23.9977 14.7488 24.9855 14.5757 25.7488 14.2729C26.1529 14.0999 26.4673 13.9268 26.6469 13.7105H19.1482ZM27.4551 13.5375C27.3653 14.0999 26.8714 14.5757 26.0182 14.9218C25.21 15.2247 24.1324 15.441 22.92 15.441C21.7077 15.441 20.63 15.2247 19.8218 14.9218C19.3279 14.7055 18.9686 14.4892 18.6992 14.2296C18.4298 14.4892 18.0706 14.7488 17.5767 14.9218C16.7684 15.2247 15.6908 15.441 14.4784 15.441C13.2661 15.441 12.1884 15.2247 11.3802 14.9218C10.8863 14.7055 10.5271 14.4892 10.2577 14.2296C9.35962 15.1814 7.29413 15.441 6.03688 15.441C4.73472 15.441 1.41198 15.0949 1.50179 13.3212C1.59159 10.7255 4.95923 9.08154 9.22492 8.38935C10.8863 8.12978 12.6375 8 14.4335 8C16.1847 8 17.9359 8.12978 19.6422 8.38935C22.471 8.86523 26.9163 10.1198 27.4102 12.9751C27.4551 13.1048 27.4551 13.3212 27.4551 13.5375ZM2.31002 13.7105C2.93865 14.5325 5.09394 14.7488 6.08178 14.7488C7.06962 14.7488 9.18001 14.5325 9.85354 13.7105H2.31002ZM2.17531 13.0616H26.7367C26.5122 11.3311 24.4018 10.1198 21.528 9.38437C21.2137 9.42763 19.4177 9.64393 18.2053 10.8985C17.891 11.2013 17.3971 10.7687 17.7114 10.4659C18.4298 9.73046 19.2829 9.3411 20.0463 9.08154C19.9116 9.03827 19.732 9.03827 19.5524 8.99501C18.8339 8.86523 17.6216 8.69218 16.9031 8.69218C16.8133 8.69218 15.7357 8.77871 14.5682 9.55741C14.209 9.81698 13.8498 9.25458 14.1641 9.03827C14.3886 8.86523 14.658 8.73544 14.8826 8.64892H14.3886C12.6375 8.64892 10.8863 8.77871 9.26982 9.03827C5.49806 9.60067 2.48963 10.985 2.17531 13.0616ZM17.0828 11.2013C17.3073 10.8553 17.891 11.1581 17.6665 11.5474L17.4869 11.8503C17.2624 12.2396 16.6786 11.8935 16.9031 11.5474C16.9031 11.5042 17.0828 11.2013 17.0828 11.2013ZM13.2661 9.77372C13.5804 9.47089 14.0743 9.9035 13.76 10.2063C13.5804 10.4226 13.3559 10.6389 13.1763 10.8985C12.9967 11.1581 12.862 11.4177 12.7273 11.7205C12.5477 12.1098 11.919 11.8503 12.0986 11.4609C12.2782 11.1148 12.413 10.812 12.5926 10.5957C12.862 10.2496 13.0416 9.99003 13.2661 9.77372ZM9.67393 9.08154C10.0331 8.86523 10.3924 9.38437 10.0332 9.64393C9.62903 9.9035 9.18001 10.2496 8.7759 10.6389C8.41668 10.9418 8.05747 11.3744 7.74315 11.8503C7.51864 12.1964 6.93492 11.8503 7.15943 11.5042C7.51864 10.985 7.87786 10.5092 8.28198 10.1198C8.7759 9.6872 9.22492 9.3411 9.67393 9.08154ZM26.4224 16.2629C25.9733 16.2629 25.9733 15.614 26.4224 15.614H27.0959C27.5449 15.614 27.5449 16.2629 27.0959 16.2629H26.4224Z" fill="#222222"/>
</svg>
