<svg width="20" height="21" viewBox="0 0 20 21" fill="none" xmlns="http://www.w3.org/2000/svg">
<path d="M12.2495 19.4579H7.74948C3.63281 19.4579 1.88281 17.6996 1.88281 13.5913V9.84961C1.88281 9.50794 2.16615 9.22461 2.50781 9.22461C2.84948 9.22461 3.13281 9.50794 3.13281 9.84961V13.5913C3.13281 16.9996 4.34115 18.2079 7.74948 18.2079H12.2411C15.6495 18.2079 16.8578 16.9996 16.8578 13.5913V9.84961C16.8578 9.50794 17.1411 9.22461 17.4828 9.22461C17.8245 9.22461 18.1078 9.50794 18.1078 9.84961V13.5913C18.1161 17.6996 16.3578 19.4579 12.2495 19.4579Z" fill="#2A037A"/>
<path d="M9.99919 11.1243C9.08252 11.1243 8.24919 10.766 7.65752 10.1077C7.06585 9.44935 6.79085 8.59102 6.88252 7.67435L7.44085 2.10768C7.47419 1.79102 7.74085 1.54102 8.06585 1.54102H11.9575C12.2825 1.54102 12.5492 1.78268 12.5825 2.10768L13.1409 7.67435C13.2325 8.59102 12.9575 9.44935 12.3659 10.1077C11.7492 10.766 10.9159 11.1243 9.99919 11.1243ZM8.62419 2.79102L8.12419 7.79935C8.06585 8.35768 8.23252 8.88268 8.58252 9.26602C9.29085 10.0493 10.7075 10.0493 11.4159 9.26602C11.7659 8.87435 11.9325 8.34935 11.8742 7.79935L11.3742 2.79102H8.62419Z" fill="#2A037A"/>
<path d="M15.258 11.1243C13.5663 11.1243 12.058 9.75768 11.883 8.07435L11.2997 2.23268C11.283 2.05768 11.3413 1.88268 11.458 1.74935C11.5747 1.61602 11.7413 1.54102 11.9247 1.54102H14.4663C16.9163 1.54102 18.058 2.56602 18.3997 5.08268L18.633 7.39935C18.733 8.38268 18.433 9.31602 17.7913 10.0243C17.1497 10.7327 16.2497 11.1243 15.258 11.1243ZM12.6163 2.79102L13.133 7.94935C13.2413 8.99101 14.208 9.87435 15.258 9.87435C15.8913 9.87435 16.458 9.63268 16.8663 9.19102C17.2663 8.74935 17.4497 8.15768 17.3913 7.52435L17.158 5.23268C16.8997 3.34935 16.2913 2.79102 14.4663 2.79102H12.6163Z" fill="#2A037A"/>
<path d="M4.70051 11.1243C3.70884 11.1243 2.80884 10.7327 2.16717 10.0243C1.52551 9.31602 1.22551 8.38268 1.32551 7.39935L1.55051 5.10768C1.90051 2.56602 3.04217 1.54102 5.49217 1.54102H8.03384C8.20884 1.54102 8.37551 1.61602 8.50051 1.74935C8.62551 1.88268 8.67551 2.05768 8.65884 2.23268L8.07551 8.07435C7.90051 9.75768 6.39217 11.1243 4.70051 11.1243ZM5.49217 2.79102C3.66717 2.79102 3.05884 3.34102 2.79217 5.24935L2.56717 7.52435C2.50051 8.15768 2.69217 8.74935 3.09217 9.19102C3.49217 9.63268 4.05884 9.87435 4.70051 9.87435C5.75051 9.87435 6.72551 8.99101 6.82551 7.94935L7.34217 2.79102H5.49217Z" fill="#2A037A"/>
<path d="M12.0827 19.4577H7.91602C7.57435 19.4577 7.29102 19.1744 7.29102 18.8327V16.7493C7.29102 14.9993 8.24935 14.041 9.99935 14.041C11.7493 14.041 12.7077 14.9993 12.7077 16.7493V18.8327C12.7077 19.1744 12.4243 19.4577 12.0827 19.4577ZM8.54102 18.2077H11.4577V16.7493C11.4577 15.6993 11.0493 15.291 9.99935 15.291C8.94935 15.291 8.54102 15.6993 8.54102 16.7493V18.2077Z" fill="#2A037A"/>
</svg>
