<svg width="246" height="54" viewBox="0 0 246 54" fill="none" xmlns="http://www.w3.org/2000/svg">
<g clip-path="url(#clip0_102_8328)">
<path d="M55.1553 20.2188C54.1391 20.2188 53.2865 20.9152 53.2178 21.8324C53.1855 22.7219 53.9512 23.3904 54.9674 23.3904C55.9836 23.3904 56.8847 22.7219 56.917 21.8324C56.9857 20.9152 56.1735 20.2188 55.1553 20.2188Z" fill="#2A037A"/>
<path d="M89.3706 0L79.3881 7.62276L78.6628 8.1779L79.4952 11.0431L80.5356 10.3766L80.5437 10.3487C80.7559 10.2711 80.9821 10.1955 81.2185 10.1219C82.0085 9.87914 82.9196 9.68215 83.7884 9.68215C84.9743 9.68215 85.6956 10.0144 85.6309 11.0173L85.3723 15.2992H80.1215H75.699C75.3878 15.2992 75.1575 15.0187 75.2161 14.7182C75.3151 14.2188 75.3858 13.7234 75.4666 13.1981C75.6889 11.7794 76.0626 9.08324 76.2586 7.95903H72.723L71.8159 14.8754C71.7836 15.1182 71.5755 15.2992 71.327 15.2992H70.7633C70.4663 15.2992 70.236 15.0426 70.2744 14.7521L71.1532 7.95903H67.46L66.5529 14.8754C66.5206 15.1182 66.3125 15.2992 66.064 15.2992H65.5003C65.2033 15.2992 64.973 15.0426 65.0114 14.7521L65.8882 7.95903H62.195L61.2435 15.2336H57.2149C56.8977 15.2336 56.6553 14.957 56.6997 14.6486L57.7059 7.70235H54.5198L53.5581 14.8297C53.5258 15.0625 53.3258 15.2356 53.0874 15.2356H49.0346C48.6022 15.2356 48.2669 14.8635 48.3194 14.4397L49.1518 7.78393H44.8929C44.8727 7.98091 44.8464 8.20376 44.8404 8.26744C44.7616 9.33594 44.602 10.3607 44.4585 11.4192C44.3373 12.3106 44.212 13.1981 44.0848 14.0855C43.8565 15.6375 43.8464 17.4064 42.9473 18.7634C42.7513 19.0579 42.4544 19.2847 42.1513 19.4638C41.5351 19.8299 40.7755 20.0786 40.0522 20.0786C39.2501 20.0786 38.4925 19.9314 37.854 19.7046C37.5914 19.611 37.351 19.5056 37.1368 19.3902L36.9348 21.7799L36.8641 22.6056L36.8398 22.8981C37.7712 23.3995 39.4925 23.8512 41.1048 23.8512C44.0848 23.8512 46.7839 22.5937 47.7214 19.0599C47.7416 18.9882 47.8951 18.4351 47.9779 18.1307H51.6671C52.5399 18.1406 53.0066 18.1386 53.2248 18.1307H53.2894C53.843 18.1307 54.2329 18.2341 54.7703 18.055C55.136 17.9377 55.4532 17.7626 55.734 17.5437C55.734 17.5437 55.734 17.5437 55.734 17.5457C55.9886 17.9018 56.4068 18.1287 56.8735 18.1287H60.8051C61.3445 18.1287 61.8374 17.9456 62.2274 17.6392C62.4759 17.8143 62.7567 17.9516 63.0678 18.055C63.6032 18.2301 64.1487 18.3217 64.7003 18.3217H64.8094C65.2882 18.3217 65.7428 18.258 66.167 18.1307C66.5913 18.0013 66.963 17.7864 67.2843 17.482C67.6439 17.7745 68.0581 17.9854 68.5308 18.1187C69.0056 18.252 69.4824 18.3197 69.9612 18.3197H70.036C70.5027 18.3197 70.9694 18.256 71.4158 18.1207C71.8603 17.9874 72.3129 17.878 72.7675 17.6312C73.018 17.9774 73.4321 18.1963 73.8908 18.1963H80.1134H89.6049L89.9423 11.8012C90.1484 8.57585 88.3059 7.24072 85.5865 7.07159L90.5363 3.8462L89.3665 0.00795902L89.3706 0Z" fill="#2A037A"/>
<path d="M33.3643 19.6934C32.348 19.6934 31.4955 20.3878 31.4268 21.3071C31.3944 22.1965 32.1602 22.865 33.1764 22.865C34.1926 22.865 35.0937 22.1965 35.126 21.3071C35.1947 20.3898 34.3825 19.6934 33.3643 19.6934Z" fill="#2A037A"/>
<path d="M37.915 7.62695H33.5086L32.6197 13.5763C32.5833 14.1872 32.1873 14.7722 31.2257 14.7722H29.9832C29.7246 14.7722 29.5326 14.5394 29.5831 14.2906C29.6922 13.7574 29.767 13.2321 29.8559 12.671C30.0761 11.2543 30.4519 8.81484 30.6438 7.69261H27.1082C27.0921 7.812 27.0759 7.93139 27.0597 8.05077C27.0173 8.36117 26.9749 8.67158 26.9345 8.98397C26.8759 9.41375 26.8173 9.84553 26.7587 10.2753C26.694 10.7548 26.6294 11.2344 26.5647 11.7119C26.5041 12.1676 26.4415 12.6252 26.3789 13.0809C26.3304 13.443 26.2819 13.8051 26.2314 14.1673C26.2092 14.3265 26.193 14.4956 26.1708 14.6568C26.1506 14.812 26.1526 15.0129 26.0496 15.1383C25.9708 15.2338 25.8516 15.2975 25.7243 15.2975H25.0111C24.7525 15.2975 24.5545 15.0746 24.5889 14.8219L25.5364 7.69063H21.8432C21.8271 7.81001 21.8109 7.92741 21.7947 8.04679C21.7523 8.3552 21.7119 8.66362 21.6695 8.97402C21.6109 9.40182 21.5543 9.82961 21.4957 10.2574C21.4957 10.4544 21.4412 10.6653 21.4149 10.8603C21.3381 11.4214 21.2654 11.9805 21.1866 12.5417C21.124 12.9913 21.0634 13.443 21.0028 13.8927C20.9745 14.1056 20.9603 14.3205 20.9321 14.5354C20.9017 14.7602 20.8533 15.0269 20.6714 15.188C20.5805 15.2696 20.4613 15.3154 20.3381 15.3134C20.1421 15.3114 19.9441 15.2995 19.7481 15.2995C19.4895 15.2995 19.2915 15.0766 19.3239 14.8239L20.2754 7.69261H19.7663H16.1297C16.0226 8.81086 15.6549 11.4771 15.5499 12.5934C15.36 14.601 15.1701 16.6127 14.9781 18.6204C14.9256 19.1815 14.8731 19.7386 14.8185 20.2997C14.7498 21.028 14.8913 22.0109 14.1862 22.4785C13.7518 22.765 13.1437 22.966 12.6002 22.966H8.28072C7.73725 22.966 7.1271 22.765 6.69475 22.4785C6.31695 22.2258 6.1129 21.7861 6.16138 21.3384L7.37965 10.8464H3.7491L2.48438 21.4637C2.65206 24.6632 4.64007 25.8571 8.31102 25.8571H12.582C16.253 25.8571 18.2369 24.6632 18.4087 21.4637L18.7743 17.7727C18.8814 17.7787 18.9885 17.7847 19.0956 17.7847H19.2087C19.6875 17.7847 20.1401 17.721 20.5644 17.5936C20.9886 17.4663 21.3644 17.2494 21.6836 16.949C22.0392 17.2415 22.4554 17.4524 22.9281 17.5857C23.4029 17.717 23.8797 17.7847 24.3585 17.7847H24.4697C24.9202 17.7847 25.3667 17.725 25.795 17.5936C26.2779 17.4484 26.7627 17.333 27.2557 17.0524L27.3325 17.134C27.482 17.2972 27.6598 17.4345 27.8679 17.516C28.1123 17.6116 28.377 17.6613 28.6437 17.6613H31.2095C32.8177 17.6613 34.1188 17.4524 35.0805 16.947C35.7936 16.5729 36.325 16.0357 36.6604 15.2975C36.9068 14.7662 37.0503 14.1315 37.0907 13.3793L37.919 7.62695H37.915Z" fill="#2A037A"/>
<path d="M28.508 19.6934C27.52 19.6934 26.6675 20.3878 26.5988 21.3071C26.5644 22.1965 27.3321 22.865 28.3201 22.865C29.308 22.865 30.2657 22.1965 30.298 21.3071C30.3667 20.3898 29.5242 19.6934 28.508 19.6934Z" fill="#2A037A"/>
<path d="M92.334 17.6483H97.7182L99.7102 1.74219H94.326L92.334 17.6483Z" fill="#2A037A"/>
<path d="M126.015 20.8086C124.989 20.8086 124.13 21.511 124.06 22.4362C124.025 23.3336 124.799 24.0081 125.823 24.0081C126.848 24.0081 127.757 23.3336 127.789 22.4362C127.858 21.511 127.038 20.8086 126.013 20.8086H126.015Z" fill="#2A037A"/>
<path d="M130.914 20.8086C129.918 20.8086 129.029 21.511 128.958 22.4362C128.924 23.3336 129.726 24.0081 130.722 24.0081C131.718 24.0081 132.655 23.3336 132.688 22.4362C132.758 21.511 131.938 20.8086 130.912 20.8086H130.914Z" fill="#2A037A"/>
<path d="M134.344 18.4159L134.686 11.9651C134.892 8.71182 133.035 7.36476 130.291 7.19563L135.284 3.94238L134.104 0.0703125L124.034 7.75674L123.301 8.31586L124.139 11.205L125.19 10.5325L125.198 10.5046C125.412 10.427 125.64 10.3494 125.879 10.2758C126.677 10.031 127.594 9.83206 128.471 9.83206C129.667 9.83206 130.394 10.1683 130.328 11.1791L130.067 15.4989H121.588C121.355 15.4909 121.123 15.483 120.891 15.481C120.782 15.481 120.668 15.4869 120.553 15.4989H119.078C119.078 15.4989 119.078 15.5029 119.078 15.5049C118.949 15.4611 118.83 15.3934 118.719 15.2959C118.497 15.1009 117.256 13.4435 116.331 12.3133C115.377 13.1649 113.961 14.4463 113.193 15.1109C113.769 15.7695 113.611 15.5407 114.199 16.1436C114.818 16.7763 115.502 17.3275 116.284 17.7374C116.335 17.7632 116.387 17.7911 116.438 17.8169C116.569 17.8806 116.7 17.9403 116.836 17.996C116.911 18.0279 116.987 18.0577 117.066 18.0856C117.499 18.2447 117.927 18.3482 118.351 18.386C118.369 18.396 118.387 18.4039 118.408 18.4139H118.82C118.816 18.4756 118.81 18.5353 118.806 18.593C118.652 20.135 118 20.6305 116.353 20.6305H109.916C109.062 20.6305 107.89 20.1529 107.94 19.0028L108.409 11.0359H103.995L103.538 18.6666C103.356 21.8363 106.043 23.6589 109.346 23.6589H116.866C120.226 23.6589 122.881 22.1725 123.113 18.4417L123.121 18.4139H134.346L134.344 18.4159Z" fill="#2A037A"/>
<path d="M156.022 3.54715C157.046 3.54715 157.983 2.87262 158.018 1.97723C158.088 1.05199 157.238 0.349609 156.214 0.349609C155.189 0.349609 154.357 1.05 154.288 1.97723C154.254 2.87461 155.028 3.54715 156.024 3.54715H156.022Z" fill="#2A037A"/>
<path d="M161.111 0.349609C160.085 0.349609 159.226 1.05 159.155 1.97723C159.121 2.87461 159.895 3.54715 160.919 3.54715C161.943 3.54715 162.853 2.87262 162.885 1.97723C162.956 1.05199 162.133 0.349609 161.109 0.349609H161.111Z" fill="#2A037A"/>
<path d="M157.594 14.2931C157.558 14.9099 157.158 15.4989 156.188 15.4989H153.709L151.956 15.5089C151.956 15.5089 151.933 15.5069 151.915 15.5089H151.624C151.865 13.7698 152.18 11.402 152.255 10.5345C152.317 9.8082 152.388 9.06005 152.285 8.34573C152.057 6.77183 151.002 5.84859 149.543 5.31732C148.557 4.95917 147.531 4.81988 146.489 4.78208C145 4.73035 143.527 4.82585 142.106 5.30936C139.961 6.04159 138.696 7.48815 138.442 9.74254C138.284 11.1394 138.118 12.5362 137.967 13.935C137.737 16.0481 138.708 17.6001 140.735 18.3502C141.931 18.792 143.181 18.9113 144.448 18.9133C145.002 18.9133 145.551 18.8875 146.097 18.8278C145.969 19.94 144.735 20.5728 143.575 20.5728C142.416 20.5728 141.274 20.2644 140.484 19.8425L139.24 22.6481C140.224 23.1814 142.05 23.6589 143.759 23.6589C147.038 23.6589 149.96 22.3675 150.855 18.2806C150.911 18.2647 150.964 18.2388 151.01 18.201L153.513 18.392L153.546 18.4119H156.166C159.869 18.4119 161.871 17.2061 162.041 13.9807L162.518 5.79089H158.075L157.594 14.2891V14.2931ZM147.511 11.1035C147.305 12.96 147.301 14.4722 147.281 15.6382C146.014 15.6641 144.967 15.682 144.923 15.684C143.701 15.7277 142.618 15.4989 142.733 13.9608C142.854 12.8605 142.828 13.0734 142.951 11.9731C143.068 10.9245 143.199 9.87785 143.305 8.82725C143.432 7.5359 144.305 6.56092 145.515 6.3898C146.751 6.2147 147.824 7.09617 147.78 8.32385C147.745 9.25306 147.612 10.1763 147.513 11.1035H147.511Z" fill="#2A037A"/>
<path d="M149.91 25.9332C146.229 27.4513 142.532 27.3757 140.079 27.0454C137.386 26.6833 135.55 25.9411 135.534 25.9332C135.077 25.7461 134.552 25.9152 134.297 26.3331C134.043 26.7509 134.135 27.2882 134.519 27.5986C137.263 29.8172 140.033 30.5036 142.413 30.5036C143.667 30.5036 144.813 30.3126 145.789 30.0539C148.807 29.2541 150.836 27.6722 150.92 27.6065C151.308 27.3001 151.409 26.7609 151.155 26.3391C150.9 25.9172 150.371 25.7461 149.912 25.9351L149.91 25.9332Z" fill="#2A037A"/>
<path d="M245.944 9.5305C245.703 7.86706 244.588 6.89208 243.046 6.33097C242.006 5.95292 240.919 5.80568 239.818 5.76588C238.246 5.71017 236.688 5.81165 235.187 6.32301C232.921 7.09703 231.583 8.62516 231.314 11.0089C231.149 12.4853 231.133 12.6982 230.971 14.1746C230.941 14.4571 230.931 14.7297 230.939 14.9924H225.56L226.718 5.75195H222.51C222.49 5.94695 222.463 6.16781 222.459 6.23148C222.38 7.28606 221.962 10.3383 221.821 11.385C221.704 12.2644 221.578 13.1439 221.449 14.0194C221.225 15.5535 221.213 17.3025 220.326 18.6416C220.132 18.9341 219.841 19.1589 219.54 19.334C218.93 19.6942 218.178 19.9389 217.463 19.9389C216.35 19.9389 215.315 19.6504 214.58 19.2604L214.289 22.7266C215.208 23.224 216.909 23.6677 218.503 23.6677C221.449 23.6677 224.116 22.4281 225.043 18.9361C225.049 18.9102 225.041 18.8863 225.025 18.8605H232.783C233.046 18.8605 233.3 18.8028 233.539 18.6953C233.654 18.7471 233.771 18.7948 233.894 18.8406C235.159 19.3082 236.478 19.4335 237.818 19.4375C239.202 19.4335 240.566 19.3042 241.877 18.8406C243.986 18.0944 245.309 16.6777 245.628 14.4571C245.814 13.1718 245.794 13.1399 245.907 11.8466C245.974 11.0785 246.049 10.2886 245.94 9.53249L245.944 9.5305ZM240.899 12.4435C240.757 13.7468 240.755 13.7866 240.622 15.0899C240.493 16.3792 239.749 17.3602 238.652 17.6726C237.446 18.0148 235.745 17.3284 235.858 15.5853C235.985 14.4233 236.111 13.2593 236.24 12.0973C236.363 10.989 236.343 11.1462 236.454 10.0379C236.59 8.67292 237.511 7.64421 238.79 7.46314C240.097 7.2781 241.23 8.2093 241.182 9.50662C241.145 10.4876 241.006 11.4645 240.901 12.4435H240.899Z" fill="#2A037A"/>
<path d="M217.504 16.5862C217.803 16.0112 217.856 15.3387 217.985 14.7139C218.122 14.0354 218.252 13.3549 218.359 12.6704C218.595 11.1582 219.104 7.12494 219.32 5.754H215.124C215.039 6.47429 214.639 9.65591 214.591 10.0379C214.466 11.0328 214.344 12.0257 214.221 13.0206C214.124 13.8006 214.033 14.6661 213.461 15.269C213.175 15.5715 212.003 16.0689 212.045 15.2849C212.088 14.493 212.272 13.6852 212.371 12.8972C212.48 12.0416 212.583 11.184 212.688 10.3284C212.76 9.74744 212.831 9.16444 212.904 8.58144C212.904 8.58144 213.223 6.12011 213.261 5.75201H208.851C208.766 6.46832 208.366 9.64795 208.318 10.032C208.196 10.995 208.073 11.9561 207.954 12.9211C207.954 13.524 207.873 14.1727 207.752 14.7636C207.663 15.1994 207.318 15.472 206.881 15.5436C206.518 15.6033 205.994 15.5456 205.847 15.1516C205.81 15.0561 205.81 14.9546 205.814 14.8551C205.837 14.3696 205.972 13.908 206.031 13.4305C206.097 12.8913 206.166 12.352 206.231 11.8128C206.348 10.8677 206.839 6.93989 206.98 5.75201H202.576L201.477 14.501C201.434 14.698 201.384 14.8611 201.238 14.9904C201.059 15.1516 200.822 15.2372 200.582 15.2829H196.784C196.99 13.715 197.222 11.7412 197.283 11.0368C197.341 10.3583 197.406 9.66188 197.311 8.99332C197.099 7.52687 196.115 6.66531 194.755 6.16986C193.836 5.83558 192.878 5.70624 191.907 5.67242C190.521 5.62267 189.145 5.71221 187.821 6.16588C185.823 6.84836 184.641 8.19742 184.405 10.3006C184.258 11.6039 184.102 13.1738 183.961 14.4771C183.746 16.4469 184.651 17.8955 186.541 18.5939C187.656 19.0058 188.821 19.1172 190.001 19.1192C190.519 19.1192 191.03 19.0953 191.539 19.0396C191.42 20.0763 190.27 20.6672 189.187 20.6672C188.104 20.6672 187.042 20.3807 186.304 19.9867L185.144 22.6033C186.062 23.1007 187.765 23.5444 189.359 23.5444C192.383 23.5444 195.08 22.3645 195.947 18.6536H201.592C202.119 18.6536 202.606 18.4904 203.006 18.2119C203.188 18.3034 203.378 18.385 203.582 18.4526C204.22 18.6615 204.869 18.767 205.528 18.767H205.661C206.235 18.767 206.774 18.6914 207.279 18.5382C207.786 18.387 208.229 18.1303 208.611 17.7681C209.037 18.1164 209.532 18.3691 210.096 18.5282C210.661 18.6874 211.229 18.767 211.803 18.767H211.934C212.08 18.767 212.225 18.761 212.368 18.7491H212.375C214.128 18.765 215.336 18.4108 216.163 17.9094C216.7 17.5871 217.217 17.1414 217.506 16.5803L217.504 16.5862ZM192.854 11.5701C192.668 13.2434 192.658 14.883 192.64 15.9555C192.64 15.9933 192.64 16.0291 192.64 16.0649C192.228 16.0729 191.844 16.0808 191.513 16.0868C190.892 16.0987 190.466 16.1047 190.442 16.1067C189.3 16.1465 188.292 15.9356 188.399 14.501C188.51 13.4762 188.486 13.4066 188.601 12.3799C188.71 11.4029 188.834 10.4259 188.931 9.44698C189.052 8.24318 189.864 7.33386 190.991 7.17468C192.145 7.00953 193.145 7.83329 193.105 8.9774C193.072 9.84295 192.949 10.7065 192.856 11.5681L192.854 11.5701Z" fill="#2A037A"/>
<path d="M178.957 1.33467C178.929 2.07685 178.901 2.81903 178.87 3.56121C178.84 4.32727 178.81 5.09332 178.782 5.85938C178.751 6.60355 178.723 7.34772 178.693 8.09189C178.666 8.7684 178.64 9.44691 178.614 10.1234C178.592 10.6885 178.569 11.2536 178.547 11.8207C178.531 12.2286 178.515 12.6385 178.499 13.0444C178.47 13.7647 178.499 14.5526 178.087 15.1814C177.648 15.848 176.779 15.9355 176.042 15.9355H172.561C171.723 15.9355 170.569 15.4679 170.619 14.3357L171.145 5.75591H166.805L166.292 14.0035C166.112 17.1194 168.755 18.9122 172.001 18.9122H176.545C176.884 18.9122 177.224 18.8963 177.561 18.8624C179.341 18.6814 180.677 17.9292 181.578 16.3354C182.139 15.3426 182.226 14.282 182.293 13.1678C182.376 11.7889 182.402 10.408 182.455 9.02906C182.56 6.321 182.667 3.61294 182.772 0.906876C182.782 0.682034 182.79 0.459181 182.798 0.236328H178.996C178.982 0.602443 178.967 0.968558 178.953 1.33467H178.957Z" fill="#2A037A"/>
<path d="M181.885 16.0525L181.889 15.959C181.887 15.9888 181.883 16.0227 181.879 16.0525H181.885Z" fill="#2A037A"/>
<path d="M111.463 47.1294C112.605 47.5512 113.799 47.6666 115.007 47.6686C116.256 47.6646 117.49 47.5472 118.674 47.1294C120.579 46.4568 121.775 45.1754 122.064 43.1698C122.232 42.0077 122.359 40.8397 122.46 39.6698C122.521 38.9753 122.587 38.261 122.488 37.5805C122.27 36.0783 121.262 35.1968 119.872 34.6914C118.933 34.3492 117.951 34.2158 116.957 34.182C115.536 34.1323 114.13 34.2238 112.775 34.6854C110.728 35.3838 109.52 36.7647 109.277 38.9176C109.128 40.2508 108.968 41.5839 108.823 42.919C108.603 44.9347 109.532 46.417 111.463 47.1333V47.1294ZM113.233 44.1905C113.348 43.1399 113.461 42.0893 113.579 41.0407C113.69 40.0399 113.817 39.041 113.916 38.0382C114.037 36.8065 114.87 35.8753 116.025 35.7121C117.207 35.545 118.229 36.3867 118.187 37.5566C118.155 38.4421 118.027 39.3255 117.932 40.209C117.805 41.3869 117.658 42.5629 117.539 43.7408C117.421 44.9048 116.751 45.7922 115.759 46.0748C114.67 46.3852 113.132 45.7644 113.235 44.1885L113.233 44.1905Z" fill="#FD6500"/>
<path d="M130.654 37.5078C129.761 38.4728 128.735 39.3463 128.314 40.6596C128.51 38.6241 128.704 36.5885 128.902 34.5451H125.126C124.72 38.7554 124.318 42.9458 123.914 47.1303H127.69C127.846 45.5245 127.999 43.9447 128.153 42.3628C128.213 42.3966 128.232 42.4305 128.236 42.4643C128.385 43.9049 129.143 44.9674 130.343 45.7494C131.416 46.4498 132.622 46.8179 133.88 46.993C134.79 47.1203 135.711 47.1581 136.658 47.2377C136.79 45.8767 136.913 44.6152 137.038 43.3199C136.881 43.3199 136.761 43.3199 136.644 43.3199C134.777 43.3199 132.913 43.3199 131.046 43.3199C130.945 43.3199 130.844 43.3259 130.745 43.3139C130.349 43.2622 130.185 42.8802 130.426 42.5678C130.48 42.4981 130.545 42.4345 130.607 42.3708C133.022 39.8338 135.434 37.2949 137.848 34.758C137.903 34.7003 137.949 34.6326 138.028 34.5371H133.444C132.521 35.522 131.581 36.509 130.656 37.5078H130.654Z" fill="#FD6500"/>
<path d="M138.938 47.164H143.099C143.51 42.9497 143.918 38.7533 144.326 34.543H140.164C139.756 38.7473 139.348 42.9377 138.936 47.164H138.938Z" fill="#FD6500"/>
<path d="M108.283 38.26L108.79 34.5352H97.1695L96.4785 38.26H100.806C100.517 41.2227 100.23 44.1855 99.9394 47.1641H104.101C104.39 44.1914 104.679 41.2247 104.968 38.26H108.283Z" fill="#FD6500"/>
<path d="M174.518 37.506C174.462 37.5677 174.403 37.6294 174.345 37.6891C173.898 38.1586 173.468 38.6282 173.128 39.1774C173.122 39.1217 173.118 39.066 173.11 39.0123C173.092 38.8869 173.066 38.7615 173.033 38.6402C172.747 37.5319 171.997 36.6464 171.041 36.0216C169.965 35.3173 168.756 34.9492 167.496 34.7721C166.585 34.6467 165.661 34.6069 164.712 34.5273C164.58 35.8923 164.457 37.1578 164.332 38.4551H170.338C170.439 38.4551 170.54 38.4472 170.639 38.4611C171.037 38.5128 171.201 38.8968 170.961 39.2092C170.906 39.2809 170.839 39.3426 170.779 39.4082C168.358 41.9531 165.938 44.496 163.52 47.0409C163.463 47.0986 163.419 47.1663 163.34 47.2618H167.936C168.863 46.2769 169.803 45.286 170.73 44.2831C170.787 44.2214 170.845 44.1598 170.904 44.1001C171.35 43.6325 171.781 43.1609 172.12 42.6117C172.126 42.6674 172.13 42.7232 172.138 42.7769C172.157 42.9022 172.183 43.0276 172.215 43.149C172.502 44.2573 173.252 45.1427 174.207 45.7675C175.284 46.4719 176.492 46.84 177.753 47.017C178.664 47.1424 179.587 47.1822 180.537 47.2618C180.668 45.8968 180.791 44.6313 180.917 43.334H174.91C174.809 43.334 174.708 43.342 174.609 43.328C174.211 43.2763 174.048 42.8923 174.288 42.5799C174.343 42.5083 174.409 42.4466 174.47 42.3809C176.89 39.836 179.311 37.2931 181.729 34.7482C181.786 34.6905 181.83 34.6229 181.909 34.5273H177.315C176.387 35.5123 175.446 36.5032 174.52 37.506H174.518Z" fill="#FD6500"/>
<path d="M150.905 34.5743H150.465C150.055 38.7886 149.647 42.991 149.234 47.2272H153.408H161.033L161.482 44.8156H153.643C153.699 44.2366 153.756 43.6576 153.81 43.0805H161.569L162.019 40.0362H154.107C154.164 39.4572 154.221 38.8802 154.275 38.3011H162.047L162.556 34.5684H150.907V34.5763L150.905 34.5743Z" fill="#FD6500"/>
<path d="M208.208 34.5743H207.767C207.357 38.7886 206.949 42.991 206.537 47.2272H210.711H218.336L218.784 44.8156H210.945C211.002 44.2366 211.059 43.6576 211.113 43.0805H218.871L219.322 40.0362H211.41C211.467 39.4572 211.523 38.8802 211.578 38.3011H219.35L219.859 34.5684H208.21V34.5763L208.208 34.5743Z" fill="#FD6500"/>
<path d="M192.393 34.9822C191.858 34.7076 191.169 34.5703 190.326 34.5703H183.689L182.105 47.2212H186.387L187.156 41.1285H189.512C190.482 41.1285 191.3 40.9455 191.963 40.5794C192.627 40.2133 193.13 39.7536 193.472 39.1985C193.815 38.6433 193.985 38.0783 193.985 37.5012C193.985 36.9958 193.854 36.5183 193.589 36.0666C193.324 35.6169 192.926 35.2548 192.391 34.9802L192.393 34.9822ZM189.183 39.2303C188.819 39.7934 188.308 40.074 187.651 40.074H187.288L187.843 35.6249H188.207C188.734 35.6249 189.12 35.8139 189.363 36.194C189.605 36.574 189.726 37.0098 189.726 37.5012C189.726 38.0922 189.544 38.6672 189.181 39.2303H189.183Z" fill="#FD6500"/>
<path d="M204.368 34.9822C203.832 34.7076 203.143 34.5703 202.303 34.5703H195.666L194.082 47.2212H198.363L199.135 41.1285H199.862C200.632 41.2698 201.018 41.8389 201.018 42.8358C201.018 43.0049 201.004 43.1879 200.975 43.3829L200.654 45.9338C200.626 46.2422 200.678 46.5208 200.814 46.7675C200.949 47.0142 201.095 47.1655 201.252 47.2212H205.085L205.149 46.7357C205.079 46.6939 205.018 46.6442 204.968 46.5884C204.917 46.5327 204.893 46.4472 204.893 46.3357C204.893 46.3497 204.911 46.2084 204.945 45.9139C204.982 45.6194 205.024 45.2672 205.075 44.8593C205.125 44.4514 205.168 44.0694 205.204 43.7093C205.24 43.3511 205.257 43.1223 205.257 43.0248C205.257 42.5612 205.149 42.1175 204.935 41.6956C204.721 41.2738 204.343 40.9236 203.8 40.6411C204.513 40.2909 205.052 39.8292 205.416 39.2602C205.78 38.6911 205.962 38.1041 205.962 37.4992C205.962 36.9938 205.83 36.5163 205.566 36.0646C205.301 35.6149 204.901 35.2528 204.368 34.9782V34.9822ZM201.145 39.2303C200.788 39.7934 200.282 40.074 199.626 40.074H199.262L199.818 35.6249H200.181C200.709 35.6249 201.091 35.8119 201.327 36.184C201.563 36.5561 201.681 36.9879 201.681 37.4813C201.681 38.0862 201.503 38.6692 201.145 39.2303Z" fill="#FD6500"/>
<path d="M227.17 35.8295C227.632 35.5628 228.143 35.4295 228.701 35.4295C229.699 35.4295 230.461 35.6305 230.982 36.0304C231.503 36.4304 231.75 36.9338 231.721 37.5387H233.071C233.099 36.5836 232.699 35.8175 231.873 35.2405C231.045 34.6635 229.996 34.377 228.725 34.377H228.255C227.64 34.377 226.871 34.4784 225.943 34.6834C225.016 34.8863 224.182 35.2564 223.438 35.7897C222.697 36.3249 222.246 37.0751 222.088 38.0461C221.959 39.1006 222.303 39.996 223.117 40.7342C223.931 41.4724 224.85 42.0932 225.879 42.6006C225.963 42.6563 226.056 42.7061 226.157 42.7479C226.842 43.114 227.416 43.4681 227.881 43.8124C228.343 44.1566 228.562 44.5267 228.533 44.9187C228.519 45.1296 228.459 45.3485 228.352 45.5713C228.244 45.7962 228.055 45.9892 227.784 46.1503C227.513 46.3115 227.091 46.3931 226.521 46.3931C225.794 46.3931 225.155 46.2518 224.606 45.9713C224.056 45.6907 223.577 45.3524 223.171 44.9585C222.765 44.5645 222.412 44.1865 222.111 43.8203L220.955 44.7277C221.668 45.6549 222.501 46.3414 223.448 46.7831C224.398 47.2268 225.315 47.4397 226.2 47.4258H226.456C227.426 47.4258 228.384 47.2984 229.325 47.0457C230.267 46.793 231.049 46.3812 231.669 45.8121C232.289 45.243 232.6 44.473 232.6 43.504C232.6 42.8434 232.422 42.2783 232.065 41.8067C231.707 41.3351 231.259 40.9252 230.715 40.5731C230.172 40.2209 229.624 39.8985 229.067 39.604C228.996 39.5762 228.923 39.5404 228.853 39.4986C228.196 39.1762 227.636 38.834 227.172 38.4758C226.707 38.1177 226.477 37.6859 226.477 37.1785C226.477 36.5458 226.709 36.0961 227.172 35.8295H227.17Z" fill="#FD6500"/>
<path d="M243.133 40.5731C242.59 40.2209 242.042 39.8985 241.485 39.604C241.414 39.5762 241.341 39.5404 241.271 39.4986C240.614 39.1762 240.054 38.834 239.59 38.4758C239.125 38.1177 238.895 37.6859 238.895 37.1785C238.895 36.5458 239.127 36.0961 239.59 35.8295C240.052 35.5628 240.563 35.4295 241.121 35.4295C242.119 35.4295 242.881 35.6305 243.402 36.0304C243.923 36.4304 244.17 36.9338 244.141 37.5387H245.489C245.517 36.5836 245.117 35.8175 244.291 35.2405C243.463 34.6635 242.414 34.377 241.143 34.377H240.673C240.058 34.377 239.289 34.4784 238.361 34.6834C237.434 34.8863 236.598 35.2564 235.856 35.7897C235.115 36.3249 234.664 37.0751 234.506 38.0461C234.377 39.1006 234.721 39.996 235.535 40.7342C236.349 41.4724 237.268 42.0932 238.297 42.6006C238.381 42.6563 238.474 42.7061 238.575 42.7479C239.26 43.114 239.834 43.4681 240.299 43.8124C240.761 44.1566 240.98 44.5267 240.951 44.9187C240.937 45.1296 240.877 45.3485 240.769 45.5713C240.662 45.7962 240.473 45.9892 240.202 46.1503C239.931 46.3115 239.509 46.3931 238.939 46.3931C238.212 46.3931 237.571 46.2518 237.024 45.9713C236.474 45.6907 235.995 45.3524 235.589 44.9585C235.183 44.5645 234.83 44.1865 234.529 43.8203L233.373 44.7277C234.086 45.6549 234.919 46.3414 235.866 46.7831C236.816 47.2268 237.733 47.4397 238.618 47.4258H238.874C239.844 47.4258 240.802 47.2984 241.743 47.0457C242.685 46.793 243.467 46.3812 244.087 45.8121C244.707 45.243 245.018 44.473 245.018 43.504C245.018 42.8434 244.84 42.2783 244.483 41.8067C244.125 41.3351 243.677 40.9252 243.133 40.5731Z" fill="#FD6500"/>
<path d="M11.9402 34.6504L7.90961 42.9437L5.92766 34.6504H1.57788L0 47.2495H1.06674L2.21833 38.031L4.43464 47.2495H6.97218L11.3644 38.22L10.235 47.2495H14.4979L16.0758 34.6504H11.9402Z" fill="#FD6500"/>
<path d="M21.6615 34.6504L21.3625 35.301L15.9258 47.2495H17.0976L18.8452 43.4272H22.6616L23.2798 47.2495H27.7569L25.1769 34.6504H21.6595H21.6615ZM19.231 42.5875L21.6615 37.2112L22.5363 42.5875H19.231Z" fill="#FD6500"/>
<path d="M39.3056 35.0603C38.7722 34.7877 38.0873 34.6504 37.2489 34.6504H30.6404L29.0625 47.2495H33.3274L34.0952 41.1808H34.8205C35.5882 41.3201 35.972 41.8871 35.972 42.882C35.972 43.0492 35.9579 43.2322 35.9296 43.4272L35.6104 45.9681C35.5821 46.2765 35.6346 46.5531 35.77 46.7979C35.9054 47.0426 36.0508 47.1938 36.2064 47.2495H40.0228L40.0875 46.766C40.0168 46.7242 39.9561 46.6745 39.9056 46.6188C39.8551 46.5631 39.8309 46.4795 39.8309 46.3661C39.8309 46.38 39.8491 46.2407 39.8834 45.9462C39.9178 45.6518 39.9622 45.3016 40.0107 44.8956C40.0612 44.4897 40.1036 44.1077 40.138 43.7515C40.1723 43.3954 40.1905 43.1665 40.1905 43.069C40.1905 42.6074 40.0834 42.1657 39.8713 41.7459C39.6571 41.326 39.2814 40.9758 38.7419 40.6953C39.4531 40.3451 39.9885 39.8874 40.3521 39.3203C40.7138 38.7533 40.8956 38.1683 40.8956 37.5674C40.8956 37.064 40.7643 36.5884 40.5016 36.1387C40.239 35.691 39.841 35.3309 39.3076 35.0583L39.3056 35.0603ZM36.0973 39.2905C35.7417 39.8496 35.2366 40.1302 34.5841 40.1302H34.2224L34.776 35.699H35.1376C35.6629 35.699 36.0428 35.884 36.2791 36.2561C36.5135 36.6262 36.6307 37.058 36.6307 37.5475C36.6307 38.1504 36.4529 38.7314 36.0973 39.2905Z" fill="#FD6500"/>
<path d="M47.4912 35.8899C47.9539 35.6233 48.461 35.49 49.0166 35.49C50.0106 35.49 50.7682 35.689 51.2874 36.0889C51.8067 36.4889 52.0511 36.9883 52.0228 37.5912H53.3664C53.3946 36.6401 52.9966 35.876 52.1723 35.303C51.348 34.7299 50.3035 34.4414 49.0388 34.4414H48.5701C47.9579 34.4414 47.1922 34.5429 46.2669 34.7458C45.3436 34.9488 44.5112 35.3169 43.7718 35.8482C43.0323 36.3794 42.5838 37.1296 42.4283 38.0946C42.301 39.1452 42.6404 40.0366 43.4526 40.7728C44.2627 41.507 45.18 42.1278 46.2022 42.6312C46.2871 42.687 46.38 42.7367 46.479 42.7785C47.1619 43.1426 47.7337 43.4968 48.1963 43.839C48.659 44.1813 48.8751 44.5494 48.8469 44.9414C48.8327 45.1523 48.7721 45.3692 48.665 45.592C48.558 45.8168 48.3701 46.0079 48.0993 46.169C47.8286 46.3302 47.4104 46.4098 46.8407 46.4098C46.1154 46.4098 45.479 46.2705 44.9315 45.99C44.3839 45.7094 43.9071 45.3731 43.5031 44.9811C43.099 44.5892 42.7455 44.2111 42.4485 43.847L41.2969 44.7503C42.008 45.6736 42.8364 46.3561 43.7799 46.7978C44.7254 47.2395 45.6386 47.4524 46.5194 47.4385H46.776C47.7417 47.4385 48.6953 47.3131 49.6328 47.0604C50.5702 46.8077 51.3501 46.3998 51.9683 45.8328C52.5865 45.2657 52.8956 44.4996 52.8956 43.5326C52.8956 42.874 52.7178 42.3109 52.3622 41.8413C52.0067 41.3717 51.5582 40.9638 51.0187 40.6136C50.4793 40.2634 49.9318 39.9411 49.3762 39.6486C49.3055 39.6207 49.2348 39.5849 49.162 39.5431C48.5074 39.2208 47.9498 38.8825 47.4892 38.5244C47.0265 38.1682 46.7962 37.7364 46.7962 37.233C46.7962 36.6023 47.0265 36.1546 47.4892 35.8899H47.4912Z" fill="#FD6500"/>
<path d="M65.0705 34.7976C64.2179 34.5588 63.2502 34.4414 62.1713 34.4414H61.5733C60.4359 34.4414 59.3833 34.5807 58.4175 34.8612C57.4498 35.1418 56.6558 35.5895 56.0295 36.2043C55.4032 36.8212 55.0274 37.633 54.9001 38.6398L54.3042 43.26C54.2759 43.457 54.2617 43.6381 54.2617 43.8052C54.2617 44.6867 54.5143 45.395 55.0193 45.9263C55.5244 46.4575 56.2053 46.8475 57.0659 47.0923C57.9266 47.337 58.8883 47.4604 59.955 47.4604H60.551C61.7026 47.4604 62.7613 47.3211 63.727 47.0405C64.6927 46.76 65.4867 46.3123 66.1049 45.6975C66.7231 45.0826 67.0969 44.2688 67.2242 43.262L67.8222 38.6418C67.8505 38.4468 67.8646 38.2637 67.8646 38.0966C67.8646 37.2151 67.6121 36.5048 67.107 35.9656C66.6019 35.4263 65.9231 35.0383 65.0705 34.7996V34.7976ZM63.5573 38.5343L62.9593 43.3635C62.9027 43.8947 62.8057 44.3882 62.6724 44.8439C62.537 45.2995 62.3168 45.6736 62.0117 45.9681C61.7067 46.2625 61.2541 46.4098 60.6581 46.4098H60.1045C59.4499 46.4098 59.0176 46.2307 58.8034 45.8745C58.5913 45.5184 58.4842 45.0806 58.4842 44.5613C58.4842 44.1972 58.5125 43.8191 58.5691 43.4271V43.3635L59.1651 38.5343C59.2216 38.0031 59.3186 37.5096 59.452 37.054C59.5873 36.5983 59.8075 36.2242 60.1126 35.9297C60.4177 35.6353 60.8702 35.488 61.4662 35.488H62.0198C62.6744 35.488 63.1068 35.6671 63.3209 36.0233C63.5351 36.3794 63.6401 36.8251 63.6401 37.3564C63.6401 37.7066 63.6118 38.0986 63.5553 38.5323L63.5573 38.5343Z" fill="#FD6500"/>
<path d="M79.8674 34.7976C79.0148 34.5588 78.0471 34.4414 76.9682 34.4414H76.3702C75.2327 34.4414 74.1822 34.5807 73.2144 34.8612C72.2467 35.1418 71.4527 35.5895 70.8264 36.2043C70.2001 36.8212 69.8243 37.633 69.697 38.6398L69.101 43.26C69.0727 43.457 69.0586 43.6381 69.0586 43.8052C69.0586 44.6867 69.3111 45.395 69.8162 45.9263C70.3213 46.4575 71.0022 46.8475 71.8628 47.0923C72.7235 47.337 73.6852 47.4604 74.7519 47.4604H75.3479C76.4995 47.4604 77.5581 47.3211 78.5239 47.0405C79.4896 46.76 80.2836 46.3123 80.9018 45.6975C81.52 45.0826 81.8938 44.2688 82.0211 43.262L82.6171 38.6418C82.6453 38.4468 82.6595 38.2637 82.6595 38.0966C82.6595 37.2151 82.4069 36.5048 81.9019 35.9656C81.3968 35.4263 80.7179 35.0383 79.8654 34.7996L79.8674 34.7976ZM78.3541 38.5343L77.7561 43.3635C77.6996 43.8947 77.6026 44.3882 77.4692 44.8439C77.3339 45.2995 77.1137 45.6736 76.8086 45.9681C76.5035 46.2625 76.051 46.4098 75.455 46.4098H74.9014C74.2468 46.4098 73.8145 46.2307 73.6003 45.8745C73.3882 45.5184 73.2811 45.0806 73.2811 44.5613C73.2811 44.1972 73.3094 43.8191 73.3659 43.4271V43.3635L73.9619 38.5343C74.0185 38.0031 74.1155 37.5096 74.2488 37.054C74.3842 36.5983 74.6044 36.2242 74.9095 35.9297C75.2146 35.6353 75.6671 35.488 76.2631 35.488H76.8167C77.4713 35.488 77.9036 35.6671 78.1178 36.0233C78.3299 36.3794 78.437 36.8251 78.437 37.3564C78.437 37.7066 78.4087 38.0986 78.3521 38.5323L78.3541 38.5343Z" fill="#FD6500"/>
<path d="M89.7822 34.6504H85.5193L84.0687 46.1989L83.9414 47.2495H93.1097L93.237 46.1989H88.3336L89.7822 34.6504Z" fill="#FD6500"/>
<path d="M121.288 49.8544C117.949 51.2313 114.597 51.1616 112.373 50.8632C109.93 50.5349 108.265 49.8603 108.249 49.8544C107.835 49.6852 107.358 49.8384 107.128 50.2165C106.896 50.5946 106.982 51.084 107.328 51.3646C109.817 53.3762 112.328 53.999 114.486 53.999C115.623 53.999 116.662 53.8259 117.547 53.5911C120.284 52.8649 122.125 51.4322 122.202 51.3706C122.553 51.094 122.644 50.6025 122.414 50.2205C122.183 49.8384 121.703 49.6832 121.286 49.8544H121.288Z" fill="#FD6500"/>
</g>
<defs>
<clipPath id="clip0_102_8328">
<rect width="246" height="54" fill="white"/>
</clipPath>
</defs>
</svg>
