<svg width="236" height="198" viewBox="0 0 236 198" fill="none" xmlns="http://www.w3.org/2000/svg">
<path d="M3.30576 145.505C16.8187 121.874 11.1286 111.797 7.44668 89.1912C5.48957 77.1751 6.22521 62.9214 15.6635 52.7473C26.0753 41.524 42.6799 39.7739 56.7696 40.5072C70.8591 41.2405 85.7224 43.2706 99.3543 36.5186C108.834 31.823 116.28 23.4919 125.377 17.9621C144.138 6.55762 169.009 10.0436 179.279 25.5174C183.759 32.2673 185.651 40.7473 190.867 46.9311C195.741 52.7096 203.072 55.9681 209.396 60.2717C239.686 80.8817 244.565 123.941 219.889 158.983C214.23 167.02 207.034 174.411 198.417 179.285H22.7823C5.36075 179.285 -5.1644 160.317 3.30576 145.505Z" fill="#EBF2FF" fill-opacity="0.05"/>
<path d="M154.657 123.071C154.657 123.274 154.461 123.457 154.065 123.541H153.058C152.663 123.456 152.467 123.274 152.467 123.066C152.467 122.858 152.663 122.68 153.058 122.591H154.065C154.461 122.68 154.656 122.858 154.656 123.071L154.657 123.071ZM164.365 123.071C164.365 123.274 163.93 123.457 163.053 123.541H160.822C159.944 123.456 159.511 123.274 159.511 123.066C159.511 122.858 159.944 122.68 160.822 122.591H163.053C163.93 122.68 164.365 122.858 164.365 123.071V123.071ZM174.073 123.071C174.073 123.274 173.638 123.457 172.76 123.541H170.529C169.652 123.456 169.219 123.274 169.219 123.066C169.219 122.858 169.652 122.68 170.529 122.591H172.76C173.638 122.68 174.073 122.858 174.073 123.071V123.071ZM181.121 120.948C181.33 120.948 181.519 121.327 181.606 122.093V123.541H180.109C179.318 123.456 178.926 123.274 178.926 123.066C178.926 122.858 179.318 122.68 180.109 122.591H180.625V122.093C180.717 121.327 180.901 120.948 181.121 120.948ZM181.121 112.461C181.33 112.461 181.519 112.841 181.606 113.608V115.559C181.519 116.326 181.33 116.705 181.116 116.705C180.901 116.705 180.717 116.326 180.625 115.559V113.608C180.717 112.841 180.901 112.461 181.121 112.461ZM181.121 103.974C181.33 103.974 181.519 104.354 181.606 105.121V107.072C181.519 107.838 181.33 108.218 181.116 108.218C180.901 108.218 180.717 107.838 180.625 107.072V105.121C180.717 104.354 180.901 103.974 181.121 103.974ZM181.121 95.4875C181.33 95.4875 181.519 95.8672 181.606 96.6345V98.5847C181.519 99.3512 181.33 99.731 181.116 99.731C180.901 99.731 180.717 99.3512 180.625 98.5847V96.6345C180.717 95.8672 180.901 95.4875 181.121 95.4875ZM181.121 87.0006C181.33 87.0006 181.519 87.3803 181.606 88.1475V90.0978C181.519 90.8643 181.33 91.244 181.116 91.244C180.901 91.244 180.717 90.8643 180.625 90.0978V88.1475C180.717 87.3803 180.901 87.0006 181.121 87.0006ZM181.121 78.5136C181.33 78.5136 181.519 78.8926 181.606 79.6606V81.6108C181.519 82.3773 181.33 82.7571 181.116 82.7571C180.901 82.7571 180.717 82.3773 180.625 81.6108V79.6606C180.717 78.8926 180.901 78.5136 181.121 78.5136ZM181.121 70.0267C181.33 70.0267 181.519 70.4057 181.606 71.1737V73.1239C181.519 73.8904 181.33 74.2701 181.116 74.2701C180.901 74.2701 180.717 73.8904 180.625 73.1239V71.1737C180.717 70.4057 180.901 70.0267 181.121 70.0267ZM181.121 61.539C181.33 61.539 181.519 61.9188 181.606 62.686V64.6369C181.519 65.4035 181.33 65.7832 181.116 65.7832C180.901 65.7832 180.717 65.4035 180.625 64.6369V62.686C180.717 61.9188 180.901 61.539 181.121 61.539ZM181.121 53.0521C181.33 53.0521 181.519 53.4318 181.606 54.1991V56.1493C181.519 56.9165 181.33 57.2956 181.116 57.2956C180.901 57.2956 180.717 56.9165 180.625 56.1493V54.1991C180.717 53.4318 180.901 53.0521 181.121 53.0521ZM178.926 46.6862C178.926 46.4836 179.318 46.3008 180.109 46.2168H181.606V47.6652C181.519 48.4303 181.33 48.8086 181.116 48.8086C180.901 48.8086 180.717 48.4303 180.625 47.6652V47.1661H180.109C179.318 47.0772 178.926 46.8986 178.926 46.6862ZM170.062 46.6862C170.062 46.4836 170.459 46.3008 171.26 46.2168H173.297C174.097 46.3008 174.494 46.4836 174.494 46.6911C174.494 46.8986 174.097 47.0772 173.297 47.1661H171.26C170.459 47.0772 170.062 46.8986 170.062 46.6862ZM161.197 46.6862C161.197 46.4836 161.594 46.3008 162.396 46.2168H164.432C165.233 46.3008 165.629 46.4836 165.629 46.6911C165.629 46.8986 165.233 47.0772 164.433 47.1661H162.396C161.594 47.0772 161.197 46.8986 161.197 46.6862ZM152.333 46.6862C152.333 46.4836 152.73 46.3008 153.531 46.2168H155.568C156.369 46.3008 156.765 46.4836 156.765 46.6911C156.765 46.8986 156.369 47.0772 155.568 47.1661H153.531C152.73 47.0772 152.333 46.8986 152.333 46.6862ZM143.469 46.6862C143.469 46.4836 143.865 46.3008 144.667 46.2168H146.704C147.505 46.3008 147.9 46.4836 147.9 46.6911C147.9 46.8986 147.505 47.0772 146.704 47.1661H144.667C143.865 47.0772 143.469 46.8986 143.469 46.6862ZM134.604 46.6862C134.604 46.4836 135.001 46.3008 135.803 46.2168H137.839C138.64 46.3008 139.036 46.4836 139.036 46.6911C139.036 46.8986 138.64 47.0772 137.839 47.1661H135.803C135.001 47.0772 134.604 46.8986 134.604 46.6862ZM125.74 46.6862C125.74 46.4836 126.136 46.3008 126.938 46.2168H128.975C129.776 46.3008 130.172 46.4836 130.172 46.6911C130.172 46.8986 129.776 47.0772 128.975 47.1661H126.938C126.136 47.0772 125.74 46.8986 125.74 46.6862ZM116.876 46.6862C116.876 46.4836 117.272 46.3008 118.074 46.2168H120.111C120.912 46.3008 121.308 46.4836 121.308 46.6911C121.308 46.8986 120.912 47.0772 120.111 47.1661H118.074C117.272 47.0772 116.876 46.8986 116.876 46.6862ZM108.012 46.6862C108.012 46.4836 108.408 46.3008 109.209 46.2168H111.246C112.048 46.3008 112.443 46.4836 112.443 46.6911C112.443 46.8986 112.048 47.0772 111.246 47.1661H109.21C108.407 47.0772 108.012 46.8986 108.012 46.6862ZM99.147 46.6862C99.147 46.4836 99.544 46.3008 100.345 46.2168H102.382C103.183 46.3008 103.579 46.4836 103.579 46.6911C103.579 46.8986 103.183 47.0772 102.382 47.1661H100.345C99.544 47.0772 99.147 46.8986 99.147 46.6862ZM90.2828 46.6862C90.2828 46.4836 90.6791 46.3008 91.4811 46.2168H93.5173C94.3186 46.3008 94.7149 46.4836 94.7149 46.6911C94.7149 46.8986 94.3186 47.0772 93.518 47.1661H91.4811C90.6791 47.0772 90.2828 46.8986 90.2828 46.6862ZM81.4187 46.6862C81.4187 46.4836 81.815 46.3008 82.6163 46.2168H84.6539C85.4545 46.3008 85.8507 46.4836 85.8507 46.6911C85.8507 46.8986 85.4545 47.0772 84.6539 47.1661H82.6163C81.815 47.0772 81.4187 46.8986 81.4187 46.6862ZM72.5545 46.6862C72.5545 46.4836 72.9508 46.3008 73.7521 46.2168H75.789C76.5903 46.3008 76.9859 46.4836 76.9859 46.6911C76.9859 46.8986 76.5903 47.0772 75.789 47.1661H73.7529C72.9501 47.0772 72.5545 46.8986 72.5545 46.6862ZM63.6897 46.6862C63.6897 46.4836 64.0867 46.3008 64.888 46.2168H66.9249C67.7254 46.3008 68.1217 46.4836 68.1217 46.6911C68.1217 46.8986 67.7254 47.0772 66.9249 47.1661H64.888C64.0867 47.0772 63.6897 46.8986 63.6897 46.6862ZM54.8255 46.6862C54.8255 46.4836 55.2218 46.3008 56.0238 46.2168H58.06C58.8613 46.3008 59.2576 46.4836 59.2576 46.6911C59.2576 46.8986 58.8613 47.0772 58.0607 47.1661H56.0238C55.2218 47.0772 54.8255 46.8986 54.8255 46.6862ZM48.1989 48.8093C47.9895 48.8093 47.8005 48.4303 47.7129 47.6645V46.2168H49.2104C50.0015 46.3008 50.3934 46.4836 50.3934 46.6911C50.3934 46.8986 50.0015 47.0772 49.2112 47.1661H48.6952V47.6645C48.6025 48.4303 48.4186 48.8086 48.1989 48.8086V48.8093ZM48.1989 59.2373C47.9895 59.2373 47.8005 58.7708 47.7129 57.8278V55.4315C47.8005 54.4892 47.9895 54.0226 48.204 54.0226C48.4186 54.0226 48.6025 54.4892 48.6952 55.4315V57.8278C48.6025 58.7708 48.4186 59.2373 48.1989 59.2373ZM48.1989 66.5681C47.9895 66.5681 47.8005 66.3789 47.7129 65.9964V65.0223C47.8005 64.6398 47.9895 64.4506 48.204 64.4506C48.4186 64.4506 48.6025 64.6398 48.6952 65.0223V65.9964C48.6025 66.3789 48.4186 66.5681 48.1989 66.5681Z" fill="#D1DCF8"/>
<path d="M137.576 43.8984H157.848V137.992H137.576V43.8984ZM167.743 137.992H188.015V190.564H167.743V137.992Z" fill="#BBCAEA"/>
<path d="M173.818 137.991V190.562H68.8848V43.8965H143.651V137.991H173.818Z" fill="#E4ECF9"/>
<path d="M80.9707 150.338H119.295V190.561H80.9707V150.338Z" fill="#D1DCF8"/>
<path d="M122.308 145.932V149.667C122.308 150.04 121.992 150.345 121.606 150.345H78.6576C78.472 150.345 78.2941 150.273 78.1629 150.146C78.0316 150.019 77.9576 149.847 77.957 149.667V145.932C77.957 145.558 78.2723 145.254 78.6576 145.254H121.606C121.992 145.254 122.307 145.558 122.307 145.932H122.308Z" fill="#4A5258"/>
<path d="M87.541 35.9414H125.961V43.8976H87.541V35.9414Z" fill="#64D3FF"/>
<path d="M134.311 43.8965H125.959V35.9403H134.311V43.8965Z" fill="#13B1E2"/>
<path d="M105.348 23.8203H108.16V35.9409H105.348V23.8203Z" fill="#4A5258"/>
<path d="M106.752 29.5672C109.145 29.5672 111.084 27.6913 111.084 25.3773C111.084 23.0633 109.145 21.1875 106.752 21.1875C104.359 21.1875 102.42 23.0633 102.42 25.3773C102.42 27.6913 104.359 29.5672 106.752 29.5672Z" fill="#FE7B73"/>
<path d="M149.421 148.955V155.199C149.421 155.312 149.375 155.421 149.293 155.502C149.211 155.582 149.1 155.629 148.983 155.631H142.518C142.46 155.631 142.403 155.619 142.349 155.597C142.296 155.575 142.247 155.543 142.206 155.503C142.166 155.463 142.134 155.415 142.112 155.363C142.09 155.311 142.08 155.255 142.08 155.199V148.955C142.08 148.718 142.273 148.531 142.518 148.531H148.983C149.219 148.531 149.421 148.718 149.421 148.955ZM138.138 148.955V155.199C138.138 155.255 138.128 155.311 138.106 155.363C138.084 155.415 138.052 155.463 138.012 155.503C137.971 155.543 137.922 155.575 137.869 155.597C137.815 155.619 137.758 155.631 137.7 155.631H131.244C131.185 155.632 131.127 155.621 131.073 155.599C131.018 155.578 130.969 155.546 130.927 155.506C130.886 155.465 130.853 155.418 130.831 155.365C130.808 155.312 130.797 155.256 130.798 155.199V148.955C130.798 148.718 130.99 148.531 131.244 148.531H137.7C137.945 148.531 138.138 148.718 138.138 148.955ZM160.694 148.955V155.199C160.695 155.255 160.684 155.311 160.663 155.363C160.641 155.415 160.609 155.463 160.568 155.503C160.528 155.543 160.479 155.575 160.426 155.597C160.372 155.619 160.315 155.631 160.257 155.631H153.801C153.742 155.632 153.684 155.621 153.629 155.599C153.575 155.578 153.525 155.546 153.484 155.506C153.442 155.465 153.409 155.418 153.387 155.365C153.365 155.312 153.354 155.256 153.354 155.199V148.955C153.354 148.718 153.547 148.531 153.801 148.531H160.257C160.502 148.531 160.694 148.718 160.694 148.955ZM149.421 159.037V165.281C149.421 165.394 149.375 165.503 149.293 165.584C149.211 165.665 149.1 165.711 148.983 165.713H142.518C142.46 165.713 142.403 165.701 142.349 165.679C142.296 165.657 142.247 165.625 142.206 165.585C142.166 165.545 142.134 165.498 142.112 165.445C142.09 165.393 142.08 165.337 142.08 165.281V159.037C142.08 158.8 142.273 158.614 142.518 158.614H148.983C149.219 158.614 149.421 158.8 149.421 159.037ZM138.138 159.037V165.281C138.138 165.337 138.128 165.393 138.106 165.445C138.084 165.498 138.052 165.545 138.012 165.585C137.971 165.625 137.922 165.657 137.869 165.679C137.815 165.701 137.758 165.713 137.7 165.713H131.244C131.185 165.714 131.127 165.703 131.073 165.681C131.018 165.66 130.969 165.628 130.927 165.588C130.886 165.548 130.853 165.5 130.831 165.447C130.808 165.395 130.797 165.338 130.798 165.281V159.037C130.798 158.8 130.99 158.614 131.244 158.614H137.7C137.945 158.614 138.138 158.8 138.138 159.037ZM160.694 159.037V165.281C160.695 165.337 160.684 165.393 160.663 165.445C160.641 165.498 160.609 165.545 160.568 165.585C160.528 165.625 160.479 165.657 160.426 165.679C160.372 165.701 160.315 165.713 160.257 165.713H153.801C153.742 165.714 153.684 165.703 153.629 165.681C153.575 165.66 153.525 165.628 153.484 165.588C153.442 165.548 153.409 165.5 153.387 165.447C153.365 165.395 153.354 165.338 153.354 165.281V159.037C153.354 158.8 153.547 158.614 153.801 158.614H160.257C160.502 158.614 160.694 158.8 160.694 159.037ZM149.421 169.12V175.364C149.421 175.477 149.375 175.586 149.293 175.667C149.211 175.747 149.1 175.794 148.983 175.796H142.518C142.46 175.796 142.403 175.784 142.349 175.762C142.296 175.74 142.247 175.708 142.206 175.668C142.166 175.628 142.134 175.58 142.112 175.528C142.09 175.476 142.08 175.42 142.08 175.364V169.12C142.08 168.882 142.273 168.696 142.518 168.696H148.983C149.219 168.696 149.421 168.882 149.421 169.12ZM138.138 169.12V175.364C138.138 175.42 138.128 175.476 138.106 175.528C138.084 175.58 138.052 175.628 138.012 175.668C137.971 175.708 137.922 175.74 137.869 175.762C137.815 175.784 137.758 175.796 137.7 175.796H131.244C131.185 175.797 131.127 175.786 131.073 175.764C131.018 175.743 130.969 175.711 130.927 175.671C130.886 175.63 130.853 175.583 130.831 175.53C130.808 175.477 130.797 175.421 130.798 175.364V169.12C130.798 168.882 130.99 168.696 131.244 168.696H137.7C137.945 168.696 138.138 168.882 138.138 169.12ZM160.694 169.12V175.364C160.695 175.42 160.684 175.476 160.663 175.528C160.641 175.58 160.609 175.628 160.568 175.668C160.528 175.708 160.479 175.74 160.426 175.762C160.372 175.784 160.315 175.796 160.257 175.796H153.801C153.742 175.797 153.684 175.786 153.629 175.764C153.575 175.743 153.525 175.711 153.484 175.671C153.442 175.63 153.409 175.583 153.387 175.53C153.365 175.477 153.354 175.421 153.354 175.364V169.12C153.354 168.882 153.547 168.696 153.801 168.696H160.257C160.502 168.696 160.694 168.882 160.694 169.12ZM80.0823 67.006V73.4806C80.0827 73.5384 80.0713 73.5957 80.0487 73.6492C80.0262 73.7027 79.9929 73.7513 79.9509 73.7924C79.9089 73.8334 79.8589 73.8661 79.8038 73.8884C79.7487 73.9107 79.6896 73.9223 79.6298 73.9225H72.9398C72.8793 73.9232 72.8194 73.9123 72.7633 73.8904C72.7073 73.8686 72.6564 73.8361 72.6134 73.795C72.5705 73.7539 72.5365 73.7049 72.5133 73.6509C72.4901 73.5969 72.4783 73.539 72.4785 73.4806V67.0053C72.4785 66.7639 72.6807 66.5677 72.9398 66.5677H79.6291C79.6885 66.5677 79.7474 66.579 79.8022 66.601C79.8571 66.623 79.907 66.6552 79.949 66.6959C79.9911 66.7365 80.0244 66.7847 80.0471 66.8378C80.0699 66.8909 80.0816 66.9478 80.0816 67.0053L80.0823 67.006ZM91.9306 67.006V73.4806C91.931 73.5384 91.9196 73.5957 91.897 73.6492C91.8745 73.7027 91.8412 73.7513 91.7992 73.7924C91.7572 73.8334 91.7071 73.8661 91.6521 73.8884C91.597 73.9107 91.5378 73.9223 91.4781 73.9225H84.788C84.7276 73.9232 84.6677 73.9123 84.6116 73.8904C84.5556 73.8686 84.5047 73.8361 84.4617 73.795C84.4188 73.7539 84.3848 73.7049 84.3616 73.6509C84.3384 73.5969 84.3266 73.539 84.3268 73.4806V67.0053C84.3268 66.7639 84.5297 66.5677 84.788 66.5677H91.4781C91.5981 66.5677 91.7132 66.6138 91.7981 66.6959C91.8829 66.7779 91.9306 66.8892 91.9306 67.0053V67.006ZM103.779 67.006V73.4806C103.779 73.5384 103.768 73.5957 103.745 73.6492C103.723 73.7027 103.69 73.7513 103.647 73.7924C103.605 73.8334 103.555 73.8661 103.5 73.8884C103.445 73.9107 103.386 73.9223 103.326 73.9225H96.6371C96.5766 73.9233 96.5165 73.9125 96.4604 73.8906C96.4043 73.8688 96.3533 73.8364 96.3103 73.7952C96.2673 73.7541 96.2332 73.7051 96.21 73.6511C96.1867 73.5971 96.1749 73.5391 96.1751 73.4806V67.0053C96.1751 66.7639 96.378 66.5677 96.6371 66.5677H103.326C103.446 66.5677 103.561 66.6138 103.646 66.6959C103.731 66.7779 103.779 66.8892 103.779 67.0053V67.006ZM115.628 67.006V73.4806C115.628 73.5384 115.617 73.5957 115.594 73.6492C115.572 73.7027 115.539 73.7513 115.496 73.7924C115.454 73.8334 115.404 73.8661 115.349 73.8884C115.294 73.9107 115.235 73.9223 115.175 73.9225H108.485C108.425 73.9233 108.365 73.9125 108.309 73.8906C108.253 73.8688 108.202 73.8364 108.159 73.7952C108.116 73.7541 108.081 73.7051 108.058 73.6511C108.035 73.5971 108.023 73.5391 108.023 73.4806V67.0053C108.023 66.7639 108.226 66.5677 108.485 66.5677H115.175C115.295 66.5677 115.41 66.6138 115.495 66.6959C115.579 66.7779 115.627 66.8892 115.627 67.0053L115.628 67.006ZM127.476 67.006V73.4806C127.477 73.5384 127.465 73.5957 127.443 73.6492C127.42 73.7027 127.387 73.7513 127.345 73.7924C127.303 73.8334 127.253 73.8661 127.198 73.8884C127.143 73.9107 127.083 73.9223 127.024 73.9225H120.334C120.273 73.9232 120.213 73.9123 120.157 73.8904C120.101 73.8686 120.05 73.8361 120.007 73.795C119.964 73.7539 119.93 73.7049 119.907 73.6509C119.884 73.5969 119.872 73.539 119.872 73.4806V67.0053C119.872 66.7639 120.075 66.5677 120.334 66.5677H127.023C127.082 66.5676 127.141 66.5788 127.196 66.6008C127.251 66.6227 127.301 66.655 127.343 66.6956C127.385 66.7363 127.419 66.7845 127.442 66.8377C127.464 66.8908 127.476 66.9478 127.476 67.0053V67.006ZM139.324 67.006V73.4806C139.325 73.5384 139.313 73.5957 139.291 73.6492C139.268 73.7027 139.235 73.7513 139.193 73.7924C139.151 73.8334 139.101 73.8661 139.046 73.8884C138.991 73.9107 138.932 73.9223 138.872 73.9225H132.182C132.122 73.9232 132.062 73.9123 132.006 73.8904C131.95 73.8686 131.899 73.8361 131.856 73.795C131.813 73.7539 131.779 73.7049 131.755 73.6509C131.732 73.5969 131.721 73.539 131.721 73.4806V67.0053C131.721 66.7639 131.924 66.5677 132.182 66.5677H138.872C138.992 66.5677 139.107 66.6138 139.192 66.6959C139.277 66.7779 139.324 66.8892 139.324 67.0053V67.006ZM80.0823 55.8009V62.2748C80.0828 62.3326 80.0714 62.39 80.0489 62.4436C80.0264 62.4972 79.9932 62.5459 79.9512 62.587C79.9091 62.6282 79.8591 62.6608 79.8039 62.6832C79.7488 62.7056 79.6896 62.7172 79.6298 62.7174H72.9398C72.8793 62.7181 72.8192 62.7072 72.7632 62.6853C72.7071 62.6633 72.6561 62.6308 72.6132 62.5896C72.5702 62.5484 72.5362 62.4994 72.5131 62.4453C72.49 62.3913 72.4782 62.3333 72.4785 62.2748V55.8009C72.4785 55.5588 72.6807 55.3633 72.9398 55.3633H79.6291C79.6885 55.3633 79.7474 55.3746 79.8022 55.3966C79.8571 55.4186 79.907 55.4508 79.949 55.4915C79.9911 55.5321 80.0244 55.5803 80.0471 55.6334C80.0699 55.6865 80.0816 55.7434 80.0816 55.8009H80.0823ZM91.9306 55.8009V62.2748C91.9311 62.3326 91.9197 62.39 91.8972 62.4436C91.8747 62.4972 91.8415 62.5459 91.7994 62.587C91.7574 62.6282 91.7074 62.6608 91.6522 62.6832C91.5971 62.7056 91.5379 62.7172 91.4781 62.7174H84.788C84.7276 62.7181 84.6675 62.7072 84.6115 62.6853C84.5554 62.6633 84.5044 62.6308 84.4615 62.5896C84.4185 62.5484 84.3845 62.4994 84.3614 62.4453C84.3383 62.3913 84.3265 62.3333 84.3268 62.2748V55.8009C84.3268 55.5588 84.5297 55.3633 84.788 55.3633H91.4781C91.5375 55.3633 91.5964 55.3746 91.6513 55.3966C91.7062 55.4186 91.756 55.4508 91.7981 55.4915C91.8401 55.5321 91.8734 55.5803 91.8961 55.6334C91.9189 55.6865 91.9306 55.7434 91.9306 55.8009ZM103.779 55.8009V62.2748C103.779 62.3326 103.768 62.39 103.746 62.4436C103.723 62.4972 103.69 62.5459 103.648 62.587C103.606 62.6282 103.556 62.6608 103.501 62.6832C103.445 62.7056 103.386 62.7172 103.326 62.7174H96.6371C96.5765 62.7182 96.5164 62.7074 96.4603 62.6855C96.4041 62.6636 96.353 62.6311 96.31 62.5899C96.267 62.5487 96.2329 62.4996 96.2097 62.4455C96.1866 62.3914 96.1748 62.3334 96.1751 62.2748V55.8009C96.1751 55.5588 96.378 55.3633 96.6371 55.3633H103.326C103.386 55.3633 103.445 55.3746 103.5 55.3966C103.554 55.4186 103.604 55.4508 103.646 55.4915C103.688 55.5321 103.722 55.5803 103.744 55.6334C103.767 55.6865 103.779 55.7434 103.779 55.8009ZM115.628 55.8009V62.2748C115.628 62.3326 115.617 62.39 115.595 62.4436C115.572 62.4972 115.539 62.5459 115.497 62.587C115.455 62.6282 115.405 62.6608 115.35 62.6832C115.294 62.7056 115.235 62.7172 115.175 62.7174H108.485C108.425 62.7182 108.365 62.7074 108.309 62.6855C108.252 62.6636 108.201 62.6311 108.158 62.5899C108.115 62.5487 108.081 62.4996 108.058 62.4455C108.035 62.3914 108.023 62.3334 108.023 62.2748V55.8009C108.023 55.5588 108.226 55.3633 108.485 55.3633H115.175C115.234 55.3633 115.293 55.3746 115.348 55.3966C115.403 55.4186 115.453 55.4508 115.495 55.4915C115.537 55.5321 115.57 55.5803 115.593 55.6334C115.615 55.6865 115.627 55.7434 115.627 55.8009H115.628ZM127.476 55.8009V62.2748C127.477 62.3326 127.465 62.39 127.443 62.4436C127.42 62.4972 127.387 62.5459 127.345 62.587C127.303 62.6282 127.253 62.6608 127.198 62.6832C127.143 62.7056 127.084 62.7172 127.024 62.7174H120.334C120.273 62.7181 120.213 62.7072 120.157 62.6853C120.101 62.6633 120.05 62.6308 120.007 62.5896C119.964 62.5484 119.93 62.4994 119.907 62.4453C119.884 62.3913 119.872 62.3333 119.872 62.2748V55.8009C119.872 55.5588 120.075 55.3633 120.334 55.3633H127.023C127.082 55.3632 127.141 55.3744 127.196 55.3964C127.251 55.4183 127.301 55.4506 127.343 55.4912C127.385 55.5319 127.419 55.5801 127.442 55.6333C127.464 55.6864 127.476 55.7434 127.476 55.8009ZM139.324 55.8009V62.2748C139.325 62.3326 139.314 62.39 139.291 62.4436C139.269 62.4972 139.235 62.5459 139.193 62.587C139.151 62.6282 139.101 62.6608 139.046 62.6832C138.991 62.7056 138.932 62.7172 138.872 62.7174H132.182C132.121 62.7181 132.061 62.7072 132.005 62.6853C131.949 62.6633 131.898 62.6308 131.855 62.5896C131.812 62.5484 131.778 62.4994 131.755 62.4453C131.732 62.3913 131.72 62.3333 131.721 62.2748V55.8009C131.721 55.5588 131.924 55.3633 132.182 55.3633H138.872C138.931 55.3633 138.99 55.3746 139.045 55.3966C139.1 55.4186 139.15 55.4508 139.192 55.4915C139.234 55.5321 139.267 55.5803 139.29 55.6334C139.313 55.6865 139.324 55.7434 139.324 55.8009ZM80.0823 79.2917V85.7663C80.0827 85.8241 80.0713 85.8814 80.0487 85.9349C80.0262 85.9884 79.9929 86.0371 79.9509 86.0781C79.9089 86.1192 79.8589 86.1518 79.8038 86.1741C79.7487 86.1964 79.6896 86.208 79.6298 86.2082H72.9398C72.8793 86.209 72.8194 86.1981 72.7633 86.1762C72.7073 86.1543 72.6564 86.1218 72.6134 86.0807C72.5705 86.0396 72.5365 85.9906 72.5133 85.9366C72.4901 85.8827 72.4783 85.8248 72.4785 85.7663V79.2917C72.4785 79.0503 72.6807 78.8541 72.9398 78.8541H79.6291C79.6885 78.8541 79.7474 78.8654 79.8022 78.8874C79.8571 78.9094 79.907 78.9417 79.949 78.9823C79.9911 79.0229 80.0244 79.0712 80.0471 79.1243C80.0699 79.1774 80.0816 79.2343 80.0816 79.2917H80.0823ZM91.9306 79.2917V85.7663C91.931 85.8241 91.9196 85.8814 91.897 85.9349C91.8745 85.9884 91.8412 86.0371 91.7992 86.0781C91.7572 86.1192 91.7071 86.1518 91.6521 86.1741C91.597 86.1964 91.5378 86.208 91.4781 86.2082H84.788C84.7276 86.209 84.6677 86.1981 84.6116 86.1762C84.5556 86.1543 84.5047 86.1218 84.4617 86.0807C84.4188 86.0396 84.3848 85.9906 84.3616 85.9366C84.3384 85.8827 84.3266 85.8248 84.3268 85.7663V79.2917C84.3268 79.0503 84.5297 78.8541 84.788 78.8541H91.4781C91.5375 78.8541 91.5964 78.8654 91.6513 78.8874C91.7062 78.9094 91.756 78.9417 91.7981 78.9823C91.8401 79.0229 91.8734 79.0712 91.8961 79.1243C91.9189 79.1774 91.9306 79.2343 91.9306 79.2917ZM103.779 79.2917V85.7663C103.779 85.8241 103.768 85.8814 103.745 85.9349C103.723 85.9884 103.69 86.0371 103.647 86.0781C103.605 86.1192 103.555 86.1518 103.5 86.1741C103.445 86.1964 103.386 86.208 103.326 86.2082H96.6371C96.5766 86.209 96.5165 86.1982 96.4604 86.1764C96.4043 86.1545 96.3533 86.1221 96.3103 86.081C96.2673 86.0398 96.2332 85.9908 96.21 85.9368C96.1867 85.8828 96.1749 85.8248 96.1751 85.7663V79.2917C96.1751 79.0503 96.378 78.8541 96.6371 78.8541H103.326C103.386 78.8541 103.445 78.8654 103.5 78.8874C103.554 78.9094 103.604 78.9417 103.646 78.9823C103.688 79.0229 103.722 79.0712 103.744 79.1243C103.767 79.1774 103.779 79.2343 103.779 79.2917ZM115.628 79.2917V85.7663C115.628 85.8241 115.617 85.8814 115.594 85.9349C115.572 85.9884 115.539 86.0371 115.496 86.0781C115.454 86.1192 115.404 86.1518 115.349 86.1741C115.294 86.1964 115.235 86.208 115.175 86.2082H108.485C108.425 86.209 108.365 86.1982 108.309 86.1764C108.253 86.1545 108.202 86.1221 108.159 86.081C108.116 86.0398 108.081 85.9908 108.058 85.9368C108.035 85.8828 108.023 85.8248 108.023 85.7663V79.2917C108.023 79.0503 108.226 78.8541 108.485 78.8541H115.175C115.234 78.8541 115.293 78.8654 115.348 78.8874C115.403 78.9094 115.453 78.9417 115.495 78.9823C115.537 79.0229 115.57 79.0712 115.593 79.1243C115.615 79.1774 115.627 79.2343 115.627 79.2917H115.628ZM127.476 79.2917V85.7663C127.477 85.8241 127.465 85.8814 127.443 85.9349C127.42 85.9884 127.387 86.0371 127.345 86.0781C127.303 86.1192 127.253 86.1518 127.198 86.1741C127.143 86.1964 127.083 86.208 127.024 86.2082H120.334C120.273 86.209 120.213 86.1981 120.157 86.1762C120.101 86.1543 120.05 86.1218 120.007 86.0807C119.964 86.0396 119.93 85.9906 119.907 85.9366C119.884 85.8827 119.872 85.8248 119.872 85.7663V79.2917C119.872 79.0503 120.075 78.8541 120.334 78.8541H127.023C127.082 78.854 127.141 78.8653 127.196 78.8872C127.251 78.9092 127.301 78.9414 127.343 78.982C127.385 79.0227 127.419 79.071 127.442 79.1241C127.464 79.1772 127.476 79.2342 127.476 79.2917ZM139.324 79.2917V85.7663C139.325 85.8241 139.313 85.8814 139.291 85.9349C139.268 85.9884 139.235 86.0371 139.193 86.0781C139.151 86.1192 139.101 86.1518 139.046 86.1741C138.991 86.1964 138.932 86.208 138.872 86.2082H132.182C132.122 86.209 132.062 86.1981 132.006 86.1762C131.95 86.1543 131.899 86.1218 131.856 86.0807C131.813 86.0396 131.779 85.9906 131.755 85.9366C131.732 85.8827 131.721 85.8248 131.721 85.7663V79.2917C131.721 79.0503 131.924 78.8541 132.182 78.8541H138.872C138.931 78.8541 138.99 78.8654 139.045 78.8874C139.1 78.9094 139.15 78.9417 139.192 78.9823C139.234 79.0229 139.267 79.0712 139.29 79.1243C139.313 79.1774 139.324 79.2343 139.324 79.2917ZM80.0823 91.5775V98.0521C80.0827 98.1099 80.0713 98.1671 80.0487 98.2206C80.0262 98.2741 79.9929 98.3228 79.9509 98.3638C79.9089 98.4049 79.8589 98.4375 79.8038 98.4598C79.7487 98.4822 79.6896 98.4938 79.6298 98.4939H72.9398C72.8793 98.4947 72.8194 98.4838 72.7633 98.4619C72.7073 98.44 72.6564 98.4076 72.6134 98.3665C72.5705 98.3253 72.5365 98.2764 72.5133 98.2224C72.4901 98.1684 72.4783 98.1105 72.4785 98.0521V91.5775C72.4785 91.3361 72.6807 91.1399 72.9398 91.1399H79.6291C79.6885 91.1399 79.7474 91.1512 79.8022 91.1732C79.8571 91.1952 79.907 91.2274 79.949 91.268C79.9911 91.3087 80.0244 91.3569 80.0471 91.41C80.0699 91.4631 80.0816 91.52 80.0816 91.5775H80.0823ZM91.9306 91.5775V98.0521C91.931 98.1099 91.9196 98.1671 91.897 98.2206C91.8745 98.2741 91.8412 98.3228 91.7992 98.3638C91.7572 98.4049 91.7071 98.4375 91.6521 98.4598C91.597 98.4822 91.5378 98.4938 91.4781 98.4939H84.788C84.7276 98.4947 84.6677 98.4838 84.6116 98.4619C84.5556 98.44 84.5047 98.4076 84.4617 98.3665C84.4188 98.3253 84.3848 98.2764 84.3616 98.2224C84.3384 98.1684 84.3266 98.1105 84.3268 98.0521V91.5775C84.3268 91.3361 84.5297 91.1399 84.788 91.1399H91.4781C91.5375 91.1399 91.5964 91.1512 91.6513 91.1732C91.7062 91.1952 91.756 91.2274 91.7981 91.268C91.8401 91.3087 91.8734 91.3569 91.8961 91.41C91.9189 91.4631 91.9306 91.52 91.9306 91.5775ZM103.779 91.5775V98.0521C103.779 98.1099 103.768 98.1671 103.745 98.2206C103.723 98.2741 103.69 98.3228 103.647 98.3638C103.605 98.4049 103.555 98.4375 103.5 98.4598C103.445 98.4822 103.386 98.4938 103.326 98.4939H96.6371C96.5766 98.4948 96.5165 98.484 96.4604 98.4621C96.4043 98.4403 96.3533 98.4078 96.3103 98.3667C96.2673 98.3256 96.2332 98.2766 96.21 98.2225C96.1867 98.1685 96.1749 98.1106 96.1751 98.0521V91.5775C96.1751 91.3361 96.378 91.1399 96.6371 91.1399H103.326C103.386 91.1399 103.445 91.1512 103.5 91.1732C103.554 91.1952 103.604 91.2274 103.646 91.268C103.688 91.3087 103.722 91.3569 103.744 91.41C103.767 91.4631 103.779 91.52 103.779 91.5775ZM115.628 91.5775V98.0521C115.628 98.1099 115.617 98.1671 115.594 98.2206C115.572 98.2741 115.539 98.3228 115.496 98.3638C115.454 98.4049 115.404 98.4375 115.349 98.4598C115.294 98.4822 115.235 98.4938 115.175 98.4939H108.485C108.425 98.4948 108.365 98.484 108.309 98.4621C108.253 98.4403 108.202 98.4078 108.159 98.3667C108.116 98.3256 108.081 98.2766 108.058 98.2225C108.035 98.1685 108.023 98.1106 108.023 98.0521V91.5775C108.023 91.3361 108.226 91.1399 108.485 91.1399H115.175C115.234 91.1399 115.293 91.1512 115.348 91.1732C115.403 91.1952 115.453 91.2274 115.495 91.268C115.537 91.3087 115.57 91.3569 115.593 91.41C115.615 91.4631 115.627 91.52 115.627 91.5775H115.628ZM127.476 91.5775V98.0521C127.477 98.1099 127.465 98.1671 127.443 98.2206C127.42 98.2741 127.387 98.3228 127.345 98.3638C127.303 98.4049 127.253 98.4375 127.198 98.4598C127.143 98.4822 127.083 98.4938 127.024 98.4939H120.334C120.273 98.4947 120.213 98.4838 120.157 98.4619C120.101 98.44 120.05 98.4076 120.007 98.3665C119.964 98.3253 119.93 98.2764 119.907 98.2224C119.884 98.1684 119.872 98.1105 119.872 98.0521V91.5775C119.872 91.3361 120.075 91.1399 120.334 91.1399H127.023C127.082 91.1398 127.141 91.151 127.196 91.173C127.251 91.1949 127.301 91.2271 127.343 91.2678C127.385 91.3084 127.419 91.3567 127.442 91.4098C127.464 91.463 127.476 91.5199 127.476 91.5775ZM139.324 91.5775V98.0521C139.325 98.1099 139.313 98.1671 139.291 98.2206C139.268 98.2741 139.235 98.3228 139.193 98.3638C139.151 98.4049 139.101 98.4375 139.046 98.4598C138.991 98.4822 138.932 98.4938 138.872 98.4939H132.182C132.122 98.4947 132.062 98.4838 132.006 98.4619C131.95 98.44 131.899 98.4076 131.856 98.3665C131.813 98.3253 131.779 98.2764 131.755 98.2224C131.732 98.1684 131.721 98.1105 131.721 98.0521V91.5775C131.721 91.3361 131.924 91.1399 132.182 91.1399H138.872C138.931 91.1399 138.99 91.1512 139.045 91.1732C139.1 91.1952 139.15 91.2274 139.192 91.268C139.234 91.3087 139.267 91.3569 139.29 91.41C139.313 91.4631 139.324 91.52 139.324 91.5775ZM80.0823 103.864V110.338C80.0827 110.396 80.0713 110.453 80.0487 110.506C80.0262 110.56 79.9929 110.609 79.9509 110.65C79.9089 110.691 79.8589 110.723 79.8038 110.746C79.7487 110.768 79.6896 110.779 79.6298 110.78H72.9398C72.8793 110.78 72.8194 110.77 72.7633 110.748C72.7073 110.726 72.6564 110.693 72.6134 110.652C72.5705 110.611 72.5365 110.562 72.5133 110.508C72.4901 110.454 72.4783 110.396 72.4785 110.338V103.863C72.4785 103.622 72.6807 103.426 72.9398 103.426H79.6291C79.6885 103.426 79.7474 103.437 79.8022 103.459C79.8571 103.481 79.907 103.513 79.949 103.554C79.9911 103.594 80.0244 103.643 80.0471 103.696C80.0699 103.749 80.0816 103.806 80.0816 103.863L80.0823 103.864ZM91.9306 103.864V110.338C91.931 110.396 91.9196 110.453 91.897 110.506C91.8745 110.56 91.8412 110.609 91.7992 110.65C91.7572 110.691 91.7071 110.723 91.6521 110.746C91.597 110.768 91.5378 110.779 91.4781 110.78H84.788C84.7276 110.78 84.6677 110.77 84.6116 110.748C84.5556 110.726 84.5047 110.693 84.4617 110.652C84.4188 110.611 84.3848 110.562 84.3616 110.508C84.3384 110.454 84.3266 110.396 84.3268 110.338V103.863C84.3268 103.622 84.5297 103.426 84.788 103.426H91.4781C91.5981 103.426 91.7132 103.472 91.7981 103.554C91.8829 103.636 91.9306 103.747 91.9306 103.863V103.864ZM103.779 103.864V110.338C103.779 110.396 103.768 110.453 103.745 110.506C103.723 110.56 103.69 110.609 103.647 110.65C103.605 110.691 103.555 110.723 103.5 110.746C103.445 110.768 103.386 110.779 103.326 110.78H96.6371C96.5766 110.781 96.5165 110.77 96.4604 110.748C96.4043 110.726 96.3533 110.694 96.3103 110.652C96.2673 110.611 96.2332 110.562 96.21 110.508C96.1867 110.454 96.1749 110.396 96.1751 110.338V103.863C96.1751 103.622 96.378 103.426 96.6371 103.426H103.326C103.446 103.426 103.561 103.472 103.646 103.554C103.731 103.636 103.779 103.747 103.779 103.863V103.864ZM115.628 103.864V110.338C115.628 110.396 115.617 110.453 115.594 110.506C115.572 110.56 115.539 110.609 115.496 110.65C115.454 110.691 115.404 110.723 115.349 110.746C115.294 110.768 115.235 110.779 115.175 110.78H108.485C108.425 110.781 108.365 110.77 108.309 110.748C108.253 110.726 108.202 110.694 108.159 110.652C108.116 110.611 108.081 110.562 108.058 110.508C108.035 110.454 108.023 110.396 108.023 110.338V103.863C108.023 103.622 108.226 103.426 108.485 103.426H115.175C115.295 103.426 115.41 103.472 115.495 103.554C115.579 103.636 115.627 103.747 115.627 103.863L115.628 103.864ZM127.476 103.864V110.338C127.477 110.396 127.465 110.453 127.443 110.506C127.42 110.56 127.387 110.609 127.345 110.65C127.303 110.691 127.253 110.723 127.198 110.746C127.143 110.768 127.083 110.779 127.024 110.78H120.334C120.273 110.78 120.213 110.77 120.157 110.748C120.101 110.726 120.05 110.693 120.007 110.652C119.964 110.611 119.93 110.562 119.907 110.508C119.884 110.454 119.872 110.396 119.872 110.338V103.863C119.872 103.622 120.075 103.426 120.334 103.426H127.023C127.082 103.426 127.141 103.437 127.196 103.459C127.251 103.481 127.301 103.513 127.343 103.554C127.385 103.594 127.419 103.642 127.442 103.696C127.464 103.749 127.476 103.806 127.476 103.863V103.864ZM139.324 103.864V110.338C139.325 110.396 139.313 110.453 139.291 110.506C139.268 110.56 139.235 110.609 139.193 110.65C139.151 110.691 139.101 110.723 139.046 110.746C138.991 110.768 138.932 110.779 138.872 110.78H132.182C132.122 110.78 132.062 110.77 132.006 110.748C131.95 110.726 131.899 110.693 131.856 110.652C131.813 110.611 131.779 110.562 131.755 110.508C131.732 110.454 131.721 110.396 131.721 110.338V103.863C131.721 103.622 131.924 103.426 132.182 103.426H138.872C138.992 103.426 139.107 103.472 139.192 103.554C139.277 103.636 139.324 103.747 139.324 103.863V103.864ZM80.0823 116.15V122.624C80.0827 122.681 80.0713 122.739 80.0487 122.792C80.0262 122.846 79.9929 122.894 79.9509 122.935C79.9089 122.976 79.8589 123.009 79.8038 123.031C79.7487 123.054 79.6896 123.065 79.6298 123.065H72.9398C72.8793 123.066 72.8194 123.055 72.7633 123.033C72.7073 123.011 72.6564 122.979 72.6134 122.938C72.5705 122.897 72.5365 122.848 72.5133 122.794C72.4901 122.74 72.4783 122.682 72.4785 122.624V116.15C72.4785 115.908 72.6807 115.711 72.9398 115.711H79.6291C79.6885 115.711 79.7474 115.723 79.8022 115.745C79.8571 115.767 79.907 115.799 79.949 115.84C79.9911 115.88 80.0244 115.928 80.0471 115.981C80.0699 116.035 80.0816 116.091 80.0816 116.149L80.0823 116.15ZM91.9306 116.15V122.624C91.931 122.681 91.9196 122.739 91.897 122.792C91.8745 122.846 91.8412 122.894 91.7992 122.935C91.7572 122.976 91.7071 123.009 91.6521 123.031C91.597 123.054 91.5378 123.065 91.4781 123.065H84.788C84.7276 123.066 84.6677 123.055 84.6116 123.033C84.5556 123.011 84.5047 122.979 84.4617 122.938C84.4188 122.897 84.3848 122.848 84.3616 122.794C84.3384 122.74 84.3266 122.682 84.3268 122.624V116.15C84.3268 115.908 84.5297 115.711 84.788 115.711H91.4781C91.5981 115.711 91.7132 115.757 91.7981 115.84C91.8829 115.922 91.9306 116.033 91.9306 116.149V116.15ZM103.779 116.15V122.624C103.779 122.681 103.768 122.739 103.745 122.792C103.723 122.846 103.69 122.894 103.647 122.935C103.605 122.976 103.555 123.009 103.5 123.031C103.445 123.054 103.386 123.065 103.326 123.065H96.6371C96.5766 123.066 96.5165 123.055 96.4604 123.034C96.4043 123.012 96.3533 122.979 96.3103 122.938C96.2673 122.897 96.2332 122.848 96.21 122.794C96.1867 122.74 96.1749 122.682 96.1751 122.624V116.15C96.1751 115.908 96.378 115.711 96.6371 115.711H103.326C103.446 115.711 103.561 115.757 103.646 115.84C103.731 115.922 103.779 116.033 103.779 116.149V116.15ZM115.628 116.15V122.624C115.628 122.681 115.617 122.739 115.594 122.792C115.572 122.846 115.539 122.894 115.496 122.935C115.454 122.976 115.404 123.009 115.349 123.031C115.294 123.054 115.235 123.065 115.175 123.065H108.485C108.425 123.066 108.365 123.055 108.309 123.034C108.253 123.012 108.202 122.979 108.159 122.938C108.116 122.897 108.081 122.848 108.058 122.794C108.035 122.74 108.023 122.682 108.023 122.624V116.15C108.023 115.908 108.226 115.711 108.485 115.711H115.175C115.295 115.711 115.41 115.757 115.495 115.84C115.579 115.922 115.627 116.033 115.627 116.149L115.628 116.15ZM127.476 116.15V122.624C127.477 122.681 127.465 122.739 127.443 122.792C127.42 122.846 127.387 122.894 127.345 122.935C127.303 122.976 127.253 123.009 127.198 123.031C127.143 123.054 127.083 123.065 127.024 123.065H120.334C120.273 123.066 120.213 123.055 120.157 123.033C120.101 123.011 120.05 122.979 120.007 122.938C119.964 122.897 119.93 122.848 119.907 122.794C119.884 122.74 119.872 122.682 119.872 122.624V116.15C119.872 115.908 120.075 115.711 120.334 115.711H127.023C127.082 115.711 127.141 115.722 127.196 115.744C127.251 115.766 127.301 115.799 127.343 115.839C127.385 115.88 127.419 115.928 127.442 115.981C127.464 116.034 127.476 116.091 127.476 116.149V116.15ZM139.324 116.15V122.624C139.325 122.681 139.313 122.739 139.291 122.792C139.268 122.846 139.235 122.894 139.193 122.935C139.151 122.976 139.101 123.009 139.046 123.031C138.991 123.054 138.932 123.065 138.872 123.065H132.182C132.122 123.066 132.062 123.055 132.006 123.033C131.95 123.011 131.899 122.979 131.856 122.938C131.813 122.897 131.779 122.848 131.755 122.794C131.732 122.74 131.721 122.682 131.721 122.624V116.15C131.721 115.908 131.924 115.711 132.182 115.711H138.872C138.992 115.711 139.107 115.757 139.192 115.84C139.277 115.922 139.324 116.033 139.324 116.149V116.15ZM80.0823 128.435V134.909C80.0827 134.967 80.0713 135.024 80.0487 135.078C80.0262 135.131 79.9929 135.18 79.9509 135.221C79.9089 135.262 79.8589 135.295 79.8038 135.317C79.7487 135.339 79.6896 135.351 79.6298 135.351H72.9398C72.8793 135.352 72.8194 135.341 72.7633 135.319C72.7073 135.297 72.6564 135.265 72.6134 135.224C72.5705 135.183 72.5365 135.134 72.5133 135.08C72.4901 135.026 72.4783 134.968 72.4785 134.909V128.435C72.4785 128.193 72.6807 127.998 72.9398 127.998H79.6291C79.6885 127.998 79.7474 128.009 79.8022 128.031C79.8571 128.053 79.907 128.085 79.949 128.126C79.9911 128.167 80.0244 128.215 80.0471 128.268C80.0699 128.321 80.0816 128.378 80.0816 128.435H80.0823ZM91.9306 128.435V134.909C91.931 134.967 91.9196 135.024 91.897 135.078C91.8745 135.131 91.8412 135.18 91.7992 135.221C91.7572 135.262 91.7071 135.295 91.6521 135.317C91.597 135.339 91.5378 135.351 91.4781 135.351H84.788C84.7276 135.352 84.6677 135.341 84.6116 135.319C84.5556 135.297 84.5047 135.265 84.4617 135.224C84.4188 135.183 84.3848 135.134 84.3616 135.08C84.3384 135.026 84.3266 134.968 84.3268 134.909V128.435C84.3268 128.193 84.5297 127.998 84.788 127.998H91.4781C91.5981 127.998 91.7132 128.044 91.7981 128.126C91.8829 128.208 91.9306 128.319 91.9306 128.435ZM103.779 128.435V134.909C103.779 134.967 103.768 135.024 103.745 135.078C103.723 135.131 103.69 135.18 103.647 135.221C103.605 135.262 103.555 135.295 103.5 135.317C103.445 135.339 103.386 135.351 103.326 135.351H96.6371C96.5766 135.352 96.5165 135.341 96.4604 135.319C96.4043 135.297 96.3533 135.265 96.3103 135.224C96.2673 135.183 96.2332 135.134 96.21 135.08C96.1867 135.026 96.1749 134.968 96.1751 134.909V128.435C96.1751 128.193 96.378 127.998 96.6371 127.998H103.326C103.446 127.998 103.561 128.044 103.646 128.126C103.731 128.208 103.779 128.319 103.779 128.435ZM115.628 128.435V134.909C115.628 134.967 115.617 135.024 115.594 135.078C115.572 135.131 115.539 135.18 115.496 135.221C115.454 135.262 115.404 135.295 115.349 135.317C115.294 135.339 115.235 135.351 115.175 135.351H108.485C108.425 135.352 108.365 135.341 108.309 135.319C108.253 135.297 108.202 135.265 108.159 135.224C108.116 135.183 108.081 135.134 108.058 135.08C108.035 135.026 108.023 134.968 108.023 134.909V128.435C108.023 128.193 108.226 127.998 108.485 127.998H115.175C115.295 127.998 115.41 128.044 115.495 128.126C115.579 128.208 115.627 128.319 115.627 128.435H115.628ZM127.476 128.435V134.909C127.477 134.967 127.465 135.024 127.443 135.078C127.42 135.131 127.387 135.18 127.345 135.221C127.303 135.262 127.253 135.295 127.198 135.317C127.143 135.339 127.083 135.351 127.024 135.351H120.334C120.273 135.352 120.213 135.341 120.157 135.319C120.101 135.297 120.05 135.265 120.007 135.224C119.964 135.183 119.93 135.134 119.907 135.08C119.884 135.026 119.872 134.968 119.872 134.909V128.435C119.872 128.193 120.075 127.998 120.334 127.998H127.023C127.082 127.998 127.141 128.009 127.196 128.031C127.251 128.053 127.301 128.085 127.343 128.126C127.385 128.166 127.419 128.215 127.442 128.268C127.464 128.321 127.476 128.378 127.476 128.435ZM139.324 128.435V134.909C139.325 134.967 139.313 135.024 139.291 135.078C139.268 135.131 139.235 135.18 139.193 135.221C139.151 135.262 139.101 135.295 139.046 135.317C138.991 135.339 138.932 135.351 138.872 135.351H132.182C132.122 135.352 132.062 135.341 132.006 135.319C131.95 135.297 131.899 135.265 131.856 135.224C131.813 135.183 131.779 135.134 131.755 135.08C131.732 135.026 131.721 134.968 131.721 134.909V128.435C131.721 128.193 131.924 127.998 132.182 127.998H138.872C138.992 127.998 139.107 128.044 139.192 128.126C139.277 128.208 139.324 128.319 139.324 128.435Z" fill="white"/>
<path d="M26.5313 185.679L30.1219 188.062L32.2099 187.172C32.2099 187.172 32.2624 185.507 32.304 183.034C32.3245 181.166 32.3558 179.501 32.3558 179.399C32.3558 179.147 26.9911 179.45 26.74 179.531C26.6357 179.561 26.5839 180.702 26.5627 182.075C26.5109 184.115 26.5313 185.497 26.5313 185.679Z" fill="#FEC9AC"/>
<path opacity="0.5" d="M26.5625 182.075C28.1736 182.815 29.9477 183.161 31.7295 183.084C31.9178 183.074 32.1163 183.064 32.3038 183.034C32.3243 181.166 32.3556 179.501 32.3556 179.399C32.3556 179.147 26.9909 179.45 26.7398 179.531C26.6355 179.561 26.5837 180.702 26.5625 182.075Z" fill="#FFAB90"/>
<path d="M24.7353 189.552C24.7835 189.865 25.0667 190.085 25.398 190.085H41.5682C41.7055 190.086 41.8396 190.046 41.9529 189.971C42.0662 189.896 42.1534 189.789 42.2031 189.665C42.4439 189.032 42.7687 187.857 42.0163 187.357C40.9675 186.663 38.7468 187.303 37.2149 186.256C35.6904 185.215 33.8622 181.672 31.6684 184.081C31.6684 184.081 29.9023 186.696 28.7025 186.142C27.502 185.589 26.6051 182.726 25.163 183.82C24.439 184.375 24.5011 188.204 24.7353 189.552Z" fill="#3A4146"/>
<path d="M40.7774 185.679L44.368 188.062L46.456 187.172C46.456 187.172 46.5085 185.507 46.5509 183.034C46.5713 181.166 46.6019 179.501 46.6019 179.399C46.6019 179.147 41.2372 179.45 40.9869 179.531C40.8825 179.561 40.83 180.702 40.8088 182.075C40.757 184.115 40.7774 185.497 40.7774 185.679Z" fill="#FEC9AC"/>
<path opacity="0.5" d="M40.8113 182.075C42.4224 182.815 44.1965 183.161 45.9783 183.084C46.1658 183.074 46.3643 183.064 46.5519 183.034C46.573 181.166 46.6044 179.501 46.6044 179.399C46.6044 179.147 41.2389 179.45 40.9886 179.531C40.8843 179.561 40.8317 180.702 40.8105 182.075H40.8113Z" fill="#FFAB90"/>
<path d="M38.984 189.552C39.0321 189.865 39.3146 190.085 39.6459 190.085H55.816C55.9533 190.086 56.0875 190.046 56.2008 189.971C56.3141 189.896 56.4013 189.789 56.451 189.665C56.6918 189.032 57.0166 187.857 56.2649 187.357C55.2162 186.663 52.9946 187.303 51.4628 186.256C49.9382 185.215 48.1101 181.672 45.9163 184.081C45.9163 184.081 44.1502 186.696 42.9504 186.142C41.7499 185.589 40.853 182.726 39.4109 183.82C38.6869 184.375 38.749 188.204 38.984 189.552Z" fill="#3A4146"/>
<path d="M24.8067 180.16C25.3512 181.57 34.1277 182.056 34.6094 181.739C35.0838 181.409 38.1329 170.502 38.1329 170.502L38.7401 181.739C38.7182 181.989 47.7794 182.618 48.9938 180.622C49.9221 179.077 50.322 141.273 50.3789 129.759C50.3833 128.897 50.1439 128.911 50.1468 128.362V128.355C50.1541 127.565 50.1541 127.112 50.1541 127.093L25.7613 126.504C25.7613 126.504 25.2884 140.095 25.0023 153.321C24.7367 165.542 24.5484 179.485 24.8067 180.16Z" fill="#4285F4"/>
<path d="M38.7415 181.831L38.1314 170.596C38.1314 170.596 35.0808 181.501 34.6094 181.831L43.5078 133.809C44.7529 141.801 38.7415 181.831 38.7415 181.831Z" fill="#022E4F"/>
<path d="M74.0801 108.692C73.813 109.553 62.3427 115.778 56.5569 116.757C56.1241 116.838 55.7359 116.838 55.3921 116.764C50.4777 115.674 48.2051 111.414 48.2051 111.414L51.6804 104.383L52.3044 103.127C52.4379 103.127 53.183 103.785 54.0486 104.592C54.1632 104.709 54.2843 104.827 54.4113 104.937C54.4113 104.937 54.4113 104.943 54.4186 104.943C55.3291 105.815 56.2307 106.695 57.1232 107.584L73.4539 107.694C73.4539 107.694 74.3662 107.768 74.0801 108.691V108.692Z" fill="#FEC9AC"/>
<path opacity="0.5" d="M56.5569 116.759C56.1241 116.839 55.7359 116.839 55.3921 116.766C50.4777 115.675 48.2051 111.416 48.2051 111.416L51.6804 104.385L54.0486 104.594L54.2909 104.618C54.2909 104.618 54.3347 104.729 54.4113 104.939C54.4113 104.939 54.4113 104.944 54.4186 104.944C55.0542 106.644 57.8997 114.499 56.5569 116.759Z" fill="#FFAB90"/>
<path d="M49.3793 111.576H49.3727C49.3727 111.576 50.3682 129.371 50.374 129.501C50.6375 134.009 25.7864 134.717 25.5361 130.209L26.3001 117.481L26.5052 114.115C26.5052 114.115 22.0308 114.569 17.6841 113.774C17.3271 113.71 16.9718 113.638 16.6186 113.556C16.4581 113.519 16.2975 113.482 16.1443 113.439C16.1443 113.439 15.6239 109.571 17.1193 105.28C18.2811 101.927 20.6763 98.3069 25.5105 96.1096C26.2294 95.78 27.0066 95.4815 27.8408 95.221C29.2463 94.7806 30.8132 94.4446 32.5655 94.2469C36.7961 93.7564 40.2568 93.9921 43.0819 94.6316L43.3125 94.6881C44.3778 94.9366 45.4211 95.2665 46.4324 95.6748C52.7561 98.2638 54.5915 102.89 54.5915 102.89C54.5915 102.89 53.9756 109.657 49.3793 111.576Z" fill="#5731EB"/>
<path d="M24.8469 111.849C24.8892 111.976 24.2419 112.382 22.7378 112.597C21.4606 112.708 20.1448 112.585 18.9224 112.157C18.2174 111.871 17.7306 111.565 17.4555 111.255C17.1869 110.941 17.1971 110.708 17.2657 110.685C17.3438 110.65 17.4642 110.78 17.7445 110.935C18.0182 111.087 18.5086 111.286 19.172 111.487C20.2805 111.876 21.4862 111.991 22.6721 111.888C24.0791 111.815 24.7973 111.679 24.8469 111.849ZM42.3971 98.4535C42.4292 98.5192 42.2081 98.7105 41.6936 98.9773C41.1791 99.2384 40.3653 99.5772 39.2093 99.8172C37.2462 100.172 35.1845 100.076 33.2717 99.4883C32.1522 99.1128 31.3932 98.6596 30.9254 98.3237C30.4583 97.9806 30.2766 97.7519 30.3211 97.6926C30.4306 97.5303 31.3603 98.1994 33.4928 98.8086C35.2881 99.3591 37.2221 99.4516 39.0765 99.117C41.2783 98.7627 42.3168 98.2771 42.3971 98.4535Z" fill="white"/>
<path d="M27.4963 106.324L26.506 114.119C26.506 114.119 26.2834 114.144 25.8762 114.175C24.5837 114.266 20.9975 114.383 17.6805 113.773C17.4529 113.717 17.2237 113.668 16.9931 113.625C16.8661 113.601 16.7391 113.582 16.6179 113.558C16.5099 113.533 16.3954 113.508 16.2866 113.477C16.2355 113.465 16.1917 113.453 16.1407 113.441C16.1407 113.441 15.6247 109.574 17.1208 105.283C17.1208 105.283 18.4067 109.119 22.1622 109.39C25.9112 109.648 27.4971 106.324 27.4971 106.324H27.4963Z" fill="#5731EB"/>
<path d="M76.9673 148.287C76.1505 148.287 75.4883 148.9 75.4883 149.656V168.898C75.4883 169.654 76.1505 170.267 76.9673 170.267H81.4624V148.287H76.9673Z" fill="#FFAB90"/>
<path d="M103.709 148.287H81.4629V170.267H103.709C104.526 170.267 105.188 169.654 105.188 168.898V149.656C105.188 148.9 104.526 148.287 103.709 148.287Z" fill="#FEC9AC"/>
<path d="M88.9904 163.516H84.3223V166.46H88.9904V163.516Z" fill="white"/>
<path d="M96.7335 148.287H89.916V153.441H96.7335V148.287Z" fill="#FFAB90"/>
<path d="M61.2283 170.268C60.4701 170.268 59.8555 170.837 59.8555 171.539V189.398C59.8555 190.1 60.4701 190.669 61.2283 190.669H65.4006V170.268H61.2283Z" fill="#FFAB90"/>
<path d="M86.051 170.268H65.4023V190.669H86.051C86.8092 190.669 87.4239 190.1 87.4239 189.398V171.539C87.4239 170.837 86.8092 170.268 86.051 170.268Z" fill="#FEC9AC"/>
<path d="M71.2225 185.496H68.2578V186.863H71.2225V185.496Z" fill="white"/>
<path d="M79.5758 170.268H73.248V175.051H79.5758V170.268Z" fill="#FFAB90"/>
<path d="M94.6229 170.268C93.8647 170.268 93.25 170.837 93.25 171.539V189.398C93.25 190.1 93.8647 190.669 94.6229 190.669H98.7952V170.268H94.6229Z" fill="#FFAB90"/>
<path d="M119.446 170.268H98.7969V190.669H119.446C120.204 190.669 120.818 190.1 120.818 189.398V171.539C120.818 170.837 120.204 170.268 119.446 170.268Z" fill="#FEC9AC"/>
<path d="M104.617 185.496H101.652V186.863H104.617V185.496Z" fill="white"/>
<path d="M112.97 170.268H106.643V175.051H112.97V170.268Z" fill="#FFAB90"/>
<path d="M45.3442 115.681L43.084 116.451C43.1482 116.358 43.6364 113.695 45.0741 114.247C45.6332 114.459 45.4208 115.614 45.3442 115.681Z" fill="#FEC9AC"/>
<path d="M50.3752 129.5C50.6387 134.009 25.7876 134.717 25.5373 130.208L26.3014 117.48L26.4108 117.238C26.4108 117.238 29.1512 114.698 29.8445 110.6C30.532 106.496 25.5117 96.1089 25.5117 96.1089L27.842 95.2202C27.842 95.2202 33.4403 105.66 34.3007 106.06C35.3253 106.538 41.3703 105.672 44.0435 105.125C44.9302 104.944 45.56 104.167 45.5053 103.292C45.2827 99.7249 43.0824 94.6309 43.0824 94.6309L43.3137 94.6873L46.1964 95.3325C46.273 95.4313 46.357 95.5499 46.4336 95.6741C48.6741 99.2936 49.3747 111.575 49.3747 111.575C49.3747 111.575 50.3694 129.371 50.3752 129.5Z" fill="#6273FF"/>
<path d="M73.7926 103.835V125.931C73.7918 126.065 73.7365 126.193 73.6387 126.288C73.5409 126.382 73.4084 126.436 73.2701 126.437H50.4551V103.334H73.2701C73.5569 103.334 73.7926 103.558 73.7926 103.835Z" fill="#FEC9AC"/>
<path d="M73.7926 124.249V125.999C73.7918 126.133 73.7365 126.261 73.6387 126.355C73.5409 126.45 73.4084 126.504 73.2701 126.504H50.4551V103.402H50.4697C50.7258 104.52 54.5507 119.67 73.7926 124.249Z" fill="#FFAB90"/>
<path d="M43.084 116.453C43.084 116.453 44.7793 111.001 46.0703 112.612C47.3621 114.222 45.8047 115.135 45.8047 115.135L43.084 116.453Z" fill="#FEC9AC"/>
<path d="M50.4538 126.437H46.5494C46.4449 126.437 46.3415 126.417 46.245 126.378C46.1485 126.34 46.0608 126.283 45.9869 126.211C45.913 126.14 45.8544 126.055 45.8145 125.962C45.7745 125.868 45.7539 125.768 45.7539 125.667V104.102C45.7539 103.676 46.11 103.332 46.5494 103.332H50.4538V126.437Z" fill="#EA7D20"/>
<path d="M53.3358 109.887H59.415C59.5507 109.887 59.6808 109.835 59.7768 109.743C59.8727 109.65 59.9266 109.524 59.9266 109.393V105.593C59.9267 105.528 59.9135 105.464 59.8878 105.403C59.8621 105.343 59.8244 105.289 59.7768 105.243C59.7292 105.197 59.6727 105.16 59.6105 105.135C59.5483 105.11 59.4816 105.098 59.4143 105.098H53.3358C53.2686 105.098 53.202 105.11 53.1399 105.135C53.0777 105.16 53.0213 105.197 52.9738 105.243C52.9263 105.289 52.8886 105.343 52.8629 105.404C52.8373 105.464 52.8241 105.528 52.8242 105.593V109.393C52.8242 109.666 53.0534 109.887 53.3358 109.887Z" fill="white"/>
<path d="M48.7559 107.145H47.4524V103.331H48.7559V107.145Z" fill="#EE984F"/>
<path d="M59.1191 106.795H53.6347V106.491H59.1191V106.795Z" fill="#BBCAEA"/>
<path d="M59.1191 107.645H53.6347V107.341H59.1191V107.645Z" fill="#BBCAEA"/>
<path d="M57.3496 108.191H59.1186V108.495H57.3496V108.191Z" fill="#BBCAEA"/>
<path d="M52.7229 124.068H61.7184C61.7908 124.068 61.8602 124.041 61.9114 123.991C61.9626 123.942 61.9913 123.874 61.9913 123.804V121.137C61.9913 121.067 61.9626 121 61.9114 120.95C61.8602 120.901 61.7908 120.873 61.7184 120.873H52.7229C52.687 120.873 52.6514 120.88 52.6182 120.893C52.585 120.906 52.5548 120.926 52.5294 120.95C52.504 120.975 52.4838 121.004 52.4701 121.036C52.4563 121.068 52.4492 121.102 52.4492 121.137V123.804C52.4492 123.95 52.5718 124.068 52.7229 124.068Z" fill="white"/>
<path d="M61.4316 123.516H60.3245V121.429H61.4316V123.516Z" fill="#E4ECF9"/>
<path d="M59.2967 121.428H59.8791V123.514H59.2967V121.428ZM57.6875 121.428H58.7603V123.514H57.6875V121.428Z" fill="#E4ECF9"/>
<path d="M45.805 115.135C45.805 115.135 50.151 112.695 50.0204 117.015C49.8146 123.783 43.8025 120.565 43.8025 120.565C43.8025 120.565 31.644 128.809 19.8833 125.363C16.8721 124.48 15.6592 116.589 16.2883 113.479C16.3978 113.51 16.5131 113.534 16.6153 113.559C16.7379 113.577 16.8663 113.596 16.9948 113.621C17.2254 113.665 17.4567 113.714 17.6808 113.77C21.0006 114.378 25.2167 114.212 26.507 114.119C26.4975 114.17 26.4099 117.237 26.4099 117.237C27.8994 119.466 43.0843 116.322 43.0843 116.452L45.805 115.135Z" fill="#FEC9AC"/>
<path d="M35.8388 81.3002C35.6797 81.3172 32.073 86.174 31.9738 86.174L29.437 85.3673C29.437 85.3673 26.9849 82.9321 28.1949 80.2006C29.399 77.4683 33.0188 75.8809 33.0188 75.8809L35.903 78.1819C35.903 78.1819 35.9906 81.2777 35.8388 81.3002Z" fill="#2E363A"/>
<path d="M31.0388 94.5759C30.968 94.1531 31.9503 93.57 32.3991 91.2415C32.4071 91.2132 32.4115 91.184 32.4123 91.1547C32.4962 90.6952 32.5597 90.1672 32.5918 89.5651C32.7524 86.5844 37.6384 89.155 37.6384 89.155L39.0315 91.4342C39.0315 91.4342 39.0316 91.5704 39.0374 91.7942C39.0447 91.8252 39.0447 91.8563 39.0447 91.8873C39.0505 91.9614 39.0505 92.0483 39.0571 92.1414C39.0958 92.7626 39.1979 93.6943 39.468 94.4453C40.4116 97.0653 31.5781 97.8354 31.0388 94.5759Z" fill="#FEC9AC"/>
<path opacity="0.5" d="M39.0564 92.1414C38.613 92.4213 38.1146 92.6095 37.5924 92.6941C35.2877 93.0795 33.5734 92.2537 32.3984 91.2415C32.4064 91.2132 32.4108 91.184 32.4116 91.1547C32.4955 90.6952 32.559 90.1672 32.5911 89.5651C32.7517 86.5844 37.6377 89.155 37.6377 89.155L39.0308 91.4342C39.0308 91.4342 39.0309 91.5704 39.0367 91.7942C39.044 91.8252 39.044 91.8563 39.044 91.8873C39.0498 91.9614 39.0498 92.0483 39.0564 92.1414Z" fill="#FFAB90"/>
<path d="M31.1585 88.0201C31.1585 88.0201 28.3255 86.8131 29.6676 84.9638C30.4105 83.9396 31.3198 84.6306 31.7927 85.1283C31.9256 85.2673 32.1649 85.201 32.2 85.0146C32.4955 83.4575 33.5647 78.7299 35.7497 77.9845C38.3733 77.0909 41.2903 77.5264 42.2259 78.9381C44.0979 81.7614 43.4418 91.2782 38.4033 92.1146C33.3647 92.951 31.1585 88.0201 31.1585 88.0201Z" fill="#FEC9AC"/>
<path d="M43.9397 78.4488V78.8532C42.9283 79.1357 41.9038 79.3719 40.8694 79.5612L40.7213 78.9273C40.0915 74.9189 37.9845 71.6629 35.9922 71.6191C40.387 71.6565 43.9404 74.6952 43.9404 78.4488H43.9397Z" fill="#D32118"/>
<path d="M40.8664 79.5612C38.6361 79.9776 36.2526 80.2141 33.753 80.3256C33.2071 80.3503 32.6605 80.375 32.108 80.3821C30.9768 80.4068 29.8208 80.4124 28.6517 80.3941C28.5053 80.393 28.3637 80.3429 28.2512 80.2523C28.1386 80.1618 28.062 80.0362 28.0343 79.8972C27.9445 79.4122 27.8613 78.8158 27.8613 78.4488C27.8613 74.7015 31.4009 71.6693 35.7964 71.6255C35.8475 71.6191 35.8928 71.6191 35.9439 71.6191H35.9891C37.9815 71.6629 40.0884 74.9189 40.7182 78.9273L40.8664 79.5612Z" fill="#D32118"/>
<path d="M40.8664 79.5612C38.6361 79.9776 36.2526 80.2141 33.7531 80.3256C33.6381 79.8635 33.5417 79.3973 33.4641 78.928C32.8474 74.9937 33.8946 71.7871 35.7965 71.6255C35.8476 71.6191 35.8928 71.6191 35.9439 71.6191H35.9892C37.9815 71.6629 40.0884 74.9189 40.7183 78.9273L40.8664 79.5612Z" fill="#D32118"/>
<path d="M48.0158 80.9818C48.2749 81.8337 43.9399 80.3684 40.5923 82.5099C37.8789 84.2427 32.798 80.7834 32.1055 80.3853C36.4339 80.283 40.4456 79.8461 43.9399 78.8516C43.9399 78.8516 47.7283 80.0444 48.0158 80.9818Z" fill="#6273FF"/>
<path d="M36.3825 71.7095C36.4204 72.2361 34.0646 72.3927 34.0274 71.8662C33.9895 71.3396 34.4872 70.8823 35.1374 70.8392C35.7877 70.7962 36.3453 71.183 36.3825 71.7095Z" fill="#2E363A"/>
<path d="M39.6769 90.1784C39.6886 90.2166 39.3894 90.3577 38.7654 90.2744C38.2475 90.1751 37.7622 89.9559 37.351 89.6357C36.884 89.2418 36.7584 88.9616 36.7942 88.9369C36.8416 88.8981 37.0394 89.1147 37.5021 89.4493C37.886 89.7422 38.3341 89.9547 38.8114 90.0415C39.3711 90.1594 39.6689 90.1156 39.6769 90.1784ZM38.7625 88.476C38.7734 88.4513 38.8668 88.4689 39.0471 88.4943C39.223 88.5155 39.5025 88.5571 39.8258 88.4548C39.9593 88.416 40.1009 88.3454 40.1549 88.2614C40.2111 88.1845 40.1885 88.0567 40.1381 87.9155C40.0325 87.6194 39.9479 87.3166 39.8849 87.0092C39.7638 86.2752 39.8324 85.9067 39.8783 85.9067C39.9396 85.9046 39.9659 86.2653 40.1257 86.9634C40.1863 87.2619 40.2688 87.552 40.3717 87.8414C40.4198 87.984 40.487 88.1943 40.3622 88.3892C40.2345 88.5649 40.063 88.627 39.898 88.6814C39.6039 88.7552 39.2931 88.7377 39.0099 88.6313C38.8274 88.5621 38.753 88.4993 38.7625 88.476ZM42.3071 82.8279C42.2779 82.878 42.1188 82.8131 41.8028 82.7926C41.537 82.7597 41.2675 82.8139 41.0372 82.9465C40.7701 83.0883 40.7453 83.2464 40.6869 83.2436C40.6337 83.2662 40.5687 82.9867 40.9044 82.7474C41.1861 82.5787 41.5138 82.5216 41.8313 82.5568C42.2071 82.631 42.3341 82.7912 42.3071 82.8279ZM37.8079 83.6262C37.7896 83.6791 37.6378 83.6579 37.3525 83.665C37.1105 83.6543 36.8693 83.6978 36.6475 83.7921C36.368 83.8803 36.3009 83.9643 36.2461 83.9523C36.1804 83.9452 36.2439 83.7123 36.5483 83.5754C36.8037 83.4653 37.0847 83.4166 37.3634 83.4271C37.6933 83.4674 37.8254 83.5824 37.8079 83.6262Z" fill="#4F2D2B"/>
<path d="M41.5214 85.9068C41.7544 85.9068 41.9433 85.5993 41.9433 85.22C41.9433 84.8407 41.7544 84.5332 41.5214 84.5332C41.2885 84.5332 41.0996 84.8407 41.0996 85.22C41.0996 85.5993 41.2885 85.9068 41.5214 85.9068Z" fill="#4F2D2B"/>
<path d="M37.3847 85.9653C37.6177 85.9653 37.8065 85.6579 37.8065 85.2786C37.8065 84.8993 37.6177 84.5918 37.3847 84.5918C37.1517 84.5918 36.9629 84.8993 36.9629 85.2786C36.9629 85.6579 37.1517 85.9653 37.3847 85.9653Z" fill="#4F2D2B"/>
<path d="M30.9878 86.9082C30.9477 86.9781 30.6455 87.0141 30.2186 86.592C29.8843 86.1784 29.9245 85.5361 30.3106 85.1592C30.539 84.9354 30.9046 84.9178 31.0447 85.0406C31.198 85.1535 31.1739 85.2693 31.1287 85.2855C31.025 85.3293 30.8732 85.2171 30.6623 85.4902C30.4507 85.7006 30.4142 86.0718 30.6141 86.3111C30.8302 86.6379 31.0564 86.8108 30.9878 86.9082Z" fill="#FFAB90"/>
<path d="M180.589 106.712C186.244 106.712 190.828 102.278 190.828 96.8091C190.828 91.3399 186.244 86.9062 180.589 86.9062C174.934 86.9062 170.35 91.3399 170.35 96.8091C170.35 102.278 174.934 106.712 180.589 106.712Z" fill="#FD6500"/>
<path d="M180.591 103.717C184.535 103.717 187.733 100.624 187.733 96.8096C187.733 92.9948 184.535 89.9023 180.591 89.9023C176.647 89.9023 173.449 92.9948 173.449 96.8096C173.449 100.624 176.647 103.717 180.591 103.717Z" fill="white"/>
<path d="M180.542 94.387C179.549 94.3899 178.567 94.1975 177.653 93.8216C176.74 93.4457 175.916 92.8941 175.23 92.2003C175.18 92.1485 175.154 92.0801 175.156 92.0096C175.158 91.9392 175.189 91.8724 175.241 91.8235C175.294 91.7746 175.364 91.7475 175.437 91.7481C175.51 91.7486 175.579 91.7766 175.631 91.8263C176.265 92.4677 177.028 92.9777 177.872 93.3252C178.716 93.6727 179.625 93.8505 180.543 93.8478C181.461 93.8508 182.371 93.6731 183.216 93.3256C184.061 92.9781 184.825 92.468 185.46 91.8263C185.512 91.7766 185.581 91.7486 185.654 91.7481C185.727 91.7475 185.797 91.7746 185.85 91.8235C185.902 91.8724 185.933 91.9392 185.935 92.0096C185.937 92.0801 185.911 92.1485 185.861 92.2003C185.174 92.8946 184.348 93.4465 183.434 93.8224C182.519 94.1983 181.535 94.3904 180.542 94.387ZM185.661 101.791C185.624 101.791 185.586 101.784 185.552 101.769C185.517 101.755 185.485 101.734 185.459 101.708C184.826 101.064 184.063 100.551 183.217 100.202C182.372 99.8535 181.461 99.6752 180.542 99.6787C179.624 99.6757 178.715 99.8541 177.87 100.203C177.026 100.552 176.264 101.064 175.632 101.708C175.607 101.734 175.576 101.756 175.543 101.77C175.509 101.785 175.473 101.794 175.436 101.795C175.398 101.796 175.362 101.79 175.327 101.777C175.292 101.764 175.261 101.745 175.234 101.72C175.207 101.695 175.186 101.666 175.171 101.633C175.156 101.6 175.148 101.565 175.148 101.529C175.147 101.493 175.154 101.457 175.168 101.424C175.182 101.391 175.203 101.361 175.229 101.335C175.913 100.639 176.738 100.085 177.651 99.707C178.565 99.3295 179.548 99.1363 180.542 99.1394C181.536 99.1357 182.521 99.3285 183.436 99.706C184.351 100.083 185.177 100.638 185.862 101.335C185.9 101.373 185.926 101.421 185.935 101.473C185.945 101.525 185.939 101.578 185.918 101.627C185.896 101.676 185.861 101.717 185.815 101.746C185.77 101.776 185.716 101.791 185.661 101.791V101.791ZM187.63 97.0332H173.447C173.373 97.0332 173.302 97.0048 173.25 96.9542C173.197 96.9036 173.168 96.8351 173.168 96.7636C173.168 96.692 173.197 96.6235 173.25 96.5729C173.302 96.5223 173.373 96.4939 173.447 96.4939H187.63C187.704 96.4939 187.775 96.5223 187.828 96.5729C187.88 96.6235 187.909 96.692 187.909 96.7636C187.909 96.8351 187.88 96.9036 187.828 96.9542C187.775 97.0048 187.704 97.0332 187.63 97.0332Z" fill="#FD6500"/>
<path d="M180.59 103.985C178.802 103.985 177.4 100.832 177.4 96.8078C177.4 92.7831 178.802 89.6309 180.59 89.6309C182.378 89.6309 183.779 92.7831 183.779 96.8078C183.779 100.832 182.378 103.985 180.59 103.985ZM180.59 90.1701C179.319 90.1701 177.958 92.8368 177.958 96.8078C177.958 100.778 179.319 103.445 180.59 103.445C181.86 103.445 183.222 100.778 183.222 96.8078C183.222 92.8368 181.861 90.1701 180.59 90.1701Z" fill="#FD6500"/>
<path d="M180.927 48.7147C182.083 48.7147 183.02 47.8084 183.02 46.6903C183.02 45.5723 182.083 44.666 180.927 44.666C179.771 44.666 178.834 45.5723 178.834 46.6903C178.834 47.8084 179.771 48.7147 180.927 48.7147Z" fill="#BBCAEA"/>
<path d="M48.1067 69.6053C49.2627 69.6053 50.1998 68.699 50.1998 67.581C50.1998 66.463 49.2627 65.5566 48.1067 65.5566C46.9508 65.5566 46.0137 66.463 46.0137 67.581C46.0137 68.699 46.9508 69.6053 48.1067 69.6053Z" fill="#BBCAEA"/>
<path d="M49.0919 55.9276C54.3667 55.9276 58.6428 51.792 58.6428 46.6904C58.6428 41.5888 54.3667 37.4531 49.0919 37.4531C43.8171 37.4531 39.541 41.5888 39.541 46.6904C39.541 51.792 43.8171 55.9276 49.0919 55.9276Z" fill="#F3F6FD"/>
<path d="M53.4785 45.0253C53.4785 49.2073 49.0895 53.1988 49.0895 53.1988C49.0895 53.1988 44.7012 49.2073 44.7012 45.0253C44.7012 42.6819 46.6665 40.7832 49.0895 40.7832C49.6656 40.7829 50.2362 40.8924 50.7686 41.1055C51.301 41.3186 51.7848 41.631 52.1923 42.0249C52.5998 42.4189 52.9231 42.8866 53.1437 43.4014C53.3642 43.9162 53.4777 44.468 53.4777 45.0253H53.4785Z" fill="#7CD194"/>
<path d="M49.0922 47.421C50.4203 47.421 51.4969 46.3797 51.4969 45.0953C51.4969 43.8108 50.4203 42.7695 49.0922 42.7695C47.7641 42.7695 46.6875 43.8108 46.6875 45.0953C46.6875 46.3797 47.7641 47.421 49.0922 47.421Z" fill="#F3F6FD"/>
<path d="M122.535 167.604H191.653V173.716H126.476C125.959 173.716 125.446 173.615 124.968 173.418C124.49 173.221 124.055 172.932 123.689 172.569C123.323 172.205 123.033 171.773 122.835 171.298C122.637 170.823 122.535 170.314 122.535 169.799V167.604H122.535Z" fill="#405E7A"/>
<path d="M191.653 173.715H125.014V179.827H191.653V173.715Z" fill="#C0D9FD"/>
<path d="M126.19 182.905C126.011 182.905 125.834 182.87 125.669 182.802C125.505 182.734 125.355 182.635 125.228 182.509C125.102 182.384 125.002 182.235 124.934 182.071C124.865 181.907 124.83 181.731 124.83 181.554V173.715H127.549V181.554C127.549 181.731 127.514 181.907 127.446 182.071C127.378 182.235 127.278 182.384 127.151 182.509C127.025 182.635 126.875 182.734 126.71 182.802C126.545 182.87 126.368 182.905 126.19 182.905Z" fill="#C0D9FD"/>
<path d="M218.781 157.161L203.983 137.088C203.672 136.667 203.266 136.324 202.797 136.088C202.328 135.852 201.81 135.729 201.284 135.729H189.879C188.992 135.729 188.141 136.079 187.513 136.702C186.886 137.326 186.533 138.172 186.533 139.054V176.504C186.533 177.386 186.886 178.232 187.513 178.856C188.141 179.479 188.992 179.829 189.879 179.829H216.082C216.521 179.829 216.956 179.743 217.362 179.576C217.768 179.409 218.137 179.164 218.447 178.856C218.758 178.547 219.005 178.18 219.173 177.777C219.341 177.373 219.427 176.941 219.427 176.504V159.126C219.427 158.419 219.201 157.731 218.781 157.161Z" fill="#FD6500"/>
<path d="M198.084 159.969L194.375 159.418C194.157 159.385 193.962 159.268 193.831 159.093C193.7 158.917 193.645 158.696 193.677 158.48C193.71 158.264 193.827 158.069 194.004 157.939C194.181 157.809 194.403 157.754 194.621 157.786L198.329 158.337C198.437 158.353 198.541 158.39 198.634 158.446C198.727 158.502 198.809 158.576 198.874 158.663C198.939 158.75 198.985 158.849 199.012 158.954C199.038 159.059 199.043 159.168 199.027 159.275C199.011 159.382 198.974 159.485 198.918 159.578C198.862 159.671 198.788 159.752 198.7 159.816C198.613 159.881 198.513 159.927 198.407 159.953C198.302 159.98 198.192 159.985 198.084 159.969Z" fill="#405E7A"/>
<path d="M186.533 139.054V179.829H214.239L214.177 166.979C214.177 166.248 213.913 165.541 213.434 164.987C212.955 164.432 212.291 164.067 211.564 163.956L192.492 161.061C191.765 160.951 191.101 160.585 190.622 160.03C190.143 159.476 189.879 158.769 189.879 158.038V135.729C188.992 135.729 188.141 136.079 187.513 136.702C186.886 137.326 186.533 138.172 186.533 139.054Z" fill="#FD6500"/>
<path d="M221.194 179.827H213.953V173.715H221.194C222.01 173.715 222.792 174.037 223.369 174.61C223.945 175.183 224.269 175.96 224.269 176.771C224.269 177.582 223.945 178.359 223.369 178.932C222.792 179.505 222.01 179.827 221.194 179.827Z" fill="#DEE3E9"/>
<path d="M155.342 182.905C155.34 179.434 153.95 176.106 151.48 173.652C149.009 171.199 145.659 169.82 142.166 169.82C138.673 169.82 135.323 171.199 132.853 173.652C130.382 176.106 128.993 179.434 128.99 182.905H155.342Z" fill="#DCE7F9"/>
<path d="M130.111 182.905C130.119 179.733 131.392 176.694 133.652 174.454C135.911 172.213 138.973 170.955 142.165 170.955C145.357 170.955 148.418 172.213 150.678 174.454C152.937 176.694 154.211 179.733 154.218 182.905H130.111Z" fill="#405E7A"/>
<path d="M213.373 182.905C213.371 179.434 211.981 176.106 209.511 173.652C207.04 171.199 203.69 169.82 200.197 169.82C196.705 169.82 193.355 171.199 190.884 173.652C188.413 176.106 187.024 179.434 187.021 182.905H213.373Z" fill="#DCE7F9"/>
<path d="M188.143 182.905C188.15 179.733 189.423 176.694 191.683 174.454C193.943 172.213 197.004 170.955 200.196 170.955C203.388 170.955 206.449 172.213 208.709 174.454C210.969 176.694 212.242 179.733 212.249 182.905H188.143Z" fill="#405E7A"/>
<path d="M142.165 192.095C147.273 192.095 151.413 187.981 151.413 182.905C151.413 177.829 147.273 173.715 142.165 173.715C137.058 173.715 132.918 177.829 132.918 182.905C132.918 187.981 137.058 192.095 142.165 192.095Z" fill="#34495E"/>
<path d="M200.199 192.095C205.306 192.095 209.446 187.981 209.446 182.905C209.446 177.829 205.306 173.715 200.199 173.715C195.091 173.715 190.951 177.829 190.951 182.905C190.951 187.981 195.091 192.095 200.199 192.095Z" fill="#34495E"/>
<path d="M146.79 182.906C146.79 183.814 146.519 184.703 146.011 185.459C145.503 186.214 144.781 186.803 143.936 187.151C143.091 187.499 142.161 187.59 141.265 187.412C140.368 187.235 139.544 186.797 138.897 186.155C138.251 185.512 137.81 184.693 137.632 183.802C137.453 182.911 137.545 181.987 137.895 181.147C138.245 180.308 138.837 179.59 139.598 179.085C140.358 178.58 141.252 178.311 142.167 178.311C143.393 178.311 144.569 178.795 145.436 179.656C146.303 180.518 146.79 181.687 146.79 182.906Z" fill="#DEF8FA"/>
<path d="M200.196 187.501C202.75 187.501 204.82 185.444 204.82 182.906C204.82 180.368 202.75 178.311 200.196 178.311C197.643 178.311 195.572 180.368 195.572 182.906C195.572 185.444 197.643 187.501 200.196 187.501Z" fill="#DEF8FA"/>
<path d="M176.79 175.258H164.071C161.79 175.258 159.941 177.095 159.941 179.362V180.349C159.941 182.616 161.79 184.453 164.071 184.453H176.79C179.071 184.453 180.92 182.616 180.92 180.349V179.362C180.92 177.095 179.071 175.258 176.79 175.258Z" fill="#405E7A"/>
<path d="M122.139 120.67H174.226C176.798 120.67 179.265 121.685 181.083 123.493C182.902 125.3 183.924 127.751 183.924 130.307V157.966C183.924 160.522 182.902 162.973 181.083 164.781C179.265 166.588 176.798 167.603 174.226 167.603H122.139C119.567 167.603 117.1 166.588 115.282 164.781C113.463 162.973 112.441 160.522 112.441 157.966V130.307C112.441 129.042 112.692 127.788 113.18 126.619C113.667 125.45 114.381 124.388 115.282 123.493C116.182 122.598 117.251 121.888 118.428 121.404C119.604 120.919 120.865 120.67 122.139 120.67Z" fill="#6273FF"/>
<path d="M213.156 159.01C213.052 159.01 212.949 159.003 212.846 158.988L195.262 156.546C194.752 156.473 194.285 156.22 193.947 155.834C193.609 155.447 193.422 154.953 193.42 154.441V140.084C193.421 139.521 193.646 138.981 194.047 138.582C194.448 138.184 194.992 137.96 195.559 137.959H200.757C201.093 137.96 201.425 138.038 201.724 138.189C202.024 138.34 202.284 138.559 202.483 138.828L214.867 155.628C215.105 155.942 215.248 156.316 215.281 156.708C215.313 157.1 215.234 157.493 215.052 157.842C214.876 158.192 214.606 158.487 214.271 158.694C213.936 158.9 213.55 159.01 213.156 159.01L213.156 159.01Z" fill="#C0D9FD"/>
<path fill-rule="evenodd" clip-rule="evenodd" d="M195.34 155.992L212.923 158.435C213.23 158.478 213.543 158.43 213.823 158.297C214.103 158.164 214.337 157.951 214.496 157.687C214.655 157.422 214.732 157.117 214.717 156.809C214.703 156.501 214.597 156.205 214.414 155.956L202.029 139.157C201.883 138.958 201.691 138.796 201.47 138.685C201.249 138.574 201.005 138.516 200.757 138.516H195.558C195.14 138.516 194.738 138.681 194.442 138.975C194.147 139.269 193.98 139.668 193.98 140.083V154.44C193.98 154.818 194.118 155.183 194.368 155.469C194.618 155.754 194.963 155.94 195.34 155.992Z" fill="#ABEBFF"/>
<path d="M148.244 155.341H176.004C176.152 155.338 176.292 155.277 176.396 155.172C176.499 155.067 176.557 154.926 176.557 154.779C176.557 154.632 176.499 154.491 176.396 154.386C176.292 154.281 176.152 154.22 176.004 154.217H148.244C148.097 154.22 147.956 154.281 147.853 154.386C147.749 154.491 147.691 154.632 147.691 154.779C147.691 154.926 147.749 155.067 147.853 155.172C147.956 155.277 148.097 155.338 148.244 155.341ZM176.004 158.314H148.244C148.097 158.317 147.956 158.378 147.853 158.483C147.749 158.588 147.691 158.729 147.691 158.876C147.691 159.023 147.749 159.164 147.853 159.269C147.956 159.374 148.097 159.435 148.244 159.438H176.004C176.152 159.435 176.292 159.374 176.396 159.269C176.499 159.164 176.557 159.023 176.557 158.876C176.557 158.729 176.499 158.588 176.396 158.483C176.292 158.378 176.152 158.317 176.004 158.314ZM176.004 162.411H148.244C148.097 162.414 147.956 162.475 147.853 162.58C147.749 162.685 147.691 162.826 147.691 162.973C147.691 163.12 147.749 163.261 147.853 163.366C147.956 163.471 148.097 163.532 148.244 163.535H176.004C176.152 163.532 176.292 163.471 176.396 163.366C176.499 163.261 176.557 163.12 176.557 162.973C176.557 162.826 176.499 162.685 176.396 162.58C176.292 162.475 176.152 162.414 176.004 162.411Z" fill="#C0D9FD"/>
<path d="M165.066 184.453H166.43V175.258H165.066L165.066 184.453ZM174.434 175.258V184.453H175.797V175.258H174.434Z" fill="#C0D9FD"/>
<path opacity="0.3" d="M203.449 141.081L197.536 156.297L201.891 156.902L206.455 145.158L203.449 141.081ZM202.031 139.157C201.884 138.958 201.693 138.796 201.472 138.685C201.251 138.574 201.006 138.516 200.758 138.516H200.705L194.205 155.243C194.326 155.445 194.491 155.616 194.687 155.746C194.884 155.876 195.107 155.96 195.341 155.992L196.165 156.107L202.503 139.797L202.031 139.157ZM207.346 146.366L203.182 157.082L205.359 157.384L208.849 148.405L207.346 146.366ZM209.347 149.082L206.082 157.485L208.26 157.787L210.85 151.12L209.347 149.082Z" fill="#FEFEFE"/>
<path d="M220.527 162.699H219.428V169.811H220.527V162.699Z" fill="#405E7A"/>
<path d="M221.322 163.18H220.527V169.33H221.322C222.189 169.33 222.893 167.953 222.893 166.255C222.893 164.556 222.189 163.18 221.322 163.18Z" fill="#F29B12"/>
</svg>
