<svg width="552" height="466" viewBox="0 0 552 466" fill="none" xmlns="http://www.w3.org/2000/svg">
<path d="M7.73225 342.454C39.3389 286.838 26.0298 263.121 17.4178 209.918C12.8401 181.638 14.5608 148.091 36.6368 124.146C60.9898 97.7317 99.8277 93.6126 132.783 95.3385C165.738 97.0645 200.503 101.842 232.388 85.9512C254.562 74.9 271.977 55.2924 293.254 42.2779C337.136 15.437 395.31 23.6414 419.331 60.0596C429.809 75.9458 434.235 95.9036 446.435 110.458C457.836 124.057 474.981 131.726 489.775 141.855C560.622 190.361 572.034 291.704 514.318 374.176C501.081 393.09 484.248 410.486 464.095 421.956H53.2877C12.5388 421.956 -12.0793 377.315 7.73225 342.454Z" fill="#EBF2FF" fill-opacity="0.05"/>
<path d="M361.74 289.648C361.74 290.126 361.281 290.557 360.356 290.754H358C357.076 290.555 356.617 290.126 356.617 289.636C356.617 289.146 357.076 288.729 358 288.52H360.356C361.281 288.729 361.738 289.148 361.738 289.65L361.74 289.648ZM384.446 289.648C384.446 290.126 383.431 290.557 381.377 290.754H376.159C374.107 290.555 373.093 290.126 373.093 289.636C373.093 289.146 374.107 288.729 376.159 288.52H381.377C383.431 288.729 384.446 289.148 384.446 289.65V289.648ZM407.153 289.648C407.153 290.126 406.137 290.557 404.083 290.754H398.865C396.813 290.555 395.799 290.126 395.799 289.636C395.799 289.146 396.813 288.729 398.865 288.52H404.083C406.137 288.729 407.153 289.148 407.153 289.65V289.648ZM423.639 284.653C424.129 284.653 424.571 285.545 424.774 287.347V290.754H421.271C419.421 290.555 418.506 290.126 418.506 289.636C418.506 289.146 419.421 288.729 421.271 288.52H422.478V287.347C422.693 285.545 423.123 284.653 423.639 284.653ZM423.639 264.678C424.129 264.678 424.571 265.572 424.774 267.378V271.968C424.571 273.774 424.129 274.666 423.627 274.666C423.123 274.666 422.693 273.774 422.478 271.968V267.378C422.693 265.572 423.123 264.678 423.639 264.678ZM423.639 244.704C424.129 244.704 424.571 245.598 424.774 247.404V251.994C424.571 253.798 424.129 254.691 423.627 254.691C423.123 254.691 422.693 253.798 422.478 251.994V247.404C422.693 245.598 423.123 244.704 423.639 244.704ZM423.639 224.73C424.129 224.73 424.571 225.624 424.774 227.429V232.019C424.571 233.823 424.129 234.717 423.627 234.717C423.123 234.717 422.693 233.823 422.478 232.019V227.429C422.693 225.624 423.123 224.73 423.639 224.73ZM423.639 204.756C424.129 204.756 424.571 205.649 424.774 207.455V212.045C424.571 213.849 424.129 214.743 423.627 214.743C423.123 214.743 422.693 213.849 422.478 212.045V207.455C422.693 205.649 423.123 204.756 423.639 204.756ZM423.639 184.781C424.129 184.781 424.571 185.673 424.774 187.481V192.071C424.571 193.875 424.129 194.768 423.627 194.768C423.123 194.768 422.693 193.875 422.478 192.071V187.481C422.693 185.673 423.123 184.781 423.639 184.781ZM423.639 164.807C424.129 164.807 424.571 165.699 424.774 167.506V172.096C424.571 173.9 424.129 174.794 423.627 174.794C423.123 174.794 422.693 173.9 422.478 172.096V167.506C422.693 165.699 423.123 164.807 423.639 164.807ZM423.639 144.831C424.129 144.831 424.571 145.725 424.774 147.53V152.122C424.571 153.926 424.129 154.82 423.627 154.82C423.123 154.82 422.693 153.926 422.478 152.122V147.53C422.693 145.725 423.123 144.831 423.639 144.831ZM423.639 124.857C424.129 124.857 424.571 125.75 424.774 127.556V132.146C424.571 133.952 424.129 134.844 423.627 134.844C423.123 134.844 422.693 133.952 422.478 132.146V127.556C422.693 125.75 423.123 124.857 423.639 124.857ZM418.506 109.874C418.506 109.397 419.421 108.967 421.273 108.77H424.774V112.178C424.571 113.979 424.129 114.869 423.627 114.869C423.123 114.869 422.693 113.979 422.478 112.178V111.004H421.273C419.421 110.795 418.506 110.374 418.506 109.874ZM397.771 109.874C397.771 109.397 398.7 108.967 400.574 108.77H405.338C407.211 108.967 408.138 109.397 408.138 109.886C408.138 110.374 407.211 110.795 405.338 111.004H400.574C398.7 110.795 397.771 110.374 397.771 109.874ZM377.038 109.874C377.038 109.397 377.965 108.967 379.841 108.77H384.603C386.478 108.967 387.404 109.397 387.404 109.886C387.404 110.374 386.478 110.795 384.605 111.004H379.841C377.965 110.795 377.038 110.374 377.038 109.874ZM356.305 109.874C356.305 109.397 357.232 108.967 359.106 108.77H363.872C365.745 108.967 366.671 109.397 366.671 109.886C366.671 110.374 365.745 110.795 363.872 111.004H359.106C357.232 110.795 356.305 110.374 356.305 109.874ZM335.572 109.874C335.572 109.397 336.499 108.967 338.373 108.77H343.137C345.011 108.967 345.937 109.397 345.937 109.886C345.937 110.374 345.011 110.795 343.137 111.004H338.375C336.497 110.795 335.572 110.374 335.572 109.874ZM314.837 109.874C314.837 109.397 315.766 108.967 317.64 108.77H322.404C324.277 108.967 325.204 109.397 325.204 109.886C325.204 110.374 324.277 110.795 322.404 111.004H317.64C315.766 110.795 314.837 110.374 314.837 109.874ZM294.104 109.874C294.104 109.397 295.031 108.967 296.907 108.77H301.669C303.544 108.967 304.47 109.397 304.47 109.886C304.47 110.374 303.544 110.795 301.671 111.004H296.907C295.031 110.795 294.104 110.374 294.104 109.874ZM273.371 109.874C273.371 109.397 274.298 108.967 276.172 108.77H280.938C282.811 108.967 283.737 109.397 283.737 109.886C283.737 110.374 282.811 110.795 280.938 111.004H276.172C274.298 110.795 273.371 110.374 273.371 109.874ZM252.638 109.874C252.638 109.397 253.565 108.967 255.439 108.77H260.203C262.077 108.967 263.003 109.397 263.003 109.886C263.003 110.374 262.077 110.795 260.203 111.004H255.441C253.563 110.795 252.638 110.374 252.638 109.874ZM231.903 109.874C231.903 109.397 232.832 108.967 234.706 108.77H239.47C241.343 108.967 242.27 109.397 242.27 109.886C242.27 110.374 241.343 110.795 239.47 111.004H234.706C232.832 110.795 231.903 110.374 231.903 109.874ZM211.17 109.874C211.17 109.397 212.097 108.967 213.973 108.77H218.735C220.61 108.967 221.536 109.397 221.536 109.886C221.536 110.374 220.61 110.795 218.737 111.004H213.973C212.097 110.795 211.17 110.374 211.17 109.874ZM190.437 109.874C190.437 109.397 191.364 108.967 193.238 108.77H198.004C199.876 108.967 200.803 109.397 200.803 109.886C200.803 110.374 199.876 110.795 198.004 111.004H193.238C191.364 110.795 190.437 110.374 190.437 109.874ZM169.704 109.874C169.704 109.397 170.631 108.967 172.505 108.77H177.269C179.143 108.967 180.069 109.397 180.069 109.886C180.069 110.374 179.143 110.795 177.269 111.004H172.507C170.629 110.795 169.704 110.374 169.704 109.874ZM148.969 109.874C148.969 109.397 149.898 108.967 151.772 108.77H156.536C158.409 108.967 159.336 109.397 159.336 109.886C159.336 110.374 158.409 110.795 156.536 111.004H151.772C149.898 110.795 148.969 110.374 148.969 109.874ZM128.236 109.874C128.236 109.397 129.163 108.967 131.039 108.77H135.801C137.676 108.967 138.602 109.397 138.602 109.886C138.602 110.374 137.676 110.795 135.803 111.004H131.039C129.163 110.795 128.236 110.374 128.236 109.874ZM112.736 114.871C112.247 114.871 111.804 113.979 111.6 112.177V108.77H115.102C116.953 108.967 117.869 109.397 117.869 109.886C117.869 110.374 116.953 110.795 115.104 111.004H113.897V112.177C113.68 113.979 113.25 114.869 112.736 114.869V114.871ZM112.736 139.414C112.247 139.414 111.804 138.316 111.6 136.096V130.457C111.804 128.239 112.247 127.141 112.748 127.141C113.25 127.141 113.68 128.239 113.897 130.457V136.096C113.68 138.316 113.25 139.414 112.736 139.414ZM112.736 156.667C112.247 156.667 111.804 156.222 111.6 155.321V153.029C111.804 152.129 112.247 151.683 112.748 151.683C113.25 151.683 113.68 152.129 113.897 153.029V155.321C113.68 156.222 113.25 156.667 112.736 156.667Z" fill="#D1DCF8"/>
<path d="M321.787 103.316H369.202V324.77H321.787V103.316ZM392.347 324.77H439.762V448.498H392.347V324.77Z" fill="#BBCAEA"/>
<path d="M406.559 324.768V448.494H161.121V103.312H335.997V324.768H406.559Z" fill="#E4ECF9"/>
<path d="M189.387 353.828H279.026V448.493H189.387V353.828Z" fill="#D1DCF8"/>
<path d="M286.075 343.454V352.247C286.075 353.124 285.336 353.842 284.435 353.842H183.979C183.544 353.84 183.128 353.672 182.821 353.373C182.514 353.074 182.341 352.669 182.34 352.247V343.454C182.34 342.575 183.077 341.859 183.979 341.859H284.435C285.336 341.859 286.074 342.575 286.074 343.454H286.075Z" fill="#4A5258"/>
<path d="M204.76 84.5859H294.622V103.311H204.76V84.5859Z" fill="#64D3FF"/>
<path d="M314.15 103.312H294.617V84.5874H314.15V103.312Z" fill="#13B1E2"/>
<path d="M246.404 56.0625H252.981V84.5887H246.404V56.0625Z" fill="#4A5258"/>
<path d="M249.691 69.589C255.287 69.589 259.824 65.1741 259.824 59.7281C259.824 54.2821 255.287 49.8672 249.691 49.8672C244.095 49.8672 239.559 54.2821 239.559 59.7281C239.559 65.1741 244.095 69.589 249.691 69.589Z" fill="#FE7B73"/>
<path d="M349.491 350.568V365.264C349.491 365.53 349.384 365.786 349.193 365.976C349.001 366.166 348.741 366.276 348.467 366.281H333.347C333.211 366.28 333.076 366.253 332.951 366.201C332.826 366.149 332.713 366.074 332.618 365.979C332.523 365.885 332.448 365.773 332.397 365.65C332.346 365.528 332.321 365.396 332.323 365.264V350.568C332.323 350.009 332.773 349.571 333.347 349.571H348.467C349.02 349.571 349.491 350.009 349.491 350.568ZM323.101 350.568V365.264C323.103 365.396 323.078 365.528 323.027 365.65C322.976 365.773 322.901 365.885 322.806 365.979C322.711 366.074 322.598 366.149 322.473 366.201C322.347 366.253 322.213 366.28 322.077 366.281H306.977C306.84 366.282 306.703 366.256 306.576 366.206C306.449 366.155 306.333 366.08 306.236 365.986C306.139 365.891 306.062 365.778 306.01 365.655C305.958 365.531 305.931 365.398 305.933 365.264V350.568C305.933 350.009 306.383 349.571 306.977 349.571H322.077C322.651 349.571 323.101 350.009 323.101 350.568ZM375.861 350.568V365.264C375.863 365.396 375.837 365.528 375.787 365.65C375.736 365.773 375.661 365.885 375.566 365.979C375.471 366.074 375.357 366.149 375.232 366.201C375.107 366.253 374.973 366.28 374.837 366.281H359.737C359.599 366.282 359.463 366.256 359.336 366.206C359.208 366.155 359.093 366.08 358.996 365.986C358.898 365.891 358.821 365.778 358.769 365.655C358.717 365.531 358.691 365.398 358.692 365.264V350.568C358.692 350.009 359.143 349.571 359.737 349.571H374.837C375.41 349.571 375.861 350.009 375.861 350.568ZM349.491 374.298V388.993C349.491 389.259 349.384 389.515 349.193 389.705C349.001 389.895 348.741 390.004 348.467 390.009H333.347C333.211 390.008 333.076 389.981 332.951 389.93C332.826 389.878 332.713 389.803 332.618 389.708C332.523 389.614 332.448 389.502 332.397 389.379C332.346 389.256 332.321 389.125 332.323 388.993V374.298C332.323 373.74 332.773 373.301 333.347 373.301H348.467C349.02 373.301 349.491 373.74 349.491 374.298ZM323.101 374.298V388.993C323.103 389.125 323.078 389.256 323.027 389.379C322.976 389.502 322.901 389.614 322.806 389.708C322.711 389.803 322.598 389.878 322.473 389.93C322.347 389.981 322.213 390.008 322.077 390.009H306.977C306.84 390.011 306.703 389.985 306.576 389.934C306.449 389.884 306.333 389.809 306.236 389.714C306.139 389.62 306.062 389.507 306.01 389.383C305.958 389.259 305.931 389.127 305.933 388.993V374.298C305.933 373.74 306.383 373.301 306.977 373.301H322.077C322.651 373.301 323.101 373.74 323.101 374.298ZM375.861 374.298V388.993C375.863 389.125 375.837 389.256 375.787 389.379C375.736 389.502 375.661 389.614 375.566 389.708C375.471 389.803 375.357 389.878 375.232 389.93C375.107 389.981 374.973 390.008 374.837 390.009H359.737C359.599 390.011 359.463 389.985 359.336 389.934C359.208 389.884 359.093 389.809 358.996 389.714C358.898 389.62 358.821 389.507 358.769 389.383C358.717 389.259 358.691 389.127 358.692 388.993V374.298C358.692 373.74 359.143 373.301 359.737 373.301H374.837C375.41 373.301 375.861 373.74 375.861 374.298ZM349.491 398.026V412.723C349.491 412.989 349.384 413.245 349.193 413.435C349.001 413.625 348.741 413.735 348.467 413.74H333.347C333.211 413.739 333.076 413.712 332.951 413.66C332.826 413.608 332.713 413.533 332.618 413.438C332.523 413.344 332.448 413.232 332.397 413.109C332.346 412.987 332.321 412.855 332.323 412.723V398.026C332.323 397.468 332.773 397.03 333.347 397.03H348.467C349.02 397.03 349.491 397.468 349.491 398.026ZM323.101 398.026V412.723C323.103 412.855 323.078 412.987 323.027 413.109C322.976 413.232 322.901 413.344 322.806 413.438C322.711 413.533 322.598 413.608 322.473 413.66C322.347 413.712 322.213 413.739 322.077 413.74H306.977C306.84 413.741 306.703 413.715 306.576 413.665C306.449 413.614 306.333 413.539 306.236 413.444C306.139 413.35 306.062 413.237 306.01 413.113C305.958 412.99 305.931 412.857 305.933 412.723V398.026C305.933 397.468 306.383 397.03 306.977 397.03H322.077C322.651 397.03 323.101 397.468 323.101 398.026ZM375.861 398.026V412.723C375.863 412.855 375.837 412.987 375.787 413.109C375.736 413.232 375.661 413.344 375.566 413.438C375.471 413.533 375.357 413.608 375.232 413.66C375.107 413.712 374.973 413.739 374.837 413.74H359.737C359.599 413.741 359.463 413.715 359.336 413.665C359.208 413.614 359.093 413.539 358.996 413.444C358.898 413.35 358.821 413.237 358.769 413.113C358.717 412.99 358.691 412.857 358.692 412.723V398.026C358.692 397.468 359.143 397.03 359.737 397.03H374.837C375.41 397.03 375.861 397.468 375.861 398.026ZM187.311 157.698V172.937C187.311 173.073 187.285 173.207 187.232 173.333C187.179 173.459 187.101 173.574 187.003 173.67C186.905 173.767 186.788 173.844 186.659 173.896C186.53 173.949 186.392 173.976 186.252 173.977H170.604C170.463 173.978 170.323 173.953 170.192 173.901C170.061 173.85 169.941 173.773 169.841 173.677C169.741 173.58 169.661 173.464 169.607 173.337C169.553 173.21 169.525 173.074 169.525 172.937V157.697C169.525 157.129 169.998 156.667 170.604 156.667H186.25C186.389 156.667 186.527 156.693 186.655 156.745C186.784 156.797 186.901 156.873 186.999 156.968C187.097 157.064 187.175 157.178 187.228 157.303C187.281 157.428 187.309 157.562 187.309 157.697L187.311 157.698ZM215.023 157.698V172.937C215.024 173.073 214.998 173.207 214.945 173.333C214.892 173.459 214.814 173.574 214.716 173.67C214.618 173.767 214.501 173.844 214.372 173.896C214.243 173.949 214.105 173.976 213.965 173.977H198.317C198.176 173.978 198.036 173.953 197.905 173.901C197.774 173.85 197.654 173.773 197.554 173.677C197.454 173.58 197.374 173.464 197.32 173.337C197.266 173.21 197.238 173.074 197.238 172.937V157.697C197.238 157.129 197.713 156.667 198.317 156.667H213.965C214.246 156.667 214.515 156.775 214.713 156.968C214.912 157.162 215.023 157.424 215.023 157.697V157.698ZM242.736 157.698V172.937C242.737 173.073 242.711 173.207 242.658 173.333C242.605 173.459 242.527 173.574 242.429 173.67C242.331 173.767 242.214 173.844 242.085 173.896C241.956 173.949 241.818 173.976 241.678 173.977H226.032C225.89 173.979 225.75 173.953 225.619 173.902C225.487 173.85 225.368 173.774 225.267 173.677C225.167 173.58 225.087 173.465 225.033 173.338C224.979 173.211 224.951 173.074 224.951 172.937V157.697C224.951 157.129 225.426 156.667 226.032 156.667H241.678C241.959 156.667 242.228 156.775 242.426 156.968C242.625 157.162 242.736 157.424 242.736 157.697V157.698ZM270.451 157.698V172.937C270.452 173.073 270.425 173.207 270.373 173.333C270.32 173.459 270.242 173.574 270.144 173.67C270.045 173.767 269.928 173.844 269.8 173.896C269.671 173.949 269.532 173.976 269.393 173.977H253.745C253.603 173.979 253.463 173.953 253.332 173.902C253.2 173.85 253.081 173.774 252.98 173.677C252.88 173.58 252.8 173.465 252.746 173.338C252.691 173.211 252.664 173.074 252.664 172.937V157.697C252.664 157.129 253.139 156.667 253.745 156.667H269.391C269.672 156.667 269.941 156.775 270.139 156.968C270.338 157.162 270.449 157.424 270.449 157.697L270.451 157.698ZM298.164 157.698V172.937C298.165 173.073 298.138 173.207 298.085 173.333C298.033 173.459 297.955 173.574 297.857 173.67C297.758 173.767 297.641 173.844 297.513 173.896C297.384 173.949 297.245 173.976 297.106 173.977H281.458C281.316 173.978 281.176 173.953 281.045 173.901C280.914 173.85 280.795 173.773 280.694 173.677C280.594 173.58 280.514 173.464 280.46 173.337C280.406 173.21 280.378 173.074 280.379 172.937V157.697C280.379 157.129 280.853 156.667 281.458 156.667H297.104C297.243 156.667 297.381 156.693 297.509 156.745C297.638 156.796 297.755 156.872 297.853 156.968C297.952 157.064 298.03 157.177 298.083 157.302C298.137 157.427 298.164 157.561 298.164 157.697V157.698ZM325.877 157.698V172.937C325.878 173.073 325.851 173.207 325.798 173.333C325.746 173.459 325.668 173.574 325.57 173.67C325.471 173.767 325.354 173.844 325.225 173.896C325.097 173.949 324.958 173.976 324.819 173.977H309.171C309.029 173.978 308.889 173.953 308.758 173.901C308.627 173.85 308.508 173.773 308.407 173.677C308.307 173.58 308.227 173.464 308.173 173.337C308.119 173.21 308.091 173.074 308.092 172.937V157.697C308.092 157.129 308.566 156.667 309.171 156.667H324.819C325.099 156.667 325.369 156.775 325.567 156.968C325.765 157.162 325.877 157.424 325.877 157.697V157.698ZM187.311 131.327V146.563C187.312 146.699 187.285 146.834 187.232 146.961C187.18 147.087 187.102 147.201 187.004 147.298C186.905 147.395 186.788 147.472 186.659 147.525C186.53 147.577 186.392 147.605 186.252 147.605H170.604C170.463 147.607 170.322 147.581 170.191 147.529C170.06 147.478 169.941 147.401 169.84 147.304C169.74 147.207 169.66 147.092 169.606 146.965C169.552 146.837 169.525 146.701 169.525 146.563V131.327C169.525 130.757 169.998 130.297 170.604 130.297H186.25C186.389 130.297 186.527 130.324 186.655 130.375C186.784 130.427 186.901 130.503 186.999 130.599C187.097 130.694 187.175 130.808 187.228 130.933C187.281 131.058 187.309 131.192 187.309 131.327H187.311ZM215.023 131.327V146.563C215.025 146.699 214.998 146.834 214.945 146.961C214.893 147.087 214.815 147.201 214.717 147.298C214.618 147.395 214.501 147.472 214.372 147.525C214.243 147.577 214.105 147.605 213.965 147.605H198.317C198.176 147.607 198.035 147.581 197.904 147.529C197.773 147.478 197.654 147.401 197.553 147.304C197.453 147.207 197.373 147.092 197.319 146.965C197.265 146.837 197.238 146.701 197.238 146.563V131.327C197.238 130.757 197.713 130.297 198.317 130.297H213.965C214.104 130.297 214.242 130.324 214.37 130.375C214.499 130.427 214.615 130.503 214.713 130.599C214.812 130.694 214.89 130.808 214.943 130.933C214.996 131.058 215.023 131.192 215.023 131.327ZM242.736 131.327V146.563C242.738 146.699 242.711 146.834 242.658 146.961C242.606 147.087 242.528 147.201 242.43 147.298C242.331 147.395 242.214 147.472 242.085 147.525C241.956 147.577 241.818 147.605 241.678 147.605H226.032C225.89 147.607 225.75 147.581 225.618 147.53C225.487 147.478 225.367 147.402 225.267 147.305C225.166 147.208 225.087 147.092 225.032 146.965C224.978 146.838 224.951 146.701 224.951 146.563V131.327C224.951 130.757 225.426 130.297 226.032 130.297H241.678C241.817 130.297 241.955 130.324 242.083 130.375C242.211 130.427 242.328 130.503 242.426 130.599C242.525 130.694 242.603 130.808 242.656 130.933C242.709 131.058 242.736 131.192 242.736 131.327ZM270.451 131.327V146.563C270.452 146.699 270.426 146.834 270.373 146.961C270.32 147.087 270.243 147.201 270.144 147.298C270.046 147.395 269.929 147.472 269.8 147.525C269.671 147.577 269.533 147.605 269.393 147.605H253.745C253.603 147.607 253.463 147.581 253.331 147.53C253.2 147.478 253.08 147.402 252.98 147.305C252.879 147.208 252.799 147.092 252.745 146.965C252.691 146.838 252.664 146.701 252.664 146.563V131.327C252.664 130.757 253.139 130.297 253.745 130.297H269.391C269.53 130.297 269.668 130.324 269.796 130.375C269.924 130.427 270.041 130.503 270.139 130.599C270.238 130.694 270.316 130.808 270.369 130.933C270.422 131.058 270.449 131.192 270.449 131.327H270.451ZM298.164 131.327V146.563C298.165 146.699 298.139 146.834 298.086 146.961C298.033 147.087 297.956 147.201 297.857 147.298C297.759 147.395 297.642 147.472 297.513 147.525C297.384 147.577 297.246 147.605 297.106 147.605H281.458C281.316 147.607 281.176 147.581 281.045 147.529C280.914 147.478 280.794 147.401 280.694 147.304C280.593 147.207 280.514 147.092 280.46 146.965C280.406 146.837 280.378 146.701 280.379 146.563V131.327C280.379 130.757 280.853 130.297 281.458 130.297H297.104C297.243 130.297 297.381 130.323 297.509 130.375C297.638 130.426 297.755 130.502 297.853 130.598C297.952 130.694 298.03 130.807 298.083 130.932C298.137 131.057 298.164 131.191 298.164 131.327ZM325.877 131.327V146.563C325.878 146.699 325.852 146.834 325.799 146.961C325.746 147.087 325.669 147.201 325.57 147.298C325.472 147.395 325.355 147.472 325.226 147.525C325.097 147.577 324.958 147.605 324.819 147.605H309.171C309.029 147.607 308.889 147.581 308.758 147.529C308.627 147.478 308.507 147.401 308.407 147.304C308.306 147.207 308.227 147.092 308.173 146.965C308.119 146.837 308.091 146.701 308.092 146.563V131.327C308.092 130.757 308.566 130.297 309.171 130.297H324.819C324.958 130.297 325.095 130.324 325.224 130.375C325.352 130.427 325.469 130.503 325.567 130.599C325.665 130.694 325.743 130.808 325.796 130.933C325.85 131.058 325.877 131.192 325.877 131.327ZM187.311 186.613V201.852C187.311 201.988 187.285 202.122 187.232 202.248C187.179 202.374 187.101 202.489 187.003 202.585C186.905 202.682 186.788 202.759 186.659 202.811C186.53 202.864 186.392 202.891 186.252 202.891H170.604C170.463 202.893 170.323 202.868 170.192 202.816C170.061 202.765 169.941 202.688 169.841 202.591C169.741 202.495 169.661 202.379 169.607 202.252C169.553 202.125 169.525 201.989 169.525 201.852V186.613C169.525 186.045 169.998 185.583 170.604 185.583H186.25C186.389 185.583 186.527 185.61 186.655 185.662C186.784 185.714 186.901 185.789 186.999 185.885C187.097 185.981 187.175 186.094 187.228 186.219C187.281 186.344 187.309 186.478 187.309 186.613H187.311ZM215.023 186.613V201.852C215.024 201.988 214.998 202.122 214.945 202.248C214.892 202.374 214.814 202.489 214.716 202.585C214.618 202.682 214.501 202.759 214.372 202.811C214.243 202.864 214.105 202.891 213.965 202.891H198.317C198.176 202.893 198.036 202.868 197.905 202.816C197.774 202.765 197.654 202.688 197.554 202.591C197.454 202.495 197.374 202.379 197.32 202.252C197.266 202.125 197.238 201.989 197.238 201.852V186.613C197.238 186.045 197.713 185.583 198.317 185.583H213.965C214.104 185.583 214.242 185.61 214.37 185.662C214.499 185.714 214.615 185.789 214.713 185.885C214.812 185.981 214.89 186.094 214.943 186.219C214.996 186.344 215.023 186.478 215.023 186.613ZM242.736 186.613V201.852C242.737 201.988 242.711 202.122 242.658 202.248C242.605 202.374 242.527 202.489 242.429 202.585C242.331 202.682 242.214 202.759 242.085 202.811C241.956 202.864 241.818 202.891 241.678 202.891H226.032C225.89 202.893 225.75 202.868 225.619 202.817C225.487 202.765 225.368 202.689 225.267 202.592C225.167 202.495 225.087 202.38 225.033 202.253C224.979 202.126 224.951 201.989 224.951 201.852V186.613C224.951 186.045 225.426 185.583 226.032 185.583H241.678C241.817 185.583 241.955 185.61 242.083 185.662C242.211 185.714 242.328 185.789 242.426 185.885C242.525 185.981 242.603 186.094 242.656 186.219C242.709 186.344 242.736 186.478 242.736 186.613ZM270.451 186.613V201.852C270.452 201.988 270.425 202.122 270.373 202.248C270.32 202.374 270.242 202.489 270.144 202.585C270.045 202.682 269.928 202.759 269.8 202.811C269.671 202.864 269.532 202.891 269.393 202.891H253.745C253.603 202.893 253.463 202.868 253.332 202.817C253.2 202.765 253.081 202.689 252.98 202.592C252.88 202.495 252.8 202.38 252.746 202.253C252.691 202.126 252.664 201.989 252.664 201.852V186.613C252.664 186.045 253.139 185.583 253.745 185.583H269.391C269.53 185.583 269.668 185.61 269.796 185.662C269.924 185.714 270.041 185.789 270.139 185.885C270.238 185.981 270.316 186.094 270.369 186.219C270.422 186.344 270.449 186.478 270.449 186.613H270.451ZM298.164 186.613V201.852C298.165 201.988 298.138 202.122 298.085 202.248C298.033 202.374 297.955 202.489 297.857 202.585C297.758 202.682 297.641 202.759 297.513 202.811C297.384 202.864 297.245 202.891 297.106 202.891H281.458C281.316 202.893 281.176 202.868 281.045 202.816C280.914 202.765 280.795 202.688 280.694 202.591C280.594 202.495 280.514 202.379 280.46 202.252C280.406 202.125 280.378 201.989 280.379 201.852V186.613C280.379 186.045 280.853 185.583 281.458 185.583H297.104C297.243 185.583 297.381 185.61 297.509 185.661C297.638 185.713 297.755 185.789 297.853 185.884C297.952 185.98 298.03 186.094 298.083 186.219C298.137 186.344 298.164 186.478 298.164 186.613ZM325.877 186.613V201.852C325.878 201.988 325.851 202.122 325.798 202.248C325.746 202.374 325.668 202.489 325.57 202.585C325.471 202.682 325.354 202.759 325.225 202.811C325.097 202.864 324.958 202.891 324.819 202.891H309.171C309.029 202.893 308.889 202.868 308.758 202.816C308.627 202.765 308.508 202.688 308.407 202.591C308.307 202.495 308.227 202.379 308.173 202.252C308.119 202.125 308.091 201.989 308.092 201.852V186.613C308.092 186.045 308.566 185.583 309.171 185.583H324.819C324.958 185.583 325.095 185.61 325.224 185.662C325.352 185.714 325.469 185.789 325.567 185.885C325.665 185.981 325.743 186.094 325.796 186.219C325.85 186.344 325.877 186.478 325.877 186.613ZM187.311 215.528V230.766C187.311 230.902 187.285 231.037 187.232 231.163C187.179 231.289 187.101 231.404 187.003 231.5C186.905 231.597 186.788 231.674 186.659 231.726C186.53 231.779 186.392 231.806 186.252 231.806H170.604C170.463 231.808 170.323 231.783 170.192 231.731C170.061 231.68 169.941 231.603 169.841 231.506C169.741 231.41 169.661 231.294 169.607 231.167C169.553 231.04 169.525 230.904 169.525 230.766V215.528C169.525 214.96 169.998 214.498 170.604 214.498H186.25C186.389 214.498 186.527 214.525 186.655 214.577C186.784 214.628 186.901 214.704 186.999 214.8C187.097 214.896 187.175 215.009 187.228 215.134C187.281 215.259 187.309 215.393 187.309 215.528H187.311ZM215.023 215.528V230.766C215.024 230.902 214.998 231.037 214.945 231.163C214.892 231.289 214.814 231.404 214.716 231.5C214.618 231.597 214.501 231.674 214.372 231.726C214.243 231.779 214.105 231.806 213.965 231.806H198.317C198.176 231.808 198.036 231.783 197.905 231.731C197.774 231.68 197.654 231.603 197.554 231.506C197.454 231.41 197.374 231.294 197.32 231.167C197.266 231.04 197.238 230.904 197.238 230.766V215.528C197.238 214.96 197.713 214.498 198.317 214.498H213.965C214.104 214.498 214.242 214.525 214.37 214.577C214.499 214.628 214.615 214.704 214.713 214.8C214.812 214.896 214.89 215.009 214.943 215.134C214.996 215.259 215.023 215.393 215.023 215.528ZM242.736 215.528V230.766C242.737 230.902 242.711 231.037 242.658 231.163C242.605 231.289 242.527 231.404 242.429 231.5C242.331 231.597 242.214 231.674 242.085 231.726C241.956 231.779 241.818 231.806 241.678 231.806H226.032C225.89 231.808 225.75 231.783 225.619 231.732C225.487 231.68 225.368 231.604 225.267 231.507C225.167 231.41 225.087 231.295 225.033 231.168C224.979 231.041 224.951 230.904 224.951 230.766V215.528C224.951 214.96 225.426 214.498 226.032 214.498H241.678C241.817 214.498 241.955 214.525 242.083 214.577C242.211 214.628 242.328 214.704 242.426 214.8C242.525 214.896 242.603 215.009 242.656 215.134C242.709 215.259 242.736 215.393 242.736 215.528ZM270.451 215.528V230.766C270.452 230.902 270.425 231.037 270.373 231.163C270.32 231.289 270.242 231.404 270.144 231.5C270.045 231.597 269.928 231.674 269.8 231.726C269.671 231.779 269.532 231.806 269.393 231.806H253.745C253.603 231.808 253.463 231.783 253.332 231.732C253.2 231.68 253.081 231.604 252.98 231.507C252.88 231.41 252.8 231.295 252.746 231.168C252.691 231.041 252.664 230.904 252.664 230.766V215.528C252.664 214.96 253.139 214.498 253.745 214.498H269.391C269.53 214.498 269.668 214.525 269.796 214.577C269.924 214.628 270.041 214.704 270.139 214.8C270.238 214.896 270.316 215.009 270.369 215.134C270.422 215.259 270.449 215.393 270.449 215.528H270.451ZM298.164 215.528V230.766C298.165 230.902 298.138 231.037 298.085 231.163C298.033 231.289 297.955 231.404 297.857 231.5C297.758 231.597 297.641 231.674 297.513 231.726C297.384 231.779 297.245 231.806 297.106 231.806H281.458C281.316 231.808 281.176 231.783 281.045 231.731C280.914 231.68 280.795 231.603 280.694 231.506C280.594 231.41 280.514 231.294 280.46 231.167C280.406 231.04 280.378 230.904 280.379 230.766V215.528C280.379 214.96 280.853 214.498 281.458 214.498H297.104C297.243 214.498 297.381 214.525 297.509 214.576C297.638 214.628 297.755 214.704 297.853 214.799C297.952 214.895 298.03 215.009 298.083 215.134C298.137 215.259 298.164 215.393 298.164 215.528ZM325.877 215.528V230.766C325.878 230.902 325.851 231.037 325.798 231.163C325.746 231.289 325.668 231.404 325.57 231.5C325.471 231.597 325.354 231.674 325.225 231.726C325.097 231.779 324.958 231.806 324.819 231.806H309.171C309.029 231.808 308.889 231.783 308.758 231.731C308.627 231.68 308.508 231.603 308.407 231.506C308.307 231.41 308.227 231.294 308.173 231.167C308.119 231.04 308.091 230.904 308.092 230.766V215.528C308.092 214.96 308.566 214.498 309.171 214.498H324.819C324.958 214.498 325.095 214.525 325.224 214.577C325.352 214.628 325.469 214.704 325.567 214.8C325.665 214.896 325.743 215.009 325.796 215.134C325.85 215.259 325.877 215.393 325.877 215.528ZM187.311 244.445V259.681C187.311 259.817 187.285 259.952 187.232 260.078C187.179 260.204 187.101 260.319 187.003 260.415C186.905 260.512 186.788 260.589 186.659 260.641C186.53 260.694 186.392 260.721 186.252 260.721H170.604C170.463 260.723 170.323 260.697 170.192 260.646C170.061 260.594 169.941 260.518 169.841 260.421C169.741 260.324 169.661 260.209 169.607 260.082C169.553 259.955 169.525 259.819 169.525 259.681V244.443C169.525 243.875 169.998 243.413 170.604 243.413H186.25C186.389 243.413 186.527 243.44 186.655 243.492C186.784 243.543 186.901 243.619 186.999 243.715C187.097 243.811 187.175 243.924 187.228 244.049C187.281 244.174 187.309 244.308 187.309 244.443L187.311 244.445ZM215.023 244.445V259.681C215.024 259.817 214.998 259.952 214.945 260.078C214.892 260.204 214.814 260.319 214.716 260.415C214.618 260.512 214.501 260.589 214.372 260.641C214.243 260.694 214.105 260.721 213.965 260.721H198.317C198.176 260.723 198.036 260.697 197.905 260.646C197.774 260.594 197.654 260.518 197.554 260.421C197.454 260.324 197.374 260.209 197.32 260.082C197.266 259.955 197.238 259.819 197.238 259.681V244.443C197.238 243.875 197.713 243.413 198.317 243.413H213.965C214.246 243.413 214.515 243.522 214.713 243.715C214.912 243.908 215.023 244.17 215.023 244.443V244.445ZM242.736 244.445V259.681C242.737 259.817 242.711 259.952 242.658 260.078C242.605 260.204 242.527 260.319 242.429 260.415C242.331 260.512 242.214 260.589 242.085 260.641C241.956 260.694 241.818 260.721 241.678 260.721H226.032C225.89 260.723 225.75 260.698 225.619 260.646C225.487 260.595 225.368 260.519 225.267 260.422C225.167 260.325 225.087 260.21 225.033 260.083C224.979 259.955 224.951 259.819 224.951 259.681V244.443C224.951 243.875 225.426 243.413 226.032 243.413H241.678C241.959 243.413 242.228 243.522 242.426 243.715C242.625 243.908 242.736 244.17 242.736 244.443V244.445ZM270.451 244.445V259.681C270.452 259.817 270.425 259.952 270.373 260.078C270.32 260.204 270.242 260.319 270.144 260.415C270.045 260.512 269.928 260.589 269.8 260.641C269.671 260.694 269.532 260.721 269.393 260.721H253.745C253.603 260.723 253.463 260.698 253.332 260.646C253.2 260.595 253.081 260.519 252.98 260.422C252.88 260.325 252.8 260.21 252.746 260.083C252.691 259.955 252.664 259.819 252.664 259.681V244.443C252.664 243.875 253.139 243.413 253.745 243.413H269.391C269.672 243.413 269.941 243.522 270.139 243.715C270.338 243.908 270.449 244.17 270.449 244.443L270.451 244.445ZM298.164 244.445V259.681C298.165 259.817 298.138 259.952 298.085 260.078C298.033 260.204 297.955 260.319 297.857 260.415C297.758 260.512 297.641 260.589 297.513 260.641C297.384 260.694 297.245 260.721 297.106 260.721H281.458C281.316 260.723 281.176 260.697 281.045 260.646C280.914 260.594 280.795 260.518 280.694 260.421C280.594 260.324 280.514 260.209 280.46 260.082C280.406 259.955 280.378 259.819 280.379 259.681V244.443C280.379 243.875 280.853 243.413 281.458 243.413H297.104C297.243 243.413 297.381 243.439 297.509 243.491C297.638 243.543 297.755 243.619 297.853 243.714C297.952 243.81 298.03 243.924 298.083 244.049C298.137 244.174 298.164 244.308 298.164 244.443V244.445ZM325.877 244.445V259.681C325.878 259.817 325.851 259.952 325.798 260.078C325.746 260.204 325.668 260.319 325.57 260.415C325.471 260.512 325.354 260.589 325.225 260.641C325.097 260.694 324.958 260.721 324.819 260.721H309.171C309.029 260.723 308.889 260.697 308.758 260.646C308.627 260.594 308.508 260.518 308.407 260.421C308.307 260.324 308.227 260.209 308.173 260.082C308.119 259.955 308.091 259.819 308.092 259.681V244.443C308.092 243.875 308.566 243.413 309.171 243.413H324.819C325.099 243.413 325.369 243.522 325.567 243.715C325.765 243.908 325.877 244.17 325.877 244.443V244.445ZM187.311 273.36V288.596C187.311 288.732 187.285 288.867 187.232 288.993C187.179 289.119 187.101 289.233 187.003 289.33C186.905 289.427 186.788 289.503 186.659 289.556C186.53 289.609 186.392 289.636 186.252 289.636H170.604C170.463 289.638 170.323 289.612 170.192 289.561C170.061 289.509 169.941 289.433 169.841 289.336C169.741 289.239 169.661 289.124 169.607 288.997C169.553 288.87 169.525 288.734 169.525 288.596V273.36C169.525 272.79 169.998 272.328 170.604 272.328H186.25C186.389 272.328 186.527 272.355 186.655 272.407C186.784 272.458 186.901 272.534 186.999 272.63C187.097 272.725 187.175 272.839 187.228 272.964C187.281 273.089 187.309 273.223 187.309 273.358L187.311 273.36ZM215.023 273.36V288.596C215.024 288.732 214.998 288.867 214.945 288.993C214.892 289.119 214.814 289.233 214.716 289.33C214.618 289.427 214.501 289.503 214.372 289.556C214.243 289.609 214.105 289.636 213.965 289.636H198.317C198.176 289.638 198.036 289.612 197.905 289.561C197.774 289.509 197.654 289.433 197.554 289.336C197.454 289.239 197.374 289.124 197.32 288.997C197.266 288.87 197.238 288.734 197.238 288.596V273.36C197.238 272.79 197.713 272.328 198.317 272.328H213.965C214.246 272.328 214.515 272.437 214.713 272.63C214.912 272.823 215.023 273.085 215.023 273.358V273.36ZM242.736 273.36V288.596C242.737 288.732 242.711 288.867 242.658 288.993C242.605 289.119 242.527 289.233 242.429 289.33C242.331 289.427 242.214 289.503 242.085 289.556C241.956 289.609 241.818 289.636 241.678 289.636H226.032C225.89 289.638 225.75 289.613 225.619 289.561C225.487 289.51 225.368 289.434 225.267 289.337C225.167 289.24 225.087 289.125 225.033 288.998C224.979 288.87 224.951 288.734 224.951 288.596V273.36C224.951 272.79 225.426 272.328 226.032 272.328H241.678C241.959 272.328 242.228 272.437 242.426 272.63C242.625 272.823 242.736 273.085 242.736 273.358V273.36ZM270.451 273.36V288.596C270.452 288.732 270.425 288.867 270.373 288.993C270.32 289.119 270.242 289.233 270.144 289.33C270.045 289.427 269.928 289.503 269.8 289.556C269.671 289.609 269.532 289.636 269.393 289.636H253.745C253.603 289.638 253.463 289.613 253.332 289.561C253.2 289.51 253.081 289.434 252.98 289.337C252.88 289.24 252.8 289.125 252.746 288.998C252.691 288.87 252.664 288.734 252.664 288.596V273.36C252.664 272.79 253.139 272.328 253.745 272.328H269.391C269.672 272.328 269.941 272.437 270.139 272.63C270.338 272.823 270.449 273.085 270.449 273.358L270.451 273.36ZM298.164 273.36V288.596C298.165 288.732 298.138 288.867 298.085 288.993C298.033 289.119 297.955 289.233 297.857 289.33C297.758 289.427 297.641 289.503 297.513 289.556C297.384 289.609 297.245 289.636 297.106 289.636H281.458C281.316 289.638 281.176 289.612 281.045 289.561C280.914 289.509 280.795 289.433 280.694 289.336C280.594 289.239 280.514 289.124 280.46 288.997C280.406 288.87 280.378 288.734 280.379 288.596V273.36C280.379 272.79 280.853 272.328 281.458 272.328H297.104C297.243 272.328 297.381 272.354 297.509 272.406C297.638 272.458 297.755 272.534 297.853 272.629C297.952 272.725 298.03 272.838 298.083 272.964C298.137 273.089 298.164 273.223 298.164 273.358V273.36ZM325.877 273.36V288.596C325.878 288.732 325.851 288.867 325.798 288.993C325.746 289.119 325.668 289.233 325.57 289.33C325.471 289.427 325.354 289.503 325.225 289.556C325.097 289.609 324.958 289.636 324.819 289.636H309.171C309.029 289.638 308.889 289.612 308.758 289.561C308.627 289.509 308.508 289.433 308.407 289.336C308.307 289.239 308.227 289.124 308.173 288.997C308.119 288.87 308.091 288.734 308.092 288.596V273.36C308.092 272.79 308.566 272.328 309.171 272.328H324.819C325.099 272.328 325.369 272.437 325.567 272.63C325.765 272.823 325.877 273.085 325.877 273.358V273.36ZM187.311 302.275V317.511C187.311 317.647 187.285 317.782 187.232 317.908C187.179 318.034 187.101 318.148 187.003 318.245C186.905 318.342 186.788 318.418 186.659 318.471C186.53 318.523 186.392 318.551 186.252 318.551H170.604C170.463 318.553 170.323 318.527 170.192 318.476C170.061 318.424 169.941 318.348 169.841 318.251C169.741 318.154 169.661 318.039 169.607 317.912C169.553 317.785 169.525 317.649 169.525 317.511V302.275C169.525 301.705 169.998 301.245 170.604 301.245H186.25C186.389 301.245 186.527 301.271 186.655 301.323C186.784 301.375 186.901 301.451 186.999 301.546C187.097 301.642 187.175 301.756 187.228 301.881C187.281 302.005 187.309 302.139 187.309 302.275H187.311ZM215.023 302.275V317.511C215.024 317.647 214.998 317.782 214.945 317.908C214.892 318.034 214.814 318.148 214.716 318.245C214.618 318.342 214.501 318.418 214.372 318.471C214.243 318.523 214.105 318.551 213.965 318.551H198.317C198.176 318.553 198.036 318.527 197.905 318.476C197.774 318.424 197.654 318.348 197.554 318.251C197.454 318.154 197.374 318.039 197.32 317.912C197.266 317.785 197.238 317.649 197.238 317.511V302.275C197.238 301.705 197.713 301.245 198.317 301.245H213.965C214.246 301.245 214.515 301.353 214.713 301.546C214.912 301.74 215.023 302.002 215.023 302.275ZM242.736 302.275V317.511C242.737 317.647 242.711 317.782 242.658 317.908C242.605 318.034 242.527 318.148 242.429 318.245C242.331 318.342 242.214 318.418 242.085 318.471C241.956 318.523 241.818 318.551 241.678 318.551H226.032C225.89 318.553 225.75 318.528 225.619 318.476C225.487 318.425 225.368 318.348 225.267 318.252C225.167 318.155 225.087 318.04 225.033 317.912C224.979 317.785 224.951 317.649 224.951 317.511V302.275C224.951 301.705 225.426 301.245 226.032 301.245H241.678C241.959 301.245 242.228 301.353 242.426 301.546C242.625 301.74 242.736 302.002 242.736 302.275ZM270.451 302.275V317.511C270.452 317.647 270.425 317.782 270.373 317.908C270.32 318.034 270.242 318.148 270.144 318.245C270.045 318.342 269.928 318.418 269.8 318.471C269.671 318.523 269.532 318.551 269.393 318.551H253.745C253.603 318.553 253.463 318.528 253.332 318.476C253.2 318.425 253.081 318.348 252.98 318.252C252.88 318.155 252.8 318.04 252.746 317.912C252.691 317.785 252.664 317.649 252.664 317.511V302.275C252.664 301.705 253.139 301.245 253.745 301.245H269.391C269.672 301.245 269.941 301.353 270.139 301.546C270.338 301.74 270.449 302.002 270.449 302.275H270.451ZM298.164 302.275V317.511C298.165 317.647 298.138 317.782 298.085 317.908C298.033 318.034 297.955 318.148 297.857 318.245C297.758 318.342 297.641 318.418 297.513 318.471C297.384 318.523 297.245 318.551 297.106 318.551H281.458C281.316 318.553 281.176 318.527 281.045 318.476C280.914 318.424 280.795 318.348 280.694 318.251C280.594 318.154 280.514 318.039 280.46 317.912C280.406 317.785 280.378 317.649 280.379 317.511V302.275C280.379 301.705 280.853 301.245 281.458 301.245H297.104C297.243 301.244 297.381 301.271 297.509 301.323C297.638 301.374 297.755 301.45 297.853 301.546C297.952 301.641 298.03 301.755 298.083 301.88C298.137 302.005 298.164 302.139 298.164 302.275ZM325.877 302.275V317.511C325.878 317.647 325.851 317.782 325.798 317.908C325.746 318.034 325.668 318.148 325.57 318.245C325.471 318.342 325.354 318.418 325.225 318.471C325.097 318.523 324.958 318.551 324.819 318.551H309.171C309.029 318.553 308.889 318.527 308.758 318.476C308.627 318.424 308.508 318.348 308.407 318.251C308.307 318.154 308.227 318.039 308.173 317.912C308.119 317.785 308.091 317.649 308.092 317.511V302.275C308.092 301.705 308.566 301.245 309.171 301.245H324.819C325.099 301.245 325.369 301.353 325.567 301.546C325.765 301.74 325.877 302.002 325.877 302.275Z" fill="white"/>
<path d="M62.0542 437.003L70.4526 442.611L75.3363 440.518C75.3363 440.518 75.4592 436.598 75.5565 430.779C75.6043 426.383 75.6777 422.463 75.6777 422.223C75.6777 421.63 63.1296 422.343 62.5424 422.534C62.2983 422.605 62.1771 425.29 62.1276 428.521C62.0064 433.322 62.0542 436.576 62.0542 437.003Z" fill="#FEC9AC"/>
<path opacity="0.5" d="M62.1289 428.521C65.8973 430.262 70.0469 431.078 74.2144 430.897C74.6548 430.873 75.1191 430.85 75.5578 430.779C75.6056 426.383 75.679 422.463 75.679 422.223C75.679 421.63 63.1309 422.343 62.5437 422.534C62.2996 422.605 62.1784 425.29 62.1289 428.521Z" fill="#FFAB90"/>
<path d="M57.8567 446.116C57.9693 446.853 58.6316 447.372 59.4066 447.372H97.2283C97.5495 447.372 97.8632 447.278 98.1283 447.102C98.3933 446.925 98.5973 446.675 98.7134 446.383C99.2767 444.892 100.036 442.127 98.2764 440.95C95.8235 439.317 90.6291 440.823 87.0462 438.358C83.4803 435.909 79.2043 427.57 74.0731 433.24C74.0731 433.24 69.9422 439.395 67.1359 438.091C64.3279 436.788 62.23 430.05 58.857 432.627C57.1636 433.931 57.3087 442.943 57.8567 446.116Z" fill="#3A4146"/>
<path d="M95.3784 437.003L103.777 442.611L108.661 440.518C108.661 440.518 108.783 436.598 108.882 430.779C108.93 426.383 109.002 422.463 109.002 422.223C109.002 421.63 96.4538 422.343 95.8683 422.534C95.6242 422.605 95.5013 425.29 95.4518 428.521C95.3306 433.322 95.3784 436.576 95.3784 437.003Z" fill="#FEC9AC"/>
<path opacity="0.5" d="M95.4548 428.523C99.2233 430.264 103.373 431.08 107.54 430.898C107.979 430.875 108.443 430.852 108.882 430.781C108.932 426.385 109.005 422.465 109.005 422.225C109.005 421.632 96.4551 422.345 95.8696 422.536C95.6255 422.607 95.5026 425.292 95.4531 428.523H95.4548Z" fill="#FFAB90"/>
<path d="M91.1822 446.116C91.2949 446.853 91.9555 447.372 92.7305 447.372H130.552C130.873 447.372 131.187 447.278 131.452 447.102C131.717 446.925 131.921 446.675 132.037 446.383C132.601 444.892 133.36 442.127 131.602 440.95C129.149 439.317 123.953 440.823 120.37 438.358C116.804 435.909 112.528 427.57 107.397 433.24C107.397 433.24 103.266 439.395 100.46 438.091C97.6517 436.788 95.5538 430.05 92.1808 432.627C90.4875 433.931 90.6326 442.943 91.1822 446.116Z" fill="#3A4146"/>
<path d="M58.0205 424.012C59.2939 427.331 79.8221 428.474 80.9487 427.728C82.0583 426.951 89.1901 401.282 89.1901 401.282L90.6103 427.728C90.5591 428.316 111.753 429.798 114.593 425.098C116.765 421.464 117.7 332.489 117.833 305.392C117.844 303.362 117.284 303.397 117.291 302.103V302.086C117.308 300.227 117.308 299.162 117.308 299.116L60.2532 297.73C60.2532 297.73 59.1471 329.719 58.4779 360.846C57.8566 389.608 57.4162 422.424 58.0205 424.012Z" fill="#4285F4"/>
<path d="M90.6161 427.949L89.1891 401.506C89.1891 401.506 82.0539 427.172 80.9512 427.949L101.764 314.926C104.677 333.737 90.6161 427.949 90.6161 427.949Z" fill="#022E4F"/>
<path d="M173.269 255.81C172.645 257.836 145.816 272.488 132.283 274.792C131.271 274.982 130.362 274.982 129.558 274.809C118.064 272.242 112.748 262.217 112.748 262.217L120.877 245.67L122.336 242.713C122.649 242.713 124.391 244.263 126.416 246.162C126.684 246.437 126.967 246.713 127.264 246.974C127.264 246.974 127.264 246.987 127.281 246.987C129.411 249.039 131.52 251.111 133.607 253.203L171.805 253.461C171.805 253.461 173.938 253.635 173.269 255.808V255.81Z" fill="#FEC9AC"/>
<path opacity="0.5" d="M132.283 274.794C131.271 274.984 130.362 274.984 129.558 274.811C118.064 272.244 112.748 262.219 112.748 262.219L120.877 245.672L126.416 246.164L126.983 246.222C126.983 246.222 127.085 246.483 127.264 246.976C127.264 246.976 127.264 246.989 127.281 246.989C128.768 250.989 135.424 269.477 132.283 274.794Z" fill="#FFAB90"/>
<path d="M115.5 262.599H115.484C115.484 262.599 117.813 304.482 117.826 304.787C118.443 315.397 60.3163 317.064 59.7308 306.454L61.518 276.497L61.9977 268.576C61.9977 268.576 51.5321 269.643 41.3653 267.772C40.5301 267.623 39.6991 267.452 38.8731 267.261C38.4975 267.173 38.122 267.086 37.7635 266.983C37.7635 266.983 36.5465 257.88 40.0441 247.782C42.7616 239.891 48.3639 231.37 59.671 226.199C61.3524 225.423 63.1704 224.721 65.1214 224.108C68.4091 223.071 72.074 222.28 76.1725 221.815C86.0679 220.661 94.1624 221.216 100.77 222.721L101.31 222.853C103.801 223.438 106.242 224.215 108.607 225.176C123.398 231.269 127.691 242.157 127.691 242.157C127.691 242.157 126.25 258.084 115.5 262.599Z" fill="#5731EB"/>
<path d="M58.1155 263.238C58.2145 263.537 56.7004 264.494 53.1823 264.999C50.1951 265.26 47.1174 264.971 44.2582 263.964C42.6092 263.292 41.4707 262.571 40.8271 261.84C40.199 261.102 40.2229 260.554 40.3833 260.499C40.566 260.416 40.8476 260.722 41.5031 261.087C42.1432 261.446 43.2903 261.914 44.842 262.388C47.4349 263.302 50.2548 263.572 53.0287 263.33C56.3197 263.159 57.9994 262.84 58.1155 263.238ZM99.1651 231.712C99.2402 231.867 98.723 232.317 97.5196 232.945C96.3162 233.559 94.4129 234.357 91.709 234.922C87.1172 235.757 82.295 235.53 77.821 234.147C75.2024 233.264 73.4272 232.197 72.333 231.406C71.2405 230.599 70.8155 230.061 70.9196 229.921C71.1757 229.539 73.3504 231.114 78.3382 232.548C82.5374 233.843 87.0609 234.061 91.3983 233.274C96.5483 232.44 98.9774 231.297 99.1651 231.712Z" fill="white"/>
<path d="M64.3146 250.234L61.9982 268.58C61.9982 268.58 61.4775 268.638 60.525 268.711C57.502 268.927 49.1138 269.201 41.3556 267.766C40.8232 267.634 40.287 267.518 39.7476 267.417C39.4506 267.361 39.1536 267.318 38.8702 267.259C38.6176 267.201 38.3496 267.143 38.0952 267.07C37.9757 267.042 37.8733 267.014 37.7538 266.984C37.7538 266.984 36.547 257.884 40.0463 247.785C40.0463 247.785 43.054 256.812 51.8382 257.45C60.607 258.058 64.3163 250.234 64.3163 250.234H64.3146Z" fill="#5731EB"/>
<path d="M180.024 349C178.113 349 176.564 350.443 176.564 352.223V397.508C176.564 399.288 178.113 400.731 180.024 400.731H190.538V349H180.024Z" fill="#FFAB90"/>
<path d="M242.572 349H190.539V400.731H242.572C244.482 400.731 246.031 399.288 246.031 397.508V352.223C246.031 350.443 244.482 349 242.572 349Z" fill="#FEC9AC"/>
<path d="M208.143 384.84H197.225V391.769H208.143V384.84Z" fill="white"/>
<path d="M226.259 349H210.312V361.129H226.259V349Z" fill="#FFAB90"/>
<path d="M143.211 400.73C141.438 400.73 140 402.07 140 403.722V445.756C140 447.408 141.438 448.747 143.211 448.747H152.97V400.73H143.211Z" fill="#FFAB90"/>
<path d="M201.271 400.73H152.975V448.747H201.271C203.045 448.747 204.483 447.408 204.483 445.756V403.722C204.483 402.07 203.045 400.73 201.271 400.73Z" fill="#FEC9AC"/>
<path d="M166.591 436.572H159.656V439.788H166.591V436.572Z" fill="white"/>
<path d="M186.127 400.73H171.326V411.989H186.127V400.73Z" fill="#FFAB90"/>
<path d="M221.322 400.73C219.549 400.73 218.111 402.07 218.111 403.722V445.756C218.111 447.408 219.549 448.747 221.322 448.747H231.081V400.73H221.322Z" fill="#FFAB90"/>
<path d="M279.383 400.73H231.086V448.747H279.383C281.156 448.747 282.594 447.408 282.594 445.756V403.722C282.594 402.07 281.156 400.73 279.383 400.73Z" fill="#FEC9AC"/>
<path d="M244.702 436.57H237.768V439.786H244.702V436.57Z" fill="white"/>
<path d="M264.238 400.73H249.438V411.989H264.238V400.73Z" fill="#FFAB90"/>
<path d="M106.058 272.26L100.771 274.072C100.922 273.853 102.064 267.585 105.426 268.884C106.734 269.382 106.237 272.1 106.058 272.26Z" fill="#FEC9AC"/>
<path d="M117.823 304.786C118.44 315.396 60.3132 317.062 59.7277 306.452L61.5149 276.495L61.771 275.925C61.771 275.925 68.1807 269.948 69.8024 260.303C71.4103 250.644 59.668 226.197 59.668 226.197L65.1184 224.106C65.1184 224.106 78.2127 248.675 80.2252 249.617C82.6218 250.743 96.7608 248.703 103.014 247.418C105.087 246.991 106.561 245.163 106.433 243.103C105.912 234.708 100.765 222.719 100.765 222.719L101.307 222.852L108.049 224.37C108.228 224.603 108.425 224.882 108.604 225.174C113.844 233.693 115.483 262.598 115.483 262.598C115.483 262.598 117.81 304.48 117.823 304.786Z" fill="#6273FF"/>
<path d="M172.602 244.381V296.385C172.6 296.7 172.471 297.001 172.242 297.224C172.013 297.446 171.703 297.572 171.379 297.574H118.016V243.201H171.379C172.05 243.201 172.602 243.728 172.602 244.381Z" fill="#FEC9AC"/>
<path d="M172.602 292.427V296.545C172.6 296.86 172.471 297.162 172.242 297.384C172.013 297.607 171.703 297.733 171.379 297.734H118.016V243.363H118.05C118.649 245.995 127.595 281.651 172.602 292.427Z" fill="#FFAB90"/>
<path d="M100.771 274.075C100.771 274.075 104.737 261.246 107.756 265.036C110.778 268.826 107.135 270.975 107.135 270.975L100.771 274.075Z" fill="#FEC9AC"/>
<path d="M118.013 297.575H108.88C108.636 297.575 108.394 297.528 108.168 297.437C107.942 297.346 107.737 297.213 107.564 297.045C107.392 296.877 107.255 296.677 107.161 296.457C107.068 296.238 107.02 296.002 107.02 295.764V245.01C107.02 244.008 107.853 243.197 108.88 243.197H118.013V297.575Z" fill="#EA7D20"/>
<path d="M124.753 258.626H138.972C139.29 258.626 139.594 258.504 139.819 258.285C140.043 258.067 140.169 257.771 140.169 257.462V248.52C140.169 248.366 140.138 248.215 140.078 248.073C140.018 247.932 139.93 247.803 139.819 247.695C139.707 247.586 139.575 247.5 139.43 247.442C139.284 247.383 139.128 247.353 138.971 247.354H124.753C124.596 247.354 124.44 247.384 124.295 247.442C124.15 247.501 124.018 247.587 123.907 247.695C123.795 247.803 123.707 247.932 123.647 248.074C123.587 248.215 123.556 248.367 123.557 248.52V257.462C123.557 258.105 124.093 258.626 124.753 258.626Z" fill="white"/>
<path d="M114.041 252.172H110.992V243.196H114.041V252.172Z" fill="#EE984F"/>
<path d="M138.279 251.346H125.451V250.631H138.279V251.346Z" fill="#BBCAEA"/>
<path d="M138.279 253.346H125.451V252.631H138.279V253.346Z" fill="#BBCAEA"/>
<path d="M134.143 254.635H138.28V255.349H134.143V254.635Z" fill="#BBCAEA"/>
<path d="M123.32 292.003H144.36C144.529 292.003 144.692 291.937 144.812 291.821C144.931 291.704 144.999 291.546 144.999 291.381V285.104C144.999 284.939 144.931 284.781 144.812 284.664C144.692 284.548 144.529 284.482 144.36 284.482H123.32C123.236 284.482 123.153 284.498 123.075 284.529C122.997 284.56 122.927 284.606 122.867 284.664C122.808 284.722 122.761 284.79 122.728 284.866C122.696 284.941 122.68 285.022 122.68 285.104V291.381C122.68 291.724 122.966 292.003 123.32 292.003Z" fill="white"/>
<path d="M143.689 290.697H141.1V285.787H143.689V290.697Z" fill="#E4ECF9"/>
<path d="M138.697 285.785H140.06V290.696H138.697V285.785ZM134.934 285.785H137.443V290.696H134.934V285.785Z" fill="#E4ECF9"/>
<path d="M107.137 270.971C107.137 270.971 117.302 265.228 116.997 275.397C116.515 291.324 102.453 283.751 102.453 283.751C102.453 283.751 74.0148 303.152 46.5067 295.042C39.4637 292.965 36.6267 274.393 38.0981 267.072C38.3542 267.145 38.6239 267.203 38.8628 267.262C39.1496 267.305 39.45 267.35 39.7505 267.408C40.2899 267.511 40.831 267.627 41.355 267.758C49.1201 269.19 58.9814 268.798 61.9993 268.579C61.9772 268.699 61.7723 275.918 61.7723 275.918C65.2563 281.164 100.774 273.765 100.774 274.071L107.137 270.971Z" fill="#FEC9AC"/>
<path d="M83.8258 191.341C83.4537 191.381 75.0178 202.811 74.7856 202.811L68.8521 200.913C68.8521 200.913 63.1166 195.181 65.9468 188.753C68.7634 182.322 77.23 178.586 77.23 178.586L83.976 184.001C83.976 184.001 84.1809 191.288 83.8258 191.341Z" fill="#2E363A"/>
<path d="M72.6003 222.589C72.4347 221.594 74.7323 220.221 75.7821 214.741C75.8007 214.674 75.811 214.606 75.8128 214.537C76.0091 213.455 76.1577 212.213 76.2328 210.796C76.6083 203.78 88.0366 209.831 88.0366 209.831L91.2952 215.195C91.2952 215.195 91.2952 215.515 91.3089 216.042C91.326 216.115 91.326 216.188 91.326 216.261C91.3396 216.435 91.3396 216.64 91.355 216.859C91.4454 218.321 91.6844 220.514 92.316 222.281C94.5231 228.448 73.8618 230.26 72.6003 222.589Z" fill="#FEC9AC"/>
<path opacity="0.5" d="M91.3521 216.859C90.3151 217.518 89.1493 217.961 87.9279 218.16C82.5373 219.067 78.5275 217.123 75.7793 214.741C75.7979 214.674 75.8082 214.606 75.81 214.537C76.0063 213.455 76.1548 212.213 76.2299 210.796C76.6055 203.78 88.0338 209.831 88.0338 209.831L91.2924 215.195C91.2924 215.195 91.2924 215.515 91.3061 216.042C91.3231 216.115 91.3231 216.188 91.3231 216.261C91.3368 216.435 91.3368 216.64 91.3521 216.859Z" fill="#FFAB90"/>
<path d="M72.8765 207.161C72.8765 207.161 66.2499 204.32 69.3891 199.968C71.1268 197.557 73.2537 199.184 74.3598 200.355C74.6705 200.682 75.2304 200.526 75.3123 200.087C76.0037 196.423 78.5044 185.296 83.6151 183.542C89.7518 181.439 96.5746 182.463 98.7629 185.786C103.141 192.431 101.607 214.829 89.8217 216.797C78.0367 218.766 72.8765 207.161 72.8765 207.161Z" fill="#FEC9AC"/>
<path d="M102.775 184.632V185.584C100.409 186.249 98.0127 186.805 95.5933 187.25L95.2468 185.759C93.7737 176.325 88.8456 168.662 84.1855 168.559C94.465 168.647 102.776 175.798 102.776 184.632H102.775Z" fill="#D32118"/>
<path d="M95.5865 187.25C90.3699 188.231 84.7949 188.787 78.9485 189.05C77.6717 189.108 76.3931 189.166 75.1009 189.182C72.4551 189.241 69.7512 189.254 67.0166 189.211C66.6741 189.208 66.3431 189.09 66.0798 188.877C65.8165 188.664 65.6372 188.369 65.5725 188.041C65.3626 186.9 65.168 185.496 65.168 184.632C65.168 175.813 73.4469 168.677 83.728 168.574C83.8475 168.559 83.9534 168.559 84.0729 168.559H84.1787C88.8388 168.662 93.7668 176.325 95.24 185.759L95.5865 187.25Z" fill="#D32118"/>
<path d="M95.5872 187.25C90.3707 188.231 84.7957 188.787 78.9492 189.05C78.6804 187.962 78.4549 186.865 78.2732 185.76C76.8308 176.501 79.2804 168.954 83.7288 168.574C83.8483 168.559 83.9541 168.559 84.0736 168.559H84.1794C88.8395 168.662 93.7676 176.325 95.2407 185.759L95.5872 187.25Z" fill="#D32118"/>
<path d="M112.312 190.592C112.918 192.597 102.778 189.148 94.9482 194.188C88.6016 198.266 76.7176 190.125 75.0977 189.188C85.2218 188.947 94.6051 187.919 102.778 185.578C102.778 185.578 111.639 188.386 112.312 190.592Z" fill="#6273FF"/>
<path d="M85.0991 168.771C85.1879 170.01 79.6778 170.379 79.5907 169.14C79.5019 167.9 80.6661 166.824 82.187 166.723C83.7079 166.621 85.0121 167.532 85.0991 168.771Z" fill="#2E363A"/>
<path d="M92.804 212.239C92.8314 212.328 92.1315 212.66 90.672 212.464C89.4607 212.231 88.3257 211.715 87.3639 210.961C86.2714 210.034 85.9778 209.375 86.0614 209.316C86.1724 209.225 86.635 209.735 87.7172 210.522C88.6151 211.212 89.6632 211.712 90.7795 211.916C92.0888 212.194 92.7853 212.091 92.804 212.239ZM90.6652 208.232C90.6908 208.174 90.9093 208.215 91.3309 208.275C91.7423 208.325 92.3961 208.423 93.1523 208.182C93.4646 208.09 93.7958 207.924 93.9221 207.727C94.0536 207.546 94.0006 207.245 93.8829 206.913C93.6359 206.216 93.438 205.503 93.2905 204.78C93.0072 203.052 93.1676 202.185 93.2752 202.185C93.4186 202.18 93.48 203.029 93.8538 204.672C93.9955 205.374 94.1884 206.057 94.4291 206.738C94.5418 207.074 94.6988 207.569 94.4069 208.027C94.1082 208.441 93.707 208.587 93.3213 208.715C92.6332 208.889 91.9064 208.848 91.2438 208.597C90.8171 208.434 90.643 208.286 90.6652 208.232ZM98.956 194.939C98.8877 195.057 98.5156 194.904 97.7765 194.856C97.1548 194.778 96.5244 194.906 95.9859 195.218C95.3611 195.552 95.3031 195.924 95.1665 195.917C95.0419 195.97 94.89 195.312 95.6752 194.749C96.3341 194.352 97.1005 194.218 97.8431 194.301C98.7222 194.475 99.0192 194.852 98.956 194.939ZM88.4324 196.818C88.3898 196.942 88.0347 196.892 87.3673 196.909C86.8013 196.884 86.237 196.986 85.7183 197.208C85.0646 197.416 84.9075 197.613 84.7795 197.585C84.6259 197.568 84.7744 197.02 85.4862 196.698C86.0836 196.439 86.7408 196.324 87.3929 196.349C88.1644 196.444 88.4734 196.715 88.4324 196.818Z" fill="#4F2D2B"/>
<path d="M97.1155 202.182C97.6604 202.182 98.1022 201.458 98.1022 200.566C98.1022 199.673 97.6604 198.949 97.1155 198.949C96.5706 198.949 96.1289 199.673 96.1289 200.566C96.1289 201.458 96.5706 202.182 97.1155 202.182Z" fill="#4F2D2B"/>
<path d="M87.4437 202.323C87.9886 202.323 88.4303 201.599 88.4303 200.706C88.4303 199.814 87.9886 199.09 87.4437 199.09C86.8988 199.09 86.457 199.814 86.457 200.706C86.457 201.599 86.8988 202.323 87.4437 202.323Z" fill="#4F2D2B"/>
<path d="M72.4791 204.543C72.3852 204.707 71.6785 204.792 70.68 203.798C69.8982 202.825 69.992 201.313 70.895 200.426C71.4293 199.9 72.2845 199.858 72.6123 200.147C72.9707 200.413 72.9144 200.685 72.8086 200.723C72.5662 200.826 72.2111 200.562 71.7178 201.205C71.2228 201.7 71.1374 202.574 71.6051 203.137C72.1104 203.906 72.6396 204.313 72.4791 204.543Z" fill="#FFAB90"/>
<path d="M422.394 251.149C435.621 251.149 446.343 240.714 446.343 227.842C446.343 214.97 435.621 204.535 422.394 204.535C409.168 204.535 398.445 214.97 398.445 227.842C398.445 240.714 409.168 251.149 422.394 251.149Z" fill="#FD6500"/>
<path d="M422.398 244.099C431.624 244.099 439.103 236.821 439.103 227.842C439.103 218.864 431.624 211.586 422.398 211.586C413.172 211.586 405.693 218.864 405.693 227.842C405.693 236.821 413.172 244.099 422.398 244.099Z" fill="white"/>
<path d="M422.284 222.141C419.963 222.147 417.665 221.695 415.529 220.81C413.393 219.925 411.464 218.627 409.859 216.994C409.744 216.872 409.682 216.711 409.687 216.545C409.692 216.38 409.764 216.222 409.886 216.107C410.009 215.992 410.173 215.929 410.344 215.93C410.514 215.931 410.677 215.997 410.798 216.114C412.282 217.623 414.065 218.824 416.04 219.642C418.015 220.459 420.14 220.878 422.286 220.871C424.435 220.879 426.562 220.46 428.539 219.643C430.517 218.825 432.302 217.624 433.788 216.114C433.909 215.997 434.072 215.931 434.242 215.93C434.413 215.929 434.577 215.992 434.7 216.107C434.822 216.222 434.894 216.38 434.899 216.545C434.904 216.711 434.842 216.872 434.727 216.994C433.12 218.628 431.188 219.927 429.049 220.812C426.91 221.696 424.609 222.149 422.284 222.141ZM434.259 239.565C434.171 239.566 434.083 239.549 434.002 239.515C433.921 239.482 433.847 239.433 433.786 239.371C432.304 237.854 430.52 236.649 428.542 235.827C426.564 235.006 424.435 234.587 422.284 234.595C420.137 234.588 418.01 235.008 416.036 235.829C414.061 236.65 412.279 237.855 410.8 239.371C410.741 239.433 410.67 239.483 410.592 239.518C410.513 239.553 410.428 239.572 410.341 239.575C410.254 239.578 410.168 239.563 410.087 239.533C410.006 239.503 409.932 239.458 409.87 239.399C409.807 239.341 409.757 239.271 409.722 239.194C409.688 239.116 409.669 239.033 409.668 238.949C409.667 238.864 409.683 238.781 409.716 238.703C409.748 238.624 409.797 238.553 409.858 238.493C411.458 236.854 413.386 235.55 415.523 234.661C417.66 233.773 419.961 233.318 422.284 233.325C424.611 233.317 426.914 233.771 429.054 234.659C431.194 235.547 433.125 236.852 434.728 238.492C434.817 238.581 434.877 238.695 434.9 238.817C434.923 238.939 434.909 239.066 434.859 239.18C434.809 239.295 434.725 239.393 434.619 239.461C434.512 239.53 434.387 239.567 434.259 239.567V239.565ZM438.864 228.368H405.689C405.516 228.368 405.35 228.302 405.228 228.183C405.106 228.064 405.037 227.902 405.037 227.734C405.037 227.566 405.106 227.404 405.228 227.285C405.35 227.166 405.516 227.099 405.689 227.099H438.864C439.037 227.099 439.203 227.166 439.326 227.285C439.448 227.404 439.517 227.566 439.517 227.734C439.517 227.902 439.448 228.064 439.326 228.183C439.203 228.302 439.037 228.368 438.864 228.368Z" fill="#FD6500"/>
<path d="M422.395 244.733C418.213 244.733 414.936 237.314 414.936 227.842C414.936 218.37 418.213 210.951 422.395 210.951C426.577 210.951 429.855 218.37 429.855 227.842C429.855 237.314 426.579 244.733 422.395 244.733ZM422.395 212.22C419.423 212.22 416.24 218.496 416.24 227.842C416.24 237.187 419.423 243.464 422.395 243.464C425.367 243.464 428.552 237.187 428.552 227.842C428.552 218.496 425.369 212.22 422.395 212.22Z" fill="#FD6500"/>
<path d="M423.183 114.652C425.887 114.652 428.078 112.519 428.078 109.887C428.078 107.256 425.887 105.123 423.183 105.123C420.479 105.123 418.287 107.256 418.287 109.887C418.287 112.519 420.479 114.652 423.183 114.652Z" fill="#BBCAEA"/>
<path d="M112.521 163.818C115.224 163.818 117.416 161.685 117.416 159.053C117.416 156.422 115.224 154.289 112.521 154.289C109.817 154.289 107.625 156.422 107.625 159.053C107.625 161.685 109.817 163.818 112.521 163.818Z" fill="#BBCAEA"/>
<path d="M114.824 131.627C127.161 131.627 137.163 121.893 137.163 109.887C137.163 97.8799 127.161 88.1465 114.824 88.1465C102.486 88.1465 92.4844 97.8799 92.4844 109.887C92.4844 121.893 102.486 131.627 114.824 131.627Z" fill="#F3F6FD"/>
<path d="M125.089 105.97C125.089 115.813 114.823 125.207 114.823 125.207C114.823 125.207 104.559 115.813 104.559 105.97C104.559 100.455 109.156 95.9863 114.823 95.9863C116.17 95.9857 117.505 96.2434 118.75 96.7449C119.996 97.2463 121.127 97.9816 122.08 98.9088C123.033 99.8359 123.79 100.937 124.305 102.148C124.821 103.36 125.087 104.659 125.087 105.97H125.089Z" fill="#7CD194"/>
<path d="M114.828 111.604C117.934 111.604 120.452 109.153 120.452 106.13C120.452 103.107 117.934 100.656 114.828 100.656C111.721 100.656 109.203 103.107 109.203 106.13C109.203 109.153 111.721 111.604 114.828 111.604Z" fill="#F3F6FD"/>
<path d="M286.607 394.459H448.273V408.845H295.825C294.615 408.845 293.416 408.606 292.298 408.143C291.179 407.68 290.163 407.001 289.307 406.145C288.451 405.289 287.772 404.273 287.309 403.155C286.846 402.036 286.607 400.838 286.607 399.627V394.459H286.607Z" fill="#405E7A"/>
<path d="M448.275 408.846H292.406V423.231H448.275V408.846Z" fill="#C0D9FD"/>
<path d="M295.157 430.475C294.739 430.475 294.326 430.393 293.94 430.233C293.554 430.073 293.203 429.839 292.908 429.543C292.613 429.248 292.378 428.898 292.219 428.512C292.059 428.126 291.977 427.712 291.977 427.295V408.846H298.337V427.295C298.337 427.712 298.255 428.126 298.095 428.512C297.935 428.897 297.701 429.248 297.406 429.543C297.11 429.839 296.76 430.073 296.374 430.233C295.988 430.393 295.575 430.475 295.157 430.475Z" fill="#C0D9FD"/>
<path d="M511.727 369.881L477.115 322.64C476.389 321.648 475.438 320.841 474.342 320.285C473.245 319.729 472.032 319.439 470.803 319.439H444.127C442.051 319.439 440.061 320.264 438.593 321.732C437.125 323.199 436.301 325.19 436.301 327.265V415.407C436.301 417.482 437.125 419.473 438.593 420.94C440.061 422.408 442.051 423.232 444.127 423.232H505.414C506.442 423.232 507.459 423.03 508.409 422.637C509.358 422.243 510.221 421.667 510.948 420.94C511.674 420.214 512.251 419.351 512.644 418.401C513.037 417.452 513.24 416.434 513.24 415.407V374.506C513.24 372.843 512.71 371.223 511.727 369.881Z" fill="#FD6500"/>
<path d="M463.317 376.494L454.642 375.197C454.133 375.121 453.675 374.845 453.369 374.431C453.063 374.018 452.934 373.499 453.01 372.99C453.086 372.481 453.361 372.023 453.775 371.717C454.189 371.41 454.707 371.281 455.216 371.357L463.891 372.654C464.143 372.692 464.385 372.779 464.604 372.91C464.822 373.041 465.013 373.215 465.164 373.419C465.316 373.624 465.426 373.857 465.488 374.104C465.549 374.352 465.561 374.609 465.524 374.861C465.486 375.113 465.399 375.355 465.268 375.574C465.137 375.792 464.964 375.983 464.759 376.134C464.554 376.286 464.321 376.396 464.074 376.457C463.826 376.519 463.569 376.531 463.317 376.494Z" fill="#405E7A"/>
<path d="M436.301 327.266V423.232H501.104L500.959 392.99C500.959 391.269 500.342 389.605 499.221 388.3C498.1 386.995 496.549 386.134 494.848 385.874L450.238 379.06C448.537 378.801 446.985 377.94 445.864 376.635C444.743 375.33 444.127 373.666 444.127 371.946V319.439C442.051 319.439 440.061 320.264 438.593 321.732C437.125 323.199 436.301 325.19 436.301 327.266Z" fill="#FD6500"/>
<path d="M517.37 423.231H500.434V408.846H517.37C519.278 408.846 521.107 409.604 522.456 410.952C523.805 412.301 524.563 414.131 524.563 416.039C524.563 417.946 523.805 419.776 522.456 421.125C521.107 422.474 519.278 423.231 517.37 423.231Z" fill="#DEE3E9"/>
<path d="M363.342 430.476C363.336 422.306 360.086 414.473 354.307 408.698C348.528 402.924 340.693 399.68 332.523 399.68C324.354 399.68 316.518 402.924 310.739 408.698C304.96 414.473 301.711 422.306 301.705 430.476H363.342Z" fill="#DCE7F9"/>
<path d="M304.332 430.475C304.35 423.01 307.328 415.856 312.613 410.583C317.898 405.311 325.059 402.35 332.525 402.35C339.99 402.35 347.151 405.311 352.436 410.583C357.722 415.856 360.7 423.01 360.718 430.475H304.332Z" fill="#405E7A"/>
<path d="M499.078 430.476C499.072 422.306 495.822 414.473 490.044 408.698C484.265 402.924 476.429 399.68 468.26 399.68C460.09 399.68 452.255 402.924 446.476 408.698C440.697 414.473 437.447 422.306 437.441 430.476H499.078Z" fill="#DCE7F9"/>
<path d="M440.064 430.475C440.082 423.01 443.06 415.856 448.346 410.583C453.631 405.311 460.792 402.35 468.257 402.35C475.723 402.35 482.884 405.311 488.169 410.583C493.454 415.856 496.432 423.01 496.45 430.475H440.064Z" fill="#405E7A"/>
<path d="M332.524 452.105C344.47 452.105 354.153 442.421 354.153 430.475C354.153 418.53 344.47 408.846 332.524 408.846C320.578 408.846 310.895 418.53 310.895 430.475C310.895 442.421 320.578 452.105 332.524 452.105Z" fill="#34495E"/>
<path d="M468.26 452.105C480.206 452.105 489.89 442.421 489.89 430.475C489.89 418.53 480.206 408.846 468.26 408.846C456.315 408.846 446.631 418.53 446.631 430.475C446.631 442.421 456.315 452.105 468.26 452.105Z" fill="#34495E"/>
<path d="M343.34 430.475C343.34 432.614 342.706 434.705 341.518 436.483C340.329 438.262 338.64 439.648 336.664 440.466C334.688 441.285 332.514 441.499 330.416 441.082C328.318 440.664 326.391 439.634 324.878 438.122C323.366 436.61 322.336 434.683 321.919 432.585C321.501 430.487 321.716 428.312 322.534 426.336C323.353 424.36 324.739 422.671 326.517 421.483C328.296 420.294 330.387 419.66 332.526 419.66C335.394 419.66 338.145 420.8 340.173 422.828C342.201 424.856 343.34 427.607 343.34 430.475Z" fill="#DEF8FA"/>
<path d="M468.259 441.291C474.232 441.291 479.074 436.449 479.074 430.476C479.074 424.502 474.232 419.66 468.259 419.66C462.286 419.66 457.443 424.502 457.443 430.476C457.443 436.449 462.286 441.291 468.259 441.291Z" fill="#DEF8FA"/>
<path d="M413.512 412.475H383.763C378.428 412.475 374.104 416.799 374.104 422.134V424.457C374.104 429.792 378.428 434.117 383.763 434.117H413.512C418.847 434.117 423.171 429.792 423.171 424.457V422.134C423.171 416.799 418.847 412.475 413.512 412.475Z" fill="#405E7A"/>
<path d="M285.682 284H407.514C413.529 284 419.298 286.39 423.552 290.643C427.806 294.897 430.196 300.666 430.196 306.682V371.778C430.196 377.793 427.806 383.562 423.552 387.816C419.298 392.07 413.529 394.46 407.514 394.46H285.682C279.666 394.46 273.897 392.07 269.643 387.816C265.39 383.562 263 377.793 263 371.778V306.682C263 303.703 263.587 300.754 264.727 298.002C265.866 295.25 267.537 292.75 269.643 290.643C271.75 288.537 274.25 286.866 277.002 285.727C279.754 284.587 282.703 284 285.682 284Z" fill="#6273FF"/>
<path d="M498.57 374.234C498.327 374.234 498.085 374.217 497.845 374.183L456.717 368.434C455.524 368.262 454.433 367.668 453.642 366.758C452.85 365.849 452.413 364.685 452.408 363.48V329.692C452.41 328.365 452.937 327.094 453.875 326.156C454.813 325.218 456.084 324.691 457.41 324.689H469.57C470.356 324.691 471.131 324.876 471.832 325.232C472.533 325.587 473.14 326.102 473.606 326.735L502.574 366.273C503.129 367.013 503.464 367.894 503.541 368.816C503.617 369.738 503.431 370.663 503.004 371.484C502.593 372.309 501.961 373.003 501.178 373.489C500.394 373.975 499.491 374.233 498.57 374.234L498.57 374.234Z" fill="#C0D9FD"/>
<path fill-rule="evenodd" clip-rule="evenodd" d="M456.898 367.134L498.025 372.884C498.744 372.984 499.476 372.87 500.13 372.557C500.784 372.244 501.331 371.745 501.703 371.122C502.075 370.5 502.256 369.781 502.222 369.057C502.188 368.332 501.941 367.634 501.513 367.049L472.545 327.511C472.202 327.043 471.754 326.663 471.237 326.401C470.72 326.139 470.148 326.002 469.569 326.002H457.408C456.43 326.002 455.491 326.391 454.799 327.083C454.107 327.775 453.719 328.713 453.719 329.692V363.48C453.719 364.37 454.04 365.23 454.625 365.901C455.209 366.573 456.016 367.011 456.898 367.134Z" fill="#ABEBFF"/>
<path d="M346.743 365.599H411.672C412.017 365.592 412.346 365.449 412.588 365.201C412.83 364.954 412.965 364.622 412.965 364.276C412.965 363.93 412.83 363.598 412.588 363.351C412.346 363.104 412.017 362.961 411.672 362.953H346.743C346.397 362.961 346.068 363.104 345.826 363.351C345.585 363.598 345.449 363.93 345.449 364.276C345.449 364.622 345.585 364.954 345.826 365.201C346.068 365.449 346.397 365.592 346.743 365.599ZM411.672 372.595H346.743C346.397 372.603 346.068 372.746 345.826 372.993C345.585 373.24 345.449 373.573 345.449 373.918C345.449 374.264 345.585 374.596 345.826 374.844C346.068 375.091 346.397 375.234 346.743 375.241H411.672C412.017 375.234 412.346 375.091 412.588 374.844C412.83 374.596 412.965 374.264 412.965 373.918C412.965 373.573 412.83 373.24 412.588 372.993C412.346 372.746 412.017 372.603 411.672 372.595ZM411.672 382.237H346.743C346.397 382.245 346.068 382.388 345.826 382.635C345.585 382.883 345.449 383.215 345.449 383.561C345.449 383.906 345.585 384.238 345.826 384.486C346.068 384.733 346.397 384.876 346.743 384.884H411.672C412.017 384.876 412.346 384.733 412.588 384.486C412.83 384.238 412.965 383.906 412.965 383.561C412.965 383.215 412.83 382.883 412.588 382.635C412.346 382.388 412.017 382.245 411.672 382.237Z" fill="#C0D9FD"/>
<path d="M386.088 434.116H389.277V412.475H386.088L386.088 434.116ZM407.999 412.475V434.116H411.187V412.475H407.999Z" fill="#C0D9FD"/>
<path opacity="0.3" d="M475.864 332.039L462.034 367.852L472.22 369.276L482.894 341.635L475.864 332.039ZM472.546 327.511C472.204 327.043 471.756 326.663 471.239 326.401C470.721 326.139 470.15 326.002 469.57 326.002H469.446L454.242 365.371C454.525 365.845 454.91 366.249 455.37 366.554C455.83 366.86 456.353 367.057 456.899 367.134L458.826 367.403L473.65 329.017L472.546 327.511ZM484.978 344.478L475.238 369.698L480.332 370.41L488.493 349.277L484.978 344.478ZM489.66 350.869L482.022 370.646L487.116 371.358L493.175 355.667L489.66 350.869Z" fill="#FEFEFE"/>
<path d="M515.81 382.92H513.238V399.658H515.81V382.92Z" fill="#405E7A"/>
<path d="M517.667 384.051H515.809V398.525H517.667C519.696 398.525 521.341 395.285 521.341 391.288C521.341 387.291 519.696 384.051 517.667 384.051Z" fill="#F29B12"/>
</svg>
