<svg width="16" height="19" viewBox="0 0 16 19" fill="none" xmlns="http://www.w3.org/2000/svg">
<path d="M10.166 0.833984H5.16602V2.50065H10.166V0.833984ZM6.83268 11.6673H8.49935V6.66732H6.83268V11.6673ZM13.5202 6.15482L14.7077 4.96732C14.3493 4.53815 13.9577 4.14648 13.5285 3.78815L12.341 4.97565C11.014 3.91112 9.36309 3.33191 7.66185 3.33398C3.51602 3.33398 0.166016 6.69232 0.166016 10.834C0.166016 14.9757 3.51602 18.334 7.66185 18.334C11.8077 18.334 15.166 14.9757 15.166 10.834C15.166 9.06315 14.5493 7.43815 13.5202 6.15482ZM7.66602 16.6673C4.44518 16.6673 1.83268 14.0548 1.83268 10.834C1.83268 7.61315 4.44518 5.00065 7.66602 5.00065C10.8868 5.00065 13.4993 7.61315 13.4993 10.834C13.4993 14.0548 10.8868 16.6673 7.66602 16.6673Z" fill="#FD6500"/>
</svg>
