<svg width="273" height="224" viewBox="0 0 273 224" fill="none" xmlns="http://www.w3.org/2000/svg">
<path d="M3.82429 169.455C19.4558 141.935 12.8736 130.199 8.61443 103.873C6.35048 89.8791 7.20146 73.2793 18.1195 61.4308C30.1636 48.3602 49.3715 46.322 65.6701 47.176C81.9687 48.0301 99.1622 50.3942 114.931 42.531C125.898 37.0626 134.51 27.3602 145.034 20.9203C166.736 7.63881 195.507 11.6986 207.387 29.7191C212.569 37.58 214.758 47.4556 220.791 54.6573C226.43 61.3868 234.909 65.1816 242.226 70.1935C277.264 94.1957 282.908 144.342 254.364 185.152C247.817 194.511 239.493 203.119 229.525 208.794H26.3544C6.20147 208.794 -5.97382 186.705 3.82429 169.455Z" fill="#EBF2FF"/>
<path d="M211.742 154.354C210.754 154.354 209.953 155.1 209.953 156.021V179.449C209.953 180.37 210.754 181.116 211.742 181.116H217.178V154.354H211.742Z" fill="#FFAB90"/>
<path d="M244.084 154.354H217.18V181.116H244.084C245.072 181.116 245.873 180.37 245.873 179.449V156.021C245.873 155.1 245.072 154.354 244.084 154.354Z" fill="#FEC9AC"/>
<path d="M226.283 172.896H220.637V176.481H226.283V172.896Z" fill="white"/>
<path d="M235.65 154.354H227.404V160.628H235.65V154.354Z" fill="#FFAB90"/>
<path d="M192.707 181.119C191.79 181.119 191.047 181.812 191.047 182.667V204.413C191.047 205.267 191.79 205.96 192.707 205.96H197.753V181.119H192.707Z" fill="#FFAB90"/>
<path d="M222.731 181.119H197.758V205.96H222.731C223.648 205.96 224.391 205.267 224.391 204.413V182.667C224.391 181.812 223.648 181.119 222.731 181.119Z" fill="#FEC9AC"/>
<path d="M204.798 199.662H201.213V201.326H204.798V199.662Z" fill="white"/>
<path d="M214.895 181.119H207.242V186.944H214.895V181.119Z" fill="#FFAB90"/>
<path d="M233.096 181.119C232.179 181.119 231.436 181.812 231.436 182.667V204.413C231.436 205.267 232.179 205.96 233.096 205.96H238.142V181.119H233.096Z" fill="#FFAB90"/>
<path d="M263.119 181.119H238.146V205.96H263.119C264.036 205.96 264.78 205.267 264.78 204.413V182.667C264.78 181.812 264.036 181.119 263.119 181.119Z" fill="#FEC9AC"/>
<path d="M245.187 199.662H241.602V201.326H245.187V199.662Z" fill="white"/>
<path d="M255.284 181.119H247.631V186.944H255.284V181.119Z" fill="#FFAB90"/>
<path d="M135.878 209.155C118.255 209.155 99.592 205.988 80.5517 199.685C57.5545 192.072 37.4245 176.524 23.8689 155.905C12.4267 138.5 7.07124 116.64 9.17578 95.9287C11.3853 74.1837 21.817 54.4805 37.0802 43.2232C52.8192 31.6157 73.4997 29.8642 89.7663 38.7617C101.449 45.1517 110.735 56.4515 120.274 66.1748C128.863 74.9314 140.458 85.1071 153.99 86.0811C164.021 86.8037 173.712 82.368 183.083 78.0795C185.301 77.064 187.595 76.0141 189.85 75.0538C205.286 68.4786 217.482 68.5872 226.099 75.3768C237.432 84.3049 239.143 102.027 239.154 111.796C239.179 133.431 233.315 154.149 222.643 170.134C212.506 185.32 194.233 197.696 172.512 204.09C161.027 207.471 148.729 209.155 135.878 209.155ZM37.3012 43.5142C22.119 54.7116 11.7421 74.3196 9.54219 95.965C7.44611 116.595 12.7806 138.371 24.1782 155.708C37.6886 176.258 57.7504 191.754 80.6687 199.34C148.051 221.646 201.618 200.966 222.336 169.934C232.968 154.008 238.81 133.361 238.786 111.796C238.775 102.092 237.082 84.4942 225.87 75.6606C217.367 68.9618 205.297 68.8695 189.996 75.3873C187.746 76.3458 185.454 77.3946 183.238 78.409C173.824 82.7176 164.087 87.1718 153.964 86.4437C140.307 85.4606 128.644 75.2304 120.009 66.4277C110.528 56.7621 101.211 45.4365 89.5881 39.0796C73.5785 30.3234 53.0504 31.8984 37.3012 43.5142Z" fill="#98B1E6"/>
<path d="M127.645 100.607L94.3672 111.203L102.723 134.967L137.735 123.963" fill="#FEC9AC"/>
<path d="M153.071 123.447L141.935 101.21L127.65 100.607L137.74 123.963L153.071 123.447Z" fill="#FFAB90"/>
<path d="M23.0911 189.93L16.703 196.946L9.57301 192.708L8.91016 190.709L11.4352 187.366L17.4296 180.783L23.0911 189.93Z" fill="#D4E3F6"/>
<path d="M23.9168 208.997L23.9132 208.994C23.6259 209.178 23.356 209.322 23.1177 209.437C22.8926 209.546 22.6458 209.604 22.3952 209.606C22.1446 209.609 21.8966 209.557 21.669 209.453C21.434 209.344 21.2021 209.229 20.9738 209.107C15.7715 206.367 6.90004 198.428 4.15291 195.914C3.6403 195.45 3.51584 194.727 3.85094 194.129C4.01003 193.844 4.16653 193.575 4.32304 193.306C6.62459 189.501 9.26936 186.478 11.4358 187.368C11.9624 187.587 11.0417 189.383 11.2008 190.061C11.5577 191.599 13.4107 193.526 15.1753 194.003C15.5123 194.091 15.8386 194.128 16.1564 194.106C17.5461 193.995 18.8943 191.133 20.8169 192.984C22.4519 194.555 21.0507 195.656 20.8011 196.506C20.6129 197.136 20.6435 197.762 20.811 198.376C21.5571 201.006 24.9906 203.432 25.6995 205.443C25.765 205.618 25.8067 205.801 25.8236 205.987C25.9389 207.387 24.8831 208.38 23.9168 208.997Z" fill="url(#paint0_linear_2079_6482)"/>
<path d="M23.9166 208.995L23.9129 208.992C23.6257 209.176 23.3558 209.32 23.1179 209.435C22.8927 209.544 22.6458 209.602 22.3952 209.604C22.1445 209.607 21.8964 209.555 21.6688 209.451C21.4337 209.342 21.2019 209.227 20.9736 209.104C15.7713 206.365 6.89984 198.427 4.15307 195.912C3.64047 195.448 3.51563 194.724 3.8511 194.127C4.00945 193.842 4.16633 193.573 4.32283 193.303L4.32983 193.303C4.32983 193.303 12.5517 201.156 18.8466 205.846C19.9495 206.668 21.5164 206.702 22.6734 205.925C23.0015 205.704 23.3123 205.52 23.5406 205.432C24.0665 205.222 24.6572 205.094 25.2044 205.228C25.3834 205.275 25.5472 205.344 25.6997 205.441C25.765 205.616 25.8066 205.799 25.8234 205.985C25.9387 207.385 24.8833 208.378 23.9166 208.995Z" fill="#4285F4"/>
<path d="M100.439 186.232L105.705 198.712L98.6655 203.095L96.5573 202.782L94.6637 199.055L91.3926 190.815L100.439 186.232Z" fill="#D4E3F6"/>
<path d="M119.856 197.765L119.852 197.767C119.889 198.103 119.898 198.405 119.896 198.667C119.893 198.914 119.835 199.158 119.725 199.38C119.615 199.602 119.456 199.798 119.26 199.952C119.067 200.101 118.856 200.257 118.634 200.409C113.817 203.765 102.644 208.021 99.1332 209.314C98.4829 209.557 97.7718 209.343 97.3811 208.779C97.194 208.511 97.0202 208.252 96.8471 207.993C94.4347 204.256 92.8848 200.567 94.6627 199.057C95.098 198.691 96.311 200.309 96.9974 200.473C98.5496 200.849 101.127 200.081 102.352 198.739C102.583 198.481 102.763 198.211 102.885 197.92C103.409 196.646 101.422 194.172 103.962 193.308C106.118 192.572 106.486 194.302 107.145 194.903C109.926 197.472 115.567 193.766 117.986 194.733C119.306 195.26 119.731 196.637 119.856 197.765H119.856Z" fill="url(#paint1_linear_2079_6482)"/>
<path d="M119.855 197.771L119.851 197.773C119.888 198.109 119.897 198.411 119.895 198.673C119.892 198.92 119.833 199.164 119.723 199.386C119.613 199.608 119.455 199.803 119.259 199.957C119.055 200.116 118.846 200.268 118.633 200.415C113.816 203.771 102.642 208.027 99.1322 209.32C98.4815 209.563 97.7704 209.349 97.3797 208.784C97.1926 208.517 97.0195 208.258 96.8457 207.999L96.8483 207.993C96.8483 207.993 107.653 204.27 114.727 200.827C115.966 200.224 116.701 198.858 116.516 197.489C116.463 197.1 116.436 196.744 116.459 196.503C116.522 195.739 116.773 194.991 117.436 194.604C118.968 194.787 119.684 196.231 119.855 197.771Z" fill="#4285F4"/>
<path d="M26.1283 187.06L23.3156 190.593C22.0525 191.742 12.8636 183.733 14.1267 182.583C14.8448 181.929 18.6238 176.916 18.6238 176.916L26.1283 187.06V187.06ZM100.238 184.125L102.784 189.699C103.671 191.151 92.8178 196.504 91.9304 195.052C91.4258 194.226 88.7192 188.5 88.7192 188.5L100.238 184.125V184.125Z" fill="#185ABC"/>
<path d="M90.0753 192.439L46.7578 127.735V118.729L67.6003 119.443L101.693 186.232C102.19 187.034 94.3916 193.03 90.0753 192.439Z" fill="#4285F4"/>
<path d="M64.0716 153.601L50.207 132.889C51.3029 128.536 54.0641 124.604 58.2113 122.91L59.4365 124.403C58.5541 134.335 60.9978 144.105 64.0716 153.601Z" fill="url(#paint2_linear_2079_6482)"/>
<path d="M38.0098 117.854L39.4062 151.662L18.2182 177.406C15.8736 179.346 25.2709 188.89 27.6159 186.95L52.7685 162.229C56.2853 158.773 58.3414 154.129 58.5216 149.235L59.6764 117.854H38.0098Z" fill="#4285F4"/>
<path d="M97.3749 90.895C97.3749 90.895 80.0815 104.887 73.3724 103.726C67.5261 102.714 57.168 86.6054 57.168 86.6054L63.0835 76.0977C63.0835 76.0977 70.306 78.9758 77.1911 89.8004L93.3157 80.8509C96.0775 79.4452 100.56 88.3864 97.3749 90.895Z" fill="#5731EB"/>
<path d="M64.4654 77.1014C64.4654 77.1014 66.0025 73.8952 63.8943 73.1348C61.7861 72.3743 54.6844 72.0862 54.6317 72.0899C54.5791 72.0935 53.8164 75.0571 53.8164 75.0571L62.5145 79.1392L64.4404 78.5249L64.4654 77.1014Z" fill="#DD8800"/>
<path d="M53.5864 75.5455C53.5864 75.5455 59.5377 74.9203 63.1079 76.9577C70.2648 81.0428 70.0755 121.524 68.4585 122.056C65.8594 124.441 50.0332 123.398 49.6797 121.099L53.5868 75.5455H53.5864Z" fill="#D4E3F6"/>
<path d="M62.6721 66.4819L60.4958 71.5149H60.4939L60.4534 71.642L59.7213 75.8016C59.0865 78.5232 52.1527 79.1005 49.1504 74.0915L51.5978 60.6445L62.6721 66.4819Z" fill="#FFD4CF"/>
<path d="M56.0215 123.198L57.1667 122.647C56.8854 125.585 57.0783 128.316 54.0281 128.039C48.1778 129.204 36.4848 125.515 36.7304 123.851C36.7304 123.851 36.7672 120.207 37.447 118.6L45.7355 120.297L56.0215 123.198Z" fill="#FBBC04"/>
<path d="M57.7242 124.083C57.6469 126.774 36.2015 123.488 36.7384 119.157L36.8121 118.689L39.4185 102.105C39.4167 102.069 34.2093 79.8855 42.0913 74.7951C42.5104 74.527 42.9188 74.3094 43.3783 74.2331C46.4775 73.7288 52.7241 73.7942 55.7611 76.1158C61.3526 80.3847 61.0528 117.723 57.7242 124.083Z" fill="#6273FF"/>
<path d="M55.7737 75.9801C52.6149 74.2776 44.9958 74.3234 42.0944 74.7968C41.6635 74.8673 42.9115 71.5368 42.9115 71.5368C44.6033 70.0755 53.4158 70.8141 55.228 72.1936C57.0029 73.5452 55.819 75.8893 55.7737 75.9801ZM71.5503 121.386L71.706 124.408C71.8975 125.062 69.737 125.755 67.6726 126.057C65.849 126.325 64.309 125.022 64.6865 123.537L64.4353 121.227L71.5499 121.386H71.5503Z" fill="#FBBC04"/>
<path d="M59.7246 75.7988C59.7246 75.7988 62.6375 77.793 64.394 83.1297C67.6224 92.9396 64.1399 122.994 64.1399 122.994C64.5056 124.809 72.0724 123.27 71.7067 121.455C71.7067 121.455 72.0551 80.6247 65.361 76.8637C65.361 76.8637 62.7012 75.3276 59.7246 75.7988Z" fill="#6273FF"/>
<path d="M99.9511 88.4934L96.8931 90.8713C95.4614 91.999 91.2858 83.1545 92.6881 82.0479L95.3944 79.7579C96.4538 78.9187 101.011 87.6545 99.9511 88.4934Z" fill="#FBBC04"/>
<path d="M99.5811 87.9535C99.1764 88.2667 97.471 87.0968 96.4152 85.0274C95.3595 82.958 95.3536 80.7723 95.7579 80.4591C96.163 80.1463 97.3465 81.5701 98.4019 83.6396C99.4581 85.709 99.9858 87.6404 99.5811 87.9535Z" fill="#DD8800"/>
<path opacity="0.12" d="M69.7144 116.41C68.9717 118.187 67.3908 119.543 65.604 120.305C63.434 121.224 61.0039 121.333 58.6699 121.143C51.6474 120.567 44.7612 117.055 37.8638 118.463C37.5147 118.532 37.1657 118.615 36.8125 118.691L39.4193 102.107C39.4193 102.107 38.059 96.3034 37.7795 89.9483C40.9634 85.5086 45.129 81.7545 49.9122 79.0449L50.6476 78.2031C51.3462 86.4482 49.6511 94.8817 45.8166 102.241C52.6365 103.903 59.2938 106.157 65.7105 108.977C66.9644 109.529 68.2547 110.134 69.1149 111.19C70.2804 112.623 70.4277 114.712 69.7144 116.41Z" fill="url(#paint3_linear_2079_6482)"/>
<path d="M65.1306 109.887L42.0012 102.253C42.0012 102.253 53.9425 81.6343 49.6597 75.979C48.1333 73.9637 43.577 74.0044 41.5336 74.9879C32.6868 79.2452 22.7912 106.325 27.9905 111.353C34.6819 117.823 58.5356 119.631 61.9791 119.722C64.8172 120.254 67.9691 110.42 65.1306 109.887Z" fill="#5731EB"/>
<path d="M66.6134 119.866L63.1842 119.468C61.3728 119.234 63.2443 109.537 65.0196 109.764L68.5423 110.088C69.8856 110.258 67.9567 120.036 66.6134 119.867V119.866Z" fill="#FBBC04"/>
<path d="M68.4363 115.227C68.9188 112.929 68.9032 110.983 68.4015 110.881C67.8999 110.778 67.1021 112.558 66.6197 114.855C66.1372 117.153 66.1528 119.099 66.6544 119.201C67.1561 119.304 67.9539 117.524 68.4363 115.227Z" fill="#DD8800"/>
<path d="M96.2587 80.8525C95.5111 81.2438 97.6197 87.2482 99.2798 87.1461C99.2798 87.1461 107.306 86.8391 107.225 84.8391C107.178 83.6899 106.623 83.5697 106.162 83.674C106.678 83.38 107.305 82.842 107.203 81.9653C107.1 81.1006 106.515 81.3647 106.047 81.5838C106.427 81.3142 107.15 80.7275 106.96 80.0092C106.679 78.944 106.102 78.8877 105.445 79.0381C106.963 78.3285 111.387 75.5234 111.01 74.3332C110.188 71.7224 102.261 77.765 102.051 77.9489C102.051 77.9489 103.651 74.1987 102.182 74.3993C100.336 74.6518 96.2587 80.8525 96.2587 80.8525Z" fill="#FFD4CF"/>
<path d="M103.354 86.7278C104.326 86.5378 106.43 86.0804 106.987 85.2814C107.137 85.078 107.142 84.8476 107.099 84.5846C107.016 84.0062 106.761 83.6454 106.186 83.7875C106.052 83.8205 105.977 83.6396 106.096 83.5702C106.294 83.4343 106.525 83.3166 106.767 83.0056C107.22 82.4363 107.078 81.6567 106.853 81.5473C106.691 81.4597 106.377 81.5953 106.112 81.7228C105.939 81.8063 105.793 81.5673 105.949 81.455L105.952 81.4532C106.452 81.0935 106.977 80.5711 106.778 79.989C106.55 79.2145 106.189 79.0343 105.483 79.2043C105.279 79.2533 105.176 78.9707 105.364 78.8802L105.367 78.8784C107.121 78.0315 111.257 75.2936 110.84 74.3464C110.803 74.2785 110.788 74.1931 110.733 74.1415C109.688 72.6258 103.552 76.8591 102.049 77.9461C103.724 76.5786 106.665 74.5077 108.714 73.7949C109.455 73.5344 109.765 73.5293 110.148 73.5315C110.665 73.5896 110.786 73.7684 110.885 73.828L110.99 73.9566C111.069 74.0394 111.094 74.1448 111.142 74.2407C111.486 75.0106 109.989 76.2415 109.334 76.7737C108.142 77.6991 106.886 78.522 105.518 79.1919L105.403 78.8664C106.355 78.6502 106.831 79.0005 107.1 79.8989C107.331 80.6448 106.776 81.2552 106.137 81.7082L105.976 81.4394C106.311 81.285 106.685 81.1135 107.002 81.2788C107.308 81.455 107.38 81.9121 107.351 82.2547C107.304 82.9348 106.823 83.4402 106.22 83.7744L106.132 83.555C106.409 83.4881 106.772 83.5259 106.989 83.7664C107.2 83.9982 107.264 84.2889 107.299 84.5588C107.349 85.0424 107.334 85.4322 106.477 85.8972C105.609 86.3543 104.307 86.5937 103.354 86.7278Z" fill="#F8B7B3"/>
<path d="M65.9415 54.4684C71.8758 54.3107 73.9321 47.9578 70.9213 45.2195L69.1898 44.8242C67.5357 44.9347 65.8362 45.0684 64.2494 45.8077C59.0368 48.2543 60.0355 54.6315 65.9415 54.4684Z" fill="url(#paint4_linear_2079_6482)"/>
<path d="M60.3083 59.4551L60.7255 59.7831C60.6297 60.1349 60.5354 60.4871 60.4427 60.8397C60.0851 62.1632 59.7194 65.134 59.2941 67.0316L53.7439 65.433C53.2327 64.8009 52.8442 64.1396 52.6918 63.4839C51.9958 60.4902 60.3083 59.4554 60.3083 59.4554V59.4551Z" fill="url(#paint5_linear_2079_6482)"/>
<path d="M61.4362 68.139C52.9978 69.1163 51.1536 59.7737 51.0527 59.2436L51.0505 59.2407C51.0497 59.2331 51.0485 59.2256 51.0468 59.2182C51.0468 59.2182 46.4717 57.1582 47.5381 53.827C48.669 50.3083 51.2943 53.7136 51.2943 53.7136C51.2943 53.7136 51.78 54.5874 51.8975 55.8579L53.0648 55.8223C53.0313 54.4301 53.1801 52.9608 53.5568 51.5683C53.8319 50.5677 54.2542 49.7353 54.9804 48.9332C55.9195 47.8901 57.2047 47.8 58.5035 47.9006C61.5342 48.14 64.1579 50.0122 67.3219 49.2881C69.4051 55.8979 67.4269 67.4458 61.4362 68.139Z" fill="#FFD4CF"/>
<path d="M49.7157 42.0508L72.0254 44.0221V48.1228C70.9 48.6616 69.6859 48.9926 68.4876 49.3145L68.7586 49.1448C67.3578 49.7654 65.1306 49.4591 64.2873 49.3011C62.3139 48.9338 60.5842 48.0771 58.508 47.8998C57.2085 47.7995 55.9237 47.8925 54.9843 48.9352C54.2588 49.7385 53.8353 50.5705 53.5595 51.5714C53.9016 53.5333 53.8368 55.8211 53.1176 57.3459C52.6628 58.3061 52.0644 60.1104 51.2679 60.9307C50.6146 60.946 49.1549 60.4377 47.788 59.25C46.5945 58.22 45.4801 56.6687 45.0231 54.5063C44.8328 53.5907 46.2037 47.3897 49.7157 42.0508Z" fill="url(#paint6_linear_2079_6482)"/>
<path d="M63.3633 38.332C63.5205 39.2425 63.1876 40.6492 64.088 41.2734C64.5126 41.5695 65.1165 41.5691 65.6593 41.426C66.2028 41.2789 66.7088 41.0013 67.2262 40.7637" fill="url(#paint7_linear_2079_6482)"/>
<path d="M51.2539 60.8449C52.1053 65.4238 54.7091 69.4445 59.6879 70.4302C67.5367 71.9779 67.8833 65.6345 68.5273 62.5271C69.0421 60.0478 68.0895 56.8031 68.0766 56.6835C68.0468 57.0781 67.7687 60.4627 67.4373 60.1161C66.9207 59.5759 66.3105 58.35 64.8949 58.3352C63.1535 58.3308 63.4897 59.2601 62.2837 58.9346C61.5295 58.7333 61.6517 58.1778 60.2399 58.1335C58.8343 58.0932 57.8105 60.1234 57.8105 60.1234C54.282 58.9255 53.6906 55.037 53.6018 54.6094C53.3798 56.0895 52.9276 57.8708 51.8895 58.9531C51.4104 59.4669 51.1242 60.1495 51.2539 60.8446V60.8449Z" fill="url(#paint8_linear_2079_6482)"/>
<path d="M73.2246 41.3359L74.2667 42.7263C74.0528 42.185 73.6776 41.7007 73.2246 41.3359Z" fill="url(#paint9_linear_2079_6482)"/>
<path d="M59.4555 54.5539C59.4139 55.0938 59.0965 55.5385 58.7455 55.5494C58.3946 55.5595 58.1446 55.1315 58.1862 54.5917C58.2274 54.0554 58.5448 53.6103 58.8958 53.5998C59.2467 53.5889 59.4968 54.0176 59.4555 54.5539Z" fill="url(#paint10_linear_2079_6482)"/>
<path d="M56.9962 53.3079C56.9239 53.2434 56.8805 53.1532 56.8755 53.0572C56.8705 52.9611 56.9044 52.867 56.9697 52.7956C58.0324 51.6352 59.4469 51.2635 60.9541 51.7485C61 51.7633 61.0425 51.7868 61.0792 51.8178C61.1158 51.8488 61.146 51.8866 61.1678 51.929C61.1897 51.9715 61.2029 52.0178 61.2066 52.0653C61.2103 52.1127 61.2046 52.1605 61.1896 52.2058C61.1746 52.251 61.1508 52.293 61.1194 52.3291C61.088 52.3653 61.0497 52.3951 61.0067 52.4166C60.9636 52.4382 60.9167 52.4512 60.8686 52.4549C60.8204 52.4586 60.7721 52.4529 60.7262 52.4381C59.512 52.0475 58.3716 52.3469 57.5154 53.2817C57.45 53.3531 57.3586 53.3959 57.2613 53.4008C57.1639 53.4057 57.0686 53.3723 56.9962 53.3079Z" fill="url(#paint11_linear_2079_6482)"/>
<path d="M65.9165 54.2355C65.8748 54.7754 65.5574 55.2201 65.2065 55.231C64.8555 55.2412 64.6055 54.8132 64.6471 54.2733C64.6883 53.7367 65.0058 53.292 65.3567 53.2815C65.7077 53.2706 65.9577 53.6989 65.9165 54.2355Z" fill="url(#paint12_linear_2079_6482)"/>
<path d="M66.967 52.5532C66.0762 51.4476 64.8149 51.606 63.9138 51.9337C63.8238 51.961 63.7266 51.9532 63.6423 51.912C63.5579 51.8707 63.4927 51.7992 63.4602 51.712C63.4276 51.6248 63.4302 51.5286 63.4673 51.4432C63.5044 51.3578 63.5733 51.2897 63.6598 51.2529C65.2543 50.6734 66.6337 50.9742 67.5426 52.1012C67.6011 52.1767 67.6273 52.2719 67.6155 52.3662C67.6037 52.4605 67.5548 52.5465 67.4794 52.6057C67.4041 52.6649 67.3082 52.6925 67.2124 52.6827C67.1165 52.6729 67.0284 52.6264 66.967 52.5532Z" fill="url(#paint13_linear_2079_6482)"/>
<path d="M52.5719 58.0897C52.5815 59.2646 51.322 59.7707 50.4029 59.3133C49.2819 58.756 47.2047 57.3536 47.9957 54.8784C49.1262 51.3582 51.2966 53.7169 51.2966 53.7169C51.2966 53.7169 51.3176 53.743 51.3537 53.7921C52.1414 54.8631 53.0712 56.7516 52.5719 58.0897Z" fill="#FFD4CF"/>
<path d="M51.313 56.4146C51.1856 55.7486 50.701 55.2447 50.1497 54.9388C49.8831 54.7935 49.5605 54.7386 49.3683 54.8868C49.175 55.0122 49.165 55.3374 49.1838 55.6534C49.2052 56.1494 49.4184 57.034 49.8886 57.2578C50.3136 57.4598 50.9993 57.1285 50.7577 56.7674C50.6748 56.642 50.522 56.5534 50.3567 56.5203C50.7113 56.5101 50.9444 56.7481 50.9411 56.9759C50.9437 57.3236 50.3644 57.7309 49.7796 57.5194C49.3893 57.3817 49.1812 57.0035 49.0534 56.6976C48.8052 56.1043 48.6068 54.9664 49.1698 54.6056C49.7962 54.1976 50.6465 54.8171 51.0361 55.4394C51.2136 55.7377 51.3274 56.0778 51.3127 56.4146H51.313ZM61.9948 55.2552C62.053 55.7421 62.2821 56.165 62.563 56.3379C62.6352 56.3782 62.7041 56.4168 62.7877 56.4302C62.8709 56.4433 63.0907 56.5268 63.1949 56.5962C63.832 56.9821 64.0703 57.9034 63.6748 58.6308C63.2354 59.3574 62.4054 59.3418 61.8262 58.7805C62.313 58.8964 62.809 58.8637 62.9983 58.5868C63.2947 58.2097 63.2038 57.4671 62.8017 57.1946C62.7722 57.1692 62.7361 57.1546 62.7022 57.1354C62.5822 57.074 62.4253 57.0573 62.1495 56.807C61.7024 56.3365 61.7168 55.6135 61.9948 55.2556V55.2552Z" fill="#F8B7B3"/>
<path d="M64.7035 60.301C65.2161 60.9891 63.5049 62.3301 61.7918 62.0623C59.9122 61.7691 59.6316 60.4644 60.4079 59.8977C61.3222 59.2303 64.0996 59.49 64.7035 60.301Z" fill="#FFD4CF"/>
<path d="M44.9207 54.1222C44.9207 54.1222 50.5218 43.3202 71.2317 44.2263C71.2317 44.2263 68.9567 36.0615 58.4587 37.6659C44.5731 39.7877 44.9207 54.1222 44.9207 54.1222Z" fill="#D32118"/>
<path d="M62.6699 45.6099C71.8312 44.3467 72.0603 50.0663 72.0603 50.0663C72.0603 50.0663 76.0344 49.7041 75.457 45.6648C74.6807 40.2369 71.0988 40.6354 71.0988 40.6354C66.5465 41.2614 66.0482 42.2387 62.6699 45.6099Z" fill="#5731EB"/>
<path d="M71.1019 40.6348C69.5906 41.373 69.2006 42.5407 67.1259 44.6116L67.1204 44.6109C66.9126 44.8191 66.6995 45.022 66.4811 45.2194C62.437 48.8624 53.043 47.311 53.043 47.311C56.52 43.7378 66.5503 40.7369 71.1019 40.6348Z" fill="#6273FF"/>
<path d="M60.7605 60.84C60.7122 60.7893 60.6854 60.7223 60.6855 60.6528C60.6857 60.5833 60.7128 60.5164 60.7613 60.4659C60.8097 60.4154 60.8759 60.3852 60.9463 60.3813C61.0167 60.3774 61.0859 60.4002 61.1398 60.445C61.4135 60.7008 61.7721 60.8497 62.1487 60.8639C62.5254 60.8782 62.8945 60.7568 63.1872 60.5224C63.2444 60.4821 63.3151 60.4648 63.3847 60.4741C63.4544 60.4834 63.5178 60.5185 63.5622 60.5723C63.6065 60.6262 63.6283 60.6946 63.6233 60.7638C63.6182 60.833 63.5866 60.8976 63.5349 60.9446C62.7277 61.592 61.5353 61.5651 60.7605 60.84Z" fill="#F8B7B3"/>
<path d="M145.593 209.801C150.119 209.801 153.788 206.181 153.788 201.716C153.788 197.251 150.119 193.631 145.593 193.631C141.067 193.631 137.398 197.251 137.398 201.716C137.398 206.181 141.067 209.801 145.593 209.801Z" fill="#262C51"/>
<path d="M145.597 206.128C148.065 206.128 150.067 204.154 150.067 201.718C150.067 199.283 148.065 197.309 145.597 197.309C143.128 197.309 141.127 199.283 141.127 201.718C141.127 204.154 143.128 206.128 145.597 206.128Z" fill="white"/>
<path d="M148.553 209.801C153.079 209.801 156.748 206.181 156.748 201.716C156.748 197.25 153.079 193.631 148.553 193.631H145.6C150.125 193.631 153.794 197.251 153.794 201.716C153.794 206.181 150.125 209.801 145.6 209.801H148.553H148.553Z" fill="#1D2344"/>
<path d="M187.404 186.608L150.183 197.116L118.241 199.84L117.465 196.035L163.282 182.98L187.404 186.608Z" fill="url(#paint14_linear_2079_6482)"/>
<path d="M114.68 200.634L161.901 184.676L185.168 187.338L144.289 199.887L114.68 200.634Z" fill="#262C51"/>
<path d="M113.622 202.85L87.9811 117.342C87.5362 115.859 86.1303 114.823 84.5626 114.823H76.1113V112.646H84.5626C87.1006 112.646 89.376 114.324 90.0963 116.725L115.738 202.233L113.622 202.85H113.622Z" fill="#262C51"/>
<path d="M71.2477 110.823C71.2477 110.823 79.1614 108.51 81.0486 110.708C82.9363 112.907 78.8568 115.459 78.8568 115.459C78.8568 115.459 74.471 114.639 74.116 114.588C73.7606 114.536 70.2475 113.139 70.2475 113.139L69.4609 111.794" fill="#FFD4CF"/>
<path d="M81.3695 116.726H74.8081C74.0625 116.717 73.3503 116.419 72.8261 115.896C72.3018 115.373 72.0078 114.667 72.0078 113.931C72.0078 113.196 72.3018 112.49 72.8261 111.967C73.3503 111.443 74.0625 111.145 74.8081 111.137H81.3695C81.7442 111.133 82.116 111.202 82.4634 111.34C82.8108 111.479 83.1269 111.684 83.3933 111.944C83.6598 112.204 83.8713 112.513 84.0157 112.855C84.1601 113.196 84.2344 113.562 84.2344 113.931C84.2344 114.301 84.1601 114.667 84.0157 115.008C83.8713 115.349 83.6598 115.659 83.3933 115.919C83.1269 116.179 82.8108 116.384 82.4634 116.522C82.116 116.661 81.7442 116.73 81.3695 116.726Z" fill="#262C51"/>
<path d="M96.2227 140.07L128.591 138.556L128.696 140.73L96.3271 142.244L96.2227 140.07Z" fill="#262C51"/>
<path d="M106.566 174.768L138.439 171.599L138.66 173.764L106.788 176.933L106.566 174.768Z" fill="#262C51"/>
<path d="M105.791 163.354L149.332 149.67L163.416 182.939L118.377 197.487L105.791 163.354Z" fill="#FEC9AC"/>
<path d="M149.338 149.67H170.955L187.41 186.605L163.422 182.939L149.338 149.67Z" fill="#FFAB90"/>
<path d="M167.422 149.668L157.248 123.595L137.773 122.904L149.336 149.668H167.422Z" fill="#FFAB90"/>
<path d="M137.769 122.904L99.6348 135.047L109.209 162.278L149.331 149.668" fill="#FEC9AC"/>
<path d="M113.244 209.801C117.77 209.801 121.439 206.181 121.439 201.716C121.439 197.251 117.77 193.631 113.244 193.631C108.718 193.631 105.049 197.251 105.049 201.716C105.049 206.181 108.718 209.801 113.244 209.801Z" fill="#262C51"/>
<path d="M113.244 205.877C115.575 205.877 117.465 204.013 117.465 201.713C117.465 199.413 115.575 197.549 113.244 197.549C110.913 197.549 109.023 199.413 109.023 201.713C109.023 204.013 110.913 205.877 113.244 205.877Z" fill="white"/>
<path d="M116.198 209.801C120.724 209.801 124.393 206.181 124.393 201.716C124.393 197.25 120.724 193.631 116.198 193.631H113.244C117.77 193.631 121.439 197.251 121.439 201.716C121.439 206.181 117.77 209.801 113.244 209.801H116.198Z" fill="#1D2344"/>
<path d="M140.425 104.997L135.514 105.386L133.219 100.846L138.494 101.093L140.425 104.997Z" fill="#FEC9AC"/>
<path d="M152.812 127.431L147.043 127.358L144.494 123.143L150.378 123.351L152.812 127.431Z" fill="#FEC9AC"/>
<path d="M165.648 153.958L159.879 153.885L157.33 149.67L163.123 149.727L165.648 153.958Z" fill="#FEC9AC"/>
<path d="M135.145 187.399L120.85 192.441L118.82 187.577L133.115 182.536L135.145 187.399ZM125.632 154.534L111.338 159.576L109.308 154.712L123.602 149.671L125.632 154.534ZM117.708 127.353L104.064 132.165L102.127 127.523L115.771 122.711L117.708 127.353Z" fill="white"/>
<path d="M82.5849 115.425C82.7131 114.495 81.063 114.456 79.8673 114.306C80.4344 114.208 81.9413 114.229 81.6249 112.876C81.3082 111.542 73.7322 111.143 73.7322 111.143L71.2466 110.822C70.7874 111.193 68.6011 111.639 68.6011 111.639C67.2349 111.522 65.8024 118.91 67.1715 119.031C67.1715 119.031 77.8301 122.544 78.782 120.734C79.3153 119.713 78.7662 119.181 78.0371 118.875C79.2361 119.061 80.6185 118.969 80.8468 117.653C80.9554 117.04 80.3998 116.774 79.9498 116.664C80.7975 116.756 82.4067 116.755 82.5849 115.425Z" fill="#FFD4CF"/>
<path d="M80.4163 112.09C80.8589 112.229 81.6179 112.487 81.6672 112.943C81.7029 113.114 81.7177 113.294 81.6757 113.469C81.5173 114.226 80.4347 114.28 79.8838 114.373L79.8805 114.238C80.8184 114.341 82.6353 114.349 82.7127 115.262C82.723 115.438 82.692 115.585 82.6456 115.736C82.294 116.919 80.6217 116.981 79.3885 116.759C79.166 116.719 79.2025 116.393 79.4275 116.401C80.287 116.46 81.1951 116.879 80.9918 117.704C80.723 119.037 79.3737 119.193 78.0263 118.965L78.0779 118.789C78.9779 119.199 79.3281 119.795 78.8622 120.7C78.596 121.394 76.571 121.149 75.123 121.061C76.3276 121.1 78.5386 121.293 78.7625 120.652C79.1649 119.808 78.8317 119.302 78.0046 118.958C77.9048 118.917 77.946 118.768 78.0536 118.782C78.4402 118.82 78.8328 118.888 79.3918 118.802C80.0915 118.696 80.5798 118.35 80.6972 117.651C80.8107 117.015 80.0572 116.801 79.422 116.764L79.4702 116.405C80.519 116.631 82.0645 116.666 82.4059 115.658C82.4497 115.537 82.4788 115.395 82.4751 115.282C82.4306 114.566 80.6851 114.49 79.8631 114.373L79.8595 114.373C79.781 114.361 79.7818 114.249 79.8598 114.239C80.2141 114.191 80.5588 114.176 80.888 114.078C81.5019 113.91 81.7151 113.514 81.6168 112.952C81.5836 112.515 80.8342 112.236 80.4163 112.09Z" fill="#F8B7B3"/>
<path d="M79.9804 114.45C78.4683 114.419 75.6582 114.072 74.112 113.641C75.5419 113.689 78.4396 113.92 80.0058 114.188C80.1678 114.215 80.1457 114.453 79.9804 114.45V114.45ZM79.463 116.74C77.9421 116.709 75.1361 116.361 73.5942 115.931C75.0193 115.979 77.8843 116.203 79.488 116.478C79.6501 116.506 79.628 116.744 79.463 116.74V116.74ZM78.1458 119.047C76.6256 119.016 73.8177 118.668 72.2773 118.238C73.7154 118.286 76.5781 118.512 78.1712 118.786C78.3332 118.813 78.3107 119.051 78.1458 119.047Z" fill="#F8B7B3"/>
<path d="M149.008 57.0399C148.003 70.0367 132.61 82.417 132.61 82.417C132.61 82.417 119.131 70.0367 120.136 57.0395C120.739 49.237 127.691 42.9121 135.664 42.9121C143.637 42.9121 149.611 49.237 149.008 57.0399H149.008Z" fill="url(#paint15_linear_2079_6482)"/>
<path d="M140.086 63.3282C143.885 60.0842 144.495 54.6394 141.449 51.1669C138.402 47.6944 132.853 47.5092 129.054 50.7532C125.255 53.9972 124.645 59.442 127.692 62.9144C130.738 66.3869 136.287 66.5722 140.086 63.3282Z" fill="white"/>
<path d="M131.461 60.5932L129.528 57.9788C129.471 57.9017 129.43 57.8142 129.407 57.7214C129.385 57.6287 129.381 57.5324 129.396 57.4381C129.411 57.3438 129.444 57.2534 129.495 57.1719C129.545 57.0904 129.611 57.0196 129.689 56.9633C129.768 56.9071 129.856 56.8666 129.95 56.8442C130.044 56.8218 130.142 56.8178 130.237 56.8326C130.333 56.8474 130.425 56.8806 130.507 56.9303C130.59 56.98 130.662 57.0453 130.719 57.1225L132.168 59.0833L139.05 52.9193C139.194 52.7897 139.385 52.7221 139.58 52.7313C139.775 52.7405 139.959 52.8259 140.09 52.9685C140.221 53.1112 140.29 53.2995 140.281 53.492C140.271 53.6845 140.185 53.8655 140.04 53.9951L132.552 60.7026C132.475 60.7711 132.385 60.823 132.287 60.8548C132.189 60.8867 132.085 60.8978 131.982 60.8875C131.879 60.8771 131.78 60.8455 131.69 60.7948C131.6 60.744 131.522 60.6752 131.461 60.5928V60.5932Z" fill="#30355C"/>
<defs>
<linearGradient id="paint0_linear_2079_6482" x1="27.5478" y1="199.826" x2="9.23473" y2="204.203" gradientUnits="userSpaceOnUse">
<stop stop-color="#191923"/>
<stop offset="1" stop-color="#0C0C14"/>
</linearGradient>
<linearGradient id="paint1_linear_2079_6482" x1="127.482" y1="183.976" x2="123.223" y2="202.086" gradientUnits="userSpaceOnUse">
<stop stop-color="#191923"/>
<stop offset="1" stop-color="#0C0C14"/>
</linearGradient>
<linearGradient id="paint2_linear_2079_6482" x1="50.2074" y1="138.255" x2="64.0716" y2="138.255" gradientUnits="userSpaceOnUse">
<stop stop-color="#191923"/>
<stop offset="1" stop-color="#0C0C14"/>
</linearGradient>
<linearGradient id="paint3_linear_2079_6482" x1="36.8125" y1="99.7127" x2="70.1471" y2="99.7127" gradientUnits="userSpaceOnUse">
<stop stop-color="#191923"/>
<stop offset="1" stop-color="#0C0C14"/>
</linearGradient>
<linearGradient id="paint4_linear_2079_6482" x1="60.8652" y1="49.6479" x2="72.296" y2="49.6479" gradientUnits="userSpaceOnUse">
<stop stop-color="#191923"/>
<stop offset="1" stop-color="#0C0C14"/>
</linearGradient>
<linearGradient id="paint5_linear_2079_6482" x1="59.2697" y1="63.1858" x2="66.6415" y2="63.9982" gradientUnits="userSpaceOnUse">
<stop stop-color="#FFD4CF"/>
<stop offset="1" stop-color="#F8B7B3"/>
</linearGradient>
<linearGradient id="paint6_linear_2079_6482" x1="45.0058" y1="51.4911" x2="72.0254" y2="51.4911" gradientUnits="userSpaceOnUse">
<stop stop-color="#191923"/>
<stop offset="1" stop-color="#0C0C14"/>
</linearGradient>
<linearGradient id="paint7_linear_2079_6482" x1="66.9434" y1="40.2286" x2="71.2455" y2="40.7027" gradientUnits="userSpaceOnUse">
<stop stop-color="#8283D0"/>
<stop offset="0.993" stop-color="#6969AD"/>
</linearGradient>
<linearGradient id="paint8_linear_2079_6482" x1="51.2226" y1="62.6393" x2="68.6798" y2="62.6393" gradientUnits="userSpaceOnUse">
<stop stop-color="#191923"/>
<stop offset="1" stop-color="#0C0C14"/>
</linearGradient>
<linearGradient id="paint9_linear_2079_6482" x1="74.3349" y1="42.0946" x2="73.1539" y2="41.9645" gradientUnits="userSpaceOnUse">
<stop stop-color="#505087"/>
<stop offset="0.993" stop-color="#424373"/>
</linearGradient>
<linearGradient id="paint10_linear_2079_6482" x1="58.1817" y1="54.5746" x2="59.4599" y2="54.5746" gradientUnits="userSpaceOnUse">
<stop stop-color="#191923"/>
<stop offset="1" stop-color="#0C0C14"/>
</linearGradient>
<linearGradient id="paint11_linear_2079_6482" x1="56.875" y1="52.4712" x2="61.2082" y2="52.4712" gradientUnits="userSpaceOnUse">
<stop stop-color="#191923"/>
<stop offset="1" stop-color="#0C0C14"/>
</linearGradient>
<linearGradient id="paint12_linear_2079_6482" x1="64.6427" y1="54.2562" x2="65.9209" y2="54.2562" gradientUnits="userSpaceOnUse">
<stop stop-color="#191923"/>
<stop offset="1" stop-color="#0C0C14"/>
</linearGradient>
<linearGradient id="paint13_linear_2079_6482" x1="63.4189" y1="51.8273" x2="67.6225" y2="51.8273" gradientUnits="userSpaceOnUse">
<stop stop-color="#191923"/>
<stop offset="1" stop-color="#0C0C14"/>
</linearGradient>
<linearGradient id="paint14_linear_2079_6482" x1="152.527" y1="193.371" x2="152.447" y2="191.551" gradientUnits="userSpaceOnUse">
<stop stop-color="#FBBC04"/>
<stop offset="0.997" stop-color="#DD8800"/>
</linearGradient>
<linearGradient id="paint15_linear_2079_6482" x1="120.082" y1="62.6644" x2="149.05" y2="62.6644" gradientUnits="userSpaceOnUse">
<stop stop-color="#4285F4"/>
<stop offset="0.997" stop-color="#185ABC"/>
</linearGradient>
</defs>
</svg>
