<svg width="273" height="230" viewBox="0 0 273 230" fill="none" xmlns="http://www.w3.org/2000/svg">
<path d="M3.82429 169.023C19.4558 141.573 12.8736 129.867 8.61443 103.608C6.35048 89.65 7.20146 73.0926 18.1195 61.2742C30.1636 48.237 49.3715 46.204 65.6701 47.0559C81.9687 47.9077 99.1622 50.2658 114.931 42.4226C125.898 36.9682 134.51 27.2906 145.034 20.8671C166.736 7.61951 195.507 11.6689 207.387 29.6435C212.569 37.4843 214.758 47.3348 220.791 54.5181C226.43 61.2304 234.909 65.0155 242.226 70.0146C277.264 93.9556 282.908 143.974 254.364 184.679C247.817 194.015 239.493 202.601 229.525 208.262H26.3544C6.20147 208.262 -5.97382 186.229 3.82429 169.023Z" fill="#EBF2FF"/>
<path d="M178.904 142.96C178.904 143.196 178.677 143.409 178.219 143.506H177.054C176.598 143.408 176.371 143.196 176.371 142.955C176.371 142.713 176.598 142.507 177.054 142.404H178.219C178.677 142.507 178.903 142.714 178.903 142.961L178.904 142.96ZM190.134 142.96C190.134 143.196 189.632 143.409 188.616 143.506H186.035C185.02 143.408 184.519 143.196 184.519 142.955C184.519 142.713 185.02 142.507 186.035 142.404H188.616C189.632 142.507 190.134 142.714 190.134 142.961V142.96ZM201.364 142.96C201.364 143.196 200.861 143.409 199.846 143.506H197.265C196.25 143.408 195.749 143.196 195.749 142.955C195.749 142.713 196.25 142.507 197.265 142.404H199.846C200.861 142.507 201.364 142.714 201.364 142.961V142.96ZM209.517 140.495C209.759 140.495 209.978 140.935 210.078 141.825V143.506H208.346C207.431 143.408 206.979 143.196 206.979 142.955C206.979 142.713 207.431 142.507 208.346 142.404H208.943V141.825C209.049 140.935 209.262 140.495 209.517 140.495ZM209.517 130.636C209.759 130.636 209.978 131.077 210.078 131.969V134.234C209.978 135.125 209.759 135.566 209.511 135.566C209.262 135.566 209.049 135.125 208.943 134.234V131.969C209.049 131.077 209.262 130.636 209.517 130.636ZM209.517 120.778C209.759 120.778 209.978 121.219 210.078 122.11V124.376C209.978 125.266 209.759 125.707 209.511 125.707C209.262 125.707 209.049 125.266 208.943 124.376V122.11C209.049 121.219 209.262 120.778 209.517 120.778ZM209.517 110.919C209.759 110.919 209.978 111.36 210.078 112.252V114.517C209.978 115.407 209.759 115.848 209.511 115.848C209.262 115.848 209.049 115.407 208.943 114.517V112.252C209.049 111.36 209.262 110.919 209.517 110.919ZM209.517 101.061C209.759 101.061 209.978 101.502 210.078 102.393V104.658C209.978 105.549 209.759 105.99 209.511 105.99C209.262 105.99 209.049 105.549 208.943 104.658V102.393C209.049 101.502 209.262 101.061 209.517 101.061ZM209.517 91.2021C209.759 91.2021 209.978 91.6423 210.078 92.5344V94.7998C209.978 95.6902 209.759 96.1313 209.511 96.1313C209.262 96.1313 209.049 95.6902 208.943 94.7998V92.5344C209.049 91.6423 209.262 91.2021 209.517 91.2021ZM209.517 81.3435C209.759 81.3435 209.978 81.7838 210.078 82.6758V84.9412C209.978 85.8317 209.759 86.2728 209.511 86.2728C209.262 86.2728 209.049 85.8317 208.943 84.9412V82.6758C209.049 81.7838 209.262 81.3435 209.517 81.3435ZM209.517 71.4841C209.759 71.4841 209.978 71.9252 210.078 72.8164V75.0827C209.978 75.9731 209.759 76.4142 209.511 76.4142C209.262 76.4142 209.049 75.9731 208.943 75.0827V72.8164C209.049 71.9252 209.262 71.4841 209.517 71.4841ZM209.517 61.6255C209.759 61.6255 209.978 62.0666 210.078 62.9579V65.2233C209.978 66.1145 209.759 66.5548 209.511 66.5548C209.262 66.5548 209.049 66.1145 208.943 65.2233V62.9579C209.049 62.0666 209.262 61.6255 209.517 61.6255ZM206.979 54.2308C206.979 53.9955 207.431 53.7831 208.347 53.6855H210.078V55.368C209.978 56.2568 209.759 56.6963 209.511 56.6963C209.262 56.6963 209.049 56.2568 208.943 55.368V54.7883H208.347C207.431 54.685 206.979 54.4776 206.979 54.2308ZM196.724 54.2308C196.724 53.9955 197.183 53.7831 198.11 53.6855H200.466C201.392 53.7831 201.851 53.9955 201.851 54.2365C201.851 54.4776 201.392 54.685 200.466 54.7883H198.11C197.183 54.685 196.724 54.4776 196.724 54.2308ZM186.47 54.2308C186.47 53.9955 186.928 53.7831 187.856 53.6855H190.212C191.138 53.7831 191.597 53.9955 191.597 54.2365C191.597 54.4776 191.138 54.685 190.212 54.7883H187.856C186.928 54.685 186.47 54.4776 186.47 54.2308ZM176.216 54.2308C176.216 53.9955 176.674 53.7831 177.601 53.6855H179.958C180.885 53.7831 181.343 53.9955 181.343 54.2365C181.343 54.4776 180.885 54.685 179.958 54.7883H177.601C176.674 54.685 176.216 54.4776 176.216 54.2308ZM165.962 54.2308C165.962 53.9955 166.421 53.7831 167.348 53.6855H169.704C170.631 53.7831 171.088 53.9955 171.088 54.2365C171.088 54.4776 170.631 54.685 169.704 54.7883H167.348C166.42 54.685 165.962 54.4776 165.962 54.2308ZM155.708 54.2308C155.708 53.9955 156.167 53.7831 157.094 53.6855H159.45C160.376 53.7831 160.834 53.9955 160.834 54.2365C160.834 54.4776 160.376 54.685 159.45 54.7883H157.094C156.167 54.685 155.708 54.4776 155.708 54.2308ZM145.454 54.2308C145.454 53.9955 145.912 53.7831 146.84 53.6855H149.195C150.122 53.7831 150.581 53.9955 150.581 54.2365C150.581 54.4776 150.122 54.685 149.196 54.7883H146.84C145.912 54.685 145.454 54.4776 145.454 54.2308ZM135.2 54.2308C135.2 53.9955 135.658 53.7831 136.585 53.6855H138.942C139.868 53.7831 140.327 53.9955 140.327 54.2365C140.327 54.4776 139.868 54.685 138.942 54.7883H136.585C135.658 54.685 135.2 54.4776 135.2 54.2308ZM124.946 54.2308C124.946 53.9955 125.404 53.7831 126.331 53.6855H128.688C129.614 53.7831 130.072 53.9955 130.072 54.2365C130.072 54.4776 129.614 54.685 128.688 54.7883H126.332C125.404 54.685 124.946 54.4776 124.946 54.2308ZM114.691 54.2308C114.691 53.9955 115.15 53.7831 116.077 53.6855H118.434C119.36 53.7831 119.818 53.9955 119.818 54.2365C119.818 54.4776 119.36 54.685 118.434 54.7883H116.077C115.15 54.685 114.691 54.4776 114.691 54.2308ZM104.437 54.2308C104.437 53.9955 104.896 53.7831 105.824 53.6855H108.179C109.106 53.7831 109.564 53.9955 109.564 54.2365C109.564 54.4776 109.106 54.685 108.18 54.7883H105.824C104.896 54.685 104.437 54.4776 104.437 54.2308ZM94.1835 54.2308C94.1835 53.9955 94.6419 53.7831 95.5689 53.6855H97.9259C98.852 53.7831 99.3104 53.9955 99.3104 54.2365C99.3104 54.4776 98.852 54.685 97.9259 54.7883H95.5689C94.6419 54.685 94.1835 54.4776 94.1835 54.2308ZM83.9297 54.2308C83.9297 53.9955 84.3881 53.7831 85.315 53.6855H87.6712C88.5982 53.7831 89.0557 53.9955 89.0557 54.2365C89.0557 54.4776 88.5982 54.685 87.6712 54.7883H85.3159C84.3872 54.685 83.9297 54.4776 83.9297 54.2308ZM73.675 54.2308C73.675 53.9955 74.1342 53.7831 75.0612 53.6855H77.4174C78.3435 53.7831 78.8019 53.9955 78.8019 54.2365C78.8019 54.4776 78.3435 54.685 77.4174 54.7883H75.0612C74.1342 54.685 73.675 54.4776 73.675 54.2308ZM63.4211 54.2308C63.4211 53.9955 63.8795 53.7831 64.8073 53.6855H67.1627C68.0896 53.7831 68.548 53.9955 68.548 54.2365C68.548 54.4776 68.0896 54.685 67.1635 54.7883H64.8073C63.8795 54.685 63.4211 54.4776 63.4211 54.2308ZM55.7556 56.6971C55.5133 56.6971 55.2947 56.2568 55.1934 55.3672V53.6855H56.9257C57.8408 53.7831 58.2942 53.9955 58.2942 54.2365C58.2942 54.4776 57.8408 54.685 56.9265 54.7883H56.3297V55.3672C56.2225 56.2568 56.0097 56.6963 55.7556 56.6963V56.6971ZM55.7556 68.8104C55.5133 68.8104 55.2947 68.2684 55.1934 67.173V64.3894C55.2947 63.2949 55.5133 62.7529 55.7615 62.7529C56.0097 62.7529 56.2225 63.2949 56.3297 64.3894V67.173C56.2225 68.2684 56.0097 68.8104 55.7556 68.8104ZM55.7556 77.3259C55.5133 77.3259 55.2947 77.1062 55.1934 76.6618V75.5303C55.2947 75.086 55.5133 74.8662 55.7615 74.8662C56.0097 74.8662 56.2225 75.086 56.3297 75.5303V76.6618C56.2225 77.1062 56.0097 77.3259 55.7556 77.3259Z" fill="#D1DCF8"/>
<path d="M159.145 50.9922H182.594V160.293H159.145V50.9922ZM194.041 160.293H217.491V221.361H194.041V160.293Z" fill="#BBCAEA"/>
<path d="M201.07 160.292V221.359H79.6855V50.9902H166.173V160.292H201.07Z" fill="#E4ECF9"/>
<path d="M93.6641 174.637H137.996V221.36H93.6641V174.637Z" fill="#D1DCF8"/>
<path d="M141.484 169.518V173.857C141.484 174.29 141.118 174.644 140.672 174.644H90.9901C90.7754 174.644 90.5696 174.561 90.4178 174.413C90.266 174.266 90.1804 174.066 90.1797 173.857V169.518C90.1797 169.084 90.5444 168.73 90.9901 168.73H140.672C141.118 168.73 141.483 169.084 141.483 169.518H141.484Z" fill="#4A5258"/>
<path d="M101.268 41.748H145.711V50.99H101.268V41.748Z" fill="#64D3FF"/>
<path d="M155.367 50.9902H145.707V41.7482H155.367V50.9902Z" fill="#13B1E2"/>
<path d="M121.863 27.6719H125.116V41.7513H121.863V27.6719Z" fill="#4A5258"/>
<path d="M123.488 34.3453C126.255 34.3453 128.499 32.1663 128.499 29.4783C128.499 26.7903 126.255 24.6113 123.488 24.6113C120.72 24.6113 118.477 26.7903 118.477 29.4783C118.477 32.1663 120.72 34.3453 123.488 34.3453Z" fill="#FE7B73"/>
<path d="M172.847 173.026V180.28C172.847 180.411 172.794 180.537 172.699 180.631C172.604 180.725 172.475 180.779 172.34 180.781H164.862C164.795 180.781 164.728 180.767 164.667 180.742C164.605 180.716 164.549 180.679 164.502 180.633C164.455 180.586 164.417 180.531 164.392 180.47C164.367 180.41 164.355 180.345 164.356 180.28V173.026C164.356 172.75 164.578 172.534 164.862 172.534H172.34C172.614 172.534 172.847 172.75 172.847 173.026ZM159.795 173.026V180.28C159.796 180.345 159.783 180.41 159.758 180.47C159.733 180.531 159.696 180.586 159.649 180.633C159.602 180.679 159.546 180.716 159.484 180.742C159.422 180.767 159.356 180.781 159.289 180.781H151.821C151.753 180.782 151.685 180.769 151.622 180.744C151.559 180.719 151.502 180.682 151.454 180.636C151.406 180.589 151.368 180.533 151.342 180.472C151.316 180.411 151.303 180.346 151.304 180.28V173.026C151.304 172.75 151.527 172.534 151.821 172.534H159.289C159.572 172.534 159.795 172.75 159.795 173.026ZM185.888 173.026V180.28C185.889 180.345 185.876 180.41 185.851 180.47C185.826 180.531 185.789 180.586 185.742 180.633C185.695 180.679 185.639 180.716 185.577 180.742C185.515 180.767 185.449 180.781 185.382 180.781H177.914C177.846 180.782 177.778 180.769 177.715 180.744C177.652 180.719 177.595 180.682 177.547 180.636C177.499 180.589 177.461 180.533 177.435 180.472C177.409 180.411 177.397 180.346 177.397 180.28V173.026C177.397 172.75 177.62 172.534 177.914 172.534H185.382C185.665 172.534 185.888 172.75 185.888 173.026ZM172.847 184.738V191.991C172.847 192.123 172.794 192.249 172.699 192.343C172.604 192.436 172.475 192.49 172.34 192.493H164.862C164.795 192.492 164.728 192.479 164.667 192.453C164.605 192.428 164.549 192.391 164.502 192.344C164.455 192.298 164.417 192.242 164.392 192.182C164.367 192.121 164.355 192.056 164.356 191.991V184.738C164.356 184.463 164.578 184.246 164.862 184.246H172.34C172.614 184.246 172.847 184.463 172.847 184.738ZM159.795 184.738V191.991C159.796 192.056 159.783 192.121 159.758 192.182C159.733 192.242 159.696 192.298 159.649 192.344C159.602 192.391 159.546 192.428 159.484 192.453C159.422 192.479 159.356 192.492 159.289 192.493H151.821C151.753 192.493 151.685 192.481 151.622 192.456C151.559 192.431 151.502 192.394 151.454 192.347C151.406 192.3 151.368 192.245 151.342 192.184C151.316 192.123 151.303 192.057 151.304 191.991V184.738C151.304 184.463 151.527 184.246 151.821 184.246H159.289C159.572 184.246 159.795 184.463 159.795 184.738ZM185.888 184.738V191.991C185.889 192.056 185.876 192.121 185.851 192.182C185.826 192.242 185.789 192.298 185.742 192.344C185.695 192.391 185.639 192.428 185.577 192.453C185.515 192.479 185.449 192.492 185.382 192.493H177.914C177.846 192.493 177.778 192.481 177.715 192.456C177.652 192.431 177.595 192.394 177.547 192.347C177.499 192.3 177.461 192.245 177.435 192.184C177.409 192.123 177.397 192.057 177.397 191.991V184.738C177.397 184.463 177.62 184.246 177.914 184.246H185.382C185.665 184.246 185.888 184.463 185.888 184.738ZM172.847 196.45V203.704C172.847 203.835 172.794 203.961 172.699 204.055C172.604 204.149 172.475 204.203 172.34 204.205H164.862C164.795 204.205 164.728 204.191 164.667 204.166C164.605 204.14 164.549 204.103 164.502 204.057C164.455 204.01 164.417 203.955 164.392 203.894C164.367 203.834 164.355 203.769 164.356 203.704V196.45C164.356 196.174 164.578 195.958 164.862 195.958H172.34C172.614 195.958 172.847 196.174 172.847 196.45ZM159.795 196.45V203.704C159.796 203.769 159.783 203.834 159.758 203.894C159.733 203.955 159.696 204.01 159.649 204.057C159.602 204.103 159.546 204.14 159.484 204.166C159.422 204.191 159.356 204.205 159.289 204.205H151.821C151.753 204.206 151.685 204.193 151.622 204.168C151.559 204.143 151.502 204.106 151.454 204.06C151.406 204.013 151.368 203.957 151.342 203.896C151.316 203.835 151.303 203.77 151.304 203.704V196.45C151.304 196.174 151.527 195.958 151.821 195.958H159.289C159.572 195.958 159.795 196.174 159.795 196.45ZM185.888 196.45V203.704C185.889 203.769 185.876 203.834 185.851 203.894C185.826 203.955 185.789 204.01 185.742 204.057C185.695 204.103 185.639 204.14 185.577 204.166C185.515 204.191 185.449 204.205 185.382 204.205H177.914C177.846 204.206 177.778 204.193 177.715 204.168C177.652 204.143 177.595 204.106 177.547 204.06C177.499 204.013 177.461 203.957 177.435 203.896C177.409 203.835 177.397 203.77 177.397 203.704V196.45C177.397 196.174 177.62 195.958 177.914 195.958H185.382C185.665 195.958 185.888 196.174 185.888 196.45ZM92.6377 77.833V85.354C92.6381 85.4211 92.6249 85.4876 92.5989 85.5498C92.5728 85.6119 92.5343 85.6685 92.4857 85.7161C92.4371 85.7638 92.3792 85.8017 92.3155 85.8276C92.2518 85.8536 92.1834 85.867 92.1143 85.8672H84.3753C84.3055 85.8681 84.2361 85.8555 84.1713 85.83C84.1065 85.8046 84.0475 85.7669 83.9979 85.7192C83.9482 85.6714 83.9088 85.6145 83.882 85.5518C83.8553 85.4891 83.8416 85.4219 83.8418 85.354V77.8321C83.8418 77.5517 84.0756 77.3238 84.3753 77.3238H92.1134C92.1822 77.3238 92.2502 77.337 92.3137 77.3625C92.3772 77.388 92.4349 77.4255 92.4835 77.4727C92.5322 77.5199 92.5707 77.5759 92.597 77.6376C92.6233 77.6993 92.6369 77.7654 92.6369 77.8321L92.6377 77.833ZM106.344 77.833V85.354C106.344 85.4211 106.331 85.4876 106.305 85.5498C106.279 85.6119 106.24 85.6685 106.192 85.7161C106.143 85.7638 106.085 85.8017 106.021 85.8276C105.958 85.8536 105.889 85.867 105.82 85.8672H98.0812C98.0113 85.8681 97.942 85.8555 97.8771 85.83C97.8123 85.8046 97.7534 85.7669 97.7037 85.7192C97.6541 85.6714 97.6147 85.6145 97.5879 85.5518C97.5611 85.4891 97.5474 85.4219 97.5477 85.354V77.8321C97.5477 77.5517 97.7824 77.3238 98.0812 77.3238H105.82C105.959 77.3238 106.092 77.3774 106.19 77.4727C106.288 77.568 106.344 77.6973 106.344 77.8321V77.833ZM120.049 77.833V85.354C120.05 85.4211 120.037 85.4876 120.011 85.5498C119.984 85.6119 119.946 85.6685 119.897 85.7161C119.849 85.7638 119.791 85.8017 119.727 85.8276C119.663 85.8536 119.595 85.867 119.526 85.8672H111.788C111.718 85.8682 111.648 85.8557 111.584 85.8303C111.519 85.8049 111.46 85.7672 111.41 85.7194C111.36 85.6717 111.321 85.6147 111.294 85.552C111.267 85.4892 111.253 85.4219 111.254 85.354V77.8321C111.254 77.5517 111.488 77.3238 111.788 77.3238H119.526C119.665 77.3238 119.798 77.3774 119.896 77.4727C119.994 77.568 120.049 77.6973 120.049 77.8321V77.833ZM133.756 77.833V85.354C133.757 85.4211 133.743 85.4876 133.717 85.5498C133.691 85.6119 133.653 85.6685 133.604 85.7161C133.555 85.7638 133.498 85.8017 133.434 85.8276C133.37 85.8536 133.302 85.867 133.233 85.8672H125.494C125.424 85.8682 125.354 85.8557 125.289 85.8303C125.225 85.8049 125.165 85.7672 125.116 85.7194C125.066 85.6717 125.027 85.6147 125 85.552C124.973 85.4892 124.959 85.4219 124.959 85.354V77.8321C124.959 77.5517 125.194 77.3238 125.494 77.3238H133.232C133.371 77.3238 133.504 77.3774 133.602 77.4727C133.7 77.568 133.755 77.6973 133.755 77.8321L133.756 77.833ZM147.462 77.833V85.354C147.462 85.4211 147.449 85.4876 147.423 85.5498C147.397 85.6119 147.359 85.6685 147.31 85.7161C147.261 85.7638 147.204 85.8017 147.14 85.8276C147.076 85.8536 147.008 85.867 146.939 85.8672H139.2C139.13 85.8681 139.06 85.8555 138.996 85.83C138.931 85.8046 138.872 85.7669 138.822 85.7192C138.773 85.6714 138.733 85.6145 138.706 85.5518C138.68 85.4891 138.666 85.4219 138.666 85.354V77.8321C138.666 77.5517 138.901 77.3238 139.2 77.3238H146.938C147.007 77.3237 147.075 77.3368 147.138 77.3623C147.202 77.3878 147.26 77.4252 147.308 77.4724C147.357 77.5196 147.396 77.5757 147.422 77.6374C147.448 77.6992 147.462 77.7653 147.462 77.8321V77.833ZM161.168 77.833V85.354C161.168 85.4211 161.155 85.4876 161.129 85.5498C161.103 85.6119 161.064 85.6685 161.016 85.7161C160.967 85.7638 160.909 85.8017 160.846 85.8276C160.782 85.8536 160.714 85.867 160.644 85.8672H152.905C152.836 85.8681 152.766 85.8555 152.701 85.83C152.637 85.8046 152.578 85.7669 152.528 85.7192C152.478 85.6714 152.439 85.6145 152.412 85.5518C152.385 85.4891 152.372 85.4219 152.372 85.354V77.8321C152.372 77.5517 152.607 77.3238 152.905 77.3238H160.644C160.783 77.3238 160.916 77.3774 161.015 77.4727C161.113 77.568 161.168 77.6973 161.168 77.8321V77.833ZM92.6377 64.8169V72.3371C92.6383 72.4043 92.6251 72.4709 92.5991 72.5332C92.5731 72.5954 92.5346 72.652 92.486 72.6998C92.4374 72.7476 92.3795 72.7855 92.3157 72.8115C92.2519 72.8375 92.1835 72.851 92.1143 72.8512H84.3753C84.3054 72.8521 84.2359 72.8394 84.1711 72.8139C84.1062 72.7885 84.0472 72.7507 83.9976 72.7028C83.9479 72.655 83.9085 72.598 83.8818 72.5352C83.8551 72.4724 83.8415 72.4051 83.8418 72.3371V64.8169C83.8418 64.5357 84.0756 64.3086 84.3753 64.3086H92.1134C92.1822 64.3086 92.2502 64.3217 92.3137 64.3473C92.3772 64.3728 92.4349 64.4103 92.4835 64.4575C92.5322 64.5047 92.5707 64.5607 92.597 64.6224C92.6233 64.6841 92.6369 64.7502 92.6369 64.8169H92.6377ZM106.344 64.8169V72.3371C106.344 72.4043 106.331 72.4709 106.305 72.5332C106.279 72.5954 106.24 72.652 106.192 72.6998C106.143 72.7476 106.085 72.7855 106.022 72.8115C105.958 72.8375 105.889 72.851 105.82 72.8512H98.0812C98.0112 72.8521 97.9418 72.8394 97.8769 72.8139C97.8121 72.7885 97.7531 72.7507 97.7034 72.7028C97.6538 72.655 97.6144 72.598 97.5877 72.5352C97.5609 72.4724 97.5473 72.4051 97.5477 72.3371V64.8169C97.5477 64.5357 97.7824 64.3086 98.0812 64.3086H105.82C105.889 64.3086 105.957 64.3217 106.02 64.3473C106.084 64.3728 106.142 64.4103 106.19 64.4575C106.239 64.5047 106.277 64.5607 106.304 64.6224C106.33 64.6841 106.344 64.7502 106.344 64.8169ZM120.049 64.8169V72.3371C120.05 72.4043 120.037 72.4709 120.011 72.5332C119.985 72.5954 119.946 72.652 119.898 72.6998C119.849 72.7476 119.791 72.7855 119.727 72.8115C119.664 72.8375 119.595 72.851 119.526 72.8512H111.788C111.718 72.8522 111.648 72.8396 111.583 72.8142C111.518 72.7888 111.459 72.751 111.41 72.7031C111.36 72.6553 111.32 72.5982 111.294 72.5354C111.267 72.4726 111.253 72.4051 111.254 72.3371V64.8169C111.254 64.5357 111.488 64.3086 111.788 64.3086H119.526C119.595 64.3086 119.663 64.3217 119.726 64.3473C119.79 64.3728 119.848 64.4103 119.896 64.4575C119.945 64.5047 119.983 64.5607 120.01 64.6224C120.036 64.6841 120.049 64.7502 120.049 64.8169ZM133.756 64.8169V72.3371C133.757 72.4043 133.744 72.4709 133.718 72.5332C133.691 72.5954 133.653 72.652 133.604 72.6998C133.556 72.7476 133.498 72.7855 133.434 72.8115C133.37 72.8375 133.302 72.851 133.233 72.8512H125.494C125.424 72.8522 125.354 72.8396 125.289 72.8142C125.224 72.7888 125.165 72.751 125.115 72.7031C125.066 72.6553 125.026 72.5982 124.999 72.5354C124.973 72.4726 124.959 72.4051 124.959 72.3371V64.8169C124.959 64.5357 125.194 64.3086 125.494 64.3086H133.232C133.301 64.3086 133.369 64.3217 133.432 64.3473C133.496 64.3728 133.553 64.4103 133.602 64.4575C133.651 64.5047 133.689 64.5607 133.715 64.6224C133.742 64.6841 133.755 64.7502 133.755 64.8169H133.756ZM147.462 64.8169V72.3371C147.463 72.4043 147.449 72.4709 147.423 72.5332C147.397 72.5954 147.359 72.652 147.31 72.6998C147.262 72.7476 147.204 72.7855 147.14 72.8115C147.076 72.8375 147.008 72.851 146.939 72.8512H139.2C139.13 72.8521 139.06 72.8394 138.995 72.8139C138.931 72.7885 138.872 72.7507 138.822 72.7028C138.772 72.655 138.733 72.598 138.706 72.5352C138.679 72.4724 138.666 72.4051 138.666 72.3371V64.8169C138.666 64.5357 138.901 64.3086 139.2 64.3086H146.938C147.007 64.3085 147.075 64.3216 147.138 64.3471C147.202 64.3726 147.26 64.41 147.308 64.4572C147.357 64.5044 147.396 64.5605 147.422 64.6222C147.448 64.6839 147.462 64.7501 147.462 64.8169ZM161.168 64.8169V72.3371C161.168 72.4043 161.155 72.4709 161.129 72.5332C161.103 72.5954 161.065 72.652 161.016 72.6998C160.968 72.7476 160.91 72.7855 160.846 72.8115C160.782 72.8375 160.714 72.851 160.644 72.8512H152.905C152.836 72.8521 152.766 72.8394 152.701 72.8139C152.636 72.7885 152.577 72.7507 152.528 72.7028C152.478 72.655 152.439 72.598 152.412 72.5352C152.385 72.4724 152.372 72.4051 152.372 72.3371V64.8169C152.372 64.5357 152.607 64.3086 152.905 64.3086H160.644C160.713 64.3086 160.781 64.3217 160.845 64.3473C160.908 64.3728 160.966 64.4103 161.015 64.4575C161.063 64.5047 161.102 64.5607 161.128 64.6224C161.154 64.6841 161.168 64.7502 161.168 64.8169ZM92.6377 92.1043V99.6253C92.6381 99.6924 92.6249 99.7589 92.5989 99.8211C92.5728 99.8832 92.5343 99.9398 92.4857 99.9874C92.4371 100.035 92.3792 100.073 92.3155 100.099C92.2518 100.125 92.1834 100.138 92.1143 100.139H84.3753C84.3055 100.139 84.2361 100.127 84.1713 100.101C84.1065 100.076 84.0475 100.038 83.9979 99.9905C83.9482 99.9427 83.9088 99.8858 83.882 99.8231C83.8553 99.7604 83.8416 99.6932 83.8418 99.6253V92.1043C83.8418 91.8239 84.0756 91.5959 84.3753 91.5959H92.1134C92.1822 91.5959 92.2502 91.6091 92.3137 91.6346C92.3772 91.6602 92.4349 91.6976 92.4835 91.7448C92.5322 91.792 92.5707 91.8481 92.597 91.9097C92.6233 91.9714 92.6369 92.0375 92.6369 92.1043H92.6377ZM106.344 92.1043V99.6253C106.344 99.6924 106.331 99.7589 106.305 99.8211C106.279 99.8832 106.24 99.9398 106.192 99.9874C106.143 100.035 106.085 100.073 106.021 100.099C105.958 100.125 105.889 100.138 105.82 100.139H98.0812C98.0113 100.139 97.942 100.127 97.8771 100.101C97.8123 100.076 97.7534 100.038 97.7037 99.9905C97.6541 99.9427 97.6147 99.8858 97.5879 99.8231C97.5611 99.7604 97.5474 99.6932 97.5477 99.6253V92.1043C97.5477 91.8239 97.7824 91.5959 98.0812 91.5959H105.82C105.889 91.5959 105.957 91.6091 106.02 91.6346C106.084 91.6602 106.142 91.6976 106.19 91.7448C106.239 91.792 106.277 91.8481 106.304 91.9097C106.33 91.9714 106.344 92.0375 106.344 92.1043ZM120.049 92.1043V99.6253C120.05 99.6924 120.037 99.7589 120.011 99.8211C119.984 99.8832 119.946 99.9398 119.897 99.9874C119.849 100.035 119.791 100.073 119.727 100.099C119.663 100.125 119.595 100.138 119.526 100.139H111.788C111.718 100.14 111.648 100.127 111.584 100.102C111.519 100.076 111.46 100.039 111.41 99.9908C111.36 99.943 111.321 99.8861 111.294 99.8233C111.267 99.7606 111.253 99.6932 111.254 99.6253V92.1043C111.254 91.8239 111.488 91.5959 111.788 91.5959H119.526C119.595 91.5959 119.663 91.6091 119.726 91.6346C119.79 91.6602 119.848 91.6976 119.896 91.7448C119.945 91.792 119.983 91.8481 120.01 91.9097C120.036 91.9714 120.049 92.0375 120.049 92.1043ZM133.756 92.1043V99.6253C133.757 99.6924 133.743 99.7589 133.717 99.8211C133.691 99.8832 133.653 99.9398 133.604 99.9874C133.555 100.035 133.498 100.073 133.434 100.099C133.37 100.125 133.302 100.138 133.233 100.139H125.494C125.424 100.14 125.354 100.127 125.289 100.102C125.225 100.076 125.165 100.039 125.116 99.9908C125.066 99.943 125.027 99.8861 125 99.8233C124.973 99.7606 124.959 99.6932 124.959 99.6253V92.1043C124.959 91.8239 125.194 91.5959 125.494 91.5959H133.232C133.301 91.5959 133.369 91.6091 133.432 91.6346C133.496 91.6602 133.553 91.6976 133.602 91.7448C133.651 91.792 133.689 91.8481 133.715 91.9097C133.742 91.9714 133.755 92.0375 133.755 92.1043H133.756ZM147.462 92.1043V99.6253C147.462 99.6924 147.449 99.7589 147.423 99.8211C147.397 99.8832 147.359 99.9398 147.31 99.9874C147.261 100.035 147.204 100.073 147.14 100.099C147.076 100.125 147.008 100.138 146.939 100.139H139.2C139.13 100.139 139.06 100.127 138.996 100.101C138.931 100.076 138.872 100.038 138.822 99.9905C138.773 99.9427 138.733 99.8858 138.706 99.8231C138.68 99.7604 138.666 99.6932 138.666 99.6253V92.1043C138.666 91.8239 138.901 91.5959 139.2 91.5959H146.938C147.007 91.5958 147.075 91.6089 147.138 91.6344C147.202 91.6599 147.26 91.6973 147.308 91.7445C147.357 91.7917 147.396 91.8478 147.422 91.9096C147.448 91.9713 147.462 92.0375 147.462 92.1043ZM161.168 92.1043V99.6253C161.168 99.6924 161.155 99.7589 161.129 99.8211C161.103 99.8832 161.064 99.9398 161.016 99.9874C160.967 100.035 160.909 100.073 160.846 100.099C160.782 100.125 160.714 100.138 160.644 100.139H152.905C152.836 100.139 152.766 100.127 152.701 100.101C152.637 100.076 152.578 100.038 152.528 99.9905C152.478 99.9427 152.439 99.8858 152.412 99.8231C152.385 99.7604 152.372 99.6932 152.372 99.6253V92.1043C152.372 91.8239 152.607 91.5959 152.905 91.5959H160.644C160.713 91.5959 160.781 91.6091 160.845 91.6346C160.908 91.6602 160.966 91.6976 161.015 91.7448C161.063 91.792 161.102 91.8481 161.128 91.9097C161.154 91.9714 161.168 92.0375 161.168 92.1043ZM92.6377 106.376V113.897C92.6381 113.964 92.6249 114.03 92.5989 114.092C92.5728 114.155 92.5343 114.211 92.4857 114.259C92.4371 114.306 92.3792 114.344 92.3155 114.37C92.2518 114.396 92.1834 114.41 92.1143 114.41H84.3753C84.3055 114.411 84.2361 114.398 84.1713 114.373C84.1065 114.347 84.0475 114.31 83.9979 114.262C83.9482 114.214 83.9088 114.157 83.882 114.094C83.8553 114.032 83.8416 113.964 83.8418 113.897V106.376C83.8418 106.095 84.0756 105.867 84.3753 105.867H92.1134C92.1822 105.867 92.2502 105.88 92.3137 105.906C92.3772 105.931 92.4349 105.969 92.4835 106.016C92.5322 106.063 92.5707 106.119 92.597 106.181C92.6233 106.243 92.6369 106.309 92.6369 106.376H92.6377ZM106.344 106.376V113.897C106.344 113.964 106.331 114.03 106.305 114.092C106.279 114.155 106.24 114.211 106.192 114.259C106.143 114.306 106.085 114.344 106.021 114.37C105.958 114.396 105.889 114.41 105.82 114.41H98.0812C98.0113 114.411 97.942 114.398 97.8771 114.373C97.8123 114.347 97.7534 114.31 97.7037 114.262C97.6541 114.214 97.6147 114.157 97.5879 114.094C97.5611 114.032 97.5474 113.964 97.5477 113.897V106.376C97.5477 106.095 97.7824 105.867 98.0812 105.867H105.82C105.889 105.867 105.957 105.88 106.02 105.906C106.084 105.931 106.142 105.969 106.19 106.016C106.239 106.063 106.277 106.119 106.304 106.181C106.33 106.243 106.344 106.309 106.344 106.376ZM120.049 106.376V113.897C120.05 113.964 120.037 114.03 120.011 114.092C119.984 114.155 119.946 114.211 119.897 114.259C119.849 114.306 119.791 114.344 119.727 114.37C119.663 114.396 119.595 114.41 119.526 114.41H111.788C111.718 114.411 111.648 114.398 111.584 114.373C111.519 114.348 111.46 114.31 111.41 114.262C111.36 114.214 111.321 114.157 111.294 114.095C111.267 114.032 111.253 113.965 111.254 113.897V106.376C111.254 106.095 111.488 105.867 111.788 105.867H119.526C119.595 105.867 119.663 105.88 119.726 105.906C119.79 105.931 119.848 105.969 119.896 106.016C119.945 106.063 119.983 106.119 120.01 106.181C120.036 106.243 120.049 106.309 120.049 106.376ZM133.756 106.376V113.897C133.757 113.964 133.743 114.03 133.717 114.092C133.691 114.155 133.653 114.211 133.604 114.259C133.555 114.306 133.498 114.344 133.434 114.37C133.37 114.396 133.302 114.41 133.233 114.41H125.494C125.424 114.411 125.354 114.398 125.289 114.373C125.225 114.348 125.165 114.31 125.116 114.262C125.066 114.214 125.027 114.157 125 114.095C124.973 114.032 124.959 113.965 124.959 113.897V106.376C124.959 106.095 125.194 105.867 125.494 105.867H133.232C133.301 105.867 133.369 105.88 133.432 105.906C133.496 105.931 133.553 105.969 133.602 106.016C133.651 106.063 133.689 106.119 133.715 106.181C133.742 106.243 133.755 106.309 133.755 106.376H133.756ZM147.462 106.376V113.897C147.462 113.964 147.449 114.03 147.423 114.092C147.397 114.155 147.359 114.211 147.31 114.259C147.261 114.306 147.204 114.344 147.14 114.37C147.076 114.396 147.008 114.41 146.939 114.41H139.2C139.13 114.411 139.06 114.398 138.996 114.373C138.931 114.347 138.872 114.31 138.822 114.262C138.773 114.214 138.733 114.157 138.706 114.094C138.68 114.032 138.666 113.964 138.666 113.897V106.376C138.666 106.095 138.901 105.867 139.2 105.867H146.938C147.007 105.867 147.075 105.88 147.138 105.906C147.202 105.931 147.26 105.969 147.308 106.016C147.357 106.063 147.396 106.119 147.422 106.181C147.448 106.243 147.462 106.309 147.462 106.376ZM161.168 106.376V113.897C161.168 113.964 161.155 114.03 161.129 114.092C161.103 114.155 161.064 114.211 161.016 114.259C160.967 114.306 160.909 114.344 160.846 114.37C160.782 114.396 160.714 114.41 160.644 114.41H152.905C152.836 114.411 152.766 114.398 152.701 114.373C152.637 114.347 152.578 114.31 152.528 114.262C152.478 114.214 152.439 114.157 152.412 114.094C152.385 114.032 152.372 113.964 152.372 113.897V106.376C152.372 106.095 152.607 105.867 152.905 105.867H160.644C160.713 105.867 160.781 105.88 160.845 105.906C160.908 105.931 160.966 105.969 161.015 106.016C161.063 106.063 161.102 106.119 161.128 106.181C161.154 106.243 161.168 106.309 161.168 106.376ZM92.6377 120.648V128.168C92.6381 128.235 92.6249 128.302 92.5989 128.364C92.5728 128.426 92.5343 128.482 92.4857 128.53C92.4371 128.578 92.3792 128.616 92.3155 128.642C92.2518 128.668 92.1834 128.681 92.1143 128.681H84.3753C84.3055 128.682 84.2361 128.669 84.1713 128.644C84.1065 128.619 84.0475 128.581 83.9979 128.533C83.9482 128.485 83.9088 128.428 83.882 128.366C83.8553 128.303 83.8416 128.236 83.8418 128.168V120.647C83.8418 120.366 84.0756 120.139 84.3753 120.139H92.1134C92.1822 120.139 92.2502 120.152 92.3137 120.177C92.3772 120.203 92.4349 120.24 92.4835 120.287C92.5322 120.335 92.5707 120.391 92.597 120.452C92.6233 120.514 92.6369 120.58 92.6369 120.647L92.6377 120.648ZM106.344 120.648V128.168C106.344 128.235 106.331 128.302 106.305 128.364C106.279 128.426 106.24 128.482 106.192 128.53C106.143 128.578 106.085 128.616 106.021 128.642C105.958 128.668 105.889 128.681 105.82 128.681H98.0812C98.0113 128.682 97.942 128.669 97.8771 128.644C97.8123 128.619 97.7534 128.581 97.7037 128.533C97.6541 128.485 97.6147 128.428 97.5879 128.366C97.5611 128.303 97.5474 128.236 97.5477 128.168V120.647C97.5477 120.366 97.7824 120.139 98.0812 120.139H105.82C105.959 120.139 106.092 120.192 106.19 120.287C106.288 120.383 106.344 120.512 106.344 120.647V120.648ZM120.049 120.648V128.168C120.05 128.235 120.037 128.302 120.011 128.364C119.984 128.426 119.946 128.482 119.897 128.53C119.849 128.578 119.791 128.616 119.727 128.642C119.663 128.668 119.595 128.681 119.526 128.681H111.788C111.718 128.682 111.648 128.67 111.584 128.644C111.519 128.619 111.46 128.581 111.41 128.533C111.36 128.486 111.321 128.429 111.294 128.366C111.267 128.303 111.253 128.236 111.254 128.168V120.647C111.254 120.366 111.488 120.139 111.788 120.139H119.526C119.665 120.139 119.798 120.192 119.896 120.287C119.994 120.383 120.049 120.512 120.049 120.647V120.648ZM133.756 120.648V128.168C133.757 128.235 133.743 128.302 133.717 128.364C133.691 128.426 133.653 128.482 133.604 128.53C133.555 128.578 133.498 128.616 133.434 128.642C133.37 128.668 133.302 128.681 133.233 128.681H125.494C125.424 128.682 125.354 128.67 125.289 128.644C125.225 128.619 125.165 128.581 125.116 128.533C125.066 128.486 125.027 128.429 125 128.366C124.973 128.303 124.959 128.236 124.959 128.168V120.647C124.959 120.366 125.194 120.139 125.494 120.139H133.232C133.371 120.139 133.504 120.192 133.602 120.287C133.7 120.383 133.755 120.512 133.755 120.647L133.756 120.648ZM147.462 120.648V128.168C147.462 128.235 147.449 128.302 147.423 128.364C147.397 128.426 147.359 128.482 147.31 128.53C147.261 128.578 147.204 128.616 147.14 128.642C147.076 128.668 147.008 128.681 146.939 128.681H139.2C139.13 128.682 139.06 128.669 138.996 128.644C138.931 128.619 138.872 128.581 138.822 128.533C138.773 128.485 138.733 128.428 138.706 128.366C138.68 128.303 138.666 128.236 138.666 128.168V120.647C138.666 120.366 138.901 120.139 139.2 120.139H146.938C147.007 120.138 147.075 120.152 147.138 120.177C147.202 120.203 147.26 120.24 147.308 120.287C147.357 120.334 147.396 120.39 147.422 120.452C147.448 120.514 147.462 120.58 147.462 120.647V120.648ZM161.168 120.648V128.168C161.168 128.235 161.155 128.302 161.129 128.364C161.103 128.426 161.064 128.482 161.016 128.53C160.967 128.578 160.909 128.616 160.846 128.642C160.782 128.668 160.714 128.681 160.644 128.681H152.905C152.836 128.682 152.766 128.669 152.701 128.644C152.637 128.619 152.578 128.581 152.528 128.533C152.478 128.485 152.439 128.428 152.412 128.366C152.385 128.303 152.372 128.236 152.372 128.168V120.647C152.372 120.366 152.607 120.139 152.905 120.139H160.644C160.783 120.139 160.916 120.192 161.015 120.287C161.113 120.383 161.168 120.512 161.168 120.647V120.648ZM92.6377 134.919V142.439C92.6381 142.506 92.6249 142.573 92.5989 142.635C92.5728 142.697 92.5343 142.754 92.4857 142.801C92.4371 142.849 92.3792 142.887 92.3155 142.913C92.2518 142.939 92.1834 142.952 92.1143 142.952H84.3753C84.3055 142.953 84.2361 142.941 84.1713 142.915C84.1065 142.89 84.0475 142.852 83.9979 142.804C83.9482 142.757 83.9088 142.7 83.882 142.637C83.8553 142.574 83.8416 142.507 83.8418 142.439V134.919C83.8418 134.638 84.0756 134.41 84.3753 134.41H92.1134C92.1822 134.41 92.2502 134.423 92.3137 134.449C92.3772 134.474 92.4349 134.512 92.4835 134.559C92.5322 134.606 92.5707 134.662 92.597 134.724C92.6233 134.785 92.6369 134.851 92.6369 134.918L92.6377 134.919ZM106.344 134.919V142.439C106.344 142.506 106.331 142.573 106.305 142.635C106.279 142.697 106.24 142.754 106.192 142.801C106.143 142.849 106.085 142.887 106.021 142.913C105.958 142.939 105.889 142.952 105.82 142.952H98.0812C98.0113 142.953 97.942 142.941 97.8771 142.915C97.8123 142.89 97.7534 142.852 97.7037 142.804C97.6541 142.757 97.6147 142.7 97.5879 142.637C97.5611 142.574 97.5474 142.507 97.5477 142.439V134.919C97.5477 134.638 97.7824 134.41 98.0812 134.41H105.82C105.959 134.41 106.092 134.463 106.19 134.559C106.288 134.654 106.344 134.783 106.344 134.918V134.919ZM120.049 134.919V142.439C120.05 142.506 120.037 142.573 120.011 142.635C119.984 142.697 119.946 142.754 119.897 142.801C119.849 142.849 119.791 142.887 119.727 142.913C119.663 142.939 119.595 142.952 119.526 142.952H111.788C111.718 142.953 111.648 142.941 111.584 142.916C111.519 142.89 111.46 142.852 111.41 142.805C111.36 142.757 111.321 142.7 111.294 142.637C111.267 142.574 111.253 142.507 111.254 142.439V134.919C111.254 134.638 111.488 134.41 111.788 134.41H119.526C119.665 134.41 119.798 134.463 119.896 134.559C119.994 134.654 120.049 134.783 120.049 134.918V134.919ZM133.756 134.919V142.439C133.757 142.506 133.743 142.573 133.717 142.635C133.691 142.697 133.653 142.754 133.604 142.801C133.555 142.849 133.498 142.887 133.434 142.913C133.37 142.939 133.302 142.952 133.233 142.952H125.494C125.424 142.953 125.354 142.941 125.289 142.916C125.225 142.89 125.165 142.852 125.116 142.805C125.066 142.757 125.027 142.7 125 142.637C124.973 142.574 124.959 142.507 124.959 142.439V134.919C124.959 134.638 125.194 134.41 125.494 134.41H133.232C133.371 134.41 133.504 134.463 133.602 134.559C133.7 134.654 133.755 134.783 133.755 134.918L133.756 134.919ZM147.462 134.919V142.439C147.462 142.506 147.449 142.573 147.423 142.635C147.397 142.697 147.359 142.754 147.31 142.801C147.261 142.849 147.204 142.887 147.14 142.913C147.076 142.939 147.008 142.952 146.939 142.952H139.2C139.13 142.953 139.06 142.941 138.996 142.915C138.931 142.89 138.872 142.852 138.822 142.804C138.773 142.757 138.733 142.7 138.706 142.637C138.68 142.574 138.666 142.507 138.666 142.439V134.919C138.666 134.638 138.901 134.41 139.2 134.41H146.938C147.007 134.41 147.075 134.423 147.138 134.448C147.202 134.474 147.26 134.511 147.308 134.558C147.357 134.606 147.396 134.662 147.422 134.723C147.448 134.785 147.462 134.851 147.462 134.918V134.919ZM161.168 134.919V142.439C161.168 142.506 161.155 142.573 161.129 142.635C161.103 142.697 161.064 142.754 161.016 142.801C160.967 142.849 160.909 142.887 160.846 142.913C160.782 142.939 160.714 142.952 160.644 142.952H152.905C152.836 142.953 152.766 142.941 152.701 142.915C152.637 142.89 152.578 142.852 152.528 142.804C152.478 142.757 152.439 142.7 152.412 142.637C152.385 142.574 152.372 142.507 152.372 142.439V134.919C152.372 134.638 152.607 134.41 152.905 134.41H160.644C160.783 134.41 160.916 134.463 161.015 134.559C161.113 134.654 161.168 134.783 161.168 134.918V134.919ZM92.6377 149.19V156.711C92.6381 156.778 92.6249 156.844 92.5989 156.906C92.5728 156.968 92.5343 157.025 92.4857 157.073C92.4371 157.12 92.3792 157.158 92.3155 157.184C92.2518 157.21 92.1834 157.224 92.1143 157.224H84.3753C84.3055 157.225 84.2361 157.212 84.1713 157.187C84.1065 157.161 84.0475 157.123 83.9979 157.076C83.9482 157.028 83.9088 156.971 83.882 156.908C83.8553 156.846 83.8416 156.778 83.8418 156.711V149.19C83.8418 148.909 84.0756 148.682 84.3753 148.682H92.1134C92.1822 148.682 92.2502 148.695 92.3137 148.721C92.3772 148.746 92.4349 148.784 92.4835 148.831C92.5322 148.878 92.5707 148.934 92.597 148.996C92.6233 149.057 92.6369 149.124 92.6369 149.19H92.6377ZM106.344 149.19V156.711C106.344 156.778 106.331 156.844 106.305 156.906C106.279 156.968 106.24 157.025 106.192 157.073C106.143 157.12 106.085 157.158 106.021 157.184C105.958 157.21 105.889 157.224 105.82 157.224H98.0812C98.0113 157.225 97.942 157.212 97.8771 157.187C97.8123 157.161 97.7534 157.123 97.7037 157.076C97.6541 157.028 97.6147 156.971 97.5879 156.908C97.5611 156.846 97.5474 156.778 97.5477 156.711V149.19C97.5477 148.909 97.7824 148.682 98.0812 148.682H105.82C105.959 148.682 106.092 148.736 106.19 148.831C106.288 148.926 106.344 149.056 106.344 149.19ZM120.049 149.19V156.711C120.05 156.778 120.037 156.844 120.011 156.906C119.984 156.968 119.946 157.025 119.897 157.073C119.849 157.12 119.791 157.158 119.727 157.184C119.663 157.21 119.595 157.224 119.526 157.224H111.788C111.718 157.225 111.648 157.212 111.584 157.187C111.519 157.161 111.46 157.124 111.41 157.076C111.36 157.028 111.321 156.971 111.294 156.909C111.267 156.846 111.253 156.778 111.254 156.711V149.19C111.254 148.909 111.488 148.682 111.788 148.682H119.526C119.665 148.682 119.798 148.736 119.896 148.831C119.994 148.926 120.049 149.056 120.049 149.19ZM133.756 149.19V156.711C133.757 156.778 133.743 156.844 133.717 156.906C133.691 156.968 133.653 157.025 133.604 157.073C133.555 157.12 133.498 157.158 133.434 157.184C133.37 157.21 133.302 157.224 133.233 157.224H125.494C125.424 157.225 125.354 157.212 125.289 157.187C125.225 157.161 125.165 157.124 125.116 157.076C125.066 157.028 125.027 156.971 125 156.909C124.973 156.846 124.959 156.778 124.959 156.711V149.19C124.959 148.909 125.194 148.682 125.494 148.682H133.232C133.371 148.682 133.504 148.736 133.602 148.831C133.7 148.926 133.755 149.056 133.755 149.19H133.756ZM147.462 149.19V156.711C147.462 156.778 147.449 156.844 147.423 156.906C147.397 156.968 147.359 157.025 147.31 157.073C147.261 157.12 147.204 157.158 147.14 157.184C147.076 157.21 147.008 157.224 146.939 157.224H139.2C139.13 157.225 139.06 157.212 138.996 157.187C138.931 157.161 138.872 157.123 138.822 157.076C138.773 157.028 138.733 156.971 138.706 156.908C138.68 156.846 138.666 156.778 138.666 156.711V149.19C138.666 148.909 138.901 148.682 139.2 148.682H146.938C147.007 148.682 147.075 148.695 147.138 148.72C147.202 148.746 147.26 148.783 147.308 148.831C147.357 148.878 147.396 148.934 147.422 148.996C147.448 149.057 147.462 149.124 147.462 149.19ZM161.168 149.19V156.711C161.168 156.778 161.155 156.844 161.129 156.906C161.103 156.968 161.064 157.025 161.016 157.073C160.967 157.12 160.909 157.158 160.846 157.184C160.782 157.21 160.714 157.224 160.644 157.224H152.905C152.836 157.225 152.766 157.212 152.701 157.187C152.637 157.161 152.578 157.123 152.528 157.076C152.478 157.028 152.439 156.971 152.412 156.908C152.385 156.846 152.372 156.778 152.372 156.711V149.19C152.372 148.909 152.607 148.682 152.905 148.682H160.644C160.783 148.682 160.916 148.736 161.015 148.831C161.113 148.926 161.168 149.056 161.168 149.19Z" fill="white"/>
<path d="M30.6901 215.688L34.8437 218.456L37.259 217.423C37.259 217.423 37.3198 215.488 37.3679 212.616C37.3915 210.446 37.4278 208.511 37.4278 208.393C37.4278 208.101 31.222 208.452 30.9316 208.547C30.8109 208.582 30.7509 209.907 30.7264 211.502C30.6665 213.871 30.6901 215.477 30.6901 215.688Z" fill="#FEC9AC"/>
<path opacity="0.5" d="M30.7266 211.502C32.5903 212.361 34.6425 212.764 36.7036 212.674C36.9214 212.663 37.1511 212.651 37.368 212.616C37.3917 210.446 37.428 208.511 37.428 208.393C37.428 208.101 31.2221 208.452 30.9317 208.547C30.811 208.582 30.751 209.907 30.7266 211.502Z" fill="#FFAB90"/>
<path d="M28.6138 220.186C28.6695 220.55 28.9971 220.806 29.3804 220.806H48.0857C48.2445 220.806 48.3996 220.76 48.5307 220.673C48.6618 220.586 48.7627 220.462 48.8201 220.318C49.0987 219.582 49.4744 218.218 48.604 217.636C47.3909 216.83 44.8219 217.574 43.0499 216.357C41.2864 215.149 39.1716 211.033 36.6339 213.831C36.6339 213.831 34.5909 216.869 33.203 216.225C31.8142 215.582 30.7767 212.257 29.1085 213.529C28.2711 214.172 28.3428 218.62 28.6138 220.186Z" fill="#3A4146"/>
<path d="M47.1706 215.688L51.3242 218.456L53.7395 217.423C53.7395 217.423 53.8002 215.488 53.8492 212.616C53.8728 210.446 53.9083 208.511 53.9083 208.393C53.9083 208.101 47.7025 208.452 47.4129 208.547C47.2922 208.582 47.2314 209.907 47.2069 211.502C47.147 213.871 47.1706 215.477 47.1706 215.688Z" fill="#FEC9AC"/>
<path opacity="0.5" d="M47.2079 211.502C49.0716 212.361 51.1239 212.764 53.1849 212.674C53.4019 212.663 53.6315 212.651 53.8485 212.616C53.873 210.446 53.9093 208.511 53.9093 208.393C53.9093 208.101 47.7026 208.452 47.413 208.547C47.2923 208.582 47.2315 209.907 47.207 211.502H47.2079Z" fill="#FFAB90"/>
<path d="M45.0949 220.186C45.1507 220.55 45.4774 220.806 45.8606 220.806H64.566C64.7248 220.806 64.8799 220.76 65.011 220.673C65.1421 220.586 65.243 220.462 65.3004 220.318C65.579 219.582 65.9547 218.218 65.0852 217.636C63.872 216.83 61.3022 217.574 59.5302 216.357C57.7666 215.149 55.6519 211.033 53.1142 213.831C53.1142 213.831 51.0712 216.869 49.6833 216.225C48.2945 215.582 47.257 212.257 45.5888 213.529C44.7513 214.172 44.8231 218.62 45.0949 220.186Z" fill="#3A4146"/>
<path d="M28.6952 209.277C29.325 210.915 39.4775 211.479 40.0347 211.111C40.5835 210.727 44.1106 198.058 44.1106 198.058L44.813 211.111C44.7877 211.401 55.2695 212.133 56.6742 209.813C57.7481 208.019 58.2107 164.105 58.2766 150.731C58.2816 149.729 58.0047 149.746 58.0081 149.107V149.099C58.0165 148.182 58.0165 147.656 58.0165 147.633L29.7994 146.949C29.7994 146.949 29.2524 162.737 28.9214 178.101C28.6142 192.297 28.3963 208.493 28.6952 209.277Z" fill="#4285F4"/>
<path d="M44.8151 211.22L44.1093 198.168C44.1093 198.168 40.5805 210.836 40.0352 211.22L50.3287 155.436C51.7689 164.72 44.8151 211.22 44.8151 211.22Z" fill="#022E4F"/>
<path d="M85.6934 126.257C85.3844 127.257 72.1159 134.489 65.4229 135.626C64.9223 135.72 64.4732 135.72 64.0756 135.634C58.3906 134.368 55.7617 129.419 55.7617 129.419L59.7819 121.252L60.5037 119.793C60.6582 119.793 61.5201 120.558 62.5214 121.495C62.6539 121.631 62.794 121.767 62.9409 121.896C62.9409 121.896 62.9409 121.903 62.9494 121.903C64.0026 122.915 65.0455 123.938 66.078 124.971L84.9691 125.098C84.9691 125.098 86.0244 125.184 85.6934 126.256V126.257Z" fill="#FEC9AC"/>
<path opacity="0.5" d="M65.4229 135.628C64.9223 135.721 64.4732 135.721 64.0756 135.636C58.3906 134.369 55.7617 129.421 55.7617 129.421L59.7819 121.254L62.5214 121.497L62.8016 121.525C62.8016 121.525 62.8523 121.654 62.9409 121.898C62.9409 121.898 62.9409 121.904 62.9494 121.904C63.6847 123.878 66.9763 133.003 65.4229 135.628Z" fill="#FFAB90"/>
<path d="M57.1232 129.608H57.1156C57.1156 129.608 58.2671 150.28 58.2738 150.431C58.5786 155.668 29.8313 156.49 29.5418 151.253L30.4257 136.468L30.6629 132.558C30.6629 132.558 25.487 133.085 20.4588 132.162C20.0458 132.088 19.6348 132.004 19.2263 131.909C19.0405 131.866 18.8548 131.823 18.6775 131.772C18.6775 131.772 18.0756 127.279 19.8054 122.295C21.1494 118.4 23.9201 114.195 29.5122 111.643C30.3438 111.26 31.2429 110.913 32.2078 110.61C33.8338 110.099 35.6463 109.708 37.6733 109.479C42.5672 108.909 46.5705 109.183 49.8384 109.926L50.1052 109.991C51.3376 110.28 52.5444 110.663 53.7142 111.138C61.0294 114.145 63.1526 119.519 63.1526 119.519C63.1526 119.519 62.44 127.38 57.1232 129.608Z" fill="#5731EB"/>
<path d="M28.7411 129.926C28.7901 130.073 28.0413 130.546 26.3013 130.795C24.824 130.924 23.3018 130.781 21.8878 130.284C21.0723 129.952 20.5092 129.596 20.1909 129.235C19.8802 128.871 19.892 128.601 19.9714 128.574C20.0617 128.533 20.201 128.684 20.5252 128.864C20.8418 129.041 21.4091 129.272 22.1765 129.506C23.4589 129.957 24.8535 130.091 26.2254 129.971C27.853 129.887 28.6837 129.729 28.7411 129.926ZM49.0429 114.366C49.08 114.442 48.8242 114.664 48.229 114.974C47.6339 115.277 46.6926 115.671 45.3553 115.95C43.0844 116.362 40.6995 116.25 38.4868 115.568C37.1917 115.131 36.3138 114.605 35.7726 114.215C35.2323 113.816 35.0221 113.551 35.0736 113.482C35.2002 113.293 36.2758 114.07 38.7426 114.778C40.8193 115.418 43.0565 115.525 45.2017 115.136C47.7487 114.725 48.95 114.161 49.0429 114.366Z" fill="white"/>
<path d="M31.8077 123.505L30.6621 132.56C30.6621 132.56 30.4046 132.589 29.9336 132.625C28.4385 132.732 24.29 132.867 20.453 132.159C20.1897 132.094 19.9245 132.036 19.6578 131.987C19.5109 131.959 19.364 131.937 19.2238 131.909C19.0989 131.88 18.9664 131.851 18.8406 131.815C18.7815 131.801 18.7308 131.787 18.6717 131.773C18.6717 131.773 18.0749 127.281 19.8055 122.297C19.8055 122.297 21.293 126.752 25.6374 127.067C29.9741 127.367 31.8086 123.505 31.8086 123.505H31.8077Z" fill="#5731EB"/>
<path d="M163.45 149.109C162.024 149.109 160.867 150.184 160.867 151.511V185.252C160.867 186.578 162.024 187.653 163.45 187.653H171.3V149.109H163.45Z" fill="#FFAB90"/>
<path d="M210.148 149.109H171.301V187.653H210.148C211.575 187.653 212.731 186.578 212.731 185.252V151.511C212.731 150.184 211.575 149.109 210.148 149.109Z" fill="#FEC9AC"/>
<path d="M184.443 175.812H176.291V180.976H184.443V175.812Z" fill="white"/>
<path d="M197.968 149.109H186.062V158.146H197.968V149.109Z" fill="#FFAB90"/>
<path d="M135.964 187.652C134.64 187.652 133.566 188.65 133.566 189.881V221.2C133.566 222.431 134.64 223.429 135.964 223.429H143.25V187.652H135.964Z" fill="#FFAB90"/>
<path d="M179.312 187.652H143.254V223.429H179.312C180.636 223.429 181.71 222.431 181.71 221.2V189.881C181.71 188.65 180.636 187.652 179.312 187.652Z" fill="#FEC9AC"/>
<path d="M153.419 214.355H148.242V216.752H153.419V214.355Z" fill="white"/>
<path d="M168.003 187.652H156.953V196.041H168.003V187.652Z" fill="#FFAB90"/>
<path d="M194.282 187.652C192.958 187.652 191.885 188.65 191.885 189.881V221.2C191.885 222.431 192.958 223.429 194.282 223.429H201.568V187.652H194.282Z" fill="#FFAB90"/>
<path d="M237.631 187.652H201.572V223.429H237.631C238.955 223.429 240.028 222.431 240.028 221.2V189.881C240.028 188.65 238.955 187.652 237.631 187.652Z" fill="#FEC9AC"/>
<path d="M211.738 214.355H206.561V216.752H211.738V214.355Z" fill="white"/>
<path d="M226.322 187.652H215.271V196.041H226.322V187.652Z" fill="#FFAB90"/>
<path d="M52.4524 134.378L49.8379 135.273C49.9122 135.165 50.477 132.071 52.1401 132.712C52.7867 132.958 52.5411 134.3 52.4524 134.378Z" fill="#FEC9AC"/>
<path d="M58.2714 150.429C58.5762 155.666 29.8289 156.488 29.5393 151.251L30.4232 136.466L30.5498 136.185C30.5498 136.185 33.7199 133.235 34.5219 128.474C35.3171 123.706 29.5098 111.641 29.5098 111.641L32.2053 110.608C32.2053 110.608 38.6813 122.735 39.6767 123.2C40.8619 123.756 47.8546 122.749 50.947 122.114C51.9727 121.903 52.7012 121.002 52.6379 119.985C52.3804 115.841 49.8351 109.924 49.8351 109.924L50.1027 109.989L53.4374 110.739C53.526 110.854 53.6231 110.991 53.7118 111.136C56.3035 115.34 57.114 129.607 57.114 129.607C57.114 129.607 58.2646 150.278 58.2714 150.429Z" fill="#6273FF"/>
<path d="M85.3636 120.617V146.284C85.3627 146.44 85.2987 146.589 85.1855 146.699C85.0724 146.809 84.9191 146.871 84.7591 146.872H58.3672V120.035H84.7591C85.0909 120.035 85.3636 120.295 85.3636 120.617Z" fill="#FEC9AC"/>
<path d="M85.3636 144.331V146.364C85.3627 146.519 85.2987 146.668 85.1855 146.778C85.0724 146.888 84.9191 146.95 84.7591 146.951H58.3672V120.115H58.3841C58.6804 121.414 63.1049 139.012 85.3636 144.331Z" fill="#FFAB90"/>
<path d="M49.8379 135.274C49.8379 135.274 51.799 128.942 53.2924 130.813C54.7867 132.683 52.9851 133.744 52.9851 133.744L49.8379 135.274Z" fill="#FEC9AC"/>
<path d="M58.3645 146.87H53.8479C53.7271 146.87 53.6074 146.847 53.4958 146.802C53.3841 146.757 53.2827 146.691 53.1973 146.608C53.1118 146.525 53.044 146.427 52.9978 146.318C52.9515 146.21 52.9277 146.094 52.9277 145.976V120.926C52.9277 120.431 53.3397 120.031 53.8479 120.031H58.3645V146.87Z" fill="#EA7D20"/>
<path d="M61.6973 127.648H68.7296C68.8865 127.648 69.0371 127.587 69.1481 127.48C69.259 127.372 69.3214 127.226 69.3214 127.073V122.66C69.3215 122.584 69.3062 122.509 69.2765 122.439C69.2468 122.369 69.2031 122.306 69.1481 122.252C69.093 122.199 69.0276 122.156 68.9557 122.128C68.8837 122.099 68.8066 122.084 68.7287 122.084H61.6973C61.6195 122.084 61.5425 122.099 61.4706 122.128C61.3987 122.157 61.3335 122.199 61.2785 122.253C61.2235 122.306 61.18 122.37 61.1503 122.439C61.1206 122.509 61.1054 122.584 61.1055 122.66V127.073C61.1055 127.39 61.3706 127.648 61.6973 127.648Z" fill="white"/>
<path d="M56.4004 124.463H54.8926V120.033H56.4004V124.463Z" fill="#EE984F"/>
<path d="M68.3887 124.055H62.0444V123.702H68.3887V124.055Z" fill="#BBCAEA"/>
<path d="M68.3887 125.043H62.0444V124.69H68.3887V125.043Z" fill="#BBCAEA"/>
<path d="M66.3418 125.678H68.3882V126.03H66.3418V125.678Z" fill="#BBCAEA"/>
<path d="M60.9885 144.122H71.3943C71.478 144.122 71.5583 144.09 71.6175 144.032C71.6767 143.975 71.71 143.897 71.71 143.815V140.717C71.71 140.635 71.6767 140.557 71.6175 140.5C71.5583 140.442 71.478 140.41 71.3943 140.41H60.9885C60.9469 140.41 60.9058 140.418 60.8674 140.433C60.829 140.449 60.7941 140.471 60.7646 140.5C60.7352 140.528 60.7119 140.562 60.696 140.599C60.6801 140.637 60.6719 140.676 60.6719 140.717V143.815C60.6719 143.984 60.8137 144.122 60.9885 144.122Z" fill="white"/>
<path d="M71.0645 143.477H69.7838V141.053H71.0645V143.477Z" fill="#E4ECF9"/>
<path d="M68.5959 141.055H69.2696V143.478H68.5959V141.055ZM66.7344 141.055H67.9754V143.478H66.7344V141.055Z" fill="#E4ECF9"/>
<path d="M52.9872 133.741C52.9872 133.741 58.0146 130.906 57.8634 135.925C57.6254 143.786 50.6707 140.048 50.6707 140.048C50.6707 140.048 36.6061 149.624 23.0015 145.621C19.5183 144.596 18.1152 135.43 18.8429 131.816C18.9695 131.852 19.1029 131.881 19.2211 131.91C19.3629 131.931 19.5115 131.953 19.6601 131.982C19.9269 132.033 20.1945 132.09 20.4537 132.155C24.294 132.862 29.171 132.668 30.6636 132.56C30.6526 132.619 30.5513 136.182 30.5513 136.182C32.2744 138.772 49.84 135.12 49.84 135.271L52.9872 133.741Z" fill="#FEC9AC"/>
<path d="M41.457 94.4378C41.2729 94.4575 37.1008 100.099 36.986 100.099L34.0515 99.1621C34.0515 99.1621 31.2149 96.3335 32.6147 93.1604C34.0076 89.9866 38.1949 88.1426 38.1949 88.1426L41.5313 90.8155C41.5313 90.8155 41.6326 94.4116 41.457 94.4378Z" fill="#2E363A"/>
<path d="M35.9046 109.861C35.8227 109.369 36.959 108.692 37.4782 105.987C37.4874 105.954 37.4925 105.921 37.4934 105.887C37.5905 105.353 37.6639 104.739 37.7011 104.04C37.8868 100.578 43.5388 103.564 43.5388 103.564L45.1505 106.211C45.1505 106.211 45.1505 106.369 45.1572 106.629C45.1657 106.665 45.1657 106.701 45.1657 106.738C45.1724 106.824 45.1724 106.925 45.18 107.033C45.2247 107.754 45.3429 108.837 45.6553 109.709C46.7469 112.752 36.5285 113.647 35.9046 109.861Z" fill="#FEC9AC"/>
<path opacity="0.5" d="M45.1803 107.033C44.6674 107.358 44.0909 107.576 43.4868 107.675C40.8208 108.122 38.8377 107.163 37.4785 105.987C37.4877 105.954 37.4928 105.921 37.4937 105.887C37.5908 105.353 37.6642 104.739 37.7014 104.04C37.8871 100.578 43.5391 103.564 43.5391 103.564L45.1508 106.211C45.1508 106.211 45.1508 106.369 45.1575 106.629C45.166 106.665 45.166 106.701 45.166 106.738C45.1727 106.824 45.1727 106.925 45.1803 107.033Z" fill="#FFAB90"/>
<path d="M36.0426 102.246C36.0426 102.246 32.7654 100.844 34.3179 98.6962C35.1773 97.5065 36.2292 98.3092 36.7762 98.8872C36.9299 99.0488 37.2068 98.9717 37.2473 98.7552C37.5892 96.9465 38.826 91.4548 41.3536 90.589C44.3886 89.551 47.7629 90.0568 48.8452 91.6967C51.0106 94.9763 50.2516 106.031 44.4232 107.003C38.5947 107.974 36.0426 102.246 36.0426 102.246Z" fill="#FEC9AC"/>
<path d="M50.8283 91.1287V91.5985C49.6584 91.9267 48.4732 92.2011 47.2767 92.4209L47.1053 91.6846C46.3767 87.0284 43.9395 83.2461 41.6348 83.1953C46.7186 83.2388 50.8291 86.7685 50.8291 91.1287H50.8283Z" fill="#D32118"/>
<path d="M47.2744 92.4209C44.6945 92.9047 41.9373 93.1793 39.0458 93.3089C38.4144 93.3376 37.782 93.3663 37.143 93.3745C35.8344 93.4032 34.4972 93.4097 33.1448 93.3884C32.9754 93.3872 32.8116 93.329 32.6814 93.2238C32.5512 93.1185 32.4625 92.9727 32.4305 92.8112C32.3267 92.2479 32.2305 91.5551 32.2305 91.1287C32.2305 86.7758 36.3249 83.2535 41.4096 83.2027C41.4687 83.1953 41.5211 83.1953 41.5802 83.1953H41.6325C43.9372 83.2461 46.3745 87.0284 47.103 91.6846L47.2744 92.4209Z" fill="#D32118"/>
<path d="M47.2734 92.4209C44.6935 92.9047 41.9363 93.1793 39.0449 93.3089C38.9119 92.7721 38.8004 92.2306 38.7105 91.6854C37.9972 87.1153 39.2086 83.3904 41.4087 83.2027C41.4678 83.1953 41.5201 83.1953 41.5792 83.1953H41.6315C43.9363 83.2461 46.3735 87.0284 47.1021 91.6846L47.2734 92.4209Z" fill="#D32118"/>
<path d="M55.5454 94.0663C55.8451 95.0559 50.8304 93.3538 46.958 95.8414C43.8192 97.8543 37.9418 93.8359 37.1406 93.3735C42.1477 93.2546 46.7883 92.747 50.8304 91.5918C50.8304 91.5918 55.2128 92.9774 55.5454 94.0663Z" fill="#6273FF"/>
<path d="M42.088 83.298C42.1319 83.9096 39.4067 84.0916 39.3637 83.48C39.3198 82.8683 39.8955 82.337 40.6477 82.287C41.3999 82.237 42.0449 82.6863 42.088 83.298Z" fill="#2E363A"/>
<path d="M45.8981 104.754C45.9117 104.798 45.5655 104.962 44.8437 104.865C44.2447 104.75 43.6833 104.495 43.2076 104.123C42.6673 103.666 42.5221 103.34 42.5635 103.311C42.6184 103.266 42.8471 103.518 43.3824 103.907C43.8264 104.247 44.3448 104.494 44.8969 104.595C45.5444 104.731 45.8889 104.681 45.8981 104.754ZM44.8403 102.776C44.853 102.747 44.9611 102.768 45.1696 102.797C45.373 102.822 45.6964 102.87 46.0704 102.751C46.2249 102.706 46.3886 102.624 46.4511 102.527C46.5161 102.437 46.4899 102.289 46.4317 102.125C46.3095 101.781 46.2117 101.429 46.1388 101.072C45.9986 100.22 46.078 99.7915 46.1312 99.7915C46.2021 99.7891 46.2325 100.208 46.4173 101.019C46.4874 101.366 46.5828 101.703 46.7018 102.039C46.7576 102.205 46.8352 102.449 46.6909 102.675C46.5431 102.879 46.3447 102.951 46.1539 103.015C45.8137 103.1 45.4542 103.08 45.1265 102.956C44.9155 102.876 44.8294 102.803 44.8403 102.776ZM48.9407 96.2151C48.9069 96.2733 48.7229 96.1979 48.3574 96.1741C48.0499 96.1359 47.7381 96.1988 47.4718 96.3528C47.1628 96.5176 47.1341 96.7013 47.0665 96.698C47.0049 96.7243 46.9298 96.3996 47.3181 96.1216C47.644 95.9257 48.023 95.8593 48.3903 95.9003C48.825 95.9863 48.9719 96.1725 48.9407 96.2151ZM43.7361 97.1424C43.715 97.2039 43.5394 97.1793 43.2093 97.1875C42.9294 97.1751 42.6503 97.2256 42.3938 97.3351C42.0705 97.4376 41.9928 97.5352 41.9295 97.5212C41.8535 97.513 41.927 97.2424 42.279 97.0834C42.5745 96.9555 42.8995 96.8989 43.222 96.9112C43.6036 96.9579 43.7564 97.0916 43.7361 97.1424Z" fill="#4F2D2B"/>
<path d="M48.029 99.7889C48.2985 99.7889 48.5169 99.4317 48.5169 98.9911C48.5169 98.5505 48.2985 98.1934 48.029 98.1934C47.7595 98.1934 47.541 98.5505 47.541 98.9911C47.541 99.4317 47.7595 99.7889 48.029 99.7889Z" fill="#4F2D2B"/>
<path d="M43.2477 99.8592C43.5172 99.8592 43.7357 99.502 43.7357 99.0614C43.7357 98.6208 43.5172 98.2637 43.2477 98.2637C42.9782 98.2637 42.7598 98.6208 42.7598 99.0614C42.7598 99.502 42.9782 99.8592 43.2477 99.8592Z" fill="#4F2D2B"/>
<path d="M35.8451 100.955C35.7986 101.036 35.4491 101.078 34.9553 100.587C34.5686 100.107 34.615 99.3608 35.0616 98.923C35.3259 98.6631 35.7488 98.6426 35.9109 98.7853C36.0882 98.9165 36.0603 99.0509 36.008 99.0698C35.8881 99.1206 35.7125 98.9902 35.4685 99.3075C35.2237 99.5519 35.1815 99.9831 35.4128 100.261C35.6627 100.641 35.9244 100.842 35.8451 100.955Z" fill="#FFAB90"/>
<path d="M208.901 123.96C215.442 123.96 220.745 118.81 220.745 112.456C220.745 106.103 215.442 100.953 208.901 100.953C202.36 100.953 197.057 106.103 197.057 112.456C197.057 118.81 202.36 123.96 208.901 123.96Z" fill="#FD6500"/>
<path d="M208.904 120.479C213.467 120.479 217.166 116.887 217.166 112.455C217.166 108.024 213.467 104.432 208.904 104.432C204.341 104.432 200.643 108.024 200.643 112.455C200.643 116.887 204.341 120.479 208.904 120.479Z" fill="white"/>
<path d="M208.846 109.64C207.698 109.643 206.561 109.42 205.505 108.983C204.449 108.546 203.495 107.905 202.701 107.1C202.644 107.039 202.614 106.96 202.616 106.878C202.619 106.796 202.654 106.719 202.715 106.662C202.775 106.605 202.857 106.574 202.941 106.574C203.025 106.575 203.106 106.607 203.166 106.665C203.899 107.41 204.781 108.003 205.758 108.406C206.735 108.81 207.786 109.016 208.847 109.013C209.91 109.017 210.962 108.81 211.94 108.407C212.918 108.003 213.801 107.411 214.536 106.665C214.595 106.607 214.676 106.575 214.76 106.574C214.845 106.574 214.926 106.605 214.986 106.662C215.047 106.719 215.083 106.796 215.085 106.878C215.088 106.96 215.057 107.039 215 107.1C214.205 107.906 213.25 108.547 212.192 108.984C211.134 109.42 209.996 109.644 208.846 109.64ZM214.769 118.24C214.725 118.24 214.682 118.232 214.641 118.215C214.601 118.199 214.565 118.174 214.535 118.144C213.802 117.395 212.919 116.8 211.941 116.395C210.963 115.99 209.91 115.783 208.846 115.787C207.784 115.783 206.733 115.99 205.756 116.396C204.779 116.801 203.898 117.396 203.166 118.144C203.137 118.174 203.102 118.199 203.063 118.216C203.024 118.234 202.982 118.243 202.939 118.245C202.897 118.246 202.854 118.239 202.814 118.224C202.774 118.209 202.737 118.187 202.706 118.158C202.675 118.129 202.651 118.095 202.634 118.056C202.616 118.018 202.607 117.977 202.607 117.936C202.606 117.894 202.614 117.853 202.63 117.814C202.646 117.775 202.67 117.74 202.7 117.711C203.492 116.902 204.446 116.258 205.502 115.82C206.559 115.381 207.697 115.157 208.846 115.16C209.997 115.156 211.136 115.38 212.194 115.818C213.253 116.257 214.208 116.901 215.001 117.71C215.045 117.754 215.074 117.81 215.086 117.871C215.097 117.931 215.09 117.993 215.065 118.05C215.04 118.106 214.999 118.155 214.946 118.188C214.894 118.222 214.832 118.24 214.769 118.241V118.24ZM217.046 112.714H200.639C200.553 112.714 200.471 112.681 200.411 112.622C200.35 112.563 200.316 112.483 200.316 112.4C200.316 112.317 200.35 112.238 200.411 112.179C200.471 112.12 200.553 112.087 200.639 112.087H217.046C217.132 112.087 217.214 112.12 217.274 112.179C217.335 112.238 217.369 112.317 217.369 112.4C217.369 112.483 217.335 112.563 217.274 112.622C217.214 112.681 217.132 112.714 217.046 112.714Z" fill="#FD6500"/>
<path d="M208.902 120.789C206.834 120.789 205.213 117.127 205.213 112.452C205.213 107.777 206.834 104.115 208.902 104.115C210.97 104.115 212.591 107.777 212.591 112.452C212.591 117.127 210.971 120.789 208.902 120.789ZM208.902 104.742C207.432 104.742 205.858 107.839 205.858 112.452C205.858 117.064 207.432 120.162 208.902 120.162C210.372 120.162 211.947 117.064 211.947 112.452C211.947 107.839 210.373 104.742 208.902 104.742Z" fill="#FD6500"/>
<path d="M209.29 56.5878C210.628 56.5878 211.712 55.535 211.712 54.2363C211.712 52.9376 210.628 51.8848 209.29 51.8848C207.953 51.8848 206.869 52.9376 206.869 54.2363C206.869 55.535 207.953 56.5878 209.29 56.5878Z" fill="#BBCAEA"/>
<path d="M55.6478 80.8553C56.985 80.8553 58.069 79.8025 58.069 78.5038C58.069 77.2051 56.985 76.1523 55.6478 76.1523C54.3106 76.1523 53.2266 77.2051 53.2266 78.5038C53.2266 79.8025 54.3106 80.8553 55.6478 80.8553Z" fill="#BBCAEA"/>
<path d="M56.7885 64.9681C62.8903 64.9681 67.8368 60.164 67.8368 54.2379C67.8368 48.3119 62.8903 43.5078 56.7885 43.5078C50.6867 43.5078 45.7402 48.3119 45.7402 54.2379C45.7402 60.164 50.6867 64.9681 56.7885 64.9681Z" fill="#F3F6FD"/>
<path d="M61.8643 52.3046C61.8643 57.1626 56.7872 61.7991 56.7872 61.7991C56.7872 61.7991 51.7109 57.1626 51.7109 52.3046C51.7109 49.5825 53.9844 47.377 56.7872 47.377C57.4537 47.3766 58.1138 47.5038 58.7296 47.7513C59.3455 47.9988 59.9051 48.3618 60.3765 48.8194C60.8479 49.277 61.2219 49.8203 61.477 50.4183C61.7322 51.0163 61.8635 51.6573 61.8635 52.3046H61.8643Z" fill="#7CD194"/>
<path d="M56.7895 55.0829C58.3258 55.0829 59.5712 53.8733 59.5712 52.3813C59.5712 50.8892 58.3258 49.6797 56.7895 49.6797C55.2532 49.6797 54.0078 50.8892 54.0078 52.3813C54.0078 53.8733 55.2532 55.0829 56.7895 55.0829Z" fill="#F3F6FD"/>
</svg>
